<?xml version="1.0" encoding="utf-8"?>
<!-- Generator: Adobe Illustrator 26.3.1, SVG Export Plug-In . SVG Version: 6.00 Build 0)  -->
<svg version="1.1" id="Layer_1" xmlns="http://www.w3.org/2000/svg" xmlns:xlink="http://www.w3.org/1999/xlink" x="0px" y="0px"
	 viewBox="0 0 56.7 56.7" style="enable-background:new 0 0 56.7 56.7;" xml:space="preserve">
<style type="text/css">
	.st0{opacity:0.23;}
	.st1{opacity:0.49;}
</style>
<polygon points="43.6,14.2 54.4,21.9 48.5,27.3 31,43.3 "/>
<polygon class="st0" points="54.6,31.9 30.4,54.1 30.4,44.8 54.6,22.7 "/>
<polygon points="24.9,40.2 12.5,31.5 7.8,28.2 15.3,25.3 27.5,34 "/>
<polygon points="22,22.6 34.5,17.7 30,28.1 29.4,27.8 "/>
<path class="st1" d="M28.3,33.9C28.3,33.9,28.3,33.9,28.3,33.9C28.3,33.8,28.3,33.8,28.3,33.9C28.3,33.8,28.3,33.8,28.3,33.9
	c0-0.1,0-0.1,0-0.1c0,0,0,0,0,0c0,0,0,0,0,0c0,0,0,0,0,0c0,0,0,0,0,0c0,0,0,0,0,0c0,0,0,0,0,0c0,0,0,0,0,0l-6.5-4.7v-5.7l6.9,4.8
	l1.3,0.9v9.4l-1.5-1.1L28.3,33.9C28.3,33.9,28.3,33.9,28.3,33.9z"/>
<polygon class="st0" points="30.5,37.3 30.5,28.8 31.7,25.9 34.8,18.7 34.8,27.1 "/>
<polygon points="26.9,2.3 37.5,9.8 16.5,18.2 3.5,23.4 "/>
<path class="st0" d="M2.1,34.2v-9.5l17.8-7.1l18-7.2v9.4l-2.5,1V17c0,0,0,0,0-0.1c0,0,0,0,0,0c0,0,0-0.1,0-0.1c0,0,0,0,0,0
	c0,0,0-0.1-0.1-0.1c0,0,0,0,0,0c0,0,0,0,0,0c0,0,0,0-0.1-0.1c0,0,0,0,0,0c0,0-0.1,0-0.1,0c0,0,0,0,0,0c0,0,0,0,0,0c0,0-0.1,0-0.1,0
	c0,0,0,0,0,0c0,0-0.1,0-0.1,0c0,0,0,0,0,0l-13.9,5.5c0,0,0,0,0,0c0,0,0,0,0,0c0,0,0,0,0,0c0,0,0,0,0,0c0,0,0,0,0,0c0,0,0,0,0,0
	c0,0,0,0,0,0c0,0,0,0,0,0c0,0,0,0,0,0.1c0,0,0,0,0,0c0,0,0,0,0,0c0,0,0,0,0,0v4.1l-1.5,0.6l-3.8-2.7c-0.1-0.1-0.2-0.1-0.3,0
	l-8.4,3.2c0,0,0,0,0,0c0,0,0,0,0,0c0,0,0,0,0,0c0,0,0,0,0,0c0,0,0,0,0,0c0,0,0,0,0,0c0,0,0,0,0,0c0,0,0,0,0,0c0,0,0,0,0,0.1
	c0,0,0,0,0,0c0,0,0,0,0,0c0,0,0,0,0,0v4.3L2.1,34.2z"/>
<polygon class="st1" points="7.4,28.8 18.5,36.6 24.7,41 24.7,50.5 7.4,38.1 "/>
<polygon class="st0" points="25.4,49.4 25.4,40.8 26.8,37.5 27.6,35.6 27.6,43.9 "/>
</svg>
