<?xml version="1.0" encoding="utf-8"?>
<!-- Generator: Adobe Illustrator 26.3.1, SVG Export Plug-In . SVG Version: 6.00 Build 0)  -->
<svg version="1.1" id="Layer_1" xmlns="http://www.w3.org/2000/svg" xmlns:xlink="http://www.w3.org/1999/xlink" x="0px" y="0px"
	 viewBox="0 0 56.7 56.7" style="enable-background:new 0 0 56.7 56.7;" xml:space="preserve">
<g>
	<polygon points="29.8,52.1 28.4,55.3 26.9,52.1 26.9,44.4 29.8,44.4 	"/>
	<path d="M37,9.2c-4.2,0-7.7,0.5-8.6,1.3c-0.9-0.7-4.4-1.3-8.6-1.3V11c4.2,0,7.7,3,8.6,6.9c0.9-4,4.4-6.9,8.6-6.9V9.2z"/>
	<polygon points="30.7,12.2 26,12.2 24.4,1.4 26.7,4.2 28.3,1.4 29.8,4.2 32.3,1.4 	"/>
	<path d="M26.8,20.5L28,31.8c0.1,0.6-0.2,1.1-0.7,1.4l-4.2,2.6L26.8,20.5z"/>
	<path d="M29.9,20.9l-1.1,8.7c-0.1,0.6,0.3,1.3,0.8,1.5l4,2L29.9,20.9z"/>
	<g>
		<path d="M39.2,13.3c-2.9-0.2-5.5,0.9-7.3,2.8c-1.4,1.6-2.1,3.7-2.1,5.8l0,22.4c0,0,16-9.4,17.4-20.7
			C47.8,18.6,44.3,13.7,39.2,13.3z"/>
		<path d="M24.8,16.1c-1.8-1.9-4.4-3.1-7.3-2.8c-5.1,0.4-8.6,5.3-8,10.4c1.4,11.3,17.4,20.7,17.4,20.7l0-22.4
			C26.9,19.8,26.2,17.7,24.8,16.1z"/>
	</g>
</g>
</svg>
