<?xml version="1.0" encoding="utf-8"?>
<!-- Generator: Adobe Illustrator 26.3.1, SVG Export Plug-In . SVG Version: 6.00 Build 0)  -->
<svg version="1.1" id="Layer_1" xmlns="http://www.w3.org/2000/svg" xmlns:xlink="http://www.w3.org/1999/xlink" x="0px" y="0px"
	 viewBox="0 0 56.7 56.7" style="enable-background:new 0 0 56.7 56.7;" xml:space="preserve">
<path d="M28.3,1.4C13.5,1.4,1.4,13.5,1.4,28.3c0,14.9,12.1,26.9,26.9,26.9s26.9-12.1,26.9-26.9C55.3,13.5,43.2,1.4,28.3,1.4z
	 M35.5,28.2h-4.7c0,7.5,0,16.6,0,16.6h-6.9c0,0,0-9.1,0-16.6h-3.3v-5.9h3.3v-3.8c0-2.7,1.3-7,7-7l5.1,0v5.7c0,0-3.1,0-3.7,0
	c-0.6,0-1.5,0.3-1.5,1.6v3.5h5.3L35.5,28.2z"/>
</svg>
