<?xml version="1.0" encoding="utf-8"?>
<!-- Generator: Adobe Illustrator 26.3.1, SVG Export Plug-In . SVG Version: 6.00 Build 0)  -->
<svg version="1.1" id="Layer_1" xmlns="http://www.w3.org/2000/svg" xmlns:xlink="http://www.w3.org/1999/xlink" x="0px" y="0px"
	 viewBox="0 0 56.7 56.7" style="enable-background:new 0 0 56.7 56.7;" xml:space="preserve">
<style type="text/css">
	.st0{fill:#FF0241;}
	.st1{fill:#231F20;}
	.st2{fill:#FFFFFF;}
</style>
<rect class="st0" width="56.7" height="56.7"/>
<g>
	<path class="st1" d="M30.1,29.1c-10.6,0-14.8-1.6-19.1-3.8c-1.9-1-5.2-3-9.6,2.3c0.7,0.2,2.3,0.7,3.1,2.2c2.1,3.7,6.9,8.2,14.4,7.9
		c2.6-0.1,5.2-0.5,7.6-1.3l21.8-7.2H30.1z"/>
	<path class="st2" d="M33.7,41.2c-0.2-0.2-0.2-0.6,0.1-0.8l1.4-1.2c0.2-0.2,0.6-0.2,0.8,0.1l0.7,0.8c0.2,0.2,0.2,0.6-0.1,0.8l-1.2,1
		c0.6,0.2,1.2,0.5,1.7,0.7l0.5-0.4c0.2-0.2,0.6-0.2,0.8,0.1l0.7,0.8c0.1,0.1,0.1,0.2,0.1,0.4c2.2,0.9,4,1.6,4,1.6L21.6,18.7
		l-9.8,8.1c-1.6,1.2-3.5,1.7-5.5,1.7c-2,0-4.4-0.8-4.2-0.7c0.7,0.3,1.7,0.8,2.4,2c2.1,3.7,6.9,8.2,14.4,7.9
		c3.7-0.1,7.3,0.6,10.7,1.9C29.7,39.6,31.5,40.4,33.7,41.2L33.7,41.2z M19.8,24.2l-0.7-0.8c-0.2-0.2-0.2-0.6,0.1-0.8l1.4-1.2
		c0.2-0.2,0.6-0.2,0.8,0.1l0.7,0.8c0.2,0.2,0.2,0.6-0.1,0.8l-1.4,1.2C20.3,24.5,20,24.5,19.8,24.2 M22.2,27.2l-0.7-0.8
		c-0.2-0.2-0.2-0.6,0.1-0.8l1.4-1.2c0.2-0.2,0.6-0.2,0.8,0.1l0.7,0.8c0.2,0.2,0.2,0.6-0.1,0.8L23,27.3
		C22.7,27.5,22.4,27.4,22.2,27.2 M24.6,30.2l-0.7-0.8c-0.2-0.2-0.2-0.6,0.1-0.8l1.4-1.2c0.2-0.2,0.6-0.2,0.8,0.1l0.7,0.8
		c0.2,0.2,0.2,0.6-0.1,0.8l-1.4,1.2C25.2,30.4,24.8,30.4,24.6,30.2 M27.1,33.1l-0.7-0.8c-0.2-0.2-0.2-0.6,0.1-0.8l1.4-1.2
		c0.2-0.2,0.6-0.2,0.8,0.1l0.7,0.8c0.2,0.2,0.2,0.6-0.1,0.8l-1.4,1.2C27.6,33.4,27.3,33.4,27.1,33.1 M29.5,36.1l-0.7-0.8
		c-0.2-0.2-0.2-0.6,0.1-0.8l1.4-1.2c0.2-0.2,0.6-0.2,0.8,0.1l0.7,0.8c0.2,0.2,0.2,0.6-0.1,0.8l-1.4,1.2C30,36.4,29.7,36.3,29.5,36.1
		 M31.9,39.1l-0.7-0.8c-0.2-0.2-0.2-0.6,0.1-0.8l1.4-1.2c0.2-0.2,0.6-0.2,0.8,0.1l0.7,0.8c0.2,0.2,0.2,0.6-0.1,0.8l-1.4,1.2
		C32.5,39.3,32.1,39.3,31.9,39.1"/>
	<path class="st1" d="M37.6,6.8c0.4-0.3,0.7-0.2,1,0.1l0.6,0.8c0.3,0.4,0.3,0.7-0.1,1c-0.4,0.3-0.7,0.2-1-0.1l-0.6-0.8
		C37.2,7.4,37.2,7.1,37.6,6.8 M37.2,6.3c-0.7,0.5-0.7,1.2-0.3,1.8L37.6,9c0.5,0.6,1.1,0.7,1.8,0.2s0.7-1.2,0.3-1.8l-0.6-0.8
		C38.6,6,37.9,5.8,37.2,6.3 M35.6,7.7L35.2,8c0,0,0,0.1,0,0.1l2,2.6c0,0,0.1,0,0.1,0l0.4-0.3c0,0,0-0.1,0-0.1L35.6,7.7
		C35.7,7.7,35.6,7.7,35.6,7.7 M33.8,9.7c0.4-0.3,0.8-0.3,1.1,0.1l0.5,0.7c0.3,0.4,0.3,0.7-0.2,1l-0.4,0.3l-1.4-1.8L33.8,9.7z
		 M33.5,9.3l-0.8,0.7c0,0,0,0.1,0,0.1l2,2.6c0,0,0.1,0,0.1,0l0.8-0.7c0.7-0.6,0.7-1.3,0.3-1.8l-0.6-0.7C34.9,8.9,34.2,8.7,33.5,9.3
		 M31.9,10.5l-0.4,0.3c0,0,0,0.1,0,0.1l1.3,1.7c0.3,0.3,0.3,0.7-0.1,1c-0.4,0.3-0.7,0.2-0.9-0.2l-1.3-1.7c0,0-0.1,0-0.1,0L30,12
		c0,0,0,0.1,0,0.1l1.3,1.7c0.5,0.6,1.1,0.7,1.8,0.2c0.7-0.5,0.7-1.2,0.2-1.7L31.9,10.5C32,10.5,31.9,10.5,31.9,10.5 M29.5,12.4
		l-1.9,1.5c0,0,0,0.1,0,0.1l0.3,0.3c0,0,0.1,0,0.1,0l0.7-0.6l1.7,2.2c0,0,0.1,0,0.1,0l0.4-0.3c0,0,0-0.1,0-0.1l-1.7-2.2l0.7-0.6
		c0,0,0-0.1,0-0.1L29.5,12.4C29.6,12.4,29.5,12.4,29.5,12.4 M26.3,14.8c-0.5,0.4-0.6,1-0.3,1.5c0.3,0.4,0.7,0.5,1.4,0.2
		c0.5-0.2,0.7-0.2,0.9,0c0.2,0.2,0.1,0.5-0.2,0.7c-0.3,0.2-0.5,0.2-0.8,0c0,0-0.1,0-0.1,0L27,17.6c0,0,0,0.1,0,0.1
		c0.4,0.3,0.9,0.3,1.4-0.1c0.6-0.4,0.7-1.1,0.3-1.5c-0.3-0.4-0.7-0.5-1.3-0.3c-0.6,0.2-0.8,0.2-1,0c-0.2-0.2-0.1-0.5,0.2-0.7
		c0.2-0.2,0.4-0.2,0.7-0.1c0,0,0.1,0,0.1,0l0.2-0.3c0,0,0-0.1,0-0.1C27.2,14.4,26.8,14.4,26.3,14.8"/>
	<path class="st1" d="M34.5,15.1c0.4-0.3,0.8-0.3,1.1,0.1l0.5,0.7c0.3,0.4,0.3,0.7-0.2,1l-0.4,0.3l-1.4-1.8L34.5,15.1z M34.1,14.6
		l-0.8,0.7c0,0,0,0.1,0,0.1l2,2.6c0,0,0.1,0,0.1,0l0.8-0.7c0.7-0.6,0.7-1.3,0.3-1.8L36,14.8C35.5,14.2,34.9,14.1,34.1,14.6 M31.9,17
		c0.4-0.3,0.7-0.2,1,0.1l0.6,0.8c0.3,0.4,0.3,0.7-0.1,1c-0.4,0.3-0.7,0.2-1-0.1L31.8,18C31.5,17.6,31.5,17.3,31.9,17 M31.6,16.5
		c-0.7,0.5-0.7,1.2-0.3,1.8l0.6,0.8c0.5,0.6,1.1,0.7,1.8,0.2c0.7-0.5,0.7-1.2,0.3-1.8l-0.6-0.8C32.9,16.2,32.3,16,31.6,16.5
		 M29.5,18.9c0.3-0.3,0.6-0.2,0.8,0.1l0.1,0.1c0.2,0.3,0.2,0.5-0.1,0.8l-0.4,0.3l-0.8-1L29.5,18.9z M29.2,18.4L28.4,19
		c0,0,0,0.1,0,0.1l2,2.6c0,0,0.1,0,0.1,0l0.4-0.3c0,0,0-0.1,0-0.1l-0.6-0.8l0.4-0.3c0.6-0.5,0.6-1,0.2-1.5l-0.1-0.2
		C30.4,18.1,29.8,17.9,29.2,18.4"/>
	<path class="st1" d="M53.1,5.8l-0.4,0.3c0,0,0,0.1,0,0.1l2,2.6c0,0,0.1,0,0.1,0l0.4-0.3c0,0,0-0.1,0-0.1L53.1,5.8
		C53.2,5.7,53.2,5.7,53.1,5.8 M52,6.7l-0.5,0.4c0,0-0.1,0.1,0,0.1l0.7,1.6c0.2,0.4,0.3,0.6,0.4,0.9l0,0c-0.3-0.2-0.5-0.4-0.8-0.7
		l-1.4-1.1c0,0-0.1,0-0.1,0l-0.5,0.4c0,0-0.1,0.1,0,0.1l2,2.6c0,0,0.1,0,0.1,0L52,11c0,0,0-0.1,0-0.1l-1.1-1.5
		c-0.2-0.2-0.4-0.5-0.6-0.7l0,0l2.3,1.7c0,0,0.1,0,0.1,0l0.3-0.2c0,0,0.1-0.1,0-0.1L52,7.4l0,0c0.1,0.2,0.4,0.6,0.5,0.8l1.1,1.5
		c0,0,0.1,0,0.1,0l0.3-0.3c0,0,0-0.1,0-0.1l-2-2.6C52.1,6.6,52,6.6,52,6.7 M48.9,11.6l-0.1-0.4c-0.1-0.3-0.3-0.7-0.4-1l0,0
		c0.2,0.2,0.6,0.4,0.8,0.6l0.4,0.2L48.9,11.6z M51.2,11.6l-2.9-2c0,0-0.1,0-0.1,0l-0.5,0.4c0,0,0,0.1,0,0.1l1.2,3.3c0,0,0,0.1,0.1,0
		l0.4-0.3c0,0,0-0.1,0-0.1l-0.3-0.8l0.9-0.7l0.7,0.5c0,0,0.1,0,0.1,0L51.2,11.6C51.2,11.6,51.2,11.6,51.2,11.6 M48.7,13.5l-2.1-0.9
		l0-1.7c0,0,0-0.1-0.1,0l-0.4,0.3c0,0,0,0.1,0,0.1l0,2L45.2,12c0,0-0.1,0-0.1,0l-0.4,0.3c0,0,0,0.1,0,0.1l2,2.6c0,0,0.1,0,0.1,0
		l0.4-0.3c0,0,0-0.1,0-0.1l-0.6-0.8l0-0.7l1.6,0.7c0,0,0.1,0,0.1,0l0.4-0.3C48.7,13.5,48.7,13.5,48.7,13.5 M43,13.6l-0.4,0.3
		c0,0,0,0.1,0,0.1l2,2.6c0,0,0.1,0,0.1,0l1.5-1.1c0,0,0-0.1,0-0.1L46,15c0,0-0.1,0-0.1,0l-1.1,0.8L43,13.6
		C43.1,13.5,43.1,13.5,43,13.6 M41.3,15.5c0.4-0.3,0.7-0.2,1,0.1l0.6,0.8c0.3,0.4,0.3,0.7-0.1,1c-0.4,0.3-0.7,0.2-1-0.1l-0.6-0.8
		C40.9,16.2,40.9,15.8,41.3,15.5 M41,15.1c-0.7,0.5-0.7,1.2-0.3,1.8l0.6,0.8c0.5,0.6,1.1,0.7,1.8,0.2c0.7-0.5,0.7-1.2,0.3-1.8
		l-0.6-0.8C42.3,14.7,41.6,14.6,41,15.1 M41.7,18.8l-2.1-0.9l0-1.7c0,0,0-0.1-0.1,0l-0.4,0.3c0,0,0,0.1,0,0.1l0,2l-0.9-1.2
		c0,0-0.1,0-0.1,0l-0.4,0.3c0,0,0,0.1,0,0.1l2,2.6c0,0,0.1,0,0.1,0l0.4-0.3c0,0,0-0.1,0-0.1l-0.6-0.8l0-0.7l1.6,0.7c0,0,0.1,0,0.1,0
		l0.4-0.3C41.8,18.9,41.8,18.8,41.7,18.8 M36.2,18.8c-0.5,0.4-0.6,1-0.3,1.5c0.3,0.4,0.7,0.5,1.4,0.2c0.5-0.2,0.7-0.2,0.9,0
		c0.2,0.2,0.1,0.5-0.2,0.7c-0.3,0.2-0.5,0.2-0.8,0c0,0-0.1,0-0.1,0l-0.2,0.3c0,0,0,0.1,0,0.1c0.4,0.3,0.9,0.3,1.4-0.1
		c0.6-0.4,0.7-1.1,0.3-1.5c-0.3-0.4-0.7-0.5-1.3-0.3c-0.6,0.2-0.8,0.2-1,0c-0.2-0.2-0.1-0.5,0.2-0.7c0.2-0.2,0.4-0.2,0.7-0.1
		c0,0,0.1,0,0.1,0l0.2-0.3c0,0,0-0.1,0-0.1C37.1,18.4,36.7,18.4,36.2,18.8 M34.8,22.5l-0.1-0.4c-0.1-0.3-0.3-0.7-0.4-1l0,0
		c0.2,0.2,0.6,0.4,0.8,0.6l0.4,0.2L34.8,22.5z M37.1,22.4l-2.9-2c0,0-0.1,0-0.1,0l-0.5,0.4c0,0,0,0.1,0,0.1l1.2,3.3c0,0,0,0.1,0.1,0
		l0.4-0.3c0,0,0-0.1,0-0.1L35,23l0.9-0.7l0.7,0.5c0,0,0.1,0,0.1,0L37.1,22.4C37.1,22.5,37.1,22.4,37.1,22.4 M32.3,21.8L32,22.1
		c0,0,0,0.1,0,0.1l1.5,1.9c0.2,0.2,0.2,0.4,0,0.6c-0.2,0.1-0.3,0.1-0.5,0.1c-0.1,0-0.1,0-0.1,0.1l0,0.4c0,0,0,0.1,0.1,0.1
		c0.3,0,0.6,0,0.9-0.2c0.5-0.4,0.5-0.9,0.2-1.4L32.3,21.8C32.4,21.8,32.4,21.8,32.3,21.8"/>
	<path class="st1" d="M40.9,14.6c0,0.2-0.2,0.4-0.4,0.4c-0.2,0-0.4-0.2-0.4-0.4c0-0.2,0.2-0.4,0.4-0.4
		C40.7,14.2,40.9,14.4,40.9,14.6"/>
	<path class="st1" d="M45,14.3c0,0.2-0.2,0.4-0.4,0.4c-0.2,0-0.4-0.2-0.4-0.4c0-0.2,0.2-0.4,0.4-0.4C44.8,13.9,45,14.1,45,14.3"/>
</g>
</svg>
