<?xml version="1.0" encoding="utf-8"?>
<!-- Generator: Adobe Illustrator 26.3.1, SVG Export Plug-In . SVG Version: 6.00 Build 0)  -->
<svg version="1.1" id="Layer_1" xmlns="http://www.w3.org/2000/svg" xmlns:xlink="http://www.w3.org/1999/xlink" x="0px" y="0px"
	 viewBox="0 0 56.7 56.7" style="enable-background:new 0 0 56.7 56.7;" xml:space="preserve">
<path id="XMLID_1335_" d="M3.1,18.7C3,18.5,3,18.3,3.1,18c0.1-0.2,0.2-0.3,0.4-0.4l-0.1-0.2l0.1-0.1l0.7,0.3l-0.1,0.1
	c-0.5-0.1-0.8,0.1-0.9,0.4c-0.1,0.1-0.1,0.3,0,0.4c0,0.1,0.1,0.2,0.2,0.3c0.1,0.1,0.2,0,0.3-0.1c0,0,0.1-0.2,0.3-0.4
	c0.2-0.3,0.4-0.5,0.6-0.5c0.2-0.1,0.4-0.1,0.7,0c0.3,0.1,0.4,0.3,0.5,0.5s0.1,0.5,0,0.7c-0.1,0.2-0.2,0.4-0.4,0.5l0.1,0.2L5.4,20
	l-0.8-0.3l0.1-0.2c0.5,0.1,0.8-0.1,1-0.5c0.1-0.2,0.1-0.3,0-0.5c0-0.1-0.1-0.3-0.3-0.3c-0.1-0.1-0.3,0-0.4,0c-0.1,0-0.1,0.1-0.2,0.2
	c-0.1,0.1-0.2,0.2-0.2,0.3c-0.2,0.2-0.3,0.4-0.5,0.4c-0.2,0.1-0.4,0-0.6,0C3.4,19.1,3.2,18.9,3.1,18.7z M4.7,16.7
	c-0.3-0.3-0.4-0.6-0.2-0.9l0.2-0.4l1.5,2.5l0.1,0.1l1-1.9l-0.8-0.5l-0.1,0.1c0.2,0.2,0.4,0.4,0.4,0.6c0,0.2,0,0.4-0.1,0.6l-0.2,0.4
	L5,14.7l-0.1-0.1l-1,1.8l0.6,0.4L4.7,16.7z M5.6,13.8l2.1,1.5l-0.2,0.3l0.1,0.1l0.8-1.1l-0.1-0.1L8,14.7L6,13.3L6.2,13l-0.1-0.1
	L5.3,14l0.1,0.1L5.6,13.8z M6.6,12.4C6.6,12.4,6.6,12.4,6.6,12.4c0.1,0,0.1,0,0.1,0.1l0.2,1.4L7,14l1.6,0l-0.2,0.3l0.1,0.1l0.9-1.2
	l-0.1-0.1L9,13.3L7,13.3l-0.1-0.8c0-0.1,0-0.2,0-0.2c0-0.1,0-0.2,0.1-0.2L7,11.8l-0.1-0.1l-0.6,0.8l0.1,0.1L6.6,12.4z M7.9,11.1
	c0-0.4,0.1-0.8,0.4-1s0.6-0.4,1-0.4c0.4,0,0.8,0.1,1,0.4c0.3,0.3,0.4,0.6,0.5,1c0,0.4-0.1,0.8-0.4,1c-0.3,0.3-0.6,0.4-1,0.4
	c-0.4,0-0.8-0.1-1-0.4C8.1,11.9,8,11.5,7.9,11.1z M8.3,10.8c0.1,0.1,0.3,0.4,0.7,0.8c0.4,0.4,0.7,0.6,0.8,0.6c0.2,0.1,0.4,0,0.6-0.2
	c0.2-0.2,0.2-0.4,0.1-0.6c-0.1-0.1-0.3-0.4-0.7-0.8C9.4,10.2,9.1,10,9,10c-0.2-0.1-0.4,0-0.6,0.2C8.2,10.4,8.2,10.6,8.3,10.8z
	 M10.3,8.4l0.9,1.1l-0.1,0.3l0.1,0.1l0.1-0.3l0.6,0.7l-0.2,0.2l0.1,0.1l1.8-1.5L13,8.4l-0.1,0.1C13,8.8,13.1,9,13,9.2
	c0,0.2-0.1,0.3-0.3,0.5l-0.3,0.3L11.6,9L11.9,8l-0.1-0.1l-0.2,0.9L10.8,8l0.3-0.2L11,7.6L9.9,8.5L10,8.6L10.3,8.4z M12.2,6.8
	l1.4,0.7l0.7,1L14,8.6l0.1,0.1L15.3,8l-0.1-0.1L14.9,8l-0.7-1l-0.1-1.1c0-0.1,0-0.2,0-0.3c0-0.1,0.1-0.1,0.1-0.2l0.1-0.1l-0.1-0.1
	l-0.7,0.5l0.1,0.1l0.2-0.1c0.1-0.1,0.1-0.1,0.2,0c0,0,0,0.1,0,0.2l0.1,1l-1.2-0.6l0.3-0.2l-0.1-0.1l-1.2,0.8L12,7L12.2,6.8z
	 M16.5,4.3l1,2.3l-0.3,0.1l0.1,0.1l2.2-1L19.1,5L19,5c0,0.3,0,0.5,0,0.7c-0.1,0.2-0.2,0.3-0.4,0.4l-0.4,0.2l-1-2.3l0.4-0.2l-0.1-0.1
	l-1.3,0.6l0.1,0.1L16.5,4.3z M19.6,5.8l0-0.1l0.2-0.1c0.1,0,0.1-0.1,0.1-0.3L20,2.7l0.2-0.1L22,4.9l0.2-0.1l0,0.1L21,5.4l0-0.1
	l0.3-0.1l-0.4-0.5L20,4.8l0,0.5c0,0,0,0.1,0,0.1c0,0,0.1,0.1,0.1,0l0.2-0.1l0,0.1L19.6,5.8z M20,4.7l0.7-0.2l-0.6-0.8L20,4.7z
	 M22.2,2.2l0.4,1.9c0.1,0.5,0.5,0.7,1.2,0.6c0.4-0.1,0.7-0.2,0.8-0.5c0.1-0.1,0.1-0.4,0-0.7l-0.3-1.4c0-0.1,0-0.2,0-0.2
	c0,0,0.1-0.1,0.2-0.1l0.1,0l0-0.1l-0.9,0.2l0,0.1l0.1,0c0.1,0,0.1,0,0.2,0c0,0,0.1,0.1,0.1,0.2l0.3,1.4c0,0.2,0.1,0.3,0.1,0.4
	c0,0.1,0,0.2-0.1,0.3c-0.1,0.1-0.3,0.2-0.5,0.3c-0.2,0-0.3,0-0.5-0.1c-0.1-0.1-0.2-0.3-0.2-0.5l-0.3-1.9L23.3,2l0-0.1l-1.4,0.3
	l0,0.1L22.2,2.2z M25.4,1.7l0-0.1l1.4-0.1c0.4,0,0.7,0,0.9,0.2c0.2,0.1,0.3,0.3,0.4,0.5c0.1,0.2,0.2,0.4,0.2,0.7
	c0,0.2,0,0.5-0.1,0.7C28.1,3.7,28,3.8,27.8,4c-0.2,0.2-0.5,0.3-0.9,0.3l-1.4,0.1l0-0.1l0.3,0l-0.1-2.5L25.4,1.7z M26.4,1.6l0.1,2.5
	l0.4,0c0.1,0,0.2,0,0.3,0c0.1,0,0.2-0.1,0.2-0.1c0.1-0.1,0.1-0.5,0.1-0.9l0-0.2c0-0.5-0.1-0.8-0.2-1c-0.1-0.1-0.2-0.2-0.3-0.2
	c-0.1,0-0.2,0-0.3,0L26.4,1.6z M31.4,3.5l-0.1,0C31.2,3.7,31,3.9,30.9,4c-0.1,0.1-0.3,0.2-0.6,0.1l-0.5,0L30,2.9c0,0,0,0,0,0
	c0,0,0,0,0,0c0.2,0,0.3,0.1,0.4,0.2c0.1,0.1,0.1,0.2,0.1,0.4l0.1,0l0.1-1.2l-0.1,0c-0.1,0.3-0.2,0.5-0.5,0.5c0,0-0.1,0-0.1,0
	l0.1-1.1l0.5,0c0.2,0,0.3,0.1,0.4,0.2c0.1,0.1,0.2,0.3,0.3,0.5l0.1,0l0-0.7l-2.3-0.2l0,0.1l0.3,0l-0.2,2.5l-0.3,0l0,0.1l2.5,0.2
	L31.4,3.5z M33.1,4.7l-1.4-0.3l0-0.1l0.3,0.1l0.5-2.5l-0.3-0.1l0-0.1L33.8,2c0.3,0.1,0.5,0.2,0.7,0.3c0.1,0.1,0.2,0.3,0.2,0.5
	c0,0.2-0.1,0.3-0.3,0.4c-0.2,0.1-0.4,0.1-0.7,0.1l0,0c0.3,0.1,0.5,0.2,0.6,0.4c0.1,0.2,0.1,0.4,0,0.7c0,0.1,0,0.2,0,0.3
	c0,0.1,0.1,0.1,0.1,0.1c0.1,0,0.1,0,0.2,0l0,0.1c-0.2,0-0.4,0.1-0.5,0c-0.2,0-0.4-0.1-0.5-0.3c-0.1-0.1-0.1-0.2-0.1-0.4
	c0-0.1,0-0.2,0.1-0.4c0-0.2,0-0.3-0.1-0.4c-0.1-0.1-0.2-0.2-0.4-0.2l-0.1,0l-0.3,1.3l0.4,0.1L33.1,4.7z M33,3.1l0.3,0.1
	c0.2,0,0.3,0,0.4,0c0.1-0.1,0.1-0.2,0.2-0.4c0-0.3,0.1-0.4,0-0.5c0-0.1-0.1-0.1-0.3-0.2L33.2,2L33,3.1z M36.2,4.4L35.1,4L35,4.5
	L36,4.9L36.2,4.4z M37.2,5.7L37,5.7c-0.1,0-0.1-0.1-0.1-0.1c0,0,0-0.1,0-0.2l0.9-2.1L37.5,6l0.1,0.1L39.4,4l0,0l-1,2.3l-0.3-0.1
	l-0.1,0.1l1.3,0.6l0.1-0.1l-0.3-0.1l1-2.3l0.3,0.1l0.1-0.1l-1.1-0.4l-1.1,1.3l0.2-1.7l-1.1-0.5L37.3,3l0.3,0.1l-0.9,2.1
	c-0.1,0.1-0.1,0.2-0.2,0.1l-0.2-0.1l-0.1,0.1l0.8,0.4L37.2,5.7z M40.4,5.8c0.2-0.3,0.5-0.5,0.9-0.7c0.4-0.1,0.8-0.1,1.1,0.1
	c0.3,0.2,0.5,0.5,0.6,0.9c0.1,0.4,0,0.8-0.2,1.1c-0.2,0.3-0.5,0.5-0.9,0.6C41.6,8,41.2,8,40.9,7.8c-0.3-0.2-0.6-0.5-0.6-0.9
	C40.1,6.5,40.2,6.1,40.4,5.8z M41,7.7c0.2,0.1,0.4,0.1,0.6,0c0.1-0.1,0.3-0.4,0.6-0.8c0.3-0.5,0.4-0.8,0.5-0.9
	c0-0.2-0.1-0.4-0.3-0.5c-0.2-0.1-0.4-0.1-0.6,0c-0.1,0.1-0.3,0.4-0.6,0.8c-0.3,0.5-0.5,0.8-0.5,0.9C40.6,7.4,40.7,7.5,41,7.7z
	 M44.4,6.8l-0.3-0.2l0.1-0.1l1.2,1c0.3,0.2,0.4,0.4,0.5,0.6c0.1,0.2,0,0.4-0.1,0.5c-0.1,0.2-0.3,0.2-0.5,0.2c-0.2,0-0.4-0.1-0.7-0.3
	l0,0C44.9,8.8,45,9,45,9.2c0,0.2-0.1,0.4-0.3,0.7c-0.1,0.1-0.1,0.2-0.1,0.2c0,0.1,0,0.1,0.1,0.2c0,0,0.1,0.1,0.2,0.1l0,0.1
	c-0.2-0.1-0.4-0.1-0.5-0.2C44.1,10.1,44,9.9,44,9.7c0-0.1,0-0.2,0.1-0.4c0,0,0.1-0.2,0.2-0.4c0.1-0.2,0.2-0.3,0.1-0.4
	c0-0.1-0.1-0.2-0.3-0.4l-0.1,0l-0.8,1l0.3,0.2l-0.1,0.1l-1.1-0.9l0.1-0.1l0.3,0.2L44.4,6.8z M45,7.3l-0.7,0.9l0.3,0.2
	c0.1,0.1,0.2,0.1,0.3,0.1c0.1,0,0.2-0.1,0.3-0.3c0.2-0.2,0.2-0.3,0.2-0.4c0-0.1-0.1-0.2-0.2-0.3L45,7.3z M45.4,10.6l2.5-1.1l0.1,0.1
	l-1.2,2.6l0.2,0.2l-0.1,0.1l-0.9-1l0.1-0.1l0.2,0.2l0.3-0.6l-0.6-0.6l-0.5,0.2c0,0,0,0-0.1,0.1c0,0,0,0.1,0,0.1l0.2,0.2l-0.1,0.1
	l-0.6-0.6l0.1-0.1l0.1,0.1C45.1,10.7,45.2,10.7,45.4,10.6z M46,10.5l0.5,0.5l0.4-0.9L46,10.5z M47.6,13.6c-0.3-0.3-0.2-0.7,0.1-1.1
	l-0.1-0.1L47,12.9l0.1,0.1l0.2,0.1C47.3,13.2,47.4,13.5,47.6,13.6c0.1,0.3,0.3,0.4,0.5,0.4c0.3,0,0.5,0,0.7-0.2
	c0.2-0.2,0.3-0.4,0.4-0.6c0-0.2,0-0.5-0.2-0.8C49,12.2,48.9,12,48.9,12c0-0.1,0-0.2,0.1-0.3c0.1-0.1,0.2-0.1,0.3-0.1
	c0.1,0,0.2,0.1,0.3,0.2c0.2,0.3,0.2,0.6-0.1,1l0.1,0.1l0.6-0.5l-0.1-0.1l-0.2,0c0-0.2-0.1-0.4-0.2-0.6c-0.2-0.2-0.4-0.3-0.6-0.4
	c-0.2,0-0.4,0-0.7,0.2c-0.2,0.1-0.3,0.3-0.3,0.5c0,0.2,0,0.4,0.1,0.6c0.1,0.1,0.1,0.2,0.2,0.3c0.1,0.1,0.1,0.2,0.1,0.3
	c0,0.2,0,0.3-0.2,0.4c-0.1,0.1-0.3,0.1-0.4,0.1C47.9,13.8,47.8,13.7,47.6,13.6z M48.7,14.9l-0.2-0.3l-0.1,0.1l0.7,1.2l0.1-0.1
	l-0.2-0.3l1-0.6l0.5,0.8l-1,0.6L49.4,16l-0.1,0.1l0.7,1.2l0.1-0.1L50,16.9l2.2-1.3l0.2,0.3l0.1-0.1l-0.7-1.2l-0.1,0.1l0.2,0.3
	l-1,0.6l-0.5-0.8l1-0.6l0.2,0.3l0.1-0.1l-0.7-1.2l-0.1,0.1l0.2,0.3L48.7,14.9z M50.6,17.7l2.7-0.1l0.1,0.2l-2,2.1l0.1,0.2L51.3,20
	l-0.6-1.2l0.1-0.1L51,19l0.5-0.5l-0.3-0.8l-0.5,0c0,0-0.1,0-0.1,0c0,0-0.1,0.1,0,0.1l0.1,0.2l-0.1,0.1l-0.4-0.8l0.1-0.1l0.1,0.2
	C50.3,17.6,50.4,17.7,50.6,17.7z M51.3,17.8l0.3,0.7l0.7-0.7L51.3,17.8z M5.7,38.7l0.1,0.3l0.1,0l-0.3-0.7l-1.3,0.1l0,0l1-0.8
	L5,36.8l-0.1,0L5,37.1l-1.6,0.7l-0.1-0.3l-0.1,0l0.2,0.6l0.1,0l-0.1-0.3L5,37.2l0,0l-1.5,1.2l0,0.1l1.9-0.2l0,0L3.9,39l-0.1-0.3
	l-0.1,0l0.3,0.9l0.1,0L4,39.3L5.7,38.7z M4.8,40.9c-0.1,0-0.2-0.1-0.3-0.2c0-0.1,0-0.2,0.1-0.3l0,0c-0.2,0-0.3-0.1-0.3-0.3
	c-0.1-0.2,0-0.3,0.1-0.4c0.1,0,0.2,0,0.3,0C4.9,39.8,5,39.9,5,40.1l0.1,0.1l0.2-0.1c0.1,0,0.1-0.1,0.2-0.1c0,0,0-0.1,0-0.2
	c0-0.1-0.1-0.1-0.1-0.1c0,0-0.1,0-0.1,0c0,0,0,0,0,0c0,0,0,0-0.1,0.1c-0.1,0-0.1,0-0.2-0.1c0-0.1,0-0.1,0.1-0.2c0.1,0,0.1,0,0.2,0
	c0.1,0,0.2,0.1,0.2,0.3c0.1,0.2,0.1,0.3,0.1,0.4c0,0,0,0.1-0.1,0.1c0,0-0.1,0-0.1,0.1l-0.6,0.3c0,0,0,0,0,0
	C4.7,40.7,4.7,40.7,4.8,40.9C4.8,40.8,4.8,40.8,4.8,40.9L4.8,40.9z M4.8,40.3L5,40.2C4.9,40,4.8,39.9,4.6,40
	c-0.1,0.1-0.2,0.1-0.1,0.3c0,0.1,0.1,0.1,0.1,0.1C4.7,40.4,4.8,40.3,4.8,40.3z M6.4,42.1l-0.7,0.4l-0.1-0.1l-0.1,0l0.3,0.5l0.1,0
	l-0.1-0.1l0.6-0.3c0.2-0.1,0.3-0.3,0.2-0.5c-0.1-0.1-0.2-0.2-0.4-0.2l0,0c0.1-0.1,0.1-0.1,0.1-0.2c0-0.1,0-0.1,0-0.2
	c-0.1-0.1-0.2-0.2-0.4-0.2l0,0L6.1,41c-0.1-0.1-0.1-0.2-0.2-0.3l-0.1-0.2l-0.1,0l0.1,0.2L5,41.3l-0.1-0.2l-0.1,0l0.3,0.6l0.1,0
	l-0.1-0.1l0.4-0.3c0.1-0.1,0.2-0.1,0.3-0.1c0.1,0,0.2,0,0.2,0.1c0,0,0,0.1,0,0.1c0,0,0,0-0.1,0.1l-0.7,0.4l-0.1-0.1l-0.1,0l0.3,0.5
	l0.1,0l-0.1-0.1l0.4-0.3c0.1-0.1,0.2-0.1,0.3-0.1c0.1,0,0.2,0,0.2,0.1C6.5,42,6.5,42.1,6.4,42.1z M7.6,43.6L7.6,43.6l-0.2-0.4
	l-0.1,0l0.1,0.2l-0.7,0.2l0,0l0.4-0.6l0.1,0.2l0.1,0l-0.4-0.5l-0.1,0l0.1,0.1l-0.6,1l-0.3,0.1c-0.1,0-0.2,0-0.2,0c0,0,0,0,0-0.1
	c0,0,0-0.1,0-0.1c-0.1-0.1-0.1-0.1-0.2,0c-0.1,0.1-0.1,0.1,0,0.2c0.1,0.1,0.1,0.1,0.2,0.1c0.1,0,0.2,0,0.4-0.1l1.3-0.3L7.6,43.6z
	 M8.6,44.9C8.6,45,8.6,45,8.6,44.9L8.6,44.9c-0.1,0.1-0.1,0.2,0,0.3c0.1,0.1,0.1,0.1,0.2,0c0,0,0.1-0.1,0.1-0.1s0-0.1-0.1-0.1
	c-0.1-0.1-0.3-0.2-0.5-0.1l0,0l0.2-0.2c-0.1-0.1-0.2-0.2-0.2-0.2l-0.1-0.1l-0.1,0l0.1,0.2l-0.8,0.6l-0.1-0.2l-0.1,0l0.5,0.6l0.1,0
	l-0.2-0.2L8.1,45c0.1-0.1,0.2-0.1,0.3-0.1C8.5,44.9,8.6,44.9,8.6,44.9z M9.4,45.3L9.4,45.3l0.5,0.2c0.1,0,0.1,0,0.2,0c0,0,0,0,0-0.1
	c0,0,0-0.1,0-0.1c0,0-0.1-0.1-0.2-0.1L9.4,45.3z M9.4,46.5c-0.1,0.1-0.3,0.2-0.4,0.1c-0.2,0-0.3-0.1-0.4-0.2
	c-0.1-0.1-0.2-0.3-0.1-0.4c0-0.2,0.1-0.3,0.2-0.4c0.1-0.1,0.3-0.2,0.4-0.1c0.2,0,0.3,0.1,0.4,0.2c0.1,0.1,0.2,0.3,0.1,0.4
	C9.6,46.3,9.5,46.4,9.4,46.5z M9.5,46c0-0.1,0-0.1-0.1-0.2c-0.1-0.1-0.1-0.1-0.2-0.1c-0.1,0-0.1,0.1-0.2,0.1L8.7,46
	c-0.1,0.1-0.1,0.2-0.2,0.2c0,0.1,0,0.1,0.1,0.2c0.1,0.1,0.1,0.1,0.2,0.1c0.1,0,0.1-0.1,0.2-0.1l0.3-0.2C9.4,46.1,9.4,46,9.5,46z
	 M10.2,47.5c-0.1,0.1-0.2,0.1-0.3,0.1c-0.1,0-0.2,0-0.2-0.1l-0.2-0.2l1.2-0.2l0.1-0.1L10,46.4l-0.3,0.3l0,0c0.1-0.1,0.2-0.1,0.3-0.1
	c0.1,0,0.1,0,0.2,0.1l0.1,0.1l-1.2,0.2l-0.1,0.1l0.7,0.7L10.2,47.5L10.2,47.5z M10.7,46.2c0,0,0,0.1,0,0.1c0,0,0,0.1,0,0.1
	c0,0,0.1,0,0.1,0c0,0,0.1,0,0.1,0c0,0,0-0.1,0-0.1c0,0,0-0.1,0-0.1c0,0-0.1,0-0.1,0S10.7,46.2,10.7,46.2z M11.6,48.3
	c0.1-0.2,0.1-0.3,0-0.5c-0.1-0.1-0.3-0.1-0.5-0.1l0,0l0.2-0.2c-0.1-0.1-0.2-0.1-0.2-0.2l-0.1-0.1l0,0l0.1,0.1l-0.7,0.7L10.1,48l0,0
	l0.5,0.5l0,0l-0.1-0.1l0.4-0.4c0.1-0.1,0.2-0.1,0.3-0.2c0.1,0,0.2,0,0.3,0.1c0,0,0.1,0.1,0.1,0.1c0,0,0,0.1-0.1,0.1l-0.5,0.6
	l-0.1-0.1l0,0l0.5,0.4l0,0l-0.1-0.1L11.6,48.3z M12.7,48.9c0,0.1,0,0.3-0.1,0.4l0,0L12,48.9l-0.2,0.3c0,0.1-0.1,0.1-0.1,0.2
	c0,0.1,0,0.1,0.1,0.2c0.1,0.1,0.2,0.1,0.3,0.1s0.2,0,0.3-0.1l0.1,0c-0.2,0.2-0.4,0.2-0.7,0c-0.1-0.1-0.2-0.2-0.2-0.4
	c0-0.2,0-0.3,0.1-0.4c0.1-0.1,0.2-0.2,0.4-0.2c0.2,0,0.3,0,0.4,0.1C12.6,48.7,12.7,48.8,12.7,48.9z M12.4,48.6
	c-0.1-0.1-0.2-0.1-0.3,0l-0.1,0.1l0.3,0.3l0.1-0.1C12.6,48.8,12.6,48.7,12.4,48.6z M14.5,49.1c-0.1-0.1-0.2-0.1-0.3-0.2L14,48.8
	l0,0.1l0.2,0.1l-1,1.5L13,50.3l0,0.1l0.6,0.4l0-0.1l-0.2-0.1L14.5,49.1z M14.7,50.3L14.7,50.3l-0.5-0.4l0,0.1l0.2,0.1l-0.6,0.1
	l0,0.7l-0.1-0.1l0,0.1l0.5,0.3l0-0.1l-0.1-0.1l-0.1-0.9l0.4-0.1L14.7,50.3z M15.6,51.4c-0.1,0.1-0.2,0.2-0.4,0.3s-0.3,0-0.4-0.1
	c-0.1-0.1-0.2-0.2-0.3-0.4c0-0.2,0-0.3,0.1-0.4c0.1-0.1,0.2-0.2,0.4-0.3s0.3,0,0.4,0.1c0.1,0.1,0.2,0.2,0.3,0.4
	C15.7,51.1,15.7,51.3,15.6,51.4z M15.5,50.8c0-0.1,0-0.1-0.1-0.2c-0.1,0-0.2-0.1-0.2,0c-0.1,0-0.1,0.1-0.2,0.2l-0.2,0.3
	c-0.1,0.1-0.1,0.2-0.1,0.3c0,0.1,0,0.1,0.1,0.2c0.1,0,0.2,0.1,0.2,0c0.1,0,0.1-0.1,0.2-0.2l0.2-0.3C15.5,51,15.5,50.9,15.5,50.8z
	 M17,51.7c0,0,0-0.1,0-0.1c0,0-0.1-0.1-0.1-0.1c-0.1-0.1-0.3-0.1-0.5,0.1l0,0l0.1-0.2c-0.1,0-0.2-0.1-0.3-0.1L16.1,51l0,0.1l0.2,0.1
	L15.8,52L15.6,52l0,0.1l0.7,0.3l0-0.1L16,52.2l0.2-0.5c0-0.1,0.1-0.2,0.2-0.2c0.1,0,0.2-0.1,0.2,0c0,0,0,0,0,0.1l0,0
	c0,0.1,0,0.1,0.1,0.2C16.9,51.8,17,51.8,17,51.7z M17.6,52.8c-0.1,0-0.2,0-0.3,0l-0.2-0.1l1-0.6l0-0.1l-0.9-0.4l-0.2,0.4l0.1,0
	c0.1-0.1,0.2-0.2,0.2-0.2c0.1,0,0.2,0,0.3,0l0.1,0.1l-1,0.6l0,0.1l0.9,0.4l0.2-0.4l-0.1,0C17.8,52.7,17.7,52.8,17.6,52.8z M19,53.2
	L19,53.2c-0.1,0.2-0.3,0.3-0.6,0.2c-0.1-0.1-0.2-0.2-0.3-0.3c-0.1-0.1-0.1-0.3,0-0.4c0.1-0.2,0.2-0.3,0.3-0.3c0.1-0.1,0.3-0.1,0.4,0
	c0.1,0.1,0.2,0.1,0.3,0.3c0.1,0.1,0.1,0.2,0,0.4l0,0l-0.7-0.3L18.4,53c0,0.1,0,0.1,0,0.2c0,0.1,0.1,0.1,0.1,0.1c0.1,0,0.2,0,0.3,0
	C18.9,53.4,19,53.3,19,53.2z M18.5,52.6l0.4,0.2l0.1-0.1c0.1-0.1,0-0.2-0.1-0.3c-0.1-0.1-0.2,0-0.3,0.1L18.5,52.6z M20.4,52.9
	c-0.2-0.1-0.3,0-0.5,0.1l0,0l0.1-0.2c-0.1,0-0.2,0-0.3-0.1l-0.2-0.1l0,0.1l0.2,0.1l-0.3,0.9l-0.2-0.1l0,0.1l0.6,0.2l0-0.1l-0.2-0.1
	l0.2-0.5c0-0.1,0.1-0.2,0.2-0.3c0.1-0.1,0.2-0.1,0.3-0.1c0.1,0,0.1,0,0.1,0.1c0,0,0,0.1,0,0.1l-0.3,0.8L20,53.9l0,0.1l0.6,0.2l0-0.1
	L20.4,54l0.2-0.7C20.7,53.1,20.6,52.9,20.4,52.9z M21.2,53.1l-0.2,0l0,0.1L21.2,53.1l-0.3,1l-0.2-0.1l0,0.1l0.7,0.2l0-0.1l-0.2-0.1
	l0.3-1C21.4,53.2,21.3,53.2,21.2,53.1z M21.6,52.5c0,0-0.1,0-0.1,0c0,0-0.1,0.1-0.1,0.1c0,0,0,0.1,0,0.1c0,0,0.1,0.1,0.1,0.1
	c0,0,0.1,0,0.1,0c0,0,0.1-0.1,0.1-0.1c0,0,0-0.1,0-0.1C21.6,52.5,21.6,52.5,21.6,52.5z M22.7,53.7c0.1,0.1,0.1,0.2,0.1,0.4l0,0
	l-0.7-0.2L22,54.2c0,0.1,0,0.1,0,0.2c0,0.1,0.1,0.1,0.2,0.1c0.1,0,0.2,0,0.3,0c0.1,0,0.2-0.1,0.2-0.2l0.1,0
	c-0.1,0.2-0.3,0.3-0.6,0.3c-0.2,0-0.3-0.1-0.3-0.3c-0.1-0.1-0.1-0.3-0.1-0.4c0-0.2,0.1-0.3,0.3-0.4c0.1-0.1,0.3-0.1,0.4-0.1
	C22.5,53.5,22.7,53.5,22.7,53.7z M22.4,53.5c-0.1,0-0.2,0-0.2,0.2l0,0.2l0.4,0.1l0-0.2C22.6,53.6,22.5,53.5,22.4,53.5z M24.2,53.1
	c0,0-0.1,0-0.1,0c0,0-0.1,0.1-0.1,0.1c0,0,0,0.1,0,0.1c0,0,0.1,0.1,0.1,0.1c0,0,0.1,0,0.1,0s0.1-0.1,0.1-0.1c0,0,0-0.1,0-0.1
	C24.3,53.1,24.3,53.1,24.2,53.1z M24.3,53.8c-0.1,0-0.2,0-0.3,0l-0.2,0l0,0.1l0.2,0l-0.2,1l-0.2,0l0,0.1l0.7,0.1l0-0.1l-0.2,0
	L24.3,53.8z M26.2,54c-0.2,0-0.3,0.1-0.4,0.2l0,0l0-0.3c-0.1,0-0.2,0-0.3,0l-0.2,0l0,0.1l0.2,0l-0.1,1l-0.2,0l0,0.1l0.7,0.1l0-0.1
	l-0.3,0l0.1-0.5c0-0.1,0-0.2,0.1-0.3c0.1-0.1,0.1-0.1,0.2-0.1c0,0,0,0,0,0.1l0,0c0,0.1,0,0.1,0.1,0.1c0.1,0,0.2,0,0.2-0.1
	c0-0.1,0-0.1,0-0.1C26.4,54.1,26.3,54,26.2,54z M27.6,54.3c0.1,0.1,0.2,0.3,0.2,0.4c0,0.2-0.1,0.3-0.2,0.4c-0.1,0.1-0.3,0.2-0.4,0.2
	c-0.2,0-0.3-0.1-0.4-0.2c-0.1-0.1-0.2-0.3-0.2-0.4c0-0.2,0.1-0.3,0.2-0.4c0.1-0.1,0.3-0.2,0.4-0.2C27.4,54.1,27.5,54.2,27.6,54.3z
	 M27.4,54.3c0-0.1-0.1-0.1-0.2-0.1c-0.1,0-0.2,0-0.2,0.1c0,0.1-0.1,0.1-0.1,0.3l0,0.4c0,0.1,0,0.2,0,0.3c0,0.1,0.1,0.1,0.2,0.1
	c0.1,0,0.2,0,0.2-0.1c0-0.1,0.1-0.1,0.1-0.3l0-0.4C27.5,54.4,27.5,54.3,27.4,54.3z M27,53.9l0.4-0.2c0.1,0,0.1-0.1,0.1-0.1
	c0,0,0-0.1,0-0.1c0,0,0,0-0.1,0c0,0-0.1,0-0.2,0.1l-0.4,0.4L27,53.9z M28.7,53.7c0,0,0-0.1,0-0.1c0,0,0-0.1-0.1-0.1s-0.1,0-0.1,0
	c0,0-0.1,0-0.1,0c0,0,0,0.1,0,0.1c0,0,0,0.1,0,0.1c0,0,0.1,0,0.1,0C28.7,53.7,28.7,53.7,28.7,53.7z M29,54.8c0,0.1-0.1,0.3-0.1,0.3
	c-0.1,0.1-0.1,0.1-0.2,0.1l-0.2,0l0.6-1l0-0.1l-0.9,0l0,0.4l0.1,0c0-0.2,0.1-0.3,0.1-0.3c0,0,0.1-0.1,0.3-0.1l0.1,0l-0.6,1l0,0.1
	l1,0L29,54.8L29,54.8z M30.6,55.1l0-0.7c0-0.2-0.1-0.3-0.4-0.3c-0.2,0-0.3,0.1-0.4,0.3l0,0l0-0.3c-0.1,0-0.2,0-0.3,0l-0.2,0l0,0.1
	l0.2,0l0.1,1l-0.2,0l0,0.1l0.7,0l0-0.1l-0.2,0l0-0.5c0-0.1,0-0.2,0.1-0.3s0.1-0.1,0.2-0.1c0.1,0,0.1,0,0.1,0c0,0,0,0.1,0,0.1
	l0.1,0.8l-0.2,0l0,0.1l0.7,0l0-0.1L30.6,55.1z M32,54.7L32,54.7c0,0.3-0.1,0.4-0.4,0.5c-0.2,0-0.3,0-0.4-0.1
	c-0.1-0.1-0.2-0.2-0.2-0.4c0-0.2,0-0.3,0.1-0.5c0.1-0.1,0.2-0.2,0.4-0.2c0.1,0,0.3,0,0.4,0.1c0.1,0.1,0.2,0.2,0.2,0.3l0,0l-0.7,0.1
	l0,0.3c0,0.1,0,0.1,0.1,0.2c0.1,0,0.1,0.1,0.2,0c0.1,0,0.2-0.1,0.2-0.1C31.9,54.8,32,54.8,32,54.7z M31.3,54.4l0.4,0l0-0.2
	c0-0.1-0.1-0.2-0.2-0.2c-0.1,0-0.2,0.1-0.2,0.2L31.3,54.4z M33.6,54.7l-0.4-1.8c-0.1,0-0.2,0.1-0.3,0.1l-0.2,0l0,0.1l0.2,0l0.3,1.8
	l-0.2,0l0,0.1l0.7-0.1l0-0.1L33.6,54.7z M34.4,54.5l-0.2-1c-0.1,0-0.2,0.1-0.3,0.1l-0.2,0l0,0.1l0.2,0l0.2,1l-0.2,0l0,0.1l0.7-0.2
	l0-0.1L34.4,54.5z M33.9,52.8c0,0-0.1,0-0.1,0s-0.1,0-0.1,0.1c0,0,0,0.1,0,0.1c0,0,0,0.1,0.1,0.1s0.1,0,0.1,0c0,0,0.1,0,0.1-0.1
	c0,0,0-0.1,0-0.1C34,52.9,34,52.8,33.9,52.8z M35.1,53.6c-0.1,0-0.2,0-0.3,0c-0.1,0-0.1,0-0.1-0.1c0-0.1,0-0.2,0.2-0.2
	c0.1,0,0.1,0,0.2,0c0.1,0,0.1,0.1,0.2,0.2l0.1,0l-0.1-0.3l0,0l0,0.1c-0.1,0-0.2,0-0.3,0c-0.1,0-0.2,0.1-0.2,0.2c0,0.1-0.1,0.2,0,0.3
	c0,0.1,0.1,0.2,0.2,0.2c0.1,0,0.2,0,0.3,0c0.2,0,0.3,0,0.3,0.1c0,0.1,0,0.1,0,0.2c0,0-0.1,0.1-0.2,0.1c-0.1,0-0.2,0-0.2,0
	c-0.1,0-0.1-0.1-0.2-0.2l-0.1,0l0.1,0.4l0,0l0.1-0.1c0.1,0,0.2,0.1,0.3,0c0.1,0,0.2-0.1,0.3-0.2c0-0.1,0.1-0.2,0-0.3
	C35.5,53.7,35.3,53.6,35.1,53.6z M35,52.5C35,52.5,35,52.5,35,52.5c-0.1,0-0.2,0-0.2,0.1l-0.3,0.5l0.1,0l0.3-0.4
	C35.1,52.7,35.1,52.6,35,52.5C35.1,52.6,35.1,52.5,35,52.5z M36.7,53.8c-0.1,0.1-0.1,0.1-0.2,0.2c-0.2,0.1-0.3,0-0.3-0.2L36,53.4
	c0-0.1,0-0.2,0-0.3c0-0.1,0.1-0.1,0.2-0.1c0.1,0,0.2,0,0.2,0c0,0,0,0,0,0.1c0,0,0,0.1,0,0.1c0,0.1,0.1,0.1,0.2,0.1
	c0.1,0,0.1-0.1,0.1-0.2c0-0.1-0.1-0.1-0.2-0.2c-0.1,0-0.2,0-0.3,0C36,53,35.8,53,35.8,53.2c-0.1,0.1-0.1,0.3,0,0.5
	c0,0.2,0.1,0.3,0.3,0.3c0.1,0.1,0.3,0.1,0.4,0c0.3-0.1,0.4-0.3,0.4-0.5l-0.1,0C36.7,53.6,36.7,53.7,36.7,53.8z M37.6,53.5l-0.4-1
	c-0.1,0.1-0.2,0.1-0.3,0.1l-0.2,0.1l0,0.1l0.2-0.1l0.3,0.9l-0.2,0.1l0,0.1l0.7-0.3l0-0.1L37.6,53.5z M36.8,52.2c0,0,0.1,0,0.1,0
	c0,0,0.1,0,0.1-0.1c0,0,0-0.1,0-0.1c0,0,0-0.1-0.1-0.1c0,0-0.1,0-0.1,0c0,0-0.1,0-0.1,0.1C36.7,52,36.7,52.1,36.8,52.2
	C36.7,52.2,36.7,52.2,36.8,52.2z M38.8,52.7c0,0.3-0.1,0.5-0.3,0.6c-0.1,0.1-0.3,0.1-0.4,0s-0.2-0.2-0.3-0.3c-0.1-0.2-0.1-0.3,0-0.5
	c0.1-0.2,0.1-0.3,0.3-0.3c0.1-0.1,0.3-0.1,0.4,0c0.1,0,0.2,0.1,0.3,0.3l0,0L38,52.8l0.1,0.3c0,0.1,0.1,0.1,0.1,0.1
	c0.1,0,0.1,0,0.2,0c0.1,0,0.2-0.1,0.2-0.2C38.7,53,38.7,52.9,38.8,52.7L38.8,52.7z M38,52.7l0.4-0.2l-0.1-0.1
	c-0.1-0.1-0.1-0.2-0.3-0.1c-0.1,0.1-0.2,0.1-0.1,0.3L38,52.7z M39.5,52.5c-0.1,0-0.1,0-0.2,0c-0.1,0-0.1,0.1-0.1,0.1
	c0,0,0,0.1,0,0.2c0,0.1,0.1,0.1,0.2,0.1c0.1,0,0.1-0.1,0.1-0.1c0-0.1,0-0.1,0-0.1c0,0,0.1,0,0.1,0.1c0.1,0.1,0,0.3-0.1,0.5l0.1,0
	c0.1-0.2,0.2-0.4,0.1-0.6C39.6,52.6,39.5,52.6,39.5,52.5z M41.5,51.6L41.5,51.6c0,0.1,0,0.2-0.1,0.3c-0.1,0.1-0.2,0-0.3-0.1l0,0
	c0,0.2-0.1,0.3-0.3,0.4c-0.2,0.1-0.3,0.1-0.4-0.1c-0.1-0.1,0-0.2,0-0.3c0.1-0.1,0.2-0.2,0.3-0.3l0.1-0.1l-0.1-0.2
	c0-0.1-0.1-0.1-0.1-0.2c0,0-0.1,0-0.2,0c-0.1,0-0.1,0.1-0.1,0.1c0,0,0,0.1,0,0.1c0,0,0,0,0,0c0,0,0,0,0.1,0.1c0,0.1,0,0.1-0.1,0.2
	c-0.1,0-0.1,0-0.2-0.1c0-0.1,0-0.1,0-0.2s0.1-0.2,0.2-0.2c0.2-0.1,0.3-0.1,0.4-0.1c0,0,0.1,0,0.1,0.1c0,0,0,0.1,0.1,0.1l0.3,0.6
	c0,0,0,0,0,0C41.4,51.7,41.4,51.7,41.5,51.6C41.5,51.7,41.5,51.6,41.5,51.6z M41,51.6l-0.1-0.2c-0.2,0.1-0.3,0.3-0.2,0.4
	c0.1,0.1,0.2,0.1,0.3,0.1c0.1,0,0.1-0.1,0.1-0.1C41.1,51.7,41,51.7,41,51.6z M42.2,51.3l-1-1.6c-0.1,0.1-0.2,0.1-0.3,0.2L40.8,50
	l0,0.1l0.2-0.1l0.9,1.5l-0.2,0.1l0,0.1l0.6-0.4l0-0.1L42.2,51.3z M43.2,50.3c0.1,0.3,0,0.5-0.2,0.6C42.9,51,42.7,51,42.6,51
	c-0.1,0-0.3-0.1-0.3-0.2c-0.1-0.1-0.1-0.3-0.1-0.5c0-0.2,0.1-0.3,0.2-0.4c0.1-0.1,0.3-0.1,0.4-0.1c0.1,0,0.2,0.1,0.3,0.2l0,0
	l-0.6,0.4l0.2,0.3c0,0.1,0.1,0.1,0.2,0.1c0.1,0,0.1,0,0.2,0c0.1-0.1,0.1-0.1,0.2-0.2C43.2,50.5,43.2,50.4,43.2,50.3L43.2,50.3z
	 M42.4,50.4l0.3-0.2L42.7,50c-0.1-0.1-0.2-0.1-0.3-0.1c-0.1,0.1-0.1,0.2-0.1,0.3L42.4,50.4z M44.7,49.3c0,0.1,0,0.2,0,0.2
	c-0.1,0.1-0.1,0-0.2,0L44,48.8l0.2-0.2l0-0.1l-0.2,0.2l-0.2-0.3c-0.1,0.1-0.1,0.1-0.1,0.1l-0.1,0.1l0.2,0.2l-0.2,0.1l0,0.1l0.1-0.1
	l0.5,0.7c0.1,0.1,0.1,0.1,0.2,0.1c0.1,0,0.1,0,0.2-0.1c0.1-0.1,0.1-0.1,0.1-0.2C44.8,49.4,44.8,49.4,44.7,49.3L44.7,49.3z
	 M45.6,48.4c0.1,0.2,0.1,0.5-0.1,0.6c-0.1,0.1-0.3,0.1-0.4,0.1c-0.2,0-0.3-0.1-0.4-0.2c-0.1-0.1-0.2-0.3-0.2-0.4
	c0-0.2,0.1-0.3,0.2-0.4C44.8,48,45,48,45.1,48s0.2,0.1,0.3,0.2l0,0l-0.6,0.5l0.2,0.3c0,0.1,0.1,0.1,0.2,0.1c0.1,0,0.1,0,0.2-0.1
	c0.1-0.1,0.1-0.1,0.1-0.2S45.6,48.5,45.6,48.4L45.6,48.4z M44.8,48.6l0.3-0.3L45,48.2c-0.1-0.1-0.2-0.1-0.3,0
	c-0.1,0.1-0.1,0.2,0,0.3L44.8,48.6z M46.9,47.6L46.4,47c-0.2-0.2-0.3-0.2-0.5,0c-0.1,0.1-0.2,0.3-0.1,0.5l0,0l-0.2-0.2
	c-0.1,0.1-0.1,0.2-0.2,0.2l-0.1,0.1l0,0l0.1-0.1l0.7,0.7L46,48.4l0,0l0.5-0.5l0,0l-0.1,0.1L46,47.7c-0.1-0.1-0.1-0.2-0.1-0.3
	c0-0.1,0-0.2,0.1-0.3c0,0,0.1-0.1,0.1,0c0,0,0.1,0,0.1,0.1l0.5,0.6l-0.1,0.1l0,0l0.5-0.4l0,0L46.9,47.6z M47.6,45.9
	c-0.1,0.1-0.1,0.1-0.2,0.2c-0.1,0-0.1,0-0.1,0c-0.1-0.1-0.1-0.2,0-0.3c0-0.1,0.1-0.1,0.2-0.1c0.1,0,0.1,0,0.2,0.1l0,0l-0.2-0.2l0,0
	l0,0.1c-0.1,0-0.2,0.1-0.3,0.1c-0.1,0.1-0.1,0.2-0.1,0.3c0,0.1,0,0.2,0.1,0.2c0.1,0.1,0.2,0.1,0.3,0.1c0.1,0,0.2-0.1,0.3-0.2
	c0.1-0.1,0.2-0.1,0.3-0.1c0,0,0.1,0.1,0.1,0.2s0,0.1-0.1,0.2c-0.1,0.1-0.1,0.1-0.2,0.1s-0.2,0-0.3-0.1l-0.1,0.1l0.3,0.3l0,0l0-0.1
	c0.1,0,0.2-0.1,0.3-0.1c0.1-0.1,0.1-0.2,0.1-0.3c0-0.1,0-0.2-0.1-0.3C47.9,45.8,47.8,45.8,47.6,45.9z M49.2,44.9
	c0,0.1,0,0.2-0.1,0.3c-0.1,0.1-0.2,0.1-0.3,0l0,0c0,0.2,0,0.3-0.1,0.4c-0.1,0.2-0.3,0.2-0.4,0c-0.1-0.1-0.1-0.2-0.1-0.3
	c0-0.1,0.1-0.3,0.2-0.4l0.1-0.1l-0.1-0.1c-0.1-0.1-0.1-0.1-0.2-0.1c0,0-0.1,0-0.1,0.1c0,0.1-0.1,0.1-0.1,0.1c0,0,0,0.1,0,0.1
	c0,0,0,0,0.1,0c0,0,0.1,0,0.1,0c0.1,0.1,0.1,0.1,0,0.2c-0.1,0.1-0.1,0.1-0.2,0c-0.1,0-0.1-0.1-0.1-0.2c0-0.1,0.1-0.2,0.1-0.3
	c0.1-0.1,0.2-0.2,0.3-0.2c0,0,0.1,0,0.1,0c0,0,0.1,0,0.1,0.1l0.5,0.4c0,0,0,0,0,0s0,0,0,0C49.2,45,49.2,45,49.2,44.9L49.2,44.9z
	 M48.8,45.3c0-0.1,0-0.1-0.1-0.2L48.6,45c-0.2,0.2-0.2,0.4-0.1,0.5c0.1,0.1,0.2,0.1,0.3,0C48.8,45.4,48.8,45.3,48.8,45.3z
	 M50.5,43.2L50,42.8c-0.2-0.1-0.4-0.1-0.5,0c-0.1,0.1-0.1,0.3,0,0.5l0,0c-0.1,0-0.1,0-0.2,0s-0.1,0.1-0.2,0.1
	c-0.1,0.1-0.1,0.3,0,0.5l0,0l-0.2-0.1c-0.1,0.1-0.1,0.2-0.2,0.3l-0.1,0.2l0.1,0l0.1-0.2l0.8,0.6l-0.1,0.2l0.1,0l0.4-0.5l-0.1,0
	l-0.1,0.1l-0.4-0.3c-0.1-0.1-0.2-0.1-0.2-0.2c0-0.1,0-0.2,0-0.2c0,0,0.1-0.1,0.1-0.1c0,0,0.1,0,0.1,0.1l0.6,0.4l-0.1,0.1l0.1,0
	l0.4-0.5l-0.1,0l-0.1,0.1l-0.4-0.3c-0.1-0.1-0.2-0.1-0.2-0.3c0-0.1,0-0.2,0-0.2c0-0.1,0.1-0.1,0.2,0l0.6,0.4l-0.1,0.1l0.1,0l0.4-0.5
	l-0.1,0L50.5,43.2z M52,41.9L52,41.9l-0.3,0.6l-0.1,0l0.1-0.2l-1.4-0.8l-0.1,0.2l-0.1,0l0.1-0.2c0-0.1,0.1-0.2,0.1-0.3l0.2,0.1l0,0
	c-0.1-0.1-0.1-0.3,0-0.4c0.1-0.1,0.2-0.2,0.3-0.2c0.1,0,0.3,0,0.4,0.1c0.2,0.1,0.2,0.2,0.3,0.3c0,0.1,0,0.3,0,0.4
	c-0.1,0.1-0.2,0.2-0.3,0.2l0,0l0.6,0.4L52,41.9z M51.4,41.6c0.1,0,0.2-0.1,0.2-0.1c0-0.1,0-0.1,0-0.2c0,0-0.1-0.1-0.2-0.2L51,40.9
	c-0.2-0.1-0.3-0.1-0.4,0c0,0.1-0.1,0.2,0,0.3c0,0.1,0.1,0.2,0.2,0.2l0.3,0.1C51.2,41.7,51.3,41.7,51.4,41.6z M50.7,39.6
	c0,0-0.1,0-0.1,0c0,0-0.1,0-0.1,0.1c0,0,0,0.1,0,0.1c0,0,0,0.1,0.1,0.1c0,0,0.1,0,0.1,0c0,0,0.1,0,0.1-0.1
	C50.8,39.8,50.8,39.7,50.7,39.6C50.7,39.7,50.7,39.6,50.7,39.6z M52.1,40.3l-1-0.5c0,0.1-0.1,0.2-0.1,0.3L51,40.3l0.1,0l0.1-0.2
	l0.9,0.4l-0.1,0.2l0.1,0l0.3-0.7l-0.1,0L52.1,40.3z M52.6,39.5c-0.1,0.1-0.2,0.2-0.3,0.3c-0.1,0.1-0.3,0-0.4,0
	c-0.2-0.1-0.3-0.2-0.3-0.3c-0.1-0.1-0.1-0.3,0-0.4c0.1-0.1,0.2-0.2,0.3-0.3c0.1-0.1,0.3-0.1,0.4,0l0,0l-0.3,0.7l0.3,0.1
	c0.1,0,0.1,0,0.2,0C52.5,39.6,52.5,39.5,52.6,39.5c0-0.2,0-0.2,0-0.3c0-0.1-0.1-0.2-0.2-0.2l0-0.1C52.7,39,52.7,39.3,52.6,39.5z
	 M52,39L51.9,39c-0.1-0.1-0.2,0-0.3,0.1c-0.1,0.1,0,0.2,0.1,0.3l0.1,0.1L52,39z M51.6,37.2C51.6,37.2,51.6,37.2,51.6,37.2
	c-0.1,0-0.1,0-0.1,0.1c0,0,0,0.1,0,0.2l0.3,0.5l0-0.1l-0.1-0.5C51.7,37.3,51.7,37.2,51.6,37.2z M53.3,37.6l-0.7-0.3
	c-0.2-0.1-0.4,0-0.4,0.2c-0.1,0.2,0,0.3,0.1,0.5l0,0L52,37.9c0,0.1-0.1,0.2-0.1,0.3l-0.1,0.2l0.1,0l0.1-0.2l0.9,0.3l-0.1,0.2l0.1,0
	l0.2-0.6l-0.1,0L53,38.3l-0.5-0.2c-0.1,0-0.2-0.1-0.2-0.2c-0.1-0.1-0.1-0.2,0-0.3c0-0.1,0-0.1,0.1-0.1c0,0,0.1,0,0.1,0l0.7,0.3
	L53.1,38l0.1,0l0.2-0.6l-0.1,0L53.3,37.6z M53.6,36.7c0,0-0.1-0.1-0.1-0.1c0,0-0.1,0-0.1,0c0,0-0.1,0.1-0.1,0.1c0,0.1,0,0.1,0,0.1
	c0,0,0.1,0.1,0.1,0.1c0.1,0,0.1,0,0.1,0c0,0,0.1-0.1,0.1-0.1C53.6,36.8,53.6,36.8,53.6,36.7z M52.2,36.6c0.3,0,0.5,0.1,0.7,0.2l0,0
	l0-0.1l0,0c-0.2-0.1-0.5-0.2-0.7-0.3c-0.2-0.1-0.3-0.2-0.3-0.2c-0.1,0-0.2,0-0.2,0.1c0,0.1,0,0.2,0.1,0.2
	C51.9,36.5,52,36.5,52.2,36.6z M25.1,40.2c0,2.2-0.5,3.8-1.7,4.7c-0.8,0.6-1.8,0.8-2.6,0.8c-0.9,0-1.7-0.2-1.7-0.2
	c-0.1,0-0.1-0.1-0.1-0.1c0-0.1,0.1-0.1,0.1-0.1c0,0,2.5,0.7,4.2-0.5c1.1-0.8,1.7-2.3,1.6-4.5c0-1.2,0.2-2.2,0.4-3
	c-0.1,0-0.2,0-0.3,0c-0.2,0-0.3-0.1-0.4-0.2c-0.3-0.3,0-1.1,0-1.2l0.1-0.1l0.1,0.1c0.4,0.4,0.6,0.7,0.6,0.9c0-0.1,0-0.1,0.1-0.2
	c0,0,0-0.2,0.2-0.4c0.5-1,1-1.4,1-1.4c0,0,0.1,0,0.1,0c0,0,0,0.1,0,0.1c0,0-0.4,0.3-0.7,0.9c0.2-0.1,0.4-0.2,0.8-0.2l0.2,0L27,35.9
	c0,0-0.6,0.9-1.2,0.9c0,0,0,0,0,0C25.4,37.6,25.1,38.7,25.1,40.2z M25.7,36.6c0.3,0,0.7-0.4,0.9-0.6C26,36.1,25.8,36.4,25.7,36.6z
	 M25.3,37c0-0.1,0-0.4-0.5-0.9c-0.1,0.2-0.2,0.6,0,0.8C24.9,37.1,25.1,37.1,25.3,37z M43.6,27c0,0-0.6,0.9-1.2,0.9c0,0-0.1,0-0.1,0
	c-0.1,0.3-0.3,0.5-0.4,0.7c0.5,0,0.9,0.1,1.1,0.3c0.1,0.2,0.1,0.3,0.1,0.3l0,0.1l-0.1,0c0,0,0,0-0.1,0c-0.5,0-0.8-0.1-1-0.3
	c-0.1-0.1-0.1-0.2-0.1-0.2c0,0,0,0,0,0c-0.8,1.3-2.2,2-3.3,2.2c0.2,0.2,0.6,0.3,1.5,0.3c0.7-0.4,1.3,0.1,1.3,0.1l0.1,0.1l-0.1,0.1
	c-0.3,0.2-0.5,0.3-0.7,0.3c-0.1,0-0.1,0-0.2,0c-0.2-0.1-0.4-0.2-0.4-0.3c-0.9,0-1.5-0.2-1.7-0.5c-0.1,0-0.3,0.1-0.4,0.1
	c0.1,0,0.1,0.1,0.1,0.1c0.1,0.1,0,0.3,0,0.3l0,0.1l-0.1,0c-0.5,0-0.7-0.3-0.7-0.4c-1.9,0-3.3,0.3-4.3,0.9c0.1,0,0.2,0.1,0.3,0.1
	l0.1,0l0,0.1c-0.1,0.2-0.3,0.4-0.5,0.5c-0.1,0-0.2,0-0.2,0c-0.2,0-0.4-0.1-0.5-0.1c-1.2,1-1.4,2-1.4,2.1c0,0,0,0,0,0
	c0.1,0.7,0.1,1.4,0.1,2c0.2-0.2,0.4-0.3,0.7-0.4l0.1,0l0,0.1c0,0.1,0,0.1,0,0.2c0,0.1,0,0.2,0,0.3c0,0.2-0.2,0.4-0.4,0.5
	c-0.1,0-0.1,0.1-0.2,0.1c-0.1,0.1-0.3,0.1-0.3,0.2l-0.2,0.1l0-0.2c0,0,0-0.1,0-0.1c0,0,0,0,0-0.1c0,0,0,0,0,0c0-0.1,0-0.2,0-0.3
	c0,0,0-0.1,0-0.1c0.1-0.5,0.1-1.5-0.1-2.5c-0.3-0.1-0.6-0.2-0.7-0.4c-0.2-0.3-0.2-0.7-0.2-0.7l0-0.1l0.1,0c0.2,0,0.3,0.1,0.5,0.2
	c-0.3-0.7-0.9-1.4-1.7-2c-0.1,0-0.1,0-0.2-0.1l0,0l0,0.1c-0.2,0.3-0.5,0.4-0.8,0.4c-0.2,0-0.4-0.1-0.4-0.1l-0.2,0l0.1-0.1
	c0.3-0.3,0.6-0.5,0.9-0.5c0.1,0,0.2,0.1,0.3,0.1c-0.3-0.5,0-1.1,0-1.1l0.1-0.3l0.1,0.3c0,0.2,0.1,0.2,0.1,0.3
	c0.1,0.1,0.1,0.2,0.2,0.3c0.1,0.2,0.1,0.4,0,0.6c0.1,0.1,0.3,0.2,0.4,0.3c0-0.2-0.1-0.4,0-0.6c0.1-0.2,0.3-0.3,0.6-0.4l0,0l0,0
	c0,0,0.2,0.2,0.2,0.4c0,0.3-0.2,0.6-0.6,0.8c0.6,0.6,1,1.4,1.2,2.1c0,0.1,0,0.1,0.1,0.2c0,0,0,0.1,0,0.1c0.2-0.4,0.6-1.2,1.4-1.9
	c0-0.1,0.1-0.1,0.1-0.1c-0.2-0.3-0.4-0.8,0.1-1.3l0.1-0.1l0.1,0.1c0,0,0.4,0.4,0.1,1c0.1,0,0.1,0,0.2,0c0.6-0.4,1.5-0.7,2.5-0.9
	C34.6,30.7,35,30,35,30l0-0.1l0.1,0c0.3,0.1,0.4,0.3,0.4,0.5c0.1-0.3,0.3-0.5,0.5-0.6c0.4-0.2,0.8,0,0.8,0l0.1,0l0,0.1
	c-0.2,0.6-0.7,0.7-1,0.7c-0.2,0-0.3,0-0.3,0l0,0c0,0.1,0,0.1,0,0.1c0,0-0.1,0.2-0.2,0.3c0.6-0.1,1.2-0.1,1.9-0.1l0,0l0.1,0
	c0,0,0,0,0,0c0,0,0.3,0,0.8-0.1c-0.1-0.4,0.4-0.9,0.5-1c-0.1-0.1-0.1-0.5,0-0.8c0.1-0.2,0.3-0.3,0.6-0.4l0,0l0,0
	c0,0,0.2,0.2,0.2,0.4c0,0.3-0.2,0.6-0.6,0.9c-0.2,0.1-0.6,0.6-0.5,0.9c0.8-0.2,1.8-0.6,2.6-1.3l0,0c-0.4-0.2-0.3-1-0.2-1.1l0-0.2
	l0.1,0.1c0.4,0.3,0.5,0.5,0.5,0.7c0.1-0.1,0.2-0.2,0.2-0.4c1.2-2.1,1.6-3.2,1.5-3.5c-0.1,0-0.2,0-0.3,0c-0.2,0-0.3-0.1-0.4-0.2
	c-0.3-0.3,0-1.1,0-1.2l0.1-0.1l0.1,0.1c0.5,0.4,0.6,0.8,0.6,1c0.2-0.2,0.5-0.6,0.4-1.6c-0.1-0.1-0.5-0.4-0.5-0.8
	c0-0.2,0-0.4,0.2-0.5l0-0.1l0.1,0c0,0,0.5,0.2,0.6,0.6c0.1,0.2,0,0.5-0.2,0.7c0,0.3,0,0.5,0,0.7c0.1-0.3,0.5-0.6,1.3-0.7l0.2,0
	l-0.1,0.2c0,0-0.6,0.9-1.2,0.9c0,0-0.1,0-0.1,0l0,0c-0.1,0.5-0.4,0.7-0.5,0.8c0,0.1,0,0.2,0,0.4c0.3-0.3,0.7-0.3,0.7-0.3h0.1l0,0.1
	c0,0.6-0.9,0.8-1,0.8c-0.1,0.3-0.3,0.6-0.4,1c0.2-0.1,0.4-0.2,0.8-0.2l0.2,0L43.6,27z M44,24.1c0.3,0,0.7-0.4,0.9-0.6
	C44.3,23.6,44.1,23.9,44,24.1z M43.7,23.1c0.1-0.2,0.2-0.4,0.2-0.5c-0.1-0.2-0.3-0.4-0.4-0.4c-0.1,0.1-0.1,0.2-0.1,0.3
	C43.4,22.7,43.6,23,43.7,23.1z M43.3,25.8c0.2-0.1,0.5-0.2,0.6-0.5C43.8,25.4,43.5,25.5,43.3,25.8z M43.1,25c0-0.1,0-0.4-0.5-0.9
	c-0.1,0.2-0.2,0.6,0,0.8C42.7,25,42.9,25,43.1,25z M38.9,29.7c0.4-0.3,0.4-0.5,0.5-0.6c0-0.1,0-0.2-0.1-0.2
	c-0.2,0.1-0.3,0.2-0.4,0.3C38.8,29.4,38.8,29.6,38.9,29.7z M35.8,30.5c0.2,0,0.7,0,0.9-0.5c-0.1,0-0.3,0-0.6,0.1
	C36,30.2,35.8,30.3,35.8,30.5z M27.9,31.5c0,0-0.1-0.1-0.2-0.1c-0.2,0-0.4,0.1-0.6,0.3C27.3,31.7,27.7,31.7,27.9,31.5z M28.3,30.9
	c-0.1-0.1-0.1-0.2-0.2-0.3c0,0-0.1-0.1-0.1-0.1c0,0.2,0,0.5,0.1,0.7c0.1,0.1,0.2,0.1,0.2,0.1C28.4,31.3,28.4,31.1,28.3,30.9z
	 M29.6,31.2c0-0.1,0-0.2-0.1-0.2c-0.2,0.1-0.3,0.2-0.4,0.3c-0.1,0.2-0.1,0.4,0,0.6C29.5,31.5,29.6,31.3,29.6,31.2z M30.3,34.4
	c0-0.2-0.1-0.6-0.7-0.7c0,0.1,0,0.3,0.1,0.4C29.9,34.2,30.1,34.3,30.3,34.4z M30.6,37.3c0,0.1,0,0.1,0,0.2c0.1,0,0.1-0.1,0.2-0.1
	c0.1,0,0.1-0.1,0.2-0.1c0.1-0.1,0.3-0.2,0.3-0.4c0-0.1,0-0.2,0-0.2c0,0,0-0.1,0-0.1C31,36.7,30.7,37,30.6,37.3z M32.2,32.2
	c0.2-0.4,0.1-0.7,0.1-0.8C31.9,31.7,32.1,32,32.2,32.2z M32.2,32.6c0.1,0,0.3,0.1,0.5,0c0.1,0,0.3-0.1,0.3-0.3
	C32.8,32.3,32.4,32.2,32.2,32.6z M35.2,31c0.1-0.1,0.2-0.3,0.2-0.5c0-0.1-0.1-0.3-0.2-0.3C35.1,30.4,35,30.7,35.2,31z M37.9,31.4
	C37.9,31.4,37.9,31.4,37.9,31.4c-0.1-0.1-0.1-0.2-0.4-0.2C37.5,31.3,37.6,31.4,37.9,31.4z M40.2,31.5c0.1,0.1,0.1,0.2,0.3,0.2
	c0.2,0,0.4,0,0.6-0.1C40.9,31.5,40.5,31.3,40.2,31.5z M41.1,29.1c0-0.1-0.1-0.3-0.3-0.4c0,0.2,0,0.6,0.1,0.7
	C41,29.3,41.1,29.2,41.1,29.1z M42,28.8c0.1,0.1,0.3,0.4,0.9,0.4c0,0,0-0.1-0.1-0.1C42.7,28.9,42.5,28.8,42,28.8z M43.3,27.1
	c-0.6,0.1-0.8,0.4-0.9,0.6C42.7,27.7,43.1,27.3,43.3,27.1z M37.4,20.3c0.3,0.1,0.4,0.4,0.4,0.4l0,0.1l-0.1,0
	C37.6,21,37.5,21,37.3,21c0,0-0.1,0-0.1,0c-0.4,0-0.7-0.4-0.7-0.4l-0.1-0.1l0.1-0.1C36.9,20.2,37.2,20.2,37.4,20.3z M36.8,20.5
	c0.1,0.1,0.3,0.2,0.5,0.3c0.1,0,0.2,0,0.3-0.1c0-0.1-0.1-0.2-0.2-0.2C37.2,20.4,37,20.4,36.8,20.5z M40.9,23.3
	c-0.1,0.1-0.2,0.2-0.3,0.3c0.3-0.1,0.6-0.1,1,0.1l0.1,0.1l0,0.1c0,0-0.2,0.3-0.5,0.4c-0.1,0-0.1,0-0.2,0c-0.2,0-0.5-0.1-0.7-0.2l0,0
	c-0.1,0.1-0.3,0.1-0.4,0.1c-0.1,0-0.1,0-0.2-0.1c-0.7,0.4-1.1,0.7-1.2,1.1c-0.1,0.3-0.1,0.4,0,0.7c0.2-0.2,0.4-0.4,0.6-0.4l0.1,0
	l0,0.1c-0.1,0.6-0.5,0.8-0.7,0.8c0,0.4-0.1,0.7-0.1,0.8c0.5-0.2,1.2-0.6,1.9-1.3c0-0.1-0.1-0.4,0.1-0.6c0.1-0.2,0.3-0.3,0.6-0.3
	l0.1,0l0,0.1c0,0,0.1,0.5-0.2,0.8c-0.1,0.1-0.2,0.1-0.4,0.1c0,0-0.1,0-0.1,0c-0.2,0.1-0.3,0.3-0.5,0.4c0.2,0,0.5,0.1,0.7,0.3
	l0.1,0.1l-0.1,0.1c0,0-0.3,0.3-0.7,0.3c-0.2,0-0.4-0.1-0.7-0.2l0,0c-0.4,0.3-0.8,0.5-1.2,0.6c0,0,0,0,0,0c-0.7,0.3-1.3,0.2-1.8,0.2
	c-0.1,0-0.1,0-0.2,0c0,0,0,0,0,0c-0.8,0-1.6,0.1-2.3,0.4c-2.2,0.9-2.6,2.8-2.6,2.9c0,0-0.1,0.1-0.1,0.1c0,0,0,0,0,0
	c-0.1,0-0.1-0.1-0.1-0.1c0,0,0-0.2,0.1-0.4l-0.1-1.2c0-0.1-0.2-0.5,0-0.9c0.1-0.2,0.3-0.3,0.6-0.4l0,0l0,0c0,0,0.2,0.2,0.2,0.4
	c0,0.3-0.2,0.6-0.6,0.8l0.1,0.8c0.3-0.5,0.7-1.2,1.5-1.7c0,0,0,0,0,0c0,0,0.2-1-0.1-1.7c0,0,0,0-0.1,0c-0.2,0-0.5,0-0.7-0.2
	c-0.2-0.2-0.3-0.4-0.3-0.7l0-0.1l0.1,0c0,0,0.3-0.1,0.6,0.1c0,0,0,0,0,0c0-0.1,0-0.1,0-0.2c0-0.1,0-0.2,0-0.4c0-0.3,0-0.5,0-0.6
	c-0.2-0.1-0.4-0.3-0.4-1.1l0-0.1l0.1,0.1c0.1,0,0.5,0.2,0.7,0.5c0,0,0,0,0-0.1c0.1-0.2,0.1-0.3,0.1-0.6c-0.1-0.6-0.8-0.9-1-1
	c0,0-0.1,0-0.2,0c-0.2,0-0.5,0-0.7-0.2c-0.2-0.1-0.3-0.3-0.3-0.6l0-0.1l0.1,0c0,0,0.4-0.2,0.8,0c0.2,0.1,0.4,0.4,0.5,0.7
	c0,0,0.1,0,0.1,0.1c-0.1-0.3-0.1-0.7,0.3-1.1l0.1-0.1l0.1,0.1c0,0,0.5,0.5,0,1.3c0.2,0.2,0.5,0.4,0.6,0.8c0.2-0.3,0.5-0.6,0.7-0.9
	c0,0,0,0,0-0.1c0,0,0.1-0.6-0.2-0.8l0,0c-0.3-0.2-0.5-0.4-0.5-0.6c0-0.2,0.1-0.3,0.1-0.3l0,0c0.2-0.1,0.3,0,0.4,0.1
	c0.2,0.2,0.1,0.6,0.1,0.7c0.2,0.2,0.3,0.5,0.3,0.7c0.1-0.1,0.1-0.2,0.1-0.3l0,0l0-0.1c0,0,0-0.1,0-0.2c0-0.2,0-0.4,0-0.7
	c0,0,0,0,0,0c0,0-0.4-0.6-0.9-0.8c0,0,0,0,0,0c0,0-0.2-0.1-0.2-0.2c0,0.1,0,0.1-0.1,0.2C33,20,32.9,20,32.7,20c-0.2,0-0.5-0.1-1-0.3
	l-0.1-0.1l0.1-0.1c0,0,0.5-0.4,0.9-0.4c0.1,0,0.3,0.1,0.4,0.2c0-0.2,0.1-0.4,0.3-0.6l0.1-0.1l0.1,0.1c0,0,0.4,0.5,0.3,0.8
	c0,0.1-0.1,0.2-0.2,0.3c0.3,0.2,0.5,0.4,0.7,0.6c0-0.3,0.2-0.7,0.4-1.1c-0.3-0.2-0.6-0.7-0.2-1.2l0-0.1l0.1,0c0,0,0.4,0.2,0.4,0.9
	c0.3-0.3,0.6-0.4,0.8-0.6c0.3-0.1,0.5-0.3,0.6-0.4c-0.1,0-0.1,0-0.2,0c0,0-0.1,0-0.1,0c-0.4,0-0.7-0.4-0.7-0.4l-0.1-0.1l0.1-0.1
	c0.3-0.2,0.6-0.2,0.8-0.1c0.1,0,0.2,0.1,0.3,0.2c0-0.2,0.1-0.3,0.1-0.5c0,0,0,0,0,0c-0.1-0.1-0.5-0.3-0.7-0.9
	c-0.1,0-0.2-0.1-0.2-0.3c-0.1-0.2,0-0.5,0.2-0.9l0.1-0.1l0.1,0.1c0,0,0.4,0.5,0.3,0.8c0,0.1-0.1,0.2-0.3,0.3
	c0.1,0.4,0.4,0.6,0.5,0.7c0.1-0.4,0.1-0.8,0.4-1.1c0-0.1,0.1-0.5,0.4-0.8l0,0c0,0-0.3-0.1-0.5-0.3c-0.1-0.2-0.1-0.5,0-0.8l0-0.1
	l0.1,0c0,0,0.5,0.3,0.6,0.6c0,0.1,0,0.3-0.2,0.4c0.2-0.1,0.4-0.2,0.6-0.2l0.1,0l0,0.1c0,0,0.2,0.8-1.1,1.1c-0.2,0.2-0.3,0.5-0.4,0.9
	c0.3-0.4,0.8-0.4,0.9-0.4l0.1,0l0,0.1c-0.1,0.4-0.3,0.7-0.5,0.8c-0.1,0.1-0.2,0.1-0.3,0.1c-0.1,0-0.1,0-0.2,0c0,0.2-0.1,0.4-0.1,0.6
	l0,0l0,0c-0.1,0.4-0.4,0.6-0.8,0.8c-0.3,0.2-0.7,0.4-1,0.8l0,0.1l0,0c-0.4,0.6-0.4,1.3-0.4,1.7c0.3-0.4,0.9-0.5,0.9-0.5l0.1,0l0,0.1
	c-0.1,0.4-0.3,0.7-0.5,0.8c-0.1,0.1-0.2,0.1-0.3,0.1c-0.1,0-0.1,0-0.2,0c-0.2,0.5-1,1.4-1.2,1.6c0,0,0,0-0.1,0c0,0,0,0,0,0.1
	c0.1-0.1,0.3-0.3,0.6-0.3l0.1,0l0,0.1c0,0,0,0.4-0.3,0.6c-0.2,0.2-0.4,0.2-0.6,0.2c-0.1,0.1-0.1,0.2-0.2,0.3c0,0-0.1,0.1-0.1,0.1
	c0,0,0,0,0,0c0,0,0,0.3,0,0.4c0.2-0.2,0.5-0.3,0.5-0.3l0.1-0.1l0,0.1c0,0.4-0.1,0.6-0.3,0.8c-0.1,0.1-0.3,0.1-0.3,0.1c0,0,0,0-0.1,0
	c0,0.1,0,0.2,0.1,0.4c0.1,0.1,0.2,0.3,0.2,0.4c0.3,0.6,0.2,1.4,0.2,1.7c0.1,0,0.1-0.1,0.2-0.1c0-0.1-0.3-1.1,0.3-1.3l0.1,0l0,0
	c0,0,0.3,0.2,0.3,0.6c0,0,0,0.1,0,0.1c0.3-0.3,0.6-0.9,0.8-1.7l0,0l0-0.1c0-0.1-0.1-0.7,0.3-0.9c0-0.1-0.1-0.5,0.1-0.7
	c0.1-0.2,0.4-0.3,0.6-0.3l0,0l0,0c0,0,0.2,0.2,0.1,0.4c-0.1,0.2-0.3,0.5-0.8,0.6c0,0,0,0,0,0c-0.1,0.1-0.2,0.2-0.2,0.4
	c0.3-0.4,0.9-0.4,0.9-0.4l0.1,0l0,0.1c-0.1,0.4-0.3,0.7-0.5,0.8c-0.1,0.1-0.2,0.1-0.3,0.1c-0.1,0-0.1,0-0.2,0c-0.2,1-0.7,1.6-1,1.9
	c0.6-0.2,1.3-0.3,2.1-0.4c-0.1-0.1-0.1-0.5,0-0.7c0.1-0.2,0.3-0.3,0.6-0.4l0,0l0,0c0,0,0.2,0.1,0.2,0.4c0,0.2-0.2,0.5-0.5,0.7
	c0,0,0,0,0,0c0.5,0,1,0.1,1.7-0.2c0.1-0.1,0.2-0.4,0.2-0.9l0,0l0-0.1c0-0.2,0-0.3,0-0.4c0-0.2,0-0.3,0-0.6c-0.1,0.1-0.2,0.1-0.2,0.1
	c0,0-0.1,0-0.1,0c-0.3-0.1-0.4-0.7-0.4-0.7l0-0.1l0.1,0c0.4,0,0.7,0,0.8,0.2c0,0,0,0,0,0c0,0,0-0.1,0.1-0.1
	c-0.1-0.2-0.8-0.9-1.7-1.1c-0.2,0.1-0.4,0.1-0.6,0.1c-0.6,0-0.9-0.4-0.9-0.4l-0.1-0.1l0.1-0.1c0.5-0.2,0.9-0.1,1.1,0
	c0-0.2,0-0.5,0.1-0.8l0-0.1l0.1,0.1c0.1,0,0.6,0.5,0.6,0.9c0,0.1,0,0.2-0.2,0.3c0.7,0.3,1.3,0.8,1.4,1c0,0,0.1-0.1,0.1-0.1
	c0-0.2,0.3-1-0.7-1.6l0,0c-0.3-0.2-0.7-0.7-0.3-1.3l0-0.1l0.1,0c0,0,0.6,0.3,0.4,1.2c0.3,0.2,0.5,0.4,0.6,0.7
	c0.1-0.4,0.4-1.5-0.8-2.3c0,0,0,0,0,0c0,0,0,0,0,0c-0.2-0.5-0.3-0.9-0.2-1.1c0.1-0.2,0.2-0.2,0.3-0.2c0,0,0.1,0,0.1,0
	c0.4,0.4,0.1,1,0,1.2c0.3,0.2,0.5,0.5,0.7,0.7c0.1-0.1,0.2-0.4,0.4-0.6c-0.1,0-0.2-0.1-0.3-0.3c-0.1-0.2-0.1-0.5,0-0.8l0-0.1l0.1,0
	c0,0,0.5,0.3,0.6,0.6c0,0.1,0,0.2,0,0.2c0.1,0,0.2-0.1,0.3-0.1c0,0,0.2-0.2,0.2-0.8c0,0,0,0-0.1,0c0,0-0.4-0.5-1.1-0.9
	c0,0-0.1,0-0.1,0c-0.2,0.1-0.3,0.2-0.5,0.2c-0.3,0-0.6-0.1-0.7-0.2l-0.1-0.1l0.1-0.1c0.3-0.3,0.7-0.4,0.9-0.3c0-0.2,0-0.5,0.2-0.8
	l0.1-0.1l0.1,0.1c0,0,0.6,0.5,0.3,1.2c0.4,0.3,0.8,0.6,1,0.7l0.1-1.2c-0.1-0.1-0.2-0.5,0.3-1.1l0.1-0.1l0.1,0.1c0,0,0.2,0.4,0.1,0.7
	c-0.1,0.2-0.2,0.3-0.4,0.4c0,0.4,0,0.7,0,1c0.3-0.4,0.9-0.4,0.9-0.4l0.1,0l0,0.1c-0.1,0.4-0.3,0.7-0.5,0.8C40.8,20,40.7,20,40.6,20
	c-0.1,0-0.1,0-0.2,0c-0.1,0.6-0.2,0.9-0.3,0.9c0.2,0,0.5,0.1,0.8,0.4l0.1,0.1l0,0.1c0,0-0.2,0.3-0.6,0.3c-0.2,0-0.6-0.1-1-0.4l0,0
	c-0.2,0.2-0.3,0.5-0.3,0.5c0,0,0,0,0,0.1c0.3,0.8,0,1.6,0,1.6c0,0,0,0,0,0C39,23.8,39,24,39,24.2c0.2-0.1,0.3-0.2,0.5-0.3
	c0-0.2,0.1-0.6,0.5-0.8l0.1-0.1l0,0.1c0,0,0.1,0.3,0,0.5c0.1-0.1,0.3-0.3,0.5-0.6c0,0,0,0,0,0c0-0.4,0.8-0.7,0.8-0.7l0.1,0l0,0.1
	c0,0.3,0,0.5-0.2,0.6c-0.2,0.1-0.4,0.2-0.5,0.2C41,23.3,40.9,23.3,40.9,23.3z M41,23.1c0.1,0,0.3,0,0.5-0.1c0.1-0.1,0.1-0.2,0.1-0.3
	C41.3,22.8,41,23,41,23.1z M40.5,19.8c0.1,0,0.2,0,0.3,0c0.2-0.1,0.3-0.3,0.4-0.5C41,19.3,40.7,19.4,40.5,19.8z M40.4,18.3
	c0.1-0.1,0.2-0.2,0.2-0.3c0-0.1,0-0.3,0-0.4C40.4,17.9,40.4,18.1,40.4,18.3z M38.8,18.8c-0.2-0.1-0.5-0.3-0.9,0
	C38.1,18.9,38.5,19.1,38.8,18.8z M38.9,17.9c-0.1,0.3-0.2,0.5-0.1,0.6c0.1,0.1,0.2,0.2,0.3,0.2C39.2,18.4,39,18.1,38.9,17.9z
	 M39.6,21.2c0.6,0.4,1,0.2,1.1,0.1C40.2,21,39.8,21.1,39.6,21.2z M39.4,20.9c0.1-0.1,0.1-0.2,0.1-0.3c0-0.2-0.2-0.3-0.4-0.4
	c-0.1,0.2-0.1,0.4,0,0.5C39.2,20.8,39.3,20.9,39.4,20.9z M38,19.8c0,0-0.1,0.1-0.1,0.1c-0.1,0.1-0.1,0.3,0.1,0.7
	C38.1,20.5,38.2,20.1,38,19.8z M37.8,21.7c-0.2,0.4,0,0.7,0.2,0.8C38.1,22,37.9,21.8,37.8,21.7z M36.7,23.4c-0.1-0.1-0.5-0.3-1-0.2
	C35.8,23.4,36.2,23.6,36.7,23.4z M37.2,23.1c0-0.2-0.2-0.5-0.4-0.6c-0.1,0.5-0.1,0.7,0,0.8c0.1,0.1,0.2,0.1,0.2,0.1
	C37.1,23.3,37.2,23.2,37.2,23.1z M34.9,25.7c0.1,0,0.2,0,0.3,0c0.2-0.1,0.3-0.3,0.4-0.5C35.4,25.2,35.1,25.4,34.9,25.7z M35.1,24.8
	c0.4-0.2,0.5-0.4,0.6-0.5c0-0.1,0-0.2,0-0.2c-0.2,0-0.3,0.1-0.4,0.2C35.1,24.4,35.1,24.7,35.1,24.8z M32.6,25.5c0.1,0,0.1,0,0.2-0.1
	C33,25.3,33,25.2,33,25C32.9,25.1,32.6,25.3,32.6,25.5z M34.5,21.6c0.1,0,0.2,0,0.3,0c0.2-0.1,0.3-0.3,0.4-0.5
	C35,21.1,34.6,21.2,34.5,21.6z M37.5,14.4c0-0.2-0.2-0.3-0.4-0.4c-0.1,0.2-0.1,0.4,0,0.5c0.1,0.1,0.2,0.2,0.3,0.2
	C37.5,14.6,37.5,14.5,37.5,14.4z M37.3,15.6c0.7-0.2,0.8-0.6,0.8-0.8C37.5,14.9,37.3,15.3,37.3,15.6z M36.8,17c0.1,0,0.2,0,0.3,0
	c0.2-0.1,0.3-0.3,0.4-0.5C37.3,16.5,37,16.7,36.8,17z M36,15.9c0.1-0.1,0.2-0.1,0.2-0.2c0-0.2-0.1-0.4-0.2-0.5
	c-0.1,0.2-0.2,0.4-0.1,0.6C35.9,15.9,35.9,15.9,36,15.9z M36.4,17.8c0-0.1-0.1-0.2-0.2-0.2c-0.1-0.1-0.3,0-0.5,0.1
	c0.1,0.1,0.3,0.2,0.5,0.3C36.2,17.8,36.3,17.8,36.4,17.8z M34.7,19.2c0.1-0.5-0.1-0.7-0.2-0.8C34.4,18.8,34.6,19.1,34.7,19.2z
	 M32.9,19.5c-0.1-0.1-0.1-0.1-0.2-0.1c-0.2,0-0.5,0.1-0.6,0.2c0.7,0.3,0.8,0.2,0.8,0.2C32.9,19.7,32.9,19.6,32.9,19.5z M33.4,19
	c-0.1,0.2-0.2,0.4-0.1,0.6c0,0.1,0.1,0.2,0.1,0.2c0.1-0.1,0.2-0.1,0.2-0.2C33.6,19.4,33.5,19.2,33.4,19z M33.6,20.7c0,0-0.1,0-0.2,0
	c0,0-0.1,0.1,0,0.1c0,0.1,0.1,0.2,0.3,0.3C33.7,21,33.7,20.8,33.6,20.7z M33.1,24c0.2,0,0.3-0.1,0.4-0.2c0.1-0.1,0.2-0.3,0.2-0.4
	C33.4,23.5,33.2,23.8,33.1,24z M31.9,22.2c-0.1-0.3-0.2-0.4-0.3-0.5c-0.2-0.1-0.4-0.1-0.5,0c0,0.2,0.1,0.3,0.2,0.4
	C31.5,22.2,31.8,22.2,31.9,22.2z M32.5,22.2c0.2-0.4,0.1-0.7,0.1-0.8C32.3,21.7,32.4,22.1,32.5,22.2z M32.6,24.4
	c0.1-0.1,0.2-0.2,0.2-0.3c0-0.2-0.3-0.4-0.5-0.5C32.3,24.2,32.4,24.4,32.6,24.4z M32.7,26.5c-0.1-0.3-0.2-0.5-0.4-0.5
	c-0.1-0.1-0.2-0.1-0.3-0.1c0,0.2,0.1,0.3,0.2,0.4C32.3,26.4,32.6,26.5,32.7,26.5z M31.7,28.4c0-0.1,0-0.2-0.1-0.2
	c-0.2,0.1-0.3,0.2-0.4,0.3c-0.1,0.2-0.1,0.4,0,0.6C31.6,28.8,31.7,28.6,31.7,28.4z M33.7,27.4c0-0.2-0.1-0.3-0.1-0.4
	c-0.3,0.2-0.2,0.6-0.1,0.9C33.6,27.7,33.7,27.6,33.7,27.4z M36.2,27.4c0.4-0.3,0.4-0.5,0.5-0.6c0-0.1,0-0.2-0.1-0.2
	c-0.2,0.1-0.3,0.1-0.4,0.3C36.1,27,36.2,27.2,36.2,27.4z M40.5,25.9c0.1,0,0.2,0,0.3-0.1c0.1-0.1,0.1-0.4,0.1-0.5
	c-0.2,0-0.3,0.1-0.4,0.2C40.4,25.6,40.5,25.8,40.5,25.9z M39.6,26.8c0.4,0.2,0.7,0.1,0.9,0c-0.2-0.1-0.3-0.2-0.5-0.2
	C39.8,26.7,39.7,26.8,39.6,26.8z M38.3,24.8c0,0-0.1-0.1-0.5-0.1c0,0.2,0.1,0.4,0.2,0.4c0.1,0,0.2-0.1,0.2-0.1
	C38.3,25,38.3,24.9,38.3,24.8z M38.5,26.2c0.1,0,0.3-0.2,0.4-0.5C38.8,25.8,38.6,25.9,38.5,26.2z M40,23.4c-0.2,0.2-0.3,0.4-0.3,0.5
	c0.1,0,0.2,0,0.2-0.1C40.1,23.7,40,23.5,40,23.4z M40.4,23.9c0.2,0.1,0.5,0.2,0.6,0.1c0.2,0,0.3-0.1,0.3-0.2
	C41,23.7,40.6,23.8,40.4,23.9z M30.1,25.9c-0.2,0.2-0.3,0.8-0.4,1.2c0.3-0.3,0.8-0.4,0.8-0.4l0.1,0l0,0.1c-0.1,0.4-0.3,0.7-0.5,0.8
	c-0.1,0.1-0.2,0.1-0.3,0.1c-0.1,0-0.1,0-0.2,0c-0.2,1.2,0.5,2.8,0.5,2.9c0,0.1,0,0.1,0,0.1c0,0,0,0,0,0c0,0-0.1,0-0.1-0.1
	c0-0.1-0.8-1.7-0.5-3l0,0l0-0.1c0-0.1,0-0.7-0.8-0.9c-0.1,0.1-0.1,0.2-0.3,0.2c0,0-0.1,0-0.1,0c-0.2,0-0.5-0.1-0.8-0.4l-0.1-0.1
	l0.1-0.1c0,0,0.3-0.4,1,0c-0.1-0.2-0.1-0.4-0.1-0.6c0-0.2,0.1-0.3,0.3-0.4l0.1-0.1l0,0.1c0,0,0.3,0.6,0,1.1c0.4,0.2,0.6,0.4,0.7,0.6
	c0-0.3,0.2-0.8,0.4-1.1c-0.4-0.3-0.3-1.2-0.2-1.2l0-0.1l0.1,0.1c0.3,0.2,0.4,0.4,0.5,0.6c0,0,0,0,0,0c0-0.1,0-0.2,0-0.4
	c0-0.3-0.3-0.6-0.7-0.9c0,0.1-0.1,0.2-0.2,0.3c-0.1,0.1-0.3,0.2-0.5,0.2c-0.2,0-0.3,0-0.5-0.1l-0.1,0l0-0.1c0,0,0.1-0.4,0.7-0.5
	c-0.4-0.2-0.9-0.5-0.8-1.1c-0.3-0.7,0.2-1.3,0.3-1.3l0.1-0.1l0.1,0.1c0.2,0.4,0.2,0.7,0.1,0.9c-0.1,0.2-0.3,0.4-0.4,0.4
	c-0.1,0.4,0.2,0.7,0.6,0.8c-0.1-0.1-0.1-0.2-0.1-0.3c0-0.2,0-0.3,0.1-0.5l0.1-0.1l0.1,0.1c0,0,0.6,0.5,0.5,1
	c0.5,0.3,0.8,0.7,0.9,1.1c0,0,0,0.1,0,0.1c0.2-0.2,0.5-0.6,0.6-1.2c0,0-0.1,0-0.1,0c-0.1,0-0.1,0-0.2,0c-0.3-0.1-0.4-0.4-0.6-0.9
	l0-0.1l0.1,0c0,0,0.4-0.1,0.9,0.6c0-0.2,0.1-0.4,0.3-0.5c0.1-0.1,0.3-0.1,0.5-0.1l0.1,0l0,0.1c0,0-0.1,0.8-0.7,0.9
	c0,0.4-0.2,0.8-0.3,1c0.2-0.1,0.5-0.2,0.8-0.2l0.1,0l0,0.1c0,0,0,0.4-0.3,0.6c-0.2,0.1-0.4,0.2-0.7,0.2c-0.1,0-0.3,0-0.4,0
	c0,0.1-0.1,0.2-0.2,0.3C30.3,25.8,30.2,25.9,30.1,25.9z M31.4,23.3c0.3-0.1,0.4-0.4,0.4-0.6c-0.1,0-0.1,0-0.2,0.1
	C31.5,23,31.5,23.2,31.4,23.3z M31.2,23.4c-0.2-0.5-0.5-0.6-0.6-0.6c0.1,0.4,0.3,0.6,0.4,0.6C31,23.4,31.1,23.4,31.2,23.4z
	 M30.6,25.2c0.4,0.1,0.7,0,0.9-0.2c0.1-0.1,0.2-0.3,0.2-0.4C31.2,24.7,30.8,25,30.6,25.2z M28.5,22.4c0.1,0,0.2-0.1,0.2-0.3
	c0.1-0.2,0-0.4-0.1-0.6C28.5,21.7,28.3,22,28.5,22.4z M29.5,23.8c-0.5,0-0.8,0.1-0.9,0.2c0.4,0.1,0.7,0,0.8-0.1
	C29.5,23.9,29.5,23.9,29.5,23.8z M29.2,22.9c0,0.1,0,0.1,0,0.2c0,0.2,0.2,0.4,0.3,0.5C29.6,23.3,29.4,23,29.2,22.9z M28.5,26.5
	c-0.5-0.2-0.8-0.2-0.9-0.2c0.4,0.3,0.6,0.3,0.7,0.3C28.4,26.6,28.5,26.6,28.5,26.5z M28.7,25.6c0,0-0.1,0.1-0.1,0.2
	c0,0.2,0,0.4,0.1,0.6C28.8,26.1,28.7,25.8,28.7,25.6z M29.7,27.5c0.1,0,0.2,0,0.3,0c0.2-0.1,0.3-0.3,0.4-0.5
	C30.2,27,29.8,27.1,29.7,27.5z M30,25.7c0.1-0.1,0.2-0.2,0.2-0.3c0-0.2-0.1-0.4-0.4-0.5C29.8,25.1,29.8,25.6,30,25.7z M15.6,19.7
	c0.3,0,0.6,0.2,0.9,0.4c-0.1-0.2-0.1-0.5,0-0.9c0,0,0,0,0,0v-0.3l0.2,0.2c0.7,0.7,0.5,1.2,0.4,1.4c0.1,0,0.4,0.1,0.7,0.2
	c0,0,0,0,0,0c-0.2-0.3,0.1-0.7,0.1-0.8l0-0.1l0.1,0c0.5,0.3,0.6,0.8,0.6,1c0.2,0,0.3,0,0.4,0c-0.2-0.3-0.6-0.8-0.7-1.7
	c-0.1,0.1-0.3,0.1-0.4,0.1c-0.1,0-0.2,0-0.2-0.1c-0.4-0.2-0.4-1-0.4-1.1l0-0.1l0.1,0.1c0.5,0.2,0.7,0.4,0.8,0.6c0-0.1,0-0.1,0-0.2
	c0,0-0.1-0.6-0.8-0.9c-0.1,0.1-0.4,0.2-0.8,0.2c-0.3,0-0.6-0.1-0.9-0.3l-0.1-0.1l0.1-0.1c0,0,0.7-0.4,1.3-0.2
	c-0.1-0.2-0.1-0.5,0.1-0.8l0.1-0.1l0.1,0.1c0.2,0.2,0.5,0.6,0.2,1.1c0,0,0,0,0,0c0.5,0.2,0.7,0.4,0.8,0.7c0-0.1,0-0.2,0.1-0.3
	c0,0-0.1,0-0.1-0.1c-0.2-0.2-0.2-0.6-0.1-1.1l0-0.1l0.1,0.1c0,0,0.5,0.3,0.5,0.7c0,0.2-0.1,0.4-0.3,0.6c-0.5,1.9,0.4,2.9,0.6,3.1
	c0-0.3,0.2-0.6,0.4-0.9c0,0,0.1-0.1,0.1-0.2c-0.4-0.2-0.6-0.5-0.7-0.8c-0.1-0.4,0.2-0.7,0.2-0.7l0,0l0.1,0c0.3,0.1,0.5,0.3,0.6,0.5
	c0.1,0.3,0.1,0.5,0.1,0.7c0.2-0.1,0.3-0.2,0.5-0.3l0.1,0l0,0.1c0,0,0,0.5-0.3,0.7c-0.1,0.1-0.2,0.1-0.4,0.1c-0.1,0-0.2,0-0.3-0.1
	c-0.2,0.3-0.3,0.6-0.3,0.9l0,0l0,0c0,0.3,0.1,0.6,0.2,0.8c0.1-0.3,0.4-0.5,0.4-0.5l0.1,0l0.1,0.1c0.3,0.4,0.4,0.7,0.3,1
	c0,0.2-0.2,0.3-0.2,0.3c0.4,0.5,1.6,0.9,1.8,1c0,0,0-0.1,0-0.1c0-0.2-0.1-0.3,0-0.5c0,0,0,0,0,0c-0.1,0-0.2,0-0.3-0.1
	c-0.2-0.2-0.3-0.5-0.2-1l0-0.1l0.1,0c0.1,0,0.8,0.2,0.9,0.6c0,0.2,0,0.3-0.2,0.5c-0.1,0.1,0,0.4,0,0.5c0,0.1,0,0.2,0,0.3
	c-0.3,1.9,0,2.1,0.3,2.4c0,0,0.1,0,0.1,0.1c0,0,0.1,0,0.1,0.1c-0.1-0.4-0.2-1,0-1.4c-0.5-0.7-0.2-1.4-0.1-1.5l0-0.1l0.1,0
	c0.3,0.1,0.5,0.3,0.6,0.6c0,0.1,0,0.2,0,0.3c0.3-0.2,0.7-0.5,1.4-0.4l0.1,0l-0.1,0.1c0,0-0.5,0.9-1.4,0.9c-0.1,0-0.2,0-0.4,0
	c0,0.1-0.1,0.1-0.1,0.1c-0.4,0.6,0,1.5,0.1,1.7c0.3,0.3,0.6,0.6,0.9,0.8c0.1,0.1,0.2,0.1,0.3,0.2c0,0,0,0.1,0,0.1
	c0-0.1,0-0.2,0.1-0.3c0.1-0.2,0.3-0.3,0.6-0.4l0,0l0,0c0,0,0.2,0.2,0.2,0.4c0,0.3-0.2,0.5-0.6,0.8c0.3,0.6,0.7,2.1,0.8,2.7
	c0.1-0.2,0.3-0.5,0.6-0.7c-0.5-0.2-0.6-0.9-0.6-0.9l0-0.1l0.1,0c0.6-0.1,0.8,0.3,0.8,0.5c0,0,0,0,0,0c0,0,0,0,0,0
	c0-0.1,0.1-0.1,0.1-0.2c0.3-0.6,0.5-1.1,0.6-1.3c-0.5-0.7-0.2-1.5-0.2-1.5l0-0.1l0.1,0c0.1,0,0.1,0,0.1,0.1c0-0.3-0.2-1-0.7-1.7
	c-0.1,0.1-0.1,0.1-0.3,0.2c0,0-0.1,0-0.1,0c-0.2,0-0.5-0.1-0.8-0.4L25,24.8l0.1-0.1c0,0,0.3-0.3,1-0.1L26,24.6
	c-0.4-0.5-0.4-0.5-0.5-0.8l0,0c0,0,0,0,0-0.1c0,0,0-0.1-0.1-0.1c0,0,0,0,0,0c0-0.1,0-0.1-0.1-0.2c-0.1,0.1-0.1,0.1-0.3,0.2
	c0,0-0.1,0-0.1,0c-0.2,0-0.5-0.1-0.8-0.4L24,23.1L24,23c0,0,0.3-0.4,1.2,0c-0.1-0.4-0.2-0.8-0.2-0.9c0-0.1,0.1-0.1,0.1-0.1
	c0.1,0,0.1,0.1,0.1,0.1c0,0.1,0.1,0.6,0.2,1c0.2-0.3,0.5-0.6,0.5-0.6l0.1-0.1l0.1,0.1c0.2,0.4,0.3,0.7,0.1,0.9
	c-0.1,0.2-0.4,0.3-0.5,0.3c0.1,0.1,0.1,0.2,0.3,0.5c0-0.1,0-0.1,0-0.2c0-0.2,0.1-0.3,0.3-0.4l0.1-0.1l0,0.1c0,0,0.4,0.7,0,1.1
	c0.1,0.2,0.2,0.4,0.3,0.5c0.1-0.3,0.2-0.8,0.7-1.1c0,0-0.1-0.1-0.1-0.1c-0.4-0.5-0.1-1.1-0.1-1.2l0.1-0.3l0.1,0.3
	c0,0.2,0.1,0.2,0.1,0.3c0.1,0.1,0.1,0.2,0.2,0.3c0.1,0.2,0.1,0.5,0,0.6c0,0,0,0,0,0.1c-0.7,0.4-0.8,1.4-0.8,1.4c0,0,0,0,0,0
	c0.2,0.6,0.3,1.1,0.3,1.1c0,0,0,0,0,0.1c0.1,0.1,0.2,0.2,0.2,0.4c0,0.1,0,0.2,0,0.3c0.3-0.2,0.7-0.5,1.4-0.4l0.1,0l-0.1,0.1
	c0,0-0.5,0.9-1.4,0.9c-0.1,0-0.2,0-0.4,0c0,0-0.1,0.1-0.1,0.1c0,0.2-0.2,0.5-0.4,0.9c0.3-0.1,0.5-0.2,0.5-0.2l0.1,0l0,0.1
	c-0.1,0.4-0.3,0.7-0.5,0.8C26.7,30,26.6,30,26.5,30c-0.1,0-0.2,0-0.2,0c0,0.1-0.1,0.1-0.1,0.2c0,0,0,0,0,0c0,0,0,0,0,0
	c-1.1,1-0.9,1.6-0.9,1.6c0,0.1,0,0.1-0.1,0.1c0,0,0,0,0,0c0,0-0.1,0-0.1-0.1c0,0-0.1-0.3,0.1-0.7c0-0.2-0.3-1.3-0.6-2.1
	c-0.5,0-2.2-0.3-2.6-1.1c-0.2-0.1-0.4-0.3-0.5-0.6c-0.4-0.4-1-0.9-2.2-1.3l-0.5,0.3c0.3,0.4-0.1,1.2-0.1,1.2l-0.1,0.1l-0.1-0.1
	c-0.2-0.2-0.3-0.4-0.4-0.6c0-0.2,0.1-0.4,0.2-0.6c-0.4,0-1-0.1-1.5-0.5c0,0.1-0.1,0.2-0.3,0.4c-0.2,0.1-0.3,0.2-0.6,0.2
	c-0.1,0-0.3,0-0.5-0.1l-0.1,0l0-0.1c0,0,0.2-0.5,0.7-0.7c0.1,0,0.3,0,0.4,0c0,0,0,0,0,0c-0.5-0.4-1-0.4-1.3-0.3c0,0-0.1,0-0.1,0
	c-0.3,0.1-0.6,0.3-0.7,0.4c0.1,0.1,0.1,0.3,0.1,0.4c-0.1,0.4-0.7,0.6-0.7,0.7l-0.1,0l0-0.1c-0.2-0.4,0.1-0.8,0.4-1c0,0-0.1,0-0.1,0
	c-0.1,0-0.2,0-0.3-0.1c-0.2-0.1-0.2-0.3-0.2-0.5l0-0.1l0.1,0c0,0,0.7-0.1,1.1,0.3c0,0,0.1,0,0.1-0.1c0,0,0,0,0,0
	c-0.2-0.3,0.1-0.9,0.2-1l0.1-0.1l0.1,0.1c0.4,0.4,0.5,0.7,0.5,0.9c0.3,0,0.7,0.1,1,0.2c0-0.2,0.1-0.4,0.3-0.6l0.1-0.1l0.1,0.1
	c0.1,0.1,0.6,0.6,0.5,1c0,0.1-0.1,0.2-0.2,0.2c0.5,0.4,1.2,0.3,1.4,0.3l0,0c-0.4-0.1-1-0.4-1.4-1.7c-0.1,0-0.3,0-0.5-0.2
	c-0.2-0.2-0.2-0.4-0.1-0.7l0-0.1l0.1,0c0,0,0.2,0,0.4,0.2c-0.1-0.3-0.2-0.5-0.6-0.7c-0.2-0.1-0.3-0.2-0.3-0.3
	c-0.1-0.3,0.1-0.7,0.1-0.7l0.1-0.1l0.1,0.1c0.2,0.1,0.3,0.3,0.4,0.5c0,0.2,0,0.4-0.1,0.5c0.4,0.2,0.5,0.5,0.6,0.7
	c0.1-0.3,0.4-0.7,0.7-0.7h0.1l0,0.1c0,0-0.1,0.9-0.7,0.9c0,0,0,0,0,0c0,0.1,0,0.2,0,0.3l0,0.1l0,0c0.4,1.5,1.2,1.6,1.4,1.6
	c-0.1,0-0.2-0.1-0.2-0.1c-0.3-0.3,0-1.1,0-1.2l0.1-0.1l0.1,0.1c0.6,0.5,0.6,0.9,0.6,1.1c1,0.3,1.7,0.8,2.1,1.1
	c0-0.1,0.1-0.2,0.1-0.3l0-0.1l0.1,0c0,0,0.6,0.3,0.4,1.2c0.2,0.6,1.6,0.9,2.3,1c-0.1-0.2-0.1-0.4-0.2-0.5l0,0l0-0.1
	c0-0.1-0.1-0.1-0.1-0.2l-0.1,0c0,0,0,0-0.1,0c-0.6,0-0.9-0.7-1-0.8L23,27.2l0.2,0c0.1,0,0.2,0,0.3,0c-0.3-0.3-0.6-0.6-1-0.9
	c0,0-0.1,0-0.1-0.1c-0.2-0.2-0.5-0.4-0.5-1.1c-0.1,0-0.2,0-0.3,0c-0.2,0-0.3-0.1-0.4-0.2c-0.3-0.3,0-1.1,0-1.2l0.1-0.1l0.1,0.1
	c0.2,0.2,0.4,0.4,0.5,0.6c0-0.2,0-0.4,0.1-0.7c0,0,0,0,0,0c0,0,0,0,0,0c-0.1,0-1.1-0.3-1.7-0.8c0,0,0,0,0,0c0,0-0.5,0.1-0.8,0.3
	c0.1,0.2,0,0.3,0,0.5c-0.2,0.5-0.9,0.7-0.9,0.7l-0.1,0l0-0.1c0-0.4,0.1-0.8,0.3-1c0.1-0.1,0.1-0.1,0.2-0.2c-0.3-0.1-0.5-0.3-0.6-0.4
	l-0.1-0.1l0.1,0c0.5-0.1,1,0.2,1.1,0.3c0.2-0.1,0.5-0.2,0.6-0.2c0,0-0.1-0.1-0.1-0.2c0,0,0-0.1-0.1-0.1c0,0,0,0,0,0
	c-0.2-0.2-0.6-0.8-0.6-1.5c0,0-0.1,0-0.3,0c-0.1,0-0.3,0-0.6-0.1c0,0,0,0.1-0.1,0.1c-0.1,0.2-0.5,0.3-1.1,0.4l-0.1,0l0-0.1
	c0,0,0-0.1,0.1-0.3c0.1-0.1,0.3-0.2,0.5-0.3c-0.2,0-0.3-0.1-0.5-0.1c-0.1,0.1-0.3,0.3-0.8,0.3c-0.2,0-0.5-0.1-0.8-0.3l-0.1-0.1
	l0.1-0.1c0,0,0.3-0.3,0.8-0.3c-0.3-0.2-0.7-0.4-0.9-0.4c0,0,0,0,0,0c0,0-0.1,0-0.1,0c-0.3,0-0.8-0.1-1.2-0.6l-0.1-0.1l0.1,0
	c0,0,0.5-0.2,0.9,0C15.3,19.2,15.5,19.4,15.6,19.7z M15.4,19.7c-0.1-0.2-0.2-0.3-0.3-0.4c-0.2-0.1-0.4-0.1-0.6-0.1
	C14.7,19.6,15.2,19.7,15.4,19.7z M19.2,23.1c-0.1-0.1-0.4-0.2-0.7-0.2C18.7,23,18.9,23.2,19.2,23.1z M19.2,23.4
	c-0.1,0-0.3,0.1-0.4,0.2c-0.2,0.2-0.2,0.4-0.2,0.7c0.2-0.1,0.5-0.3,0.7-0.6C19.3,23.6,19.3,23.5,19.2,23.4z M21.8,25
	c0-0.1,0-0.4-0.5-0.9c-0.1,0.2-0.2,0.6,0,0.8C21.4,25,21.6,25,21.8,25z M17.5,23.9c0.2-0.1,0.3-0.4,0.4-0.6
	C17.8,23.4,17.6,23.7,17.5,23.9z M16.6,22.5c0-0.1-0.1-0.2-0.2-0.3c-0.1,0.1-0.1,0.3-0.1,0.5c0,0.1,0.1,0.1,0.2,0.2
	C16.6,22.8,16.6,22.7,16.6,22.5z M17.2,24.4c-0.1-0.4-0.3-0.5-0.4-0.6c0,0.2,0,0.3,0.1,0.4C17,24.4,17.2,24.4,17.2,24.4z M14.3,25.9
	c-0.2,0.1-0.5,0.4-0.5,0.7c0.2-0.1,0.5-0.3,0.5-0.5C14.4,26,14.4,25.9,14.3,25.9z M14.4,25.5c-0.3-0.2-0.6-0.2-0.8-0.2
	c0,0.1,0.1,0.2,0.1,0.3C13.9,25.7,14.2,25.6,14.4,25.5z M15,24.5c-0.1,0.3-0.2,0.6-0.1,0.7c0,0.1,0.2,0,0.2,0l0,0c0,0,0.1,0,0.2-0.1
	C15.3,25,15.3,24.9,15,24.5z M16.8,26c-0.2-0.1-0.3-0.1-0.5-0.1c-0.2,0.1-0.4,0.3-0.5,0.4c0.3,0.1,0.6,0,0.8-0.1
	C16.7,26.1,16.8,26,16.8,26z M17.1,25.8c0.1,0,0.2,0,0.2-0.1c0.1-0.2-0.2-0.5-0.4-0.7c-0.1,0.1-0.2,0.3-0.2,0.4
	C16.7,25.6,17,25.8,17.1,25.8z M18.7,26.6c-0.1,0.1-0.2,0.3-0.2,0.5c0,0.1,0.1,0.2,0.2,0.4C18.7,27.2,18.9,26.8,18.7,26.6z
	 M18.9,26.1C18.9,26.1,18.9,26.1,18.9,26.1C18.9,26.1,18.9,26.1,18.9,26.1L18.9,26.1z M19.3,25.9c0-0.1,0-0.4-0.5-0.9
	c-0.1,0.2-0.2,0.6,0,0.8C18.9,26,19.1,25.9,19.3,25.9z M21.8,26.9c-0.2,0.4,0.1,0.7,0.2,0.8C22.1,27.3,21.9,27,21.8,26.9z
	 M27.5,24.1c0.1,0.1,0.2,0.1,0.2,0.1c0,0,0.1-0.2,0-0.4c-0.1-0.1-0.1-0.2-0.2-0.3c0,0-0.1-0.1-0.1-0.1
	C27.3,23.6,27.3,23.9,27.5,24.1z M25.1,23.2c-0.5-0.2-0.8-0.2-0.9-0.2c0.4,0.3,0.6,0.3,0.7,0.3C25.1,23.3,25.1,23.3,25.1,23.2z
	 M25.7,23.6c0.1,0,0.3,0,0.4-0.2c0.1-0.1,0.1-0.3-0.1-0.6c-0.2,0.2-0.4,0.5-0.4,0.7C25.6,23.6,25.6,23.6,25.7,23.6z M26.2,25
	c-0.5-0.2-0.8-0.2-0.9-0.2c0.4,0.3,0.6,0.3,0.7,0.3C26.1,25.1,26.2,25,26.2,25z M26.3,24c0,0-0.1,0.1-0.1,0.2c0,0.2,0,0.4,0.1,0.6
	C26.5,24.5,26.4,24.2,26.3,24z M27.3,28c0.7,0.1,1.2-0.4,1.3-0.6C27.9,27.3,27.4,27.8,27.3,28z M27,28.1c0.1-0.2,0.3-0.5,0.2-0.7
	c0-0.2-0.1-0.3-0.3-0.4C26.8,27.2,26.7,27.7,27,28.1z M26.4,29.8c0.1,0,0.2,0,0.3,0c0.2-0.1,0.3-0.3,0.4-0.5
	C26.9,29.3,26.5,29.4,26.4,29.8z M26,30c0-0.1,0-0.3-0.1-0.5c-0.1-0.1-0.2-0.2-0.4-0.2C25.5,29.6,25.7,29.9,26,30z M24.4,28
	c0.4-0.3,0.4-0.5,0.5-0.6c0-0.1,0-0.2-0.1-0.2c-0.2,0.1-0.3,0.2-0.4,0.3C24.3,27.7,24.4,27.9,24.4,28z M23.4,27.4
	c0.1,0.2,0.3,0.5,0.6,0.5c0-0.1,0-0.1-0.1-0.2C23.8,27.6,23.6,27.5,23.4,27.4z M23.1,24.6c0.7,0.1,1.2-0.4,1.4-0.6
	C23.7,23.9,23.2,24.3,23.1,24.6z M22.8,24.6c0.1-0.2,0.3-0.5,0.2-0.7c0-0.2-0.1-0.3-0.3-0.4C22.6,23.7,22.5,24.2,22.8,24.6z
	 M22,22.8c0.1-0.1,0.2-0.2,0.1-0.3c0-0.2-0.3-0.3-0.6-0.4c0,0.4,0.1,0.6,0.2,0.7C21.8,22.8,21.9,22.8,22,22.8z M20.1,22.5
	c0.1,0,0.1-0.1,0.2-0.2c0.1-0.2,0-0.4-0.2-0.7c-0.1,0.1-0.2,0.2-0.2,0.3C19.8,22,19.9,22.2,20.1,22.5z M19.9,19.8
	c0.2,0,0.3,0,0.4-0.1c0.1-0.1,0.2-0.3,0.2-0.4C20.3,19.4,20,19.7,19.9,19.8z M19.8,19.4c0-0.2,0.1-0.5,0-0.7
	c-0.1-0.2-0.2-0.3-0.4-0.4c-0.1,0.1-0.1,0.3-0.1,0.5C19.4,19.1,19.5,19.3,19.8,19.4z M17.3,17.3c-0.5-0.4-1-0.2-1.3,0
	C16.6,17.6,17.1,17.4,17.3,17.3z M17.3,16.4c-0.1,0.3,0,0.5,0.1,0.7C17.6,16.8,17.4,16.6,17.3,16.4z M17.6,18.2
	c0,0.3,0.1,0.7,0.3,0.8c0.1,0.1,0.2,0,0.4-0.1C18.3,18.8,18.2,18.5,17.6,18.2z M18.5,17.4C18.5,17.5,18.5,17.5,18.5,17.4
	c0.2-0.1,0.3-0.2,0.3-0.3c0-0.2-0.2-0.3-0.3-0.4C18.4,17.2,18.4,17.4,18.5,17.4z M17.9,20.5c0.1,0.1,0.2,0.2,0.4,0.2
	c0-0.2-0.1-0.5-0.4-0.7C17.9,20.2,17.9,20.4,17.9,20.5z M17.3,21.2C17.3,21.2,17.3,21.3,17.3,21.2c0.6,0,0.7-0.2,0.8-0.2
	c0,0,0,0,0,0C17.6,21,17.4,21.1,17.3,21.2z M16.9,20.3c0.1-0.1,0.1-0.4-0.3-0.9C16.6,19.7,16.6,20.1,16.9,20.3z M15.8,20.6
	c0.6,0.3,1,0.1,1.2,0C16.4,20.3,16,20.5,15.8,20.6z M26.6,21.9c0,0-0.1,0-0.1,0.1c0.1,0,0.3,0.1,0.3,0.1c0.1,0,0.1,0.1,0.1,0.1
	c0,0.1,0,0.1-0.1,0.1c0,0,0,0,0,0c0,0-0.9-0.1-1.3-0.8c-0.1,0-0.2-0.1-0.2-0.2c-0.3-0.3-1.1-0.6-1.9-0.2c0,0,0,0,0,0
	c0,0-0.8,0.5-1.5-0.3c-0.1,0.1-0.1,0.1-0.3,0.2c0,0-0.1,0-0.1,0c-0.2,0-0.5-0.1-0.8-0.4l-0.1-0.1l0.1-0.1c0,0,0.3-0.4,1,0
	c-0.1-0.2-0.1-0.4-0.1-0.6c0-0.2,0.1-0.3,0.3-0.4l0.1-0.1l0,0.1c0,0,0.4,0.7,0,1.1c0.5,0.6,1,0.4,1.2,0.3c-0.3-0.7,0.3-1.3,0.3-1.3
	l0.1-0.1l0.1,0.1c0.2,0.4,0.2,0.7,0.1,0.9c0,0,0,0.1,0,0.1c0.3-0.1,0.7-0.1,0.9,0c0,0,0,0,0,0c0,0,0.1-0.1,0-0.1
	c0-0.1-0.1-0.2-0.2-0.4c0,0-0.1,0-0.1,0c-0.1,0-0.1,0-0.2,0c-0.1-0.1-0.2-0.2-0.2-0.4l0-0.1l0.1,0c0.1,0,0.2,0,0.3,0.1
	c0-0.2,0-0.3,0.1-0.5c-0.1-0.2-1.1-1.6-2.5-1.4c0,0.1-0.1,0.2-0.3,0.3c0,0-0.1,0-0.1,0c-0.2,0-0.5-0.1-0.8-0.4l-0.1-0.1l0.1-0.1
	c0,0,0.3-0.4,1,0c-0.1-0.2-0.1-0.4-0.1-0.6c0-0.2,0.1-0.3,0.3-0.4l0.1-0.1l0,0.1c0,0,0.3,0.6,0.1,1c0.3,0,0.5,0,0.7,0.1
	c-0.3-0.4-0.8-1.3-0.7-2.2c0,0-0.3-0.3-1-0.4c0,0.1,0,0.2,0,0.3c-0.2,0.3-0.7,0.3-0.9,0.3c-0.1,0-0.1,0-0.1,0l-0.1,0l0-0.1
	c0-0.3,0.3-0.5,0.5-0.6c-0.2-0.1-0.4-0.4-0.3-0.8l0,0v-0.2l0.2,0.1c0.5,0.4,0.7,0.7,0.7,0.8c0.6,0,0.9,0.2,1.1,0.3
	c0-0.1,0.1-0.2,0.1-0.3c-0.1,0-0.2,0-0.2-0.1c-0.2-0.2-0.3-0.5-0.3-1l0-0.1l0.1,0c0,0,0.4,0,0.7,0.8c0.1-0.1,0.2-0.3,0.4-0.4
	c0.1-0.1,0.3-0.1,0.5,0l0.1,0l0,0.1c0,0-0.3,0.7-0.8,0.7c0,0,0,0,0,0c-0.7,1,0.2,2.3,0.5,2.7c0-0.2,0-0.5,0.1-0.8
	c-0.1,0-0.3-0.1-0.5-0.3c-0.1-0.2-0.1-0.5,0.1-0.8l0.1-0.1l0.1,0.1c0,0,0.3,0.2,0.4,0.5c0.1-0.1,0.1-0.2,0.2-0.3
	c0-0.1,0.2-0.4,0.5-0.5c0.2-0.1,0.5,0,0.7,0.1l0.1,0l0,0.1c0,0-0.2,0.4-0.6,0.5c-0.1,0-0.2,0-0.3,0c-0.1,0-0.2,0-0.4-0.1
	c-0.2,0.2-0.3,1.1-0.4,1.7c0.6,0.3,1,0.9,1.2,1.1c0-0.1,0.1-0.2,0.2-0.2c0,0-0.5-0.2-0.6-0.6c-0.1-0.2,0-0.4,0.1-0.6l0-0.1l0.1,0
	c0,0,0.6,0.3,0.6,1c0.1-0.2,0.2-0.4,0.1-0.5l0,0c0,0-0.1-0.3,0.1-0.5c0.1-0.2,0.4-0.4,0.7-0.4l0.1,0l0,0.1c0,0-0.1,0.6-0.4,0.8
	c-0.1,0.1-0.2,0.1-0.3,0.1c0,0.3-0.2,0.7-0.3,0.8l0,0c-0.2,0.2-0.3,0.4-0.3,0.6c0.1-0.1,0.3-0.3,0.7-0.4l0.1,0l0,0.1
	c0,0,0.1,0.3-0.1,0.5c-0.1,0.1-0.2,0.1-0.4,0.1c-0.1,0-0.2,0-0.3,0c0,0.1,0,0.2,0,0.3c0,0,0,0.1,0,0.1c0.2,0.2,0.3,0.3,0.3,0.5
	c0,0.1,0,0.2-0.1,0.2c0.1,0.1,0.3,0.1,0.4,0.2c0-0.2,0.1-0.4,0.4-0.7l0.1-0.1l0.1,0.1c0,0,0.4,0.3,0.4,0.7c0,0.2-0.2,0.3-0.4,0.5
	c0.1,0.2,0.2,0.3,0.4,0.4C26.2,21.1,27,21,27,21l0.1,0l0,0.1C27,21.5,26.9,21.8,26.6,21.9z M24.7,19.5c0.2,0,0.3,0,0.4-0.1
	c0.1-0.1,0.1-0.2,0.1-0.2C24.9,19.2,24.8,19.4,24.7,19.5z M25.1,17.7c0.1,0,0.1,0,0.2-0.1c0.2-0.1,0.3-0.4,0.3-0.6
	c-0.2,0.1-0.3,0.2-0.4,0.3C25.1,17.5,25.1,17.7,25.1,17.7z M24.6,18.4c0-0.4-0.2-0.6-0.4-0.7c0,0.1,0,0.2,0,0.3
	C24.3,18.2,24.5,18.3,24.6,18.4z M23.7,15.9c0.2,0.1,0.3,0.1,0.4,0c0.2-0.1,0.3-0.2,0.4-0.3c-0.2-0.1-0.3-0.1-0.4,0
	C23.9,15.6,23.8,15.8,23.7,15.9z M22.6,14.7c0.3,0,0.5-0.3,0.6-0.5c0,0,0,0,0,0c-0.1,0-0.1,0-0.2,0C22.8,14.3,22.7,14.5,22.6,14.7z
	 M20.8,14.8L20.8,14.8c0.1,0,0-0.3-0.4-0.6C20.4,14.5,20.4,14.7,20.8,14.8z M20.9,15L20.9,15c-0.2,0.1-0.6,0.2-0.7,0.5
	c0.3,0,0.6-0.1,0.7-0.2C21,15.2,20.9,15.1,20.9,15z M22.4,14.7c-0.1-0.5-0.3-0.7-0.4-0.8c0,0.5,0.1,0.6,0.3,0.7
	C22.2,14.7,22.3,14.7,22.4,14.7z M21.7,17.6c-0.5-0.2-0.8-0.2-0.9-0.2c0.4,0.3,0.6,0.3,0.7,0.3C21.6,17.7,21.6,17.7,21.7,17.6z
	 M21.8,16.7c0,0-0.1,0.1-0.1,0.2c0,0.2,0,0.4,0.1,0.6C22,17.2,21.9,16.8,21.8,16.7z M22.9,15.9c-0.1,0.2-0.1,0.4-0.1,0.5
	c0.1,0.1,0.2,0.2,0.3,0.2C23.2,16.2,23,16,22.9,15.9z M24.3,20c0-0.1-0.1-0.1-0.2-0.2C24.1,19.9,24.2,19.9,24.3,20
	C24.2,20,24.3,20,24.3,20z M21.6,20.6c-0.5-0.2-0.8-0.2-0.9-0.2c0.4,0.3,0.6,0.3,0.7,0.3C21.5,20.7,21.5,20.6,21.6,20.6z M21.7,19.6
	c0,0-0.1,0.1-0.1,0.2c0,0.2,0,0.4,0.1,0.6C21.9,20.1,21.8,19.8,21.7,19.6z M23.4,19.9c-0.1,0.2-0.3,0.5-0.2,0.9
	c0.1,0,0.2-0.1,0.2-0.3C23.5,20.3,23.5,20.1,23.4,19.9z M25.5,21.2c0.2-0.1,0.3-0.2,0.3-0.3c0-0.2-0.1-0.3-0.2-0.4
	c-0.2,0.2-0.3,0.4-0.3,0.6C25.3,21.1,25.4,21.2,25.5,21.2z M26.5,21.7c0.2-0.1,0.3-0.3,0.4-0.5c-0.2,0-0.6,0.2-0.7,0.6
	C26.2,21.8,26.4,21.8,26.5,21.7z M25.1,12.8c0,0-0.1-0.2,0-0.5c0.1-0.3,0.4-0.5,0.8-0.7l0.2-0.1l0,0.2c0,0-0.1,0.8-0.5,1.1
	c-0.1,0-0.2,0.1-0.2,0.1c0.3,0.6,0.4,1,0.4,1.1c0.1,0,0.2,0.1,0.3,0.2c0-0.2,0-0.5,0.1-0.7l0.1-0.1l0.1,0.1c0,0,0.4,0.2,0.4,0.6
	c0,0.2,0,0.4-0.2,0.6c0.2,0.3,0.7,0.5,1,0.7c-0.2-0.4-0.5-1.3,0.1-2.2c0,0,0,0,0,0c-0.1,0-0.2,0-0.4-0.1c-0.2-0.2-0.2-0.5-0.2-0.9
	l0-0.1l0.1,0.1c0.1,0,0.5,0.2,0.7,0.5c0,0,0-0.1,0-0.1c0-0.1-0.1-0.3,0.1-0.6c0-0.2-0.1-0.4-0.2-0.5c-0.1,0-0.2,0.1-0.4,0.1
	c-0.1,0-0.3,0-0.4-0.1c-0.2-0.2-0.2-0.5,0-1.1l0-0.1l0.1,0c0,0,0.6,0.2,0.8,0.7c0.1,0.1,0,0.3,0,0.4c0.1,0.1,0.2,0.3,0.2,0.4
	c0.1-0.1,0.3-0.2,0.6-0.3l0.1,0l0,0.1c0,0,0,0.7-0.4,1c-0.1,0.1-0.2,0.1-0.3,0.1c0,0,0,0-0.1,0c0,0.1-0.1,0.3-0.2,0.4c0,0,0,0,0,0
	c0,0,0,0,0,0.1c0,0,0,0,0,0c0,0,0,0,0,0c0,0,0,0,0,0l0,0c-0.7,1-0.3,1.9-0.1,2.3c0.1-0.2,0.3-0.6,0.6-1c-0.1-0.1-0.2-0.1-0.2-0.3
	c-0.1-0.3,0-0.6,0.3-1l0.1-0.1l0.1,0.1c0,0,0.4,0.3,0.1,1c0.2-0.1,0.4-0.1,0.6-0.1c0.2,0,0.3,0.1,0.4,0.3l0.1,0.1l-0.1,0.1
	c0,0-0.3,0.2-0.7,0.2c-0.1,0-0.3,0-0.4-0.1c-0.5,0.6-0.6,1.2-0.6,1.2c-0.1,0.4-0.1,1-0.1,1.5l0,0l0,0c0,0.3,0,0.5,0,0.8
	c0.1-0.3,0.3-0.7,0.8-0.9l0.2-0.1l0,0.2c0,0,0,1-0.5,1.4C28.2,18.9,28.1,19,28,19c0,0,0,0,0,0c0,0.4,0,0.8,0.1,1
	c0.2-0.2,0.6-0.6,1.4-0.8c0.1-0.1,0.3-0.1,0.4-0.2c0.1,0,0.2-0.1,0.3-0.1l0-0.1c0-0.3,0.1-0.9,0.6-1l0.1,0l0,0.1c0,0.1,0,0.3,0,0.5
	c0.1-0.1,0.2-0.3,0.3-0.4c0.1-0.2,0.1-0.5,0-0.7c0,0-0.1,0-0.3,0c-0.1,0-0.3,0-0.5-0.1c-0.2-0.1-0.4-0.3-0.4-0.6l0-0.1l0.1,0
	c0,0,0.5,0,0.8,0.3c-0.1-0.1-0.2-0.3-0.3-0.4l0,0c0,0-0.6-0.3-0.6-0.7c0-0.2,0-0.3,0.2-0.5l0.1-0.1l0.1,0c0,0,0.4,0.2,0.6,0.6
	c0,0.2,0,0.3,0,0.5c0.1,0.1,0.1,0.1,0.2,0.2c0,0,0-0.1,0-0.1c0.1-0.2,0.2-0.3,0.3-0.4l0.1,0l0,0.1c0,0,0.2,0.5,0,0.9
	c0,0.1-0.1,0.1-0.2,0.2c0,0,0,0,0,0.1c0.2,0.3,0.2,0.7,0.1,1c0,0.1-0.1,0.1-0.1,0.2c0.1,0,0.2-0.1,0.4-0.3c0.2-0.1,0.3-0.2,0.4-0.3
	c0.3-0.2,0.4-0.2,0.3-0.5c-0.1-0.1-0.3-0.5-0.1-1l0-0.1l0.1,0.1c0,0,0.2,0.2,0.3,0.4c0.2-0.2,0.4-0.4,0.6-0.6c0,0,0.1-0.2,0-0.3
	c0-0.2-0.2-0.3-0.4-0.4c-0.1-0.1-0.2-0.1-0.3-0.2l0,0c0,0-0.1,0-0.3,0c-0.3,0-0.7-0.1-1-0.4L31,14.6l0.1,0c0.2-0.1,0.5-0.1,0.8,0
	c-0.1-0.1-0.1-0.3-0.2-0.4c0,0,0-0.1-0.1-0.1c0,0,0,0,0,0c-0.1,0.1-0.2,0.1-0.3,0.1c-0.2,0-0.5-0.1-1-0.3l-0.1-0.1l0.1-0.1
	c0,0,0.5-0.4,0.9-0.4c0.1,0,0.2,0.1,0.3,0.2c0.1-0.2,0.3-0.4,0.6-0.6l0.1-0.1l0,0.1c0,0,0.2,0.6-0.1,0.9C32.3,13.9,32.1,14,32,14
	c0,0,0,0,0,0c0.1,0.3,0.2,0.7,0.6,0.9c-0.1-0.1-0.1-0.3-0.1-0.5c0-0.2,0.1-0.3,0.3-0.4l0.1,0l0.1,0.1c0,0,0.3,0.3,0.3,0.6
	c0,0.2-0.1,0.4-0.3,0.5c0.2,0.1,0.3,0.3,0.4,0.5c0,0.1,0,0.2,0,0.2c0,0,0,0,0,0c0,0,0.1-0.1,0.1-0.1c0.5-0.4,0.5-0.6,0.5-0.8
	c-0.2-0.1-0.8-0.5-0.7-1.1l0-0.1l0.1,0c0,0,0.4,0.1,0.6,0.4c0,0,0,0,0,0c0-0.1,0-0.1-0.1-0.2c0,0-0.2-0.2-0.1-0.5
	c0-0.2,0.2-0.4,0.4-0.6l0.1-0.1l0.1,0.1c0,0,0.2,0.4,0.1,0.7c-0.1,0.1-0.2,0.3-0.3,0.3c0,0.1,0,0.2,0,0.2c0.3-0.5,0.9-0.4,0.9-0.4
	l0.1,0V14c0,0.6-1,0.9-1.1,0.9l0,0c0,0,0,0,0,0.1c0,0.1,0,0.3-0.1,0.5c0.2-0.1,0.3-0.1,0.5-0.1l0.1,0l-0.1,0.1c0,0-0.3,0.5-0.7,0.6
	c-0.1,0-0.1,0-0.2,0c-0.1,0-0.2,0-0.3-0.1c-0.4,0.2-0.8,0.6-1,0.9c0,0.1-0.1,0.2-0.2,0.2c0.1,0.4-0.1,0.5-0.4,0.7
	c0.3-0.1,0.8-0.1,1.1,0.1l0.1,0.1l-0.1,0.1c0,0-0.3,0.4-0.7,0.4c0,0-0.1,0-0.1,0c-0.3,0-0.5-0.1-0.8-0.4c0,0,0,0,0,0
	c-0.3,0.3-0.6,0.4-0.7,0.4c0,0,0,0,0,0c-0.2,0.2-0.4,0.3-0.6,0.4c0.4,0.1,0.6,0.3,0.6,0.3l0.1,0.1l-0.1,0.1
	c-0.3,0.2-0.6,0.2-0.8,0.2c-0.4,0-0.6-0.2-0.7-0.3c-1.1,0.3-1.3,0.9-1.3,0.9c0,0-0.1,0.1-0.1,0.1c0,0,0,0,0,0c0,0-0.1,0-0.1-0.1
	c-0.2,0-0.9-0.1-1.1-0.9l0-0.1l0.1,0c0,0,0.6,0,0.9,0.3c0,0,0-0.1,0-0.1c0,0,0,0,0,0c0,0-0.4-0.6-0.9-0.5c-0.1,0.1-0.4,0.5-0.9,0.5
	c-0.1,0-0.2,0-0.3,0l-0.1,0l0-0.1c0,0,0.1-0.3,0.3-0.5c0.1-0.1,0.2-0.1,0.3-0.1c-0.2-0.2-0.2-0.6-0.1-0.8l0-0.2l0.1,0.1
	c0.3,0.3,0.5,0.6,0.5,0.8c0,0,0,0.1,0,0.1c0,0,0,0,0,0c0.4-0.1,0.8,0.1,1,0.4c0-0.5,0-1.1,0-1.6c0,0-0.1,0-0.2,0
	c-0.2,0-0.5,0-0.8-0.2c-0.2-0.1-0.3-0.3-0.3-0.6l0-0.1l0.1,0c0,0,0.6,0,1.1,0.6c0-0.5,0-0.9,0.1-1.3c0,0,0,0,0,0
	c-0.2-0.1-1.1-0.6-1.4-1c0,0-0.1-0.1-0.1-0.2c0,0.1,0,0.2-0.1,0.2C26.1,15,26,15,25.9,15c-0.2,0-0.5-0.1-0.8-0.2l-0.1,0l0-0.1
	c0,0,0.2-0.4,0.6-0.5c0,0,0.1,0,0.1,0c-0.4-0.2-0.9-0.3-1.7-0.2c0,0,0,0-0.1,0c0,0,0,0,0,0c-0.2,0-0.4,0-0.6-0.2
	c-0.2-0.1-0.3-0.4-0.3-0.6l0-0.1l0.1,0c0,0,0.6,0,0.9,0.3c0.1,0.1,0.1,0.2,0.1,0.4c0.6,0,1.1,0,1.5,0.2
	C25.5,13.8,25.4,13.4,25.1,12.8L25.1,12.8L25.1,12.8z M23.8,13.5c-0.1-0.2-0.5-0.2-0.6-0.3c0,0.2,0.1,0.3,0.2,0.4
	c0.2,0.1,0.4,0.1,0.5,0.1C23.9,13.7,23.9,13.6,23.8,13.5z M27.5,17.2c-0.3-0.4-0.7-0.5-0.8-0.5c0,0.1,0.1,0.2,0.2,0.3
	C27.1,17.2,27.4,17.2,27.5,17.2z M26.2,18.1c0,0.2,0,0.4,0.2,0.5C26.5,18.5,26.5,18.4,26.2,18.1z M26.5,18.9c-0.2,0-0.4,0-0.5,0
	c-0.1,0.1-0.2,0.2-0.2,0.2C26.2,19.2,26.4,19,26.5,18.9z M27.8,20.1c0-0.2-0.1-0.3-0.2-0.4c-0.2-0.2-0.5-0.2-0.7-0.2
	C27.2,20,27.6,20.1,27.8,20.1z M34.3,14.6c0.3-0.1,0.6-0.3,0.7-0.5c0,0,0,0,0,0C34.9,14.1,34.5,14.1,34.3,14.6z M34.2,13.9
	c0.1-0.1,0.2-0.1,0.2-0.2c0.1-0.1,0-0.3,0-0.4c-0.1,0.1-0.2,0.2-0.2,0.4C34.1,13.7,34.1,13.8,34.2,13.9z M34,14.8
	c0-0.2,0-0.3-0.1-0.4c-0.1-0.2-0.3-0.3-0.4-0.3C33.5,14.4,33.8,14.6,34,14.8z M33.6,15.9c0.1,0,0.2,0,0.3,0c0.2-0.1,0.3-0.2,0.4-0.3
	C34,15.6,33.7,15.8,33.6,15.9z M31.6,13.6c-0.1-0.1-0.1-0.1-0.2-0.1c-0.2,0-0.5,0.1-0.6,0.2c0.7,0.3,0.8,0.2,0.8,0.2
	C31.7,13.8,31.6,13.7,31.6,13.6z M32.2,13.7c0.1-0.1,0.1-0.4,0.1-0.6c-0.2,0.1-0.4,0.3-0.4,0.4c0,0.1,0,0.2,0,0.2
	C32.1,13.8,32.1,13.8,32.2,13.7z M32.2,14.9c-0.2-0.3-0.6-0.3-0.8-0.2C31.7,14.9,32,14.9,32.2,14.9z M32.8,15
	c0.1-0.1,0.2-0.2,0.2-0.3c0-0.2-0.1-0.3-0.2-0.4c-0.1,0.1-0.1,0.1-0.1,0.2C32.7,14.7,32.8,14.9,32.8,15z M32.2,17
	c0.1-0.1,0.1-0.2,0.1-0.2c0-0.1-0.1-0.2-0.1-0.3C32.1,16.7,32.1,16.9,32.2,17z M31.8,18.2c0.2,0.2,0.4,0.2,0.6,0.2
	c0.2,0,0.4-0.1,0.5-0.2C32.5,18,32,18.1,31.8,18.2z M30.3,15.9c-0.1-0.2-0.3-0.4-0.4-0.5c-0.1,0.1-0.1,0.1-0.1,0.2
	c0,0.2,0.3,0.4,0.4,0.5C30.3,16.1,30.3,16,30.3,15.9z M30.7,17.1c-0.2-0.3-0.6-0.4-0.8-0.4c0.1,0.1,0.2,0.3,0.3,0.3
	C30.4,17.1,30.6,17.1,30.7,17.1z M31,16.8c0.1-0.2,0-0.4,0-0.6c-0.1,0-0.1,0.1-0.1,0.2c-0.1,0.2,0,0.4,0,0.5
	C31,16.9,31,16.9,31,16.8z M30.2,18.7c0.3-0.1,0.3-0.4,0.3-0.6C30.3,18.2,30.2,18.5,30.2,18.7z M29.5,19.3c0.1,0.1,0.4,0.3,1,0
	C30.4,19.2,30.1,19.1,29.5,19.3z M28,18.8c0.1,0,0.2,0,0.2-0.1c0.3-0.2,0.4-0.7,0.4-1.1C28.1,17.9,28,18.5,28,18.8z M28.8,14.5
	c0.2,0.1,0.6,0,0.7,0c0,0-0.1-0.1-0.2-0.1C29.2,14.3,28.9,14.4,28.8,14.5z M28.6,14.4c0.2-0.5,0.2-0.8,0.1-0.9
	c-0.3,0.4-0.3,0.6-0.2,0.7C28.5,14.3,28.5,14.3,28.6,14.4z M27.8,11c-0.1-0.2-0.4-0.4-0.6-0.5c-0.1,0.4-0.1,0.7,0,0.8
	c0.1,0.1,0.4,0.1,0.6,0C27.9,11.2,27.9,11.1,27.8,11z M28.2,12.5c0.1,0,0.2,0,0.2,0c0.2-0.1,0.3-0.5,0.3-0.7
	c-0.2,0.1-0.4,0.1-0.4,0.3C28.2,12.2,28.2,12.4,28.2,12.5z M27.8,13.1c0,0,0-0.1,0-0.2c-0.1-0.2-0.3-0.4-0.5-0.5
	c0,0.3,0,0.5,0.1,0.6C27.6,13.1,27.8,13.1,27.8,13.1z M26.5,14.6c0.1-0.1,0.1-0.3,0.1-0.4c0-0.2-0.2-0.4-0.3-0.4
	C26.2,14.1,26.4,14.4,26.5,14.6z M25.6,14.4c-0.2,0-0.3,0.2-0.4,0.3c0.6,0.2,0.8,0.1,0.8,0.1c0.1-0.1,0-0.2,0-0.2
	C25.9,14.4,25.8,14.4,25.6,14.4z M25.3,12.7c0.1,0,0.2,0,0.2,0c0.2-0.1,0.3-0.5,0.4-0.7C25.3,12.2,25.3,12.6,25.3,12.7z M30.5,39.3
	L30.5,39.3C30.5,39.3,30.5,39.3,30.5,39.3C30.5,39.3,30.5,39.3,30.5,39.3l0,0.1l0,0c-0.2,2.3,0.2,4,1.3,5.1c1.7,1.6,4.5,1.1,4.6,1.1
	c0.1,0,0.1,0,0.1,0.1c0,0.1,0,0.1-0.1,0.1c0,0-0.4,0.1-1,0.1c-1,0-2.6-0.2-3.7-1.3c-1.2-1.1-1.7-2.9-1.4-5.3
	c-0.3-0.1-0.5-0.2-0.7-0.4c-0.2-0.3-0.2-0.7-0.2-0.7l0-0.1l0.1,0C30.6,38.4,30.5,39.3,30.5,39.3z M30.3,39.2c0-0.2-0.1-0.6-0.7-0.7
	c0,0.1,0,0.3,0.1,0.4C29.9,39,30.1,39.1,30.3,39.2z M24.9,35.2c0,0,0-0.1,0-0.2c0,0,0,0,0,0l0,0l0,0c-0.2-0.1-1.1-0.6-1.3-1.3
	c-0.6-0.1-0.7-0.9-0.7-1l0-0.1l0.1,0c0.6-0.1,0.8,0.3,0.8,0.5c0,0.1,0.1,0.3,0,0.5c0.1,0.5,0.8,1,1.1,1.1c0-0.4-0.1-1-0.3-1.6
	c-0.3-0.8-0.7-1.3-1.2-1.7l-0.1-0.1c0,0-0.1,0-0.1-0.1c-0.4-0.2-0.9-0.4-1.4-0.5c0,0-0.1,0-0.1,0l0,0c-0.1,0.7-0.9,0.9-0.9,0.9
	l-0.2,0l0-0.2c0.1-0.4,0.2-0.6,0.4-0.8c-0.3,0-0.7,0.1-1,0.2c-0.4,0.1-0.8,0.2-1.2,0.2c0,0,0,0,0,0c0,0-0.7,0.7-1.5,0.7c0,0,0,0,0,0
	c0,0.1,0,0.2-0.1,0.4c-0.2,0.3-0.6,0.4-0.7,0.4l-0.1,0l0-0.1c0-0.3,0.1-0.5,0.3-0.7c-0.2,0-0.4-0.1-0.5-0.2
	c-0.1,0.1-0.3,0.2-0.4,0.2c0,0,0,0-0.1,0c-0.4,0-0.6-0.6-0.7-0.7L15,31.1l0.1,0c0.5,0,0.8,0,1,0.2c0.1,0.1,0.1,0.2,0.1,0.2
	c0.1,0.1,0.5,0.2,0.9,0.2c0.5,0.1,1.1-0.3,1.3-0.5c-0.2,0-0.4,0-0.6,0c-1.4-0.2-2.4-1.5-2.6-1.8c-0.2,0-0.8,0.1-1.1,0.5
	c0.1,0.5-0.3,0.8-0.5,0.8l-0.1,0l0-0.1c-0.1-0.2-0.1-0.3,0-0.5c0.1-0.2,0.4-0.4,0.5-0.4c0.2-0.2,0.5-0.4,0.8-0.5
	c-0.1,0-0.1-0.1-0.2-0.1c-0.2-0.2-0.3-0.4-0.3-0.8l0-0.1l0.1,0c0.1,0,0.8,0.2,1,0.6c0,0.1,0,0.2,0,0.3c0,0.1,0.1,0.2,0.3,0.4
	c-0.1-0.3-0.2-0.6-0.1-1.1c-0.6,0-0.9-0.7-0.9-0.8l-0.1-0.2l0.2,0c0.3,0,0.6,0.1,0.7,0.2c0-0.1,0-0.3,0.1-0.4
	c0.1-0.2,0.3-0.3,0.6-0.4l0,0l0,0c0,0,0.2,0.2,0.2,0.4c0,0.3-0.2,0.6-0.6,0.9c0,0.1,0,0.1,0,0.2c-0.1,1,0.3,1.6,0.4,1.6
	c0.1,0.1,0.3,0.3,0.5,0.4c-0.1-0.1-0.2-0.4-0.2-0.6c0-0.2,0.1-0.4,0.3-0.6l0.1-0.1l0.1,0.1c0,0,0.3,0.4,0.2,0.8
	c0,0.2-0.1,0.4-0.3,0.6l0,0c0.3,0.2,0.6,0.3,1,0.4c0.7,0.1,1.3,0,1.8-0.1c-0.3-0.2-0.7-0.7-0.4-1.3l0-0.1l0.1,0c0,0,0.6,0.3,0.4,1.3
	l0,0c0,0,0,0,0.1,0c0.5-0.1,1-0.2,1.6-0.2l-0.8-1.3c-0.1,0-0.2,0-0.3,0c-0.2,0-0.3-0.1-0.4-0.2c-0.3-0.3,0-1.1,0-1.2l0.1-0.1
	l0.1,0.1c0.6,0.6,0.7,1,0.6,1.2l0.3,0.6c0.1-0.3,0.3-0.5,0.5-0.6c0.4-0.2,0.8,0,0.8,0l0.1,0l0,0.1c-0.2,0.6-0.7,0.7-1,0.7
	c-0.1,0-0.1,0-0.2,0l0.4,0.7c0,0,0,0,0,0c0,0,0,0,0,0c0.4,0.1,0.8,0.2,1.1,0.3c-0.1-0.2-0.1-0.5,0-0.8l0-0.1l0.1,0
	c0,0,0.6,0.3,0.4,1.2c1.2,0.9,1.6,2.3,1.6,3.2c0.1-0.2,0.4-0.4,0.8-0.5l0.1,0l0,0.1c0,0,0.1,0.3,0,0.6c-0.1,0.2-0.4,0.4-0.8,0.4
	c0,0.1,0,0.2,0,0.2c0,0.1,0,0.1-0.1,0.1c0,0,0,0,0,0C25,35.3,24.9,35.3,24.9,35.2z M25.2,34.8c0.3-0.1,0.5-0.2,0.6-0.3
	c0.1-0.1,0.1-0.2,0-0.3C25.4,34.4,25.3,34.6,25.2,34.8z M21.4,29.8c0.2,0,0.7,0,0.9-0.5c-0.1,0-0.3,0-0.6,0.1
	C21.7,29.4,21.5,29.6,21.4,29.8z M20.7,29.1c0-0.1,0-0.4-0.5-0.9c-0.1,0.2-0.2,0.6,0,0.8C20.3,29.2,20.5,29.2,20.7,29.1z M15.6,28.4
	c0-0.1,0-0.1-0.1-0.2c-0.1-0.1-0.3-0.2-0.6-0.3C15.1,28.1,15.3,28.4,15.6,28.4z M14,30.1c-0.1,0-0.2,0.1-0.3,0.3c0,0.1,0,0.1,0,0.2
	C13.8,30.5,14,30.3,14,30.1z M15.2,29.1c-0.1-0.2-0.5-0.4-0.7-0.5c0,0.2,0.1,0.4,0.2,0.5c0.2,0.1,0.4,0.2,0.5,0.2
	C15.2,29.2,15.2,29.2,15.2,29.1z M15.8,28.1c0.4-0.3,0.4-0.5,0.5-0.6c0-0.1,0-0.2-0.1-0.2c-0.2,0.1-0.3,0.2-0.4,0.3
	C15.7,27.8,15.7,28,15.8,28.1z M16.8,30.5c0.1-0.1,0.2-0.2,0.2-0.3c0-0.2-0.1-0.4-0.1-0.6c-0.1,0.1-0.2,0.2-0.2,0.4
	C16.7,30.1,16.8,30.3,16.8,30.5z M16.1,31.6c0-0.1-0.2-0.3-0.7-0.2c0.1,0.2,0.2,0.4,0.4,0.4C15.9,31.7,16,31.7,16.1,31.6z M17.1,32
	C17.1,32,17,32,17.1,32c-0.1,0-0.1,0-0.2,0c-0.1,0.1-0.2,0.2-0.2,0.4c0.1,0,0.3-0.1,0.4-0.2C17.1,32.1,17.1,32.1,17.1,32z
	 M19.5,29.8c-0.2,0.4,0.1,0.7,0.2,0.8C19.8,30.2,19.6,29.9,19.5,29.8z M21.4,30.9C21.4,30.9,21.4,30.9,21.4,30.9c-0.1,0-0.2,0-0.2,0
	c-0.1,0.1-0.3,0.3-0.4,0.5C21.1,31.4,21.4,31.2,21.4,30.9z M23.1,30.3c-0.2,0.4,0.1,0.7,0.2,0.8C23.4,30.7,23.2,30.4,23.1,30.3z
	 M23.7,33.5c0-0.1,0-0.3-0.1-0.5c-0.1-0.1-0.2-0.2-0.4-0.2C23.2,33,23.4,33.4,23.7,33.5z"/>
</svg>
