<?xml version="1.0" encoding="utf-8"?>
<!-- Generator: Adobe Illustrator 26.3.1, SVG Export Plug-In . SVG Version: 6.00 Build 0)  -->
<svg version="1.1" id="Layer_1" xmlns="http://www.w3.org/2000/svg" xmlns:xlink="http://www.w3.org/1999/xlink" x="0px" y="0px"
	 viewBox="0 0 566.9 566.9" style="enable-background:new 0 0 566.9 566.9;" xml:space="preserve">
<g>
	<path d="M36,191.9c2.1,0.9,4,1,5.7,0.4c1.7-0.6,3.4-2,5.1-4.2c0.7-1,1.5-2,2.3-3.1c0.8-1,1.5-1.7,2.2-2.2c1.3-0.8,2.6-1,3.9-0.4
		c1.4,0.6,2.3,1.6,2.7,3.1c0.5,1.5,0.3,3.1-0.4,4.8c-1.6,3.8-4.9,5.4-10,4.8l-0.6,1.5l7.5,3.2l0.6-1.4l-0.7-2.4
		c1.9-1.1,3.3-2.9,4.4-5.3c1.1-2.5,1.1-4.9,0.1-7.3c-1-2.4-2.8-4.1-5.4-5.3c-2.6-1.1-4.9-1.3-6.9-0.4c-1.8,0.7-3.8,2.5-5.8,5.3
		c-1.7,2.3-2.7,3.6-3.2,4c-1,0.9-2.1,1.1-3.3,0.6c-1.1-0.5-1.8-1.3-2.1-2.5c-0.3-1.2-0.2-2.6,0.4-4c1.5-3.6,4.6-5,9.1-4.2l0.6-1.3
		l-6.9-2.8l-0.5,1.2l0.6,1.9c-1.8,1-3.1,2.5-3.9,4.5c-1,2.4-1.1,4.7-0.3,6.8C32,189.3,33.6,190.9,36,191.9z"/>
	<path d="M46.6,166.7c-3.2-2.8-3.9-5.9-2.1-9.1l2.2-3.9l15.1,24.5l1.4,0.8l10.5-19l-8.3-4.9l-0.6,1.1c2.3,2.2,3.6,4.1,4.1,5.8
		c0.5,1.7,0.1,3.6-1.1,5.8l-2.1,3.8l-15.3-24.7l-1.1-0.6l-9.7,17.6l6.4,4.1L46.6,166.7z"/>
	<polygon points="55.7,138.4 76.2,153.1 74.2,155.9 75.3,156.7 83.5,145.4 82.4,144.6 80.4,147.4 59.8,132.6 61.8,129.8 60.8,129.1 
		52.6,140.4 53.7,141.2 	"/>
	<path d="M65.8,124.3c0.2-0.3,0.5-0.4,0.8-0.2c0.2,0.1,0.3,0.4,0.4,0.9l2.4,14l0.8,0.6l15.5,0.5l-2,2.8l1.1,0.8l8.7-12.1l-1.1-0.8
		l-2,2.7l-20.7-0.6l-1.4-8.3c-0.2-1.1-0.3-1.9-0.2-2.5c0.1-0.8,0.4-1.5,1-2.3l1-1.4l-1-0.8l-6,8.4l1,0.8L65.8,124.3z"/>
	<path d="M83.9,121.4c2.9,2.7,6.3,3.9,10.4,3.8c4.1-0.1,7.4-1.6,10.1-4.5c2.7-2.9,3.9-6.3,3.8-10.4c-0.2-4.1-1.7-7.4-4.5-10.1
		c-2.8-2.6-6.3-3.9-10.4-3.8c-4.1,0.1-7.5,1.6-10.2,4.4c-2.7,2.9-3.9,6.3-3.7,10.4C79.6,115.4,81.1,118.7,83.9,121.4z M84,101.7
		c1.8-1.9,3.7-2.6,5.7-1.9c1.3,0.4,4,2.6,8.2,6.5c4.2,3.9,6.5,6.4,7,7.7c0.8,1.9,0.3,3.9-1.5,5.8s-3.7,2.6-5.7,1.9
		c-1.3-0.4-4-2.6-8.2-6.5c-4.2-3.9-6.5-6.5-7-7.7C81.7,105.6,82.2,103.7,84,101.7z"/>
	<path d="M102.5,84.3l9.4,11.2l-0.9,3.4l1.2,1.4l0.9-3.4l5.7,6.8l-2.2,1.8l0.9,1.1l18.1-15.2l-5.8-7.3l-1,0.8
		c1.3,2.7,1.8,4.9,1.6,6.7c-0.2,1.8-1.2,3.4-3,4.9l-3.1,2.6l-8-9.5l2.5-9.4l-1.2-1.4l-2.5,9.4l-7.1-8.5l2.9-2.5l-0.8-1l-10.7,8.9
		l0.8,1L102.5,84.3z"/>
	<path d="M122.3,68.1l14.2,6.5l6.6,9.9l-2.9,1.9l0.8,1.1l11.7-7.9l-0.8-1.1l-2.9,1.9l-7-10.3l-1.1-11.1c-0.1-1.3-0.1-2.2,0-2.8
		c0.2-0.7,0.6-1.3,1.2-1.7l1-0.6l-0.7-1.1l-7.5,5l0.7,1.1l2-1.3c0.8-0.5,1.3-0.6,1.6-0.1c0.1,0.2,0.3,0.7,0.3,1.6l1,10.2l-12-5.6
		l2.9-1.9l-0.7-1.1l-11.7,7.9l0.7,1.1L122.3,68.1z"/>
	<path d="M164.7,42.6l10.3,23.1l-2.6,1.2l0.6,1.3l21.6-9.7l-3.5-8.6l-1.2,0.5c0.5,2.9,0.4,5.2-0.3,6.8c-0.7,1.7-2.1,3-4.2,3.9
		l-3.7,1.7l-10.3-23.1l3.5-1.6l-0.5-1.2l-12.7,5.7l0.5,1.2L164.7,42.6z"/>
	<path d="M204.1,55.2l-0.4-1.3l-2.4,0.8c-0.8,0.3-1.3,0.1-1.4-0.4c-0.1-0.5-0.2-0.8-0.2-1l0.3-5.1l8.1-2.6l4.3,5.5l-3.2,1l0.4,1.3
		l12.9-4.1l-0.4-1.3l-2.4,0.8l-18.2-22.7l-1.6,0.5l-1.6,26.7c-0.1,1.5-0.5,2.4-1.4,2.7l-1.6,0.5l0.4,1.3L204.1,55.2z M200.9,36.3
		l6.5,8.2l-7.2,2.3L200.9,36.3z"/>
	<path d="M222.3,22.3l3.5,18.8c1,5.4,5.1,7.3,12.4,6c4.2-0.8,6.9-2.5,8.1-5.1c0.6-1.4,0.7-3.8,0-7l-2.7-14.4
		c-0.2-0.9-0.1-1.6,0.1-1.9c0.3-0.3,0.9-0.6,1.8-0.8l1.4-0.3l-0.2-1.3l-8.7,1.6l0.2,1.3l1.4-0.3c0.9-0.2,1.5-0.1,1.8,0.1
		c0.3,0.2,0.5,0.8,0.7,1.7l2.7,14.4c0.4,1.9,0.5,3.3,0.5,4.1c0,1.3-0.4,2.3-1.1,3.3c-1.1,1.4-2.6,2.3-4.7,2.7
		c-2,0.4-3.5,0.1-4.6-0.8c-1.1-0.9-1.8-2.5-2.3-4.8L229.3,21l3.5-0.7l-0.2-1.3l-13.7,2.6l0.2,1.3L222.3,22.3z"/>
	<path d="M256.9,16.6l1.4,25.2l-3.4,0.2l0.1,1.4l14.1-0.8c3.9-0.2,7-1.2,9.1-2.9c1.7-1.4,3-3.1,3.9-5.2c0.9-2.1,1.3-4.3,1.1-6.7
		c-0.1-2.4-0.7-4.5-1.8-6.5c-1.1-2-2.5-3.5-4.3-4.7c-2.4-1.5-5.5-2.2-9.4-2l-14.3,0.8l0.1,1.3L256.9,16.6z M267.5,16.1
		c1.5-0.1,2.7,0,3.4,0.2c1.1,0.3,2,1,2.7,2.1c0.8,1.4,1.4,4.6,1.7,9.7l0.1,2c0.3,4.8-0.1,7.9-1.2,9.4c-0.5,0.7-1.2,1.2-2.1,1.5
		c-0.7,0.2-1.7,0.4-3.2,0.4l-3.5,0.2L264,16.3L267.5,16.1z"/>
	<path d="M313.8,34.5l-1.3-0.1c-0.9,2.8-2.1,4.7-3.5,5.9c-1.4,1.1-3.2,1.6-5.5,1.5l-4.6-0.3l0.9-12.3c0.1,0,0.2,0,0.4,0
		c0.2,0,0.3,0,0.4,0c1.7,0.1,2.9,0.6,3.6,1.6c0.7,0.9,1.1,2.3,1.1,4.3l1.4,0.1l0.9-11.8L306,23c-0.7,3.4-2.5,4.9-5.3,4.7
		c-0.4,0-0.7-0.1-0.9-0.1l0.8-11.5l4.8,0.3c1.9,0.1,3.2,0.7,4.2,1.6c0.9,0.9,1.8,2.6,2.5,5l1.4,0.1l0.4-7.3l-23.2-1.7l-0.1,1.3
		l2.9,0.2l-1.8,25.2l-3.4-0.2l-0.1,1.4l24.6,1.8L313.8,34.5z"/>
	<path d="M331.1,45.6l-3.6-0.7l2.5-12.7l0.7,0.1c1.9,0.4,3.2,1,3.9,1.9c0.7,0.9,0.8,2.3,0.6,4.2c-0.3,2.3-0.5,3.8-0.5,4.3
		c-0.1,1.5,0.2,2.7,0.8,3.8c0.9,1.5,2.5,2.5,4.9,2.9c1.3,0.3,3,0.2,5-0.3l-0.2-1.2c-0.8,0.1-1.4,0.1-1.9,0c-0.7-0.1-1.2-0.5-1.3-1.1
		c-0.1-0.5-0.1-1.3,0.2-2.5c0.6-3.1,0.5-5.6-0.4-7.3c-0.9-1.7-2.9-3.1-5.8-4.1l0.1-0.3c3,0.4,5.3,0.2,7.1-0.6
		c1.8-0.8,2.9-2.2,3.3-4.2c0.4-1.9-0.2-3.6-1.6-4.9c-1.5-1.4-3.8-2.4-7-3l-15.3-3l-0.2,1.3l3.2,0.6l-4.9,24.8l-3.2-0.6l-0.3,1.3
		l13.7,2.7L331.1,45.6z M332.5,20.1l3.5,0.7c1.9,0.4,3,0.9,3.2,1.6c0.3,0.7,0.2,2.3-0.3,4.8c-0.4,2-0.9,3.3-1.5,3.9
		c-0.7,0.7-1.9,0.8-3.5,0.5l-3.5-0.7L332.5,20.1z"/>
	<rect x="353.1" y="38.9" transform="matrix(0.2863 -0.9581 0.9581 0.2863 211.3703 372.5491)" width="5.2" height="11"/>
	<path d="M371.7,57.2l-1.7-0.7c-0.7-0.3-1.1-0.6-1.3-1.1c-0.1-0.4-0.1-1,0.2-1.7l8.9-21.2l-2.8,27.6l1.3,0.6l17.8-21l0.1,0l-9.7,23
		l-3.5-1.5l-0.5,1.3l13.1,5.5l0.5-1.3l-3.2-1.4l9.8-23.3l3.3,1.4l0.5-1.2l-10.5-4.4l-11.1,12.8l1.8-16.8l-11.1-4.7l-0.5,1.2l3.4,1.5
		l-9,21.4c-0.5,1.3-1.3,1.7-2.3,1.2l-1.9-0.8l-0.5,1.3l8.4,3.5L371.7,57.2z"/>
	<path d="M402.4,68.7c1,3.9,3.1,6.9,6.5,9c3.4,2,7,2.5,11,1.5c4-1,6.9-3.2,8.9-6.5c2-3.3,2.5-6.9,1.5-10.9c-1-4-3.1-7-6.4-9
		c-3.3-2-7-2.5-11-1.5c-4,1-6.9,3.2-8.9,6.5C402,61.1,401.5,64.8,402.4,68.7z M406.5,71.4c0.2-1.3,1.7-4.4,4.7-9.3
		c2.9-4.9,5-7.7,6.1-8.5c1.7-1.2,3.7-1.1,6,0.3c2.3,1.4,3.3,3.1,3,5.2c-0.2,1.3-1.7,4.4-4.7,9.3c-2.9,4.9-5,7.7-6.1,8.5
		c-1.7,1.2-3.7,1.1-6-0.3C407.3,75.2,406.3,73.5,406.5,71.4z"/>
	<path d="M428.3,87.9l-2.6-2l-0.9,1.1l11,8.7l0.9-1.1l-2.9-2.3l8.1-10.1l0.6,0.5c1.5,1.2,2.4,2.4,2.6,3.5c0.2,1.1-0.3,2.4-1.4,4
		c-1.4,1.9-2.2,3.1-2.4,3.5c-0.7,1.3-1.1,2.5-1,3.7c0.1,1.7,1.1,3.4,3,4.9c1,0.8,2.6,1.5,4.6,2.1l0.4-1.2c-0.7-0.2-1.3-0.5-1.7-0.9
		c-0.6-0.5-0.8-1-0.7-1.6c0.1-0.5,0.6-1.2,1.3-2.1c2-2.5,3-4.7,3-6.7c0-1.9-1.1-4.1-3.3-6.3l0.2-0.3c2.4,1.7,4.6,2.7,6.6,2.7
		s3.6-0.7,4.9-2.2c1.2-1.5,1.5-3.2,0.8-5.1c-0.7-1.9-2.3-3.8-4.8-5.9l-12.2-9.7l-0.8,1l2.6,2L428.3,87.9z M452.3,74.8
		c1.5,1.2,2.2,2.2,2.1,2.9c-0.1,0.7-0.9,2.1-2.5,4.1c-1.3,1.6-2.3,2.5-3.1,2.7c-0.9,0.3-2-0.1-3.3-1.2l-2.8-2.2l6.8-8.5L452.3,74.8z
		"/>
	<path d="M450.5,106.1l-1.2-1.2l-1,1l6.1,6.2l1-1l-1.7-1.8c-0.6-0.6-0.7-1.1-0.3-1.4c0.3-0.3,0.6-0.5,0.8-0.6l4.7-2l6,6.1l-3,6.3
		l-2.4-2.4l-1,1l9.5,9.7l1-1l-1.7-1.8l12-26.5l-1.2-1.2l-24.5,10.6C452.1,106.7,451.1,106.7,450.5,106.1z M469.9,100.6l-4.4,9.5
		l-5.3-5.4L469.9,100.6z"/>
	<path d="M476.4,135.8c-2.6-3.2-2.4-6.9,0.6-11l-1-1.3l-6.4,5l1,1.2l2.5,0.5c0.1,2.2,0.9,4.3,2.5,6.4c1.7,2.1,3.8,3.3,6.4,3.6
		c2.6,0.3,5-0.5,7.2-2.2c2.3-1.8,3.5-3.7,3.7-5.9c0.2-2-0.4-4.5-1.8-7.6c-1.2-2.6-1.9-4.1-2-4.7c-0.3-1.3,0.1-2.3,1.1-3.1
		c0.9-0.7,2-0.9,3.2-0.7s2.3,1.1,3.3,2.3c2.4,3.1,2.2,6.4-0.6,10l0.9,1.1l5.7-4.7l-0.8-1l-2-0.4c0-2-0.7-3.9-2-5.6
		c-1.6-2.1-3.6-3.2-5.9-3.5c-2.3-0.3-4.5,0.4-6.5,2c-1.8,1.4-2.8,3-3.1,4.8c-0.3,1.8,0.2,4,1.3,6.5c0.5,1.1,1.1,2.3,1.6,3.5
		c0.5,1.2,0.8,2.2,0.9,2.9c0.1,1.5-0.4,2.7-1.6,3.6c-1.2,0.9-2.5,1.2-4,0.9C478.9,138.2,477.6,137.3,476.4,135.8z"/>
	<polygon points="487.3,148.9 485.5,146 484.4,146.8 491.6,158.6 492.8,157.9 491,155 501.4,148.6 506.3,156.6 495.9,163 
		494.1,160.1 493,160.8 500.2,172.6 501.3,171.9 499.6,169 521.1,155.8 522.9,158.7 524,158.1 516.8,146.2 515.7,146.9 517.4,149.8 
		507.7,155.8 502.8,147.8 512.6,141.8 514.3,144.7 515.4,144 508.2,132.2 507.1,132.9 508.9,135.8 	"/>
	<path d="M503,175.5l-0.7-1.6l-1.3,0.6l3.6,8l1.3-0.6l-1-2.3c-0.3-0.8-0.3-1.2,0.2-1.5c0.4-0.2,0.8-0.3,1-0.3l5.1-0.3l3.5,7.8
		l-5,4.9l-1.4-3.1l-1.3,0.6l5.5,12.4l1.3-0.6l-1-2.3l20.5-20.6l-0.7-1.5l-26.7,1.4C504.3,176.6,503.4,176.3,503,175.5z M523.1,177
		l-7.4,7.4l-3.1-6.9L523.1,177z"/>
	<polygon points="56.8,386.5 57.8,389.1 58.5,388.9 55.8,382.1 42.5,383.2 42.4,382.9 52.8,374.7 50.1,367.9 49.4,368.1 50.4,370.7 
		34,377.3 33,374.7 32.3,374.9 34.7,380.8 35.3,380.6 34.3,378 50.4,371.6 50.5,371.8 35.8,383.6 36.2,384.5 55,383 55.1,383.2 
		39,389.7 37.9,387 37.3,387.3 40.7,396 41.4,395.7 40.3,393.1 	"/>
	<path d="M48.5,408.1c-0.5-0.1-0.8-0.3-1-0.5c-0.1-0.2-0.1-0.4-0.1-0.6c0-0.2,0.1-0.3,0.3-0.4l5.8-2.8c0.7-0.3,1.2-0.6,1.4-0.8
		c0.3-0.3,0.5-0.6,0.6-1.1c0.1-0.9-0.2-2.2-0.9-3.7c-0.6-1.2-1.3-2.1-2.2-2.6c-0.8-0.5-1.6-0.6-2.3-0.3c-0.8,0.4-1,1-0.6,1.8
		c0.4,0.8,1,1,1.7,0.7c0.3-0.1,0.5-0.3,0.7-0.6s0.3-0.4,0.3-0.4c0.2-0.1,0.4,0,0.8,0.3c0.3,0.3,0.6,0.7,0.9,1.3
		c0.3,0.7,0.4,1.3,0.1,1.6c-0.2,0.3-0.7,0.7-1.6,1.1l-1.6,0.8l-0.5-1c-0.7-1.5-1.7-2.6-2.8-3.3c-1.1-0.7-2.2-0.8-3.2-0.3
		c-1.8,0.9-2.2,2.2-1.3,4c0.7,1.4,1.8,2.3,3.4,2.7l0.1,0.1c-1,0.8-1.2,1.7-0.8,2.7c0.6,1.1,1.4,1.7,2.6,1.8L48.5,408.1z M46.4,403.3
		c-0.6-0.2-1.1-0.5-1.4-1.1c-0.6-1.2-0.2-2,1-2.6c1.6-0.8,3,0.1,4.2,2.5l-1.9,0.9C47.7,403.4,47.1,403.5,46.4,403.3z"/>
	<path d="M63.6,421.2L57,425l-0.8-1.3l-0.6,0.3l3.1,5.3l0.6-0.3l-0.8-1.4l6-3.5c2.2-1.3,2.8-2.8,1.8-4.6c-0.8-1.4-2.2-2.1-4.2-2.1
		l-0.1-0.2c0.6-0.5,1-1.1,1.1-1.9c0.1-0.7,0-1.4-0.4-2.1c-0.8-1.4-2.2-2.1-4.2-2.1l-0.1-0.2l2.2-1.3c-0.8-1-1.4-1.9-1.8-2.6
		l-0.9-1.6l-0.6,0.3l1,1.7l-8.5,4.9l-1-1.7l-0.6,0.3l3.3,5.7l0.6-0.3l-0.8-1.4l4.5-2.6c1-0.6,2-0.8,3.1-0.7c1.1,0.1,1.8,0.5,2.1,1.1
		c0.3,0.5,0.3,0.9,0,1.2c-0.2,0.2-0.5,0.5-1,0.8l-6.6,3.8l-0.8-1.3l-0.6,0.3l3.1,5.3l0.6-0.3l-0.8-1.4l4.5-2.6c1-0.6,2-0.8,3.1-0.7
		c1.1,0.1,1.8,0.5,2.2,1.2C65,419.9,64.6,420.5,63.6,421.2z"/>
	<path d="M75.9,435.9l0.5-0.4l-2.5-3.7l-0.5,0.4l1.1,1.6l-6.8,1.6l-0.1-0.2l3.6-6.3l1.1,1.6l0.5-0.4l-3.7-5.4l-0.5,0.4l0.8,1.2
		l-5.8,10.1l-3.2,0.8c-1.1,0.3-1.8,0.3-1.9,0.1c-0.1-0.1,0-0.3,0-0.7c0.1-0.4,0-0.8-0.3-1.1c-0.5-0.7-1.1-0.8-1.9-0.3
		c-0.8,0.5-0.9,1.2-0.4,2c0.5,0.7,1.3,1.1,2.3,1.1c0.7,0,2-0.2,3.8-0.6l13-3L75.9,435.9z"/>
	<path d="M86,449.4c0.1,0.1,0,0.3-0.3,0.6l-0.2,0.2c-0.7,0.6-0.7,1.2,0,2.1c0.6,0.8,1.3,0.8,2.1,0.1c0.4-0.3,0.7-0.8,0.7-1.3
		s-0.2-1-0.6-1.5c-1-1.3-2.6-1.7-4.6-1.3l-0.1-0.2l2.2-1.7c-0.9-0.9-1.6-1.6-2.1-2.2l-1.2-1.4l-0.5,0.4l1.2,1.5l-7.6,6.2l-1.2-1.5
		l-0.5,0.4l4.7,5.8l0.5-0.4l-1.6-2l4.2-3.4c0.8-0.6,1.7-1,2.8-1.1C84.9,448.6,85.6,448.9,86,449.4z"/>
	<path d="M93.7,453.4l0.7,0.8l4.7,1.4c0.9,0.3,1.5,0.2,1.8-0.1c0.2-0.2,0.3-0.5,0.4-0.8c0-0.3-0.1-0.6-0.3-0.8
		c-0.3-0.3-0.9-0.5-1.6-0.5L93.7,453.4z"/>
	<path d="M95.7,461.3c0.1-1.7-0.4-3.1-1.4-4.3c-1.1-1.2-2.4-1.8-4.1-1.9c-1.7-0.1-3.1,0.4-4.2,1.4c-1.2,1-1.8,2.4-1.9,4.1
		c-0.1,1.7,0.4,3.1,1.4,4.3c1.1,1.2,2.4,1.8,4.1,1.9c1.7,0.1,3.1-0.4,4.2-1.4C95,464.3,95.6,463,95.7,461.3z M92.9,461.7l-2.6,2.4
		c-0.9,0.8-1.7,1.3-2.3,1.3c-0.7,0.1-1.4-0.2-2-0.9c-0.6-0.7-0.8-1.4-0.7-2.1c0.1-0.6,0.7-1.3,1.6-2.1l2.6-2.4
		c0.9-0.8,1.7-1.3,2.3-1.4c0.7-0.1,1.3,0.2,1.9,0.9c0.6,0.7,0.9,1.4,0.7,2.1C94.3,460.1,93.8,460.8,92.9,461.7z"/>
	<path d="M102.1,474.5c-1.2,0.9-2.3,1.4-3.1,1.4c-0.9,0.1-1.7-0.3-2.4-1l-1.6-1.6l11.5-2.2l0.6-0.6l-6.7-6.7l-3.1,3.1l0.5,0.5
		c1.4-0.8,2.4-1.2,3.1-1.2c0.7,0,1.4,0.5,2.3,1.4l0.9,0.9l-11.5,2.1l-0.6,0.6l7.1,7.1l3.5-3.5L102.1,474.5z"/>
	<path d="M106.5,462.1c-0.3,0.3-0.5,0.7-0.5,1.2s0.2,0.8,0.5,1.2c0.3,0.3,0.7,0.5,1.2,0.5c0.5,0,0.8-0.2,1.2-0.5
		c0.3-0.3,0.5-0.7,0.5-1.2c0-0.5-0.2-0.8-0.5-1.2c-0.3-0.3-0.7-0.5-1.2-0.5S106.9,461.7,106.5,462.1z"/>
	<path d="M115.8,482.7c1.5-1.7,1.3-3.3-0.4-4.8c-1.2-1.1-2.8-1.3-4.7-0.8l-0.2-0.2l1.7-1.9c-1.1-0.7-1.9-1.3-2.5-1.9l-1.4-1.2
		l-0.4,0.5l1.5,1.3l-6.5,7.3l-1.5-1.3l-0.4,0.5l5.1,4.5l0.4-0.5l-1.3-1.2l3.6-4c0.8-0.8,1.7-1.4,2.8-1.6c1.1-0.2,2,0,2.6,0.5
		c0.4,0.4,0.6,0.8,0.6,1.1c-0.1,0.3-0.3,0.6-0.7,1.1l-5.3,5.9l-1.3-1.1l-0.4,0.5l4.9,4.4l0.4-0.5l-1.3-1.2L115.8,482.7z"/>
	<path d="M124.9,485.9c-1.2-1-2.6-1.3-4.2-1c-1.6,0.3-2.9,1.1-4,2.4c-1,1.2-1.4,2.6-1.3,4.1c0.1,1.5,0.8,2.8,2.1,3.7
		c2.2,1.7,4.3,1.8,6.6,0.1l-0.5-0.4c-0.9,0.6-1.8,0.9-2.7,0.9c-1,0-1.8-0.3-2.6-0.9c-0.6-0.5-0.9-1.1-1-1.7s0.2-1.3,0.6-1.9l2.1-2.7
		l5.7,4.6l0.2-0.2c0.9-1.1,1.2-2.3,1-3.7C126.7,487.9,126.1,486.8,124.9,485.9z M124.7,489.3l-1,1.2l-3.2-2.6l1-1.2
		c0.9-1.1,1.9-1.2,2.9-0.4C125.5,487.2,125.6,488.2,124.7,489.3z"/>
	<polygon points="146.8,502.7 147.2,502.2 142.1,498.8 141.8,499.3 143.7,500.7 137.7,501.8 138.2,508.8 136.9,507.9 136.5,508.4 
		141.7,511.9 142,511.3 141.2,510.8 140.6,502 144.6,501.3 	"/>
	<path d="M144.9,490.7c-1.1-0.6-2-1.1-2.7-1.5l-1.8-1.2l-0.4,0.5l1.8,1.2l-9.9,14.8l-1.8-1.2l-0.4,0.5l6,4l0.4-0.5l-1.6-1.1
		L144.9,490.7z"/>
	<path d="M156.7,509.6c-0.4-1.6-1.3-2.8-2.7-3.6c-1.4-0.8-2.9-1-4.5-0.6c-1.6,0.4-2.8,1.3-3.6,2.6c-0.8,1.3-1,2.8-0.6,4.4
		c0.4,1.6,1.3,2.8,2.7,3.6c1.4,0.8,2.9,1,4.5,0.6c1.6-0.4,2.8-1.3,3.6-2.6C156.9,512.7,157.1,511.2,156.7,509.6z M154.1,510.8
		l-1.8,3c-0.6,1-1.2,1.7-1.8,2c-0.6,0.3-1.4,0.2-2.2-0.3c-0.8-0.5-1.2-1.1-1.2-1.8c0-0.6,0.2-1.5,0.8-2.5l1.8-3c0.6-1,1.2-1.7,1.8-2
		c0.6-0.3,1.3-0.2,2.1,0.3c0.8,0.5,1.2,1.1,1.3,1.8C155,508.9,154.7,509.8,154.1,510.8z"/>
	<path d="M170,516.8c0.3-0.5,0.3-1,0.1-1.4s-0.6-0.9-1.1-1.1c-1.5-0.8-3-0.5-4.7,0.7l-0.2-0.1l1.3-2.5c-1.2-0.4-2.2-0.8-2.9-1.2
		l-1.6-0.8l-0.3,0.6l1.7,0.9l-4.5,8.7l-1.7-0.9l-0.3,0.6l6.7,3.5l0.3-0.6l-2.2-1.2l2.5-4.8c0.5-0.9,1.2-1.6,2.1-2.1
		c0.9-0.5,1.7-0.6,2.3-0.3c0.2,0.1,0.2,0.3,0,0.6l-0.1,0.2c-0.4,0.8-0.1,1.4,0.8,1.9C168.8,517.9,169.5,517.7,170,516.8z"/>
	<path d="M176.1,528.3c-0.8,0.4-1.7,0.3-2.6-0.1l-2.1-1l10.1-6l0.3-0.7l-8.6-3.9l-1.8,3.9l0.6,0.3c1-1.2,1.8-2,2.5-2.2
		c0.6-0.2,1.5,0,2.7,0.5l1.2,0.5l-10.1,6l-0.3,0.8l9.2,4.2l2-4.5l-0.6-0.3C177.7,527.1,176.9,527.9,176.1,528.3z"/>
	<path d="M187.9,533.8c-0.9,0.3-1.8,0.2-2.7-0.1c-0.7-0.3-1.2-0.7-1.4-1.4c-0.2-0.6-0.2-1.3,0.1-2l1.3-3.2l6.8,2.7l0.1-0.2
		c0.5-1.3,0.5-2.6-0.1-3.8c-0.6-1.2-1.6-2.1-2.9-2.7c-1.4-0.6-2.9-0.5-4.3,0.3c-1.4,0.7-2.5,1.9-3.1,3.4c-0.6,1.4-0.6,2.9,0,4.3
		c0.6,1.4,1.6,2.4,3,3c2.6,1,4.7,0.4,6.3-1.8l-0.6-0.3C189.6,532.9,188.9,533.5,187.9,533.8z M186,524.9c0.5-1.3,1.4-1.7,2.7-1.2
		c1.3,0.5,1.7,1.4,1.1,2.7l-0.6,1.4l-3.8-1.5L186,524.9z"/>
	<path d="M204.2,528.7c-1.6-0.5-3.1-0.1-4.6,1.2l-0.2-0.1l0.8-2.4c-1.2-0.2-2.2-0.5-3-0.7l-1.7-0.6l-0.2,0.6l1.8,0.6l-3.1,9.3
		l-1.8-0.6l-0.2,0.6l6.4,2.2l0.2-0.6l-1.7-0.6l1.7-5.1c0.4-1.1,1-1.9,2-2.5c0.9-0.6,1.8-0.8,2.6-0.5c0.5,0.2,0.9,0.5,1,0.8
		c0.1,0.3,0,0.7-0.2,1.3l-2.5,7.6l-1.6-0.5l-0.2,0.6l6.2,2.1l0.2-0.6l-1.7-0.6l2.4-7C207.2,530.9,206.4,529.4,204.2,528.7z"/>
	<path d="M215.6,524.7c-0.4-0.1-0.9-0.1-1.2,0.1c-0.4,0.2-0.6,0.5-0.8,1c-0.1,0.4-0.1,0.9,0.1,1.2c0.2,0.4,0.5,0.6,1,0.8
		c0.4,0.1,0.9,0.1,1.3-0.1c0.4-0.2,0.7-0.5,0.8-1c0.1-0.4,0.1-0.9-0.2-1.2C216.4,525.1,216,524.8,215.6,524.7z"/>
	<path d="M212.3,531.5l-1.7-0.5l-0.2,0.6l1.8,0.5l-2.7,9.5l-2.1-0.6l-0.2,0.6l7,2l0.2-0.6l-2-0.6l2.9-10.3
		C214.1,531.9,213.1,531.7,212.3,531.5z"/>
	<path d="M224,534.3c-1.5-0.4-2.9-0.1-4.2,0.9c-1.3,0.9-2.2,2.2-2.6,3.9c-0.4,1.5-0.2,2.9,0.6,4.2c0.8,1.3,1.9,2.1,3.4,2.5
		c2.7,0.6,4.7-0.2,6-2.7l-0.7-0.2c-0.5,0.9-1.2,1.6-2.1,2s-1.8,0.5-2.7,0.3c-0.8-0.2-1.3-0.6-1.6-1.1c-0.3-0.6-0.4-1.2-0.2-2
		l0.8-3.3l7.1,1.7l0.1-0.3c0.3-1.4,0.1-2.6-0.6-3.7C226.5,535.3,225.4,534.6,224,534.3z M225.3,537.4l-0.4,1.5l-4-1l0.4-1.5
		c0.3-1.4,1.2-1.9,2.5-1.6C225.1,535.2,225.6,536,225.3,537.4z"/>
	<path d="M242.9,538c-1.3,0-2.3-0.1-3.1-0.2l-1.8-0.3l-0.1,0.6l1.8,0.3l-1.6,9.7l-2.2-0.4l-0.1,0.6l7.2,1.2l0.1-0.6l-2-0.3
		L242.9,538z"/>
	<path d="M242.3,530.7c-0.5-0.1-0.9,0-1.2,0.3c-0.4,0.3-0.6,0.6-0.7,1.1c-0.1,0.5,0,0.9,0.3,1.2c0.3,0.4,0.6,0.6,1.1,0.7
		c0.5,0.1,0.9,0,1.2-0.3c0.4-0.3,0.6-0.6,0.7-1.1c0.1-0.5,0-0.9-0.3-1.2C243.1,531,242.8,530.8,242.3,530.7z"/>
	<path d="M262.5,540.4c-1.6-0.2-3,0.6-4.1,2.4l-0.2,0l0.3-2.8c-1.3,0.1-2.3,0-3.1,0l-1.8-0.2l-0.1,0.7l1.9,0.2l-0.9,9.8l-1.9-0.2
		l-0.1,0.7l7.5,0.7l0.1-0.7l-2.5-0.2l0.5-5.3c0.1-1,0.5-1.9,1.2-2.7c0.7-0.8,1.3-1.2,2-1.1c0.2,0,0.3,0.2,0.2,0.6l0,0.3
		c-0.1,0.9,0.4,1.4,1.5,1.5c1,0.1,1.5-0.4,1.6-1.4c0.1-0.5-0.1-1-0.4-1.4C263.6,540.7,263.1,540.4,262.5,540.4z"/>
	<path d="M272.3,541c-1.6-0.1-3,0.5-4.2,1.6c-1.2,1.1-1.9,2.5-1.9,4c-0.1,1.5,0.5,2.9,1.6,4.2c1.1,1.2,2.5,1.9,4.1,2
		c1.6,0.1,3-0.5,4.2-1.6c1.2-1.1,1.9-2.5,1.9-4c0.1-1.5-0.5-2.9-1.6-4.2C275.3,541.7,273.9,541,272.3,541z M274.7,545.2l-0.1,3.5
		c0,1.2-0.3,2.1-0.6,2.6c-0.4,0.6-1.1,0.8-2,0.8c-0.9,0-1.6-0.4-1.9-1c-0.3-0.5-0.5-1.4-0.4-2.6l0.1-3.5c0.1-1.2,0.3-2.1,0.7-2.6
		c0.4-0.5,1.1-0.8,2-0.7c0.9,0,1.6,0.4,2,0.9C274.6,543.1,274.7,544,274.7,545.2z"/>
	<path d="M270.4,538.8l4.3-2.4c0.8-0.4,1.2-0.9,1.2-1.4c0-0.3-0.1-0.6-0.3-0.8c-0.2-0.2-0.4-0.3-0.7-0.3c-0.5,0-1,0.2-1.5,0.8l-4,4
		L270.4,538.8z"/>
	<path d="M287.3,536.8c0.3-0.3,0.5-0.7,0.5-1.2c0-0.5-0.2-0.8-0.5-1.2c-0.3-0.3-0.7-0.5-1.2-0.5c-0.5,0-0.8,0.2-1.2,0.5
		c-0.3,0.3-0.5,0.7-0.5,1.2c0,0.5,0.2,0.8,0.5,1.2c0.3,0.3,0.7,0.5,1.2,0.5C286.6,537.3,287,537.2,287.3,536.8z"/>
	<path d="M290.3,547.6c-0.2,1.5-0.6,2.6-1.2,3.3c-0.6,0.7-1.4,1-2.4,1l-2.3,0l6.5-9.8l0-0.8l-9.4,0.2l0.1,4.3l0.7,0
		c0.4-1.6,0.8-2.6,1.3-3c0.5-0.5,1.4-0.7,2.6-0.7l1.3,0l-6.5,9.8l0,0.8l10.1-0.2l-0.1-4.9L290.3,547.6z"/>
	<path d="M306.2,551l-0.5-7.4c-0.1-2.2-1.4-3.2-3.7-3.1c-1.6,0.1-2.9,1.1-3.9,2.8l-0.3,0l-0.2-2.6c-1.2,0.3-2.3,0.4-3.1,0.5
		l-1.8,0.1l0,0.7l1.9-0.1l0.6,9.8l-1.9,0.1l0,0.7l6.8-0.4l0-0.7l-1.8,0.1l-0.3-5.3c-0.1-1.1,0.2-2.2,0.8-3.1
		c0.6-0.9,1.4-1.4,2.2-1.5c0.6,0,1,0.1,1.2,0.4c0.1,0.2,0.2,0.6,0.3,1.2l0.5,7.9l-1.7,0.1l0,0.7l6.5-0.4l0-0.7L306.2,551z"/>
	<path d="M318.5,549.1c-0.7,0.7-1.5,1.1-2.4,1.2c-0.8,0.1-1.4-0.1-1.9-0.5c-0.5-0.4-0.8-1-0.9-1.8l-0.4-3.4l7.3-0.9l0-0.3
		c-0.2-1.4-0.8-2.5-1.9-3.3c-1.1-0.8-2.4-1.1-3.9-0.9c-1.5,0.2-2.7,0.9-3.6,2.3c-0.9,1.3-1.3,2.9-1.1,4.5c0.2,1.5,0.9,2.8,2,3.8
		c1.2,1,2.5,1.3,4.1,1.2c2.7-0.3,4.3-1.9,4.7-4.6l-0.7,0.1C319.6,547.5,319.2,548.4,318.5,549.1z M312.6,542.3
		c-0.2-1.4,0.4-2.2,1.8-2.3c1.4-0.2,2.1,0.4,2.3,1.8l0.2,1.5l-4.1,0.5L312.6,542.3z"/>
	<path d="M335.5,546.8l-3.6-18.4c-1.2,0.4-2.2,0.7-3,0.8l-2.1,0.4l0.1,0.6l2.2-0.4l3.4,17.5l-2.2,0.4l0.1,0.6l7.2-1.4l-0.1-0.6
		L335.5,546.8z"/>
	<path d="M339.2,528.2c-0.4-0.2-0.8-0.3-1.3-0.2c-0.4,0.1-0.8,0.3-1,0.7c-0.2,0.4-0.3,0.8-0.2,1.2c0.1,0.4,0.3,0.8,0.7,1
		s0.8,0.3,1.2,0.2c0.4-0.1,0.8-0.3,1-0.7c0.2-0.4,0.3-0.8,0.2-1.2C339.9,528.7,339.6,528.4,339.2,528.2z"/>
	<path d="M343.7,545l-2.4-10.5c-1.2,0.4-2.2,0.8-3,0.9l-1.8,0.4l0.1,0.6l1.8-0.4l2.2,9.6l-2.2,0.5l0.1,0.6l7.1-1.6l-0.1-0.6
		L343.7,545z"/>
	<path d="M350.9,536.4c-0.8,0.1-1.7,0.2-2.5,0.2c-0.6,0-1-0.3-1.1-0.8c-0.3-1.3,0.3-2.1,1.8-2.5c0.7-0.2,1.4-0.1,2,0.2
		c0.6,0.3,1.1,0.9,1.5,1.7l0.6-0.2l-0.8-3l-0.4,0.1l-0.3,0.7c-1-0.4-2-0.5-2.8-0.2c-1.1,0.3-1.9,0.8-2.3,1.6
		c-0.5,0.8-0.5,1.7-0.3,2.8c0.3,1.2,0.9,1.9,1.9,2.3c0.7,0.3,1.8,0.3,3.3,0.1c1.6-0.2,2.5,0.1,2.7,1c0.2,0.6,0.1,1.2-0.3,1.7
		c-0.4,0.5-1,0.8-1.7,1.1c-0.8,0.2-1.6,0.1-2.4-0.4c-0.8-0.5-1.4-1.2-1.9-2.3l-0.8,0.2l1.1,4l0.2-0.1l0.9-1c1,0.5,2,0.5,3,0.3
		c1.2-0.3,2-0.9,2.5-1.7c0.5-0.8,0.6-1.8,0.3-2.9C354.5,537.2,353.1,536.2,350.9,536.4z"/>
	<path d="M350.3,525.2c-0.3-0.1-0.5-0.2-0.8-0.1c-0.4,0.1-0.8,0.5-1.2,1.2l-2.6,5.1l1-0.3l3.4-3.6c0.6-0.7,0.9-1.2,0.8-1.7
		C350.7,525.6,350.5,525.3,350.3,525.2z"/>
	<path d="M366.7,537.9c-0.5,0.8-1.2,1.4-2,1.6c-1.7,0.5-2.7,0-3.3-1.7l-1.3-4c-0.4-1.2-0.5-2.2-0.3-2.9c0.2-0.7,0.8-1.2,1.7-1.5
		c1.1-0.3,1.7-0.3,1.9,0.2c0,0-0.1,0.2-0.2,0.6c-0.1,0.4-0.1,0.8,0,1.1c0.3,0.9,1,1.3,2,0.9c0.9-0.3,1.3-0.9,1-1.9
		c-0.3-0.9-0.9-1.5-1.8-1.8c-0.9-0.3-1.9-0.2-3.1,0.1c-1.6,0.5-2.8,1.5-3.5,3c-0.7,1.5-0.8,3-0.3,4.7c0.5,1.5,1.4,2.7,2.7,3.4
		c1.3,0.7,2.7,0.9,4.2,0.4c2.6-0.8,3.8-2.6,3.7-5.3l-0.7,0.2C367.4,536.2,367.2,537.1,366.7,537.9z"/>
	<path d="M367.6,522.2c0.4,0.2,0.8,0.2,1.3,0c0.4-0.2,0.7-0.4,0.9-0.8c0.2-0.4,0.2-0.8,0.1-1.3c-0.2-0.4-0.4-0.7-0.9-0.9
		s-0.8-0.2-1.3,0c-0.4,0.2-0.7,0.4-0.9,0.8c-0.2,0.4-0.2,0.8,0,1.3C367,521.7,367.2,522,367.6,522.2z"/>
	<path d="M375.6,535.3l-3.7-10.1c-1.1,0.6-2.1,1-2.8,1.3l-1.7,0.6l0.2,0.6l1.7-0.6l3.4,9.2l-2.1,0.8l0.2,0.6l6.9-2.5l-0.2-0.6
		L375.6,535.3z"/>
	<path d="M387.3,527.5c0.1,1.1-0.1,2-0.5,2.8c-0.5,0.8-1.1,1.4-2,1.8c-0.7,0.3-1.4,0.3-2,0c-0.6-0.3-1-0.8-1.3-1.5l-1.3-3.2l6.8-2.8
		l-0.1-0.2c-0.5-1.3-1.4-2.2-2.7-2.6c-1.3-0.5-2.6-0.4-4,0.1c-1.4,0.6-2.4,1.6-2.9,3.2c-0.5,1.5-0.5,3.1,0.2,4.6
		c0.6,1.4,1.6,2.5,3,3.1s2.8,0.6,4.3,0c2.5-1.1,3.6-2.9,3.3-5.7L387.3,527.5z M379.2,525.4c-0.5-1.3-0.2-2.2,1.1-2.7
		c1.3-0.5,2.2-0.1,2.7,1.2l0.6,1.4l-3.8,1.6L379.2,525.4z"/>
	<path d="M394.6,525.4c-0.8-0.3-1.5-0.3-2.2,0c-0.6,0.3-0.9,0.6-1.1,1.1c-0.2,0.5-0.1,1,0.2,1.6c0.5,1,1.2,1.3,2.1,0.9
		c0.6-0.3,0.9-0.7,0.9-1.2s0.1-0.9,0.2-0.9c0.3-0.1,0.6,0.1,0.9,0.8c0.6,1.2,0.4,2.9-0.5,4.8l0.6,0.3c1.3-2,1.5-3.8,0.8-5.5
		C395.9,526.3,395.3,525.7,394.6,525.4z"/>
	<path d="M414.6,516.8c-0.2,0.1-0.4,0.1-0.6,0.1c-0.2,0-0.3-0.1-0.4-0.3l-3.1-5.7c-0.4-0.7-0.7-1.1-0.9-1.4
		c-0.3-0.3-0.6-0.5-1.1-0.5c-0.9-0.1-2.2,0.3-3.7,1.1c-1.2,0.7-2,1.4-2.5,2.3c-0.5,0.9-0.5,1.6-0.1,2.3c0.4,0.8,1,1,1.8,0.5
		c0.8-0.4,1-1,0.6-1.8c-0.1-0.3-0.3-0.5-0.6-0.6c-0.3-0.2-0.4-0.3-0.4-0.3c-0.1-0.2,0-0.4,0.3-0.8c0.3-0.3,0.7-0.7,1.3-1
		c0.7-0.4,1.2-0.4,1.6-0.2c0.3,0.2,0.7,0.7,1.2,1.6l0.8,1.5l-1,0.6c-1.5,0.8-2.6,1.8-3.2,3c-0.6,1.2-0.7,2.2-0.1,3.2
		c0.9,1.7,2.3,2.1,4.1,1.1c1.4-0.8,2.2-1.9,2.6-3.5l0.1-0.1c0.9,0.9,1.8,1.1,2.7,0.6c1.1-0.6,1.7-1.5,1.7-2.7l-0.5-0.2
		C415,516.3,414.8,516.7,414.6,516.8z M410.4,518.1c-0.1,0.6-0.5,1.1-1,1.4c-1.1,0.6-2,0.3-2.7-0.8c-0.8-1.5-0.1-3,2.3-4.3l1,1.8
		C410.4,516.8,410.5,517.5,410.4,518.1z"/>
	<path d="M421.7,512.8l-9.7-16c-1,0.8-1.8,1.4-2.5,1.8l-1.8,1.1l0.3,0.6l1.9-1.1l9.3,15.3l-1.9,1.1l0.3,0.6l6.2-3.8l-0.3-0.6
		L421.7,512.8z"/>
	<path d="M431.6,502.9c0.3,1,0.3,2,0,2.9c-0.3,0.9-0.8,1.6-1.6,2.2c-0.7,0.4-1.3,0.6-1.9,0.4c-0.6-0.2-1.2-0.5-1.6-1.2l-1.9-2.9
		l6.1-4.1l-0.1-0.2c-0.8-1.2-1.8-1.9-3.2-2.1c-1.3-0.2-2.6,0.1-3.9,0.9c-1.3,0.8-2,2.1-2.2,3.7c-0.2,1.6,0.1,3.1,1.1,4.5
		c0.9,1.3,2,2.1,3.5,2.4c1.5,0.3,2.9,0.1,4.2-0.8c2.3-1.5,3-3.6,2.1-6.2L431.6,502.9z M423.3,502.4c-0.8-1.2-0.6-2.1,0.6-2.9
		c1.1-0.8,2.1-0.6,2.9,0.6l0.9,1.3l-3.4,2.3L423.3,502.4z"/>
	<path d="M447,493.2c0.3,1,0.2,1.7-0.4,2.1c-0.7,0.5-1.3,0.4-1.9-0.4l-5-6.5l2.2-1.7l-0.4-0.5l-2.1,1.6l-2.1-2.7
		c-0.5,0.7-1,1.1-1.3,1.4l-0.8,0.6l1.9,2.4l-1.5,1.2l0.4,0.5l1.5-1.1l5.2,6.7c0.5,0.7,1.1,1.1,1.6,1.1s1.2-0.2,2.1-0.9
		c0.7-0.6,1.2-1.2,1.5-2c0.2-0.8,0.2-1.5-0.1-2.1L447,493.2z"/>
	<path d="M455.6,484.2c0.4,1,0.5,1.9,0.4,2.9c-0.2,0.9-0.6,1.7-1.4,2.3c-0.6,0.5-1.2,0.7-1.9,0.6c-0.7-0.1-1.2-0.4-1.7-1l-2.2-2.6
		l5.6-4.7l-0.2-0.2c-0.9-1.1-2-1.6-3.4-1.7c-1.4-0.1-2.6,0.4-3.7,1.3c-1.2,1-1.8,2.3-1.8,3.9c0,1.6,0.5,3.1,1.6,4.4
		c1,1.2,2.3,1.9,3.8,2c1.5,0.2,2.9-0.3,4.1-1.3c2.1-1.8,2.6-3.9,1.4-6.4L455.6,484.2z M447.3,484.6c-0.9-1.1-0.8-2.1,0.2-2.9
		c1.1-0.9,2-0.8,2.9,0.3l1,1.2l-3.1,2.7L447.3,484.6z"/>
	<path d="M469.1,475.7l-5.1-5.4c-1.5-1.6-3.1-1.6-4.8,0c-1.2,1.1-1.6,2.7-1.2,4.6l-0.2,0.2l-1.8-1.9c-0.8,1-1.5,1.8-2.1,2.3
		l-1.3,1.3l0.5,0.5l1.4-1.3l6.8,7.1l-1.4,1.3l0.5,0.5l4.9-4.7l-0.5-0.5l-1.3,1.2l-3.7-3.9c-0.8-0.8-1.2-1.8-1.3-2.9
		c-0.1-1.1,0.1-2,0.7-2.5c0.4-0.4,0.8-0.5,1.2-0.5c0.3,0.1,0.6,0.3,1,0.8l5.5,5.8l-1.2,1.2l0.5,0.5l4.7-4.5l-0.5-0.5L469.1,475.7z"
		/>
	<path d="M475.9,458.9c-0.6,0.5-1.3,1-2,1.6c-0.5,0.3-1,0.3-1.4-0.1c-1-0.9-0.9-1.9,0.1-3.1c0.5-0.5,1.1-0.8,1.8-0.9
		c0.7-0.1,1.4,0.1,2.2,0.6l0.4-0.5l-2.3-2.1l-0.2,0.3l0.1,0.8c-1.1,0.2-1.9,0.7-2.5,1.4c-0.8,0.8-1.1,1.7-1,2.6
		c0.1,0.9,0.5,1.7,1.3,2.5c0.9,0.8,1.8,1.1,2.8,0.9c0.8-0.2,1.7-0.7,2.8-1.7c1.2-1,2.2-1.2,2.9-0.6c0.5,0.4,0.7,0.9,0.6,1.6
		c0,0.6-0.3,1.2-0.9,1.8c-0.6,0.6-1.3,0.9-2.2,1c-0.9,0-1.8-0.3-2.8-0.9l-0.5,0.6l3.1,2.8l0.2-0.2l0.2-1.4c1.1-0.2,1.9-0.6,2.6-1.4
		c0.8-0.9,1.2-1.8,1.2-2.8c0-1-0.5-1.8-1.3-2.6C479.4,457.6,477.7,457.6,475.9,458.9z"/>
	<path d="M491.7,449c0.1,0.5,0.1,0.9-0.1,1.1c-0.1,0.1-0.3,0.2-0.5,0.3c-0.2,0-0.4,0-0.5-0.1l-5-4.1c-0.6-0.5-1-0.8-1.3-0.9
		c-0.4-0.2-0.8-0.2-1.2-0.1c-0.9,0.3-1.9,1.1-3,2.4c-0.9,1.1-1.3,2.1-1.4,3.1c-0.1,1,0.1,1.7,0.7,2.2c0.7,0.6,1.3,0.5,1.9-0.2
		c0.6-0.7,0.5-1.3-0.1-1.8c-0.2-0.2-0.5-0.3-0.8-0.4c-0.3-0.1-0.5-0.1-0.5-0.1c-0.2-0.1-0.2-0.4-0.1-0.8c0.1-0.4,0.4-0.9,0.8-1.4
		c0.5-0.6,1-0.9,1.4-0.8c0.3,0.1,0.9,0.4,1.7,1l1.4,1.1l-0.7,0.9c-1.1,1.3-1.7,2.6-1.8,3.9c-0.1,1.3,0.2,2.3,1.1,3
		c1.5,1.2,2.9,1.1,4.2-0.5c1-1.2,1.3-2.6,1-4.2l0.1-0.1c1.2,0.5,2.1,0.4,2.8-0.4c0.8-1,1-2,0.5-3.1L491.7,449z M487.8,454.5
		c-0.8,1-1.8,1.1-2.8,0.2c-1.4-1.1-1.2-2.7,0.5-4.9l1.6,1.3c0.6,0.5,0.9,1,1.1,1.7C488.3,453.5,488.2,454,487.8,454.5z"/>
	<path d="M505.2,431.7l-5.7-4c-2.1-1.5-3.7-1.3-4.9,0.3c-0.9,1.3-0.9,2.8-0.1,4.7l-0.1,0.2c-0.7-0.3-1.4-0.4-2.1-0.2
		c-0.7,0.2-1.3,0.6-1.7,1.2c-0.9,1.3-0.9,2.8-0.1,4.7l-0.1,0.2l-2.1-1.5c-0.6,1.1-1.1,2-1.6,2.7l-1.1,1.5l0.5,0.4l1.1-1.6l8,5.6
		l-1.1,1.6l0.5,0.4l3.8-5.3l-0.5-0.4l-0.9,1.3l-4.2-3c-0.9-0.7-1.6-1.5-1.9-2.5c-0.4-1-0.3-1.8,0.1-2.4c0.3-0.4,0.7-0.6,1.1-0.5
		c0.3,0,0.7,0.2,1.2,0.6l6.2,4.4l-0.9,1.2l0.5,0.4l3.5-5l-0.5-0.4l-0.9,1.3l-4.2-3c-0.9-0.7-1.6-1.5-2-2.5c-0.4-1-0.3-1.8,0.1-2.5
		c0.4-0.6,1.2-0.6,2.2,0.1l6.2,4.4l-0.9,1.2l0.5,0.4l3.5-5l-0.5-0.4L505.2,431.7z"/>
	<path d="M519.4,420.9l-6.4-3.6l0.2-0.3c1.4-0.2,2.5-0.9,3.1-2c0.7-1.3,0.9-2.7,0.4-4.1c-0.5-1.4-1.4-2.6-3-3.4
		c-1.5-0.8-3-1.1-4.4-0.7s-2.6,1.1-3.2,2.4c-0.7,1.2-0.7,2.5-0.2,3.8l-0.2,0.3l-1.5-0.8c-0.5,1.2-0.9,2.1-1.3,2.8l-0.9,1.7l0.6,0.3
		l0.9-1.7l14.4,8l-0.9,1.7l0.6,0.3l3.3-6l-0.6-0.3L519.4,420.9z M510.8,416.1l-2.7-1.5c-1-0.5-1.6-1.3-1.9-2.4
		c-0.3-0.9-0.2-1.8,0.3-2.7c0.6-1.2,1.9-1.2,3.7-0.2l3.6,2c1,0.6,1.7,1.1,2,1.6c0.4,0.6,0.3,1.3-0.1,2c-0.4,0.7-1.1,1.2-2.1,1.5
		C512.5,416.6,511.6,416.5,510.8,416.1z"/>
	<path d="M506.7,396c-0.4-0.2-0.8-0.2-1.3-0.1c-0.4,0.2-0.7,0.4-0.9,0.8c-0.2,0.4-0.2,0.8-0.1,1.2c0.1,0.4,0.4,0.7,0.8,0.9
		c0.4,0.2,0.8,0.2,1.2,0.1c0.4-0.1,0.7-0.4,0.9-0.8c0.2-0.4,0.2-0.8,0.1-1.3C507.3,396.6,507.1,396.2,506.7,396z"/>
	<path d="M521.2,403.1l-9.6-4.8c-0.4,1.2-0.8,2.2-1.1,2.9l-0.8,1.6l0.6,0.3l0.8-1.7l8.8,4.4l-1,2l0.6,0.3l3.2-6.5l-0.6-0.3
		L521.2,403.1z"/>
	<path d="M524.6,388.7l-0.3,0.6c0.8,0.7,1.3,1.5,1.6,2.4c0.2,0.9,0.2,1.8-0.2,2.7c-0.3,0.7-0.8,1.2-1.4,1.4c-0.6,0.2-1.3,0.2-2-0.1
		l-3.1-1.4l3-6.7l-0.2-0.1c-1.3-0.6-2.5-0.6-3.8-0.1c-1.3,0.5-2.2,1.5-2.8,2.8c-0.6,1.4-0.6,2.8,0.1,4.3c0.7,1.5,1.8,2.6,3.3,3.2
		c1.4,0.6,2.8,0.7,4.3,0.2c1.4-0.5,2.5-1.5,3.1-2.9C527.3,392.6,526.8,390.5,524.6,388.7z M518.5,394l-1.4-0.6
		c-1.3-0.6-1.6-1.5-1.1-2.7c0.6-1.3,1.5-1.6,2.8-1l1.4,0.6L518.5,394z"/>
	<path d="M516.4,371.8c-0.3-0.1-0.6-0.1-0.8,0c-0.3,0.1-0.5,0.3-0.6,0.6c-0.2,0.4-0.1,1,0.3,1.7l2.6,5.1l0.4-1l-0.9-4.9
		C517.1,372.5,516.8,371.9,516.4,371.8z"/>
	<path d="M532.8,375.8l-6.9-2.6c-2.1-0.8-3.5-0.1-4.4,2.1c-0.6,1.5-0.3,3.1,1,4.7l-0.1,0.2l-2.4-0.9c-0.3,1.2-0.6,2.2-0.9,3
		l-0.6,1.7l0.6,0.2l0.7-1.8l9.2,3.5l-0.7,1.8l0.6,0.2l2.4-6.3l-0.6-0.2L530,383l-5-1.9c-1.1-0.4-1.9-1.1-2.5-2.1
		c-0.6-1-0.7-1.8-0.4-2.6c0.2-0.5,0.5-0.8,0.9-0.9c0.3,0,0.7,0,1.2,0.3l7.4,2.8l-0.6,1.6l0.6,0.2l2.3-6.1l-0.6-0.2L532.8,375.8z"/>
	<path d="M522.4,365.5c2.5,0.3,5,0.9,7.5,1.7l0.2,0.1l0.3-0.9l-0.2-0.1c-2.5-0.8-4.8-1.8-7.1-3c-2.2-1.2-3.4-1.8-3.5-1.9
		c-1.2-0.4-2,0-2.3,1.2c-0.4,1.2,0,1.9,1.2,2.3C518.6,365,519.9,365.2,522.4,365.5z"/>
	<path d="M536.2,367.3c-0.2-0.5-0.6-0.8-1.1-0.9c-0.5-0.2-1-0.1-1.4,0.1c-0.5,0.2-0.8,0.6-0.9,1.1c-0.2,0.5-0.1,1,0.1,1.4
		c0.2,0.5,0.6,0.8,1.1,0.9c0.5,0.2,1,0.1,1.4-0.1c0.5-0.2,0.8-0.6,0.9-1.1C536.4,368.3,536.4,367.8,536.2,367.3z"/>
	<path d="M256.8,367.8c0.1,0,0.3,0,0.4,0c6,0,12-8.6,12.3-9l1.2-1.7l-2.1,0.1c-3.3,0.2-5.8,1-7.7,2c3.7-6.4,7.2-9.1,7.3-9.1
		c0.5-0.3,0.6-1,0.2-1.4c-0.3-0.5-1-0.6-1.4-0.2c-0.1,0.1-5.4,4.3-10.2,14.4c-1.2,1.7-1.5,3.2-1.6,3.6c-0.2,0.5-0.4,1.1-0.6,1.7
		c-0.5-2.2-2-5.4-6.2-9.1l-1.1-0.9l-0.6,1.3c-0.4,0.8-3.4,8.3-0.4,11.6c0.9,1,2.2,1.5,3.9,1.5c0.9,0,1.9-0.2,3-0.5
		c-2.4,7.7-4.1,17.6-3.9,30c0.4,21.4-5,36.5-16.1,44.9c-16.9,12.8-41.7,5.4-41.9,5.3c-0.5-0.2-1.1,0.1-1.3,0.7
		c-0.2,0.5,0.1,1.1,0.7,1.3c0.6,0.2,7.9,2.4,17.2,2.4c8.3,0,18.2-1.7,26.5-8c11.7-8.8,17.4-24.4,16.9-46.5
		C251.1,387.1,253.6,375.9,256.8,367.8z M258.3,364.2c1.2-1.7,3.5-3.8,8.1-4.7c-2.2,2.6-5.7,5.9-8.8,6.2
		C257.8,365.3,258,364.7,258.3,364.2z M247.8,369.7c-1.5-1.6-0.5-5.7,0.3-8.1c4.2,4.1,4.7,7.3,4.6,8.6
		C250.9,370.6,248.8,370.8,247.8,369.7z"/>
	<path d="M437.3,268.1l-2.1,0.1c-3.5,0.2-6.1,1.1-8,2.2c1.6-3.4,3.1-6.7,4.2-9.7c0.7-0.2,9.8-2.4,10.1-8.4l0.1-1.1h-1.1
		c-0.1,0-4.1,0.1-7.3,3.3c0.2-1.4,0.3-2.6,0-3.5c1.4-0.9,3.9-3.3,5.1-8.3l0.5,0.1c0.4,0.1,0.9,0.1,1.3,0.1c6,0,12-8.6,12.3-9
		l1.2-1.7l-2.1,0.1c-8,0.5-11.3,4.2-12.6,6.8c0.2-2,0.1-4.2-0.2-6.8c2.2-2.6,3-5.2,2.3-7.5c-1.1-4-6.1-5.8-6.3-5.8l-0.6-0.2
		l-0.5,0.5c-1.4,1.6-2.1,3.5-1.9,5.4c0.4,3.8,3.8,6.9,4.9,7.8c1.2,9.8-1.8,14.2-3.7,16c-0.3-2.2-1.6-5.8-6.4-9.9l-1.1-0.9l-0.6,1.3
		c-0.4,0.8-3.4,8.3-0.4,11.6c0.9,1,2.2,1.5,3.9,1.5c0.8,0,1.8-0.2,2.9-0.4c0.6,2.9-2.9,13.9-15.4,35.2c-0.8,1.3-1.6,2.5-2.5,3.7
		c0.2-2.4-1.5-4.8-5.1-7.3l-1.3-0.9l-0.3,1.6c-0.2,0.9-1.4,9,2.4,11.1l0.2,0.1c-7.8,7.4-18,11.3-25.6,13.3c-0.7-3.1,3.4-7.4,5.1-8.8
		c4.2-2.9,6.3-5.9,6.4-8.7c0.1-2.7-1.8-4.2-1.8-4.3l-0.4-0.3l-0.5,0.1c-2.7,0.7-4.6,2-5.6,4.1c-1.5,3-0.5,6.5,0,8
		c-1.6,1.5-6.2,6.1-5.2,10.4c-5,1.2-8.4,1.5-8.4,1.5c0,0,0,0,0,0l-1.1,0l0,0c-6.9-0.2-13.1,0.2-18.7,1c0.8-1.1,1.5-2.7,1.7-3.2
		c0.1-0.4,0.3-0.9,0.3-1.5l0.2,0.1c0,0,1.3,0.4,3.1,0.4c3.3,0,8.2-1.1,10.3-7.4l0.3-0.9l-0.9-0.3c-0.2-0.1-4.3-1.5-8.1,0.4
		c-2.2,1-3.8,3-4.9,5.6c-0.3-1.8-1.5-3.7-4.3-5.1l-0.9-0.5l-0.5,1c-0.1,0.3-3.5,7.6,1.1,12.1c-10.6,1.8-18.8,5.1-25.2,9
		c-0.5,0.1-1.1,0.2-1.6,0.4c2.5-6.1-1-9.9-1-9.9l-0.7-0.7l-0.7,0.6c-5.1,4.4-3.3,10-1.4,12.8c-0.3,0.4-0.6,0.9-0.9,1.4
		c-8.3,6.9-12.3,14.4-14.1,18.6c-0.1-0.5-0.2-1-0.4-1.5c-0.1-0.6-0.3-1.4-0.6-2.1c-2.2-7.1-6-14.3-12.3-20.5
		c3.8-2.8,5.9-5.6,5.9-8.3c0.1-2.7-1.8-4.2-1.8-4.3l-0.4-0.3l-0.5,0.1c-2.7,0.7-4.6,2-5.6,4.1c-1,2.1-0.8,4.4-0.5,6.2
		c-1.2-1-2.5-2-3.8-2.9c0.8-1.6,0.5-4.2-0.3-5.9c-0.7-1.6-1.4-2.5-2-3.2c-0.7-0.8-1.2-1.4-1.5-3l-0.6-3l-1.3,2.8
		c-0.1,0.3-2.9,6.2,0.3,10.9c-0.7-0.5-1.6-1-2.9-1.2c-2.7-0.3-5.7,1.3-8.8,4.7l-1.1,1.2l1.6,0.5c0.2,0,2.1,0.6,4.5,0.6
		c2.7,0,5.9-0.7,7.9-3.5l0.4-0.6l0,0c0.8,0.8,1.6,1,2.1,1c0,0,0,0,0.1,0c8.3,5.5,13.5,12.7,16.7,20c-1.2-0.7-2.7-1.3-4.6-1.6l-1-0.2
		l-0.2,1c0,0.2-0.6,3.7,1.6,6.9c1.6,2.2,4.1,3.6,7.5,4.1c2.3,10.4,1.6,20,0.9,25.3c-0.2,0.4-0.3,0.9-0.4,1.3
		c-0.2,0.9-0.3,1.9-0.3,2.8c0,0,0,0.1,0,0.1c0,0.2,0,0.3,0,0.5c0,0.4,0,0.9,0.1,1.2l0.1,2.1l1.6-1.4c0.8-0.7,2.1-1.3,3.3-2
		c0.7-0.4,1.4-0.7,2-1c2.2-1.3,3.6-3,4.1-4.8c0.2-1,0.2-2,0.1-3c0-0.7-0.1-1.4,0-2l0.2-1.4l-1.4,0.2c-2.7,0.4-5.1,1.7-6.9,3.6
		c0.4-5.1,0.5-12-0.9-19.5c0,0,0,0,0,0c0-0.2,2.7-11,14.2-20.6c0.9,0.4,2.6,1,4.6,1c0.8,0,1.5-0.1,2.3-0.3c2.2-0.6,4-2.2,5.3-4.7
		l0.5-0.9l-1-0.5c-0.7-0.3-1.6-0.6-2.6-0.8c9.8-5.3,23.6-9.1,42.9-8.6c0.5,1.4,2,3.8,7,4l0.8,0l0.3-0.7c0.1-0.2,0.5-1.6-0.4-3
		c-0.3-0.5-0.8-0.8-1.3-1.2c1.2-0.2,2.5-0.5,3.9-0.8c2.2,3,7.8,4.5,17,4.6c0.6,0.9,2,2.6,4.4,3.3c0.7,0.2,1.3,0.3,2,0.3
		c2.2,0,4.6-0.9,7.3-2.7l1.2-0.8l-1.1-0.9c-0.1-0.1-6.8-5.2-13.4-1.3c-9.1-0.1-13.3-1.6-15.1-3.2c10.3-2.8,24.9-8.9,32.7-22.3
		c0,0,0,0,0,0c0.2,0.7,0.7,1.5,1.5,2.3c2,2,5.5,3,10.2,3c0.2,0,0.5,0,0.7,0l0.9,0l0.1-0.8c0-0.2,0.2-1.8-1.2-3.5
		c-1.8-2.2-5.5-3.3-10.8-3.4c1.2-2,2.5-4.3,3.8-6.9c0.3,0,0.6,0.1,0.9,0.1c6,0,12-8.6,12.3-9L437.3,268.1z M449.2,234.6
		c-2.2,2.6-5.8,6-8.9,6.2C441,239.1,443.1,235.7,449.2,234.6z M433.8,224.6c-0.1-1.2,0.2-2.3,0.9-3.3c1.2,0.5,3.7,1.9,4.3,4.2
		c0.4,1.5-0.1,3.3-1.6,5.2C436.2,229.5,434,227.2,433.8,224.6z M439.2,253.4c-0.9,2.2-3.9,3.8-6.2,4.6
		C434.8,254.8,437.6,253.8,439.2,253.4z M426,249.3c-1.5-1.6-0.5-5.7,0.3-8.1c4.2,4.1,4.7,7.3,4.6,8.6
		C429.2,250.2,427,250.4,426,249.3z M388.8,291.5c0.6-1.3,1.9-2.3,3.7-2.8c0.3,0.4,0.8,1.2,0.7,2.3c-0.1,1.4-0.9,3.5-4.5,6.3
		C388.3,295.9,387.9,293.5,388.8,291.5z M361.3,300.7c2.1-1,4.3-0.8,5.5-0.5c-2.3,5.2-7.2,5.2-9.4,4.9
		C358.4,303,359.7,301.5,361.3,300.7z M271.1,316.6c2.2-2,4.2-2.9,5.8-2.8c1,0.1,1.6,0.5,2,0.9C276.7,317,273.2,316.9,271.1,316.6z
		 M283.6,313.7c0,0-0.5,0-1.5-1.3c-1.8-2.1-1.7-4.8-1.3-6.8c0.3,0.4,0.5,0.7,0.8,1c0.6,0.7,1.1,1.3,1.7,2.7
		C284.1,311.3,283.9,313.4,283.6,313.7z M291.5,317.9c-0.4-1.4-0.9-3.8,0.1-5.8c0.6-1.3,1.9-2.3,3.7-2.8c0.3,0.4,0.8,1.2,0.7,2.3
		C295.9,312.9,295.1,315.1,291.5,317.9z M297.9,340.7c-1.1-1.5-1.3-3.2-1.4-4.3c3.3,0.8,5,2.8,5.8,4.6c0.2,0.8,0.5,1.5,0.7,2.3
		c0,0.2,0.1,0.3,0.1,0.5C300.8,343.2,299,342.2,297.9,340.7z M306.6,371.7c1.1-2.6,3.6-4.8,6.5-5.6c0,0.3,0,0.7,0,1
		c0.1,0.9,0.1,1.7-0.1,2.4c-0.4,1.6-1.9,2.8-3.1,3.6c-0.5,0.3-1.2,0.6-1.8,1c-0.7,0.3-1.4,0.7-2,1.1
		C306.2,374.4,306.4,373.3,306.6,371.7z M322.3,313.7c0.8,1.4,1.7,4.3-0.7,8.4C320.6,320.3,319.4,316.8,322.3,313.7z M330.3,323.4
		c-0.9,1.4-2.1,2.3-3.4,2.7c-2,0.6-3.9,0-5.1-0.4C324.3,322.1,328.4,322.8,330.3,323.4z M351.4,301.7c1.3,0.9,2.1,2.1,2.3,3.4
		c0.2,1.9-0.8,3.9-1.5,4.9C349.9,307.4,350.7,303.6,351.4,301.7z M374.9,312.6c2.4,0.3,3.2,1,3.6,1.4c0.1,0.1,0.2,0.3,0.2,0.4
		C376.5,314.1,375.4,313.3,374.9,312.6z M410.9,315.6c-2.4,1.3-4.5,1.8-6.2,1.3c-1.4-0.4-2.4-1.3-2.9-2
		C405.4,313.1,409,314.5,410.9,315.6z M409.7,293c-1.3-1.3-1.4-4.6-1.2-6.9c2,1.6,2.9,3.2,2.8,4.5
		C411.3,291.8,410.3,292.6,409.7,293z M428.3,290.2c0.3,0.4,0.5,0.7,0.6,1c-6.4-0.1-8.5-2.3-9.2-3.6
		C425,287.8,427.3,289.1,428.3,290.2z M424.1,276.8c0.7-1.7,2.8-5.1,8.9-6.2C430.8,273.1,427.2,276.6,424.1,276.8z"/>
	<path d="M366,204.2l-1,0.6l0.7,0.9c0.1,0.2,3,3.8,6.8,4.3c0.3,0,0.6,0.1,0.8,0.1c1.5,0,3-0.5,4.4-1.6l0.5-0.4l-0.2-0.7
		c0-0.1-0.9-3.3-3.9-4.5C371.9,201.9,369.1,202.3,366,204.2z M373.4,204.7c1.4,0.6,2.1,1.8,2.5,2.5c-1,0.6-2,0.9-3.1,0.7
		c-2-0.2-3.7-1.6-4.6-2.6C370.2,204.4,372,204.2,373.4,204.7z"/>
	<path d="M410.7,233.2c1.5,0,3.8-0.3,5.3-1.8c1.5-1.4,2.1-3.5,1.7-6.2l-0.2-1.3l-1.2,0.4c-0.9,0.3-8.3,3-8.4,6.9
		c-0.2,0.1-0.4,0.2-0.5,0.3c-2.1,2.7-3.9,4.5-5.2,5.6c0.4-2.3-0.3-4.9-0.4-5.2l-0.3-1.1l-1.1,0.5c-4.3,2.1-5.2,5.5-5,7.6
		c-2.1,1.2-3.9,2.3-5.5,3.3c0.2-1.8,0.2-4.2-0.7-6.9c0.1-0.1,0.2-0.2,0.3-0.3c0.1-0.1,3.6-8,0.2-16.4c0.2-0.1,0.3-0.4,0.4-0.6
		c0-0.2,0.6-2.8,2.9-5l0.2,0.1c4.2,2.7,7.4,3.6,9.9,3.6c4.2,0,6-2.6,6.1-2.7l0.5-0.7l-0.6-0.6c-2.6-2.4-5.3-3.3-7.6-3.5
		c0.9-0.8,2.4-3,3.1-9.4c0.5,0.1,1,0.2,1.7,0.2c1,0,2.1-0.2,3.3-0.8c2.5-1.3,4.3-3.9,5.3-8l0.3-1.4l-1.4,0.1c-0.1,0-5.6,0.4-8.9,4.4
		c0.1-2.7,0.1-6-0.1-9.8c2-1,3.3-2.3,3.9-4.1c1.1-3.5-1.2-7.1-1.3-7.2l-0.7-1.1l-0.9,1c-5,5.6-3.7,9.7-3.1,11l-1,12
		c-1.8-1.7-5.2-4.5-9.6-7.2c3-7.1-2.9-12-3-12l-0.9-0.7l-0.6,1c-1.8,3-2.5,5.6-2.2,7.8c-2.6-0.6-5.9-0.4-9.1,3.1l-0.9,0.9l1.1,0.7
		c1.7,1,4.5,2.1,7.3,2.1c1.9,0,3.8-0.5,5.3-1.9c0.5,0.3,1,0.4,1.2,0.5c7,4.1,11.4,8.8,11.4,8.8c0.2,0.2,0.4,0.3,0.6,0.3
		c-0.7,6.3-2.1,8-2.4,8.2c-1.2,0.2-2.3,0.5-3.3,0.8c0.3-0.8,0.4-1.6,0.3-2.4c-0.6-3.7-5.6-6.2-5.8-6.3l-1-0.5l-0.4,1
		c-1.3,3-1.4,5.6-0.3,7.6c0.8,1.5,2.1,2.3,3.1,2.8c-2.4,1.9-3.6,4.2-4.1,5.6c-1.5-2.6-3.7-5.1-6.9-7.4c1.2-2.2,3.9-8.2-0.2-12.4
		c-0.2-0.2-0.6-0.4-0.9-0.3c-0.7,0.1-2.2,0.8-3,2.4c-1.2,2.5-0.6,6.2,1.8,11.1c0,0,0,0,0,0c0.1,0.1,0.2,0.3,0.3,0.4
		c12,8.2,9.7,19.2,8.5,23c-1.2-2.3-3.2-4.5-6.3-6.5c2.3-8.8-3.5-12-3.6-12l-0.9-0.4l-0.5,0.8c-3.7,6.1,0.5,11.2,3.2,13l0.1,0
		c10,6,7.8,14.9,7.4,16.4c-0.3,0.3-0.6,0.5-0.9,0.8c-1.6-1.8-7.1-7.5-14.5-10.2c1.2-1,1.6-2.1,1.7-3c0.4-4.1-4.9-8.5-5.5-8.9
		l-1.2-0.9l-0.4,1.4c-1,3.3-1.4,5.9-1.2,7.9c-2.5-1.3-6.2-2.1-11.2,0l-1.2,0.5l0.8,1c0,0.1,3.3,4.4,8.9,4.4c1.7,0,3.5-0.4,5.6-1.4
		c8.7,1.8,15.5,9.1,16.9,10.7c-0.3,0.3-0.5,0.7-0.7,1c0,0,0,0,0-0.1c-1.1-1.8-3.6-2.5-7.9-2.2l-1.1,0.1l0.1,1.1
		c0.1,0.6,0.8,6.3,3.8,7.3c0.3,0.1,0.6,0.1,0.9,0.1c0.7,0,1.4-0.3,2.2-0.8c-0.5,2.8-0.4,3.7-0.1,6.2c0.1,1,0.2,2.3,0.4,4l-0.1,1
		l0.1,0c0.1,4.9-1.6,8.4-2.2,9.3c-6.8,2.3-12.2,1.9-16.9,1.6c-0.1,0-0.1,0-0.2,0c3.3-2.4,5-4.9,5.1-7.3c0.1-2.6-1.8-4-1.9-4.1
		l-0.4-0.3l-0.5,0.1c-2.8,0.7-4.7,2-5.7,4c-1.3,2.8-0.4,6,0.1,7.4c-7.9,0.1-15.1,1.3-21.4,3.5c2.7-2.9,7.8-9.4,9.6-19.1
		c0.4,0.1,1,0.2,1.6,0.2c1,0,2.1-0.2,3.3-0.8c2.5-1.3,4.3-3.9,5.3-8l0.3-1.4l-1.4,0.1c-0.1,0-5.5,0.4-8.8,4.3
		c0.3-1.4,0.9-2.8,2.3-3.5c0.1-0.1,0.2-0.2,0.3-0.3c4.3-1.7,6.9-3.9,7.5-6.4c0.6-2.5-0.9-4.3-0.9-4.4l-0.3-0.4l-0.5,0
		c-2.9,0-5,0.9-6.4,2.7c-2,2.5-1.7,6-1.5,7.4c-3.4,2.5-2.9,7.9-2.7,9l-0.2,0.7l0.1,0c-1.3,7.8-5,13.5-7.7,16.7
		c0.1-0.4,0.1-0.8,0.2-1.2c0.1-3.4-2.5-5.6-2.6-5.7l-0.4-0.4l-0.5,0.2c-6.3,2.2-3.1,12.4-2.9,12.9c-0.6,0.3-1.2,0.6-1.7,1
		c0.4-3.3,1.1-11-1.6-16.9c-0.6-1.8-1.3-3.3-2.1-4.5c-1-2.2-1.4-3.1-1.4-3.8c0.2,0,0.3,0,0.5,0c0.9,0,2.2-0.2,3.4-1.2
		c1.8-1.4,2.7-4.1,2.6-7.7l0-1.5l-1.4,0.5c-0.2,0.1-2.9,1.1-4.8,3.1c0.1-1.8,0.2-3.9,0.5-4.4c0.1-0.1,0.1-0.1,0.2-0.2
		c0.4-0.3,0.8-0.7,1.1-1c0.9-0.9,1.6-1.9,2.2-2.9c2.6,0,4.7-0.8,6.3-2.3c2.6-2.5,2.6-6.1,2.6-6.2l0-1.1l-1.1,0
		c-2.7,0.1-4.8,1.2-6.2,2.7c0-0.2,0-0.4,0-0.6c0.3,0,0.5-0.1,0.7-0.3c1.8-2,10.3-11.6,11.8-16.3c0.4,0.1,1,0.2,1.6,0.2
		c1,0,2.1-0.2,3.3-0.8c2.5-1.3,4.3-3.9,5.3-8l0.3-1.4l-1.4,0.1c-0.1,0-5.8,0.4-9.1,4.6c-0.2-4.4,0-11.1,3.7-17.4l0.2,0.2l0.4-1.2
		c2.7-4.2,6.5-6.2,9.9-7.9c3.6-1.9,7-3.7,7.6-7.7l0.2-0.2l-0.1-0.4c0.5-1.8,0.8-3.7,1.1-5.7c0.5,0.1,1.1,0.2,1.7,0.2
		c1,0,2.1-0.2,3.3-0.8c2.5-1.3,4.3-3.9,5.3-8l0.3-1.4l-1.4,0.1c-0.1,0-5.2,0.4-8.6,4c0.5-3.3,1.5-6.4,3.6-8.6
		c12.7-3.8,10.9-11.1,10.8-11.4l-0.2-0.8l-0.9,0.1c-2.6,0.3-4.6,1.1-6.1,2.2c1.2-1.3,1.8-2.8,1.5-4.3c-0.6-3.7-5.6-6.2-5.8-6.3
		l-1-0.5l-0.4,1c-1.3,3-1.4,5.6-0.3,7.6c1.4,2.7,4.4,3.3,4.6,3.3l0.3,0.1c-3.1,2.8-3.9,6.6-4,7.7c-2.9,2.9-3.8,6.9-4.3,11.1
		c-1.3-0.6-3.7-2.3-5-6.7c1.4-0.8,2.3-1.8,2.6-3.2c0.9-3.7-2.9-8.1-3.1-8.3l-0.9-1l-0.7,1.1c-2.4,3.4-3.2,6.3-2.5,8.6
		c0.5,1.7,1.8,2.6,2.5,3c1.6,6,5.3,8,6.8,8.6c0,0.1,0,0.3,0,0.4c-0.2,1.7-0.4,3.4-0.7,5c-0.6-0.7-1.4-1.5-2.5-1.9
		c-2.3-0.9-5-0.5-8.2,1.3l-1,0.6l0.7,0.9c0.1,0.2,3,3.8,6.8,4.3c0.3,0,0.6,0.1,0.8,0.1c0.7,0,1.4-0.1,2.1-0.4c-1,1.9-3.2,3-5.9,4.4
		c-2.5,1.3-5.5,2.9-8.1,5.5c0.3-6.3-4.1-8.7-4.1-8.7l-0.9-0.4l-0.5,0.8c-3.4,5.6-0.2,10.2,2.4,12.4c-2.2,3.7-3.2,7.5-3.7,10.9
		c-1.4-1.7-3.8-4.3-6.8-6c0.9-0.7,1.5-1.6,1.7-2.6c0.9-3.7-2.9-8.1-3.1-8.3l-0.9-1L333,188c-1.6,2.3-2.5,4.4-2.7,6.2
		c-0.9-1.3-2.1-2.1-3.6-2.3c-4.1-0.6-8.9,3.5-9.1,3.7l-1.2,1l1.4,0.7c4.2,2,7.4,3,9.5,3c1.2,0,2.2-0.3,2.8-1c0.5-0.5,0.7-1,0.8-1.6
		c0.9,1.4,2.2,2,2.4,2.1c0,0,0,0,0,0c5,2.1,8.9,7.9,8.9,8c0,0,0,0,0.1,0.1c-0.2,2.7,0,5.1,0.1,6.8c0,0.7,0.1,1.3,0.1,1.8l-0.2,0.7
		l0.1,0c-0.2,0.7-0.7,1.6-1.4,2.7c0-2.2-0.5-5.2-2.9-7.2c0.3-1.6,0.9-5.5-0.9-7.2c-0.6-0.6-1.8-1.2-3.9-0.5l-0.3,0.2
		c-0.6,0.5-1.5,1.6-1.3,3.2c0.2,2,1.8,3.8,4.9,5.6l0.2,0.1c3.4,2.6,2.1,8.1,2.1,8.2c-0.1,0.3,0,0.5,0.1,0.7c-2.2,3-4.9,6.3-7.3,9
		c-0.8-3.5-3.2-6.1-5.6-7.8c5-7.7,0.5-12.6,0.4-12.6l-0.7-0.7l-0.7,0.6c-4,3.4-3.8,7.6-2.6,10.6c-0.5-0.3-1-0.4-1.3-0.6
		c-0.8-3.5-2.4-5.8-4.7-7c-3.6-1.8-7.5,0-7.6,0l-0.7,0.3l0.1,0.7c0.3,2.5,1.4,4.5,3.2,5.8c2.2,1.6,5,2,6.9,2c0.9,0,1.5-0.1,1.9-0.1
		c1.3,0.5,8.9,3.6,9.6,10c0.2,2.3-0.1,4.2-0.6,5.7c-0.1,0.2-0.2,0.4-0.2,0.6c-1.5-3.1-6.1-5.2-6.7-5.4l-1.3-0.6l-0.1,1.4
		c-0.5,7.5,2.1,10,3.8,10.8c-0.3,1.1-0.3,2.9-0.4,5.7c0,1.6-0.1,3.5-0.2,4.1c-0.2,0.6-0.3,1.2-0.2,1.8c-0.1,0-0.1-0.1-0.2-0.1
		c-2.9-1.5-5.4-0.6-5.5-0.6l-0.7,0.2l0,0.7c0,2.9,1,5.2,2.8,6.7c2.2,1.9,5.2,2.2,7,2.2c0.2,0,0.4,0,0.6,0c2.8,6.8,1,16.6,0.9,16.7
		c0,0.1,0,0.1,0,0.2c-8,5.4-12.6,12.2-15.2,17.4l-0.7-8.2c3.9-2.8,5.9-5.7,6-8.4c0.1-2.7-1.8-4.2-1.8-4.3l-0.4-0.3l-0.5,0.1
		c-2.7,0.7-4.6,2-5.6,4.1c-1.7,3.5-0.1,7.7,0.2,8.5l1,12.4c-0.9,2.4-1.2,3.9-1.2,3.9c-0.1,0.6,0.3,1.1,0.8,1.2c0.1,0,0.1,0,0.2,0
		c0.5,0,0.9-0.3,1-0.8c0-0.2,4.2-20,26-28.5c6.6-2.6,14.3-3.9,22.7-3.9c0.1,0,0.3,0,0.4,0c0.7,0,1.4,0.1,2.1,0.1
		c4.8,0.3,10.5,0.7,18-1.8c0.1,0,0.2,0,0.3-0.1c3.5-1.2,7.4-3.1,11.7-5.9l0,0c2.4,1.9,4.7,2.5,6.7,2.5c4,0,6.8-2.5,6.9-2.5l0.9-0.8
		l-0.9-0.8c-2.4-2.1-4.9-3.1-7.4-2.9c1.5-1.2,3-2.5,4.6-3.9c0.3,0,0.5,0.1,0.8,0.1c1.6,0,2.8-0.5,3.8-1.5c2.6-2.6,2-7.7,1.9-7.9
		l-0.1-1l-1,0.1c-3,0.2-5.1,1.2-6.2,3c-1.4,2.1-1,4.6-0.7,5.7c-7.7,6.8-14,10.7-19.5,12.9c0.8-1.9,1.6-4.8,1.4-8.4
		c1.9-0.4,5.8-1.9,6.9-8l0.2-1.4l-1.4,0.2c-1.7,0.2-4.4,1.3-6.2,3.7c-0.3-2.4-0.3-3.2,0.4-6.6c0.9-4.4,4.4-7.2,11.5-11.1
		c0.4,0.3,0.9,0.5,1.7,0.6c1.1,0.1,2.3-0.3,3.6-1.2l0.3,0.2c2.6,1.6,5,2.4,7.3,2.4c0.7,0,1.5-0.1,2.2-0.3c3.5-0.9,5.1-3.7,5.2-3.8
		l0.5-0.9l-0.8-0.5c-3.8-2.4-7.5-2-10.1-1c0.9-0.9,1.8-2,2.8-3.2C409,233.1,409.7,233.2,410.7,233.2z M415.8,226.8
		c0,1.4-0.4,2.4-1.2,3.2c-1.3,1.2-3.5,1.3-4.6,1.2C410.3,229.5,413.4,227.8,415.8,226.8z M412.4,192.2c-0.9,2.6-2.1,4.3-3.8,5.1
		c-1.3,0.7-2.6,0.6-3.5,0.5C406.6,194,410.3,192.6,412.4,192.2z M406.2,175.6c0.4,1.1,0.9,2.7,0.4,4.2c-0.3,1.1-1.2,2-2.4,2.7
		C403.9,181.3,403.8,178.9,406.2,175.6z M378.8,188.3c2.8-2.3,5.6-1.9,7.5-1.1c0.3,0.5,0.7,0.9,1,1.2
		C384.7,190.4,380.8,189.2,378.8,188.3z M390.4,187.5l-0.3-0.3c0,0-0.9-0.8-2.2-1.5c-0.1-0.1-0.1-0.2-0.2-0.3
		c-0.7-1.6-0.3-3.7,1-6.2C389.9,180.6,391.7,183.6,390.4,187.5z M406.8,213.4c-1.3,1-4.6,2.5-11.1-1.2
		C397.9,211.1,402.3,209.8,406.8,213.4z M391.3,206.8c-0.6-1.2-0.6-2.8,0-4.7c1.4,0.9,3.5,2.5,3.7,4.2c0.1,0.9-0.2,1.8-1,2.7
		C393.3,208.7,392,208.1,391.3,206.8z M380.3,206.7c-1.7-4.1-1.5-6.3-1-7.4c0.3-0.6,0.7-1,1.1-1.1
		C382.4,200.9,381.3,204.6,380.3,206.7z M380.1,224.9c-1.5-1.4-3.7-4.4-1.9-8.2C379.3,217.7,381.1,220.2,380.1,224.9z M356.5,232.5
		c5.3-1.7,8.6,0.4,10.1,1.8C361.6,236.2,358.1,233.9,356.5,232.5z M370.2,233.5c-0.3,0.1-1.3,0.1-1.9-0.5c-0.6-0.7-1.4-2.5-0.1-7.6
		c1.6,1.6,3.8,4.1,3.6,6.1C371.7,232.3,371.2,232.9,370.2,233.5z M356.4,251.7c-0.9,2.6-2.1,4.3-3.8,5.1c-1.3,0.7-2.6,0.6-3.5,0.5
		C350.6,253.5,354.3,252.2,356.4,251.7z M352.6,242.8c0.9-1.1,2.3-1.8,4.3-1.9c0.2,0.4,0.5,1.2,0.3,2.1c-0.3,1.2-1.6,3-5.7,4.7
		C351.3,246.5,351.4,244.3,352.6,242.8z M330.3,249.8c-0.2,2.1-0.8,3.6-1.8,4.5c-0.7,0.6-1.6,0.7-2.1,0.7
		C326.2,252.5,328.6,250.7,330.3,249.8z M352.2,210.2c-0.9,2.6-2.1,4.3-3.8,5.1c-1.3,0.7-2.6,0.6-3.5,0.5
		C346.4,212,350.1,210.7,352.2,210.2z M373.8,146.6c-0.7-0.2-2-0.8-2.7-2.1c-0.7-1.2-0.7-2.8,0-4.8c1.4,0.9,3.5,2.5,3.7,4.2
		C375,144.9,374.7,145.7,373.8,146.6z M380.7,148c-0.1,1.6-1.1,5.1-8.2,7.6C373.2,153.2,375.1,149,380.7,148z M375.3,164.8
		c-0.9,2.6-2.1,4.3-3.8,5.1c-1.3,0.7-2.6,0.6-3.5,0.5C369.6,166.5,373.2,165.2,375.3,164.8z M358.3,157.6c-0.4-1.4,0-3.4,1.4-5.7
		c1,1.4,2.2,3.7,1.8,5.4c-0.2,0.9-0.8,1.5-1.8,2C359.3,159.1,358.6,158.5,358.3,157.6z M360.9,178.3c-2-0.2-3.7-1.6-4.6-2.6
		c2.1-1,3.9-1.2,5.3-0.6c1.4,0.6,2.1,1.8,2.5,2.5C363,178.2,362,178.4,360.9,178.3z M345.3,183.7c1.1,1.1,2.9,3.5,1.9,8.2
		C345.7,190.5,343.5,187.5,345.3,183.7z M328.8,197.9c-0.3,0.3-1.9,1.2-8.5-1.7c1.6-1.1,4.2-2.5,6.2-2.2c0.9,0.1,1.7,0.6,2.2,1.4
		C328.9,195.9,329.4,197.3,328.8,197.9z M335.7,195.7c-0.2,0.9-0.8,1.5-1.8,2c-0.4-0.3-1.1-0.8-1.4-1.8c-0.4-1.4,0.1-3.4,1.4-5.6
		C334.9,191.7,336.1,194,335.7,195.7z M336.3,211.5c-1.6-1.1-2.5-2.2-2.6-3.2c-0.1-0.7,0.3-1.2,0.5-1.4c0.8-0.2,1.3-0.2,1.7,0.1
		C336.6,207.7,336.6,209.8,336.3,211.5z M336.9,234.5c-0.2,1-0.7,2.5-1.9,3.6c-1,0.9-2.3,1.5-3.9,1.7
		C331.9,238,333.6,235.1,336.9,234.5z M312.7,220c-1.1-0.9-1.9-2.1-2.2-3.7c1.1-0.3,3.2-0.8,5.1,0.2c1.6,0.8,2.8,2.5,3.4,5
		C317.5,221.6,314.7,221.5,312.7,220z M325.5,213.9c0.8,1.4,1.7,4.3-0.7,8.4C323.8,220.6,322.7,217.1,325.5,213.9z M322.8,236.8
		c1.8,1,4.3,2.7,4.5,4.5c0.1,0.7-0.2,1.3-0.8,2c-0.3,0.3-0.6,0.6-0.9,0.8C324.4,243.8,322.7,241.9,322.8,236.8z M321.4,262.9
		c-1.2-1-1.8-2.5-2-4.3c0.7-0.1,1.9,0,3.2,0.6c1.1,0.6,2,1.5,2.8,2.7c0.1,0.3,0.2,0.5,0.4,0.8c0.3,0.6,0.6,1.2,0.9,1.9
		C325.3,264.6,323.1,264.3,321.4,262.9z M312.2,290.6c-0.4-1.4-0.9-3.8,0.1-5.8c0.6-1.3,1.9-2.3,3.7-2.8c0.3,0.4,0.8,1.2,0.7,2.3
		C316.6,285.7,315.8,287.8,312.2,290.6z M334.2,279.1c-0.5-2.4-1.2-7.1,1.5-8.6c0.6,0.6,1.5,1.9,1.4,3.6
		C337,275.7,336,277.4,334.2,279.1z M362.2,268.3c0.6-1.3,1.9-2.2,3.7-2.8c0.3,0.4,0.8,1.1,0.7,2c0,1.3-0.9,3.3-4.5,5.9
		C361.7,272.2,361.3,270.1,362.2,268.3z M405.3,254.7c0.7-1,1.9-1.7,3.7-2c0,1.5-0.2,3.9-1.4,5.2c-0.7,0.7-1.6,0.9-2.7,0.9
		C404.7,257.9,404.4,256.1,405.3,254.7z M399.7,266.7c1.7-0.1,3.4,0.4,5.1,1.6c-1.6,1-5,2.4-8.9-0.1
		C396.7,267.6,398,266.8,399.7,266.7z M382.6,250.2c-0.6,0.6-1.7,1.6-2.5,1.3c-1.1-0.3-1.9-2.5-2.3-4.5c3.7-0.1,4.7,0.8,4.9,1.3
		C383.1,249,382.7,249.9,382.6,250.2z M389.3,257.2c-1,3.1-3,4.2-4.3,4.6C385.8,259,387.9,257.7,389.3,257.2z M399.7,238.1
		c-0.4,0.5-1.2,0.6-2.2,0.5c0-1,0.2-3.2,2.7-4.8C400.4,235.2,400.5,237.2,399.7,238.1z M414.2,238.5c-0.6,0.7-1.7,1.6-3.3,2
		c-1.9,0.5-4.1,0.1-6.5-1.1C406.3,238.2,410,236.5,414.2,238.5z"/>
	<path d="M303.2,256.9c0.7-1,1.3-2.2,1.8-3.4c1.5,0.3,3,0.4,4.3,0.4c3.1,0,5.6-0.8,7.4-2.2c3.1-2.5,3.1-6.2,3.1-6.3l0-1l-1,0
		c-3.2,0.1-5.9,0.8-8.1,1.8c1.6-2.5,3.1-6,3.4-10.5c5.5-1.1,6.7-8.6,6.8-8.9l0.2-1l-1-0.1c-1.7-0.2-3.2,0.2-4.5,1.2
		c-1.5,1.2-2.4,3.2-2.9,4.8c-4.3-7.1-8.4-6-8.6-5.9l-0.9,0.3l0.2,0.9c1.2,5,3.1,8.1,5.7,9.1c0.7,0.3,1.3,0.4,1.9,0.4
		c0.4,0,0.8-0.1,1.2-0.1c-0.6,6.5-4.2,10.6-6,12.3c0-0.3,0-0.7,0-1c-0.5-4.1-3.4-7.7-8.6-10.8c1.5-5.4-4.5-9.9-4.8-10.1l-0.9-0.6
		l-0.6,0.9c-1,1.4-1.3,3-1,4.6c0.2,1.1,0.8,2.1,1.4,3c-3.9-1.7-6.9-4-6.2-8.3c0.9-0.5,2.8-1.7,3.7-4.1c1-2.6,0.5-5.8-1.5-9.5
		l-0.7-1.2l-1,1c-0.1,0.1-5.9,6.3-2.5,13.2c-1.1,6,3.4,9.1,7.5,10.8c-6.3,1.1-7,4.6-7,4.7l-0.2,0.9l0.9,0.2c2,0.5,3.8,0.8,5.4,0.8
		c2.3,0,4.1-0.5,5.3-1.6c0.9-0.8,1.4-1.8,1.6-2.6c4.2,2.6,6.5,5.6,7,9c0.2,1.3,0,2.6-0.3,3.7c-0.1,0.1-0.2,0.3-0.2,0.3
		c-0.8-1.9-2.6-3.8-5.3-5.7l-1.2-0.9l-0.3,1.5c-0.1,0.4-2.1,9.5,2.4,12.2c-2,3-3.1,8.3-3.6,11.3c-1.2-2-3.4-4-7.1-5.6
		c3-4.2-0.2-10.3-0.4-10.6l-0.5-0.9l-0.9,0.5c-1.5,0.9-2.5,2.1-2.9,3.7c-0.5,1.9,0,3.9,0.6,5.5c-7.7-3.1-10.3,0.3-10.4,0.4l-0.6,0.8
		l0.7,0.6c3.2,2.7,6.1,4.1,8.5,4.1c0.5,0,1-0.1,1.5-0.2c1.6-0.4,2.5-1.5,3-2.3c7.7,2.9,8,8.1,7.6,9.5l-0.2,0.8l0.1,0
		c-2.5,13.1,4.9,29.4,5.2,30.1c0.2,0.4,0.5,0.6,0.9,0.6c0.1,0,0.3,0,0.4-0.1c0.5-0.2,0.7-0.8,0.5-1.4c-0.1-0.2-7.4-16.2-5.1-28.6
		c0.4,0.1,0.9,0.2,1.6,0.2c1,0,2.1-0.2,3.3-0.8c2.5-1.3,4.3-3.9,5.3-8l0.3-1.4l-1.4,0.1c-0.1,0-4.9,0.4-8.2,3.6
		c0.6-3.6,1.9-9.8,4-11.8C301.5,258.9,302.5,258.2,303.2,256.9z M316.7,228.4c0.5-0.4,1.1-0.7,1.8-0.8c-0.5,1.8-1.7,5-4.3,5.9
		C314.5,231.8,315.2,229.5,316.7,228.4z M309.6,234c-1.2-0.5-2.8-2-4.1-6.4c1.3,0.3,3.6,1.6,6.1,6.5
		C311.1,234.3,310.4,234.4,309.6,234z M317.6,246.4c-0.2,1-0.8,2.5-2.2,3.7c-2,1.6-5.1,2.1-9.2,1.5
		C307.9,249.8,311.7,246.9,317.6,246.4z M286.5,214.9c1.1,2.5,1.3,4.6,0.7,6.3c-0.5,1.4-1.5,2.2-2.2,2.7
		C283.4,220.1,285.2,216.6,286.5,214.9z M293.9,239.8c-1,0.8-3.1,1.6-7.5,0.7c0.9-1,3.1-2.5,8.6-2.5
		C294.8,238.5,294.6,239.2,293.9,239.8z M295.5,235.4c-1.3-1-3-2.7-3.4-4.6c-0.1-0.7-0.1-1.3,0.1-2
		C293.6,230.1,295.9,232.7,295.5,235.4z M283.4,266.5c-1.3,0.3-3.5,0.1-7.1-2.7c1.2-0.5,3.9-0.9,8.8,1.5
		C284.7,265.8,284.2,266.3,283.4,266.5z M286.7,263.3c-0.7-1.5-1.5-3.8-1-5.6c0.2-0.7,0.5-1.2,1-1.7
		C287.3,257.7,288.2,261,286.7,263.3z M304.1,269.6c-0.9,2.6-2.1,4.3-3.8,5.1c-1.3,0.7-2.6,0.6-3.5,0.5
		C298.4,271.4,302,270.1,304.1,269.6z M298.2,248.6c2.4,1.9,3.6,3.8,3.6,5.5c0,0.6-0.2,1.2-0.4,1.7c-0.4,0.6-0.9,1.1-1.2,1.4
		C297.7,256,297.9,251.2,298.2,248.6z"/>
	<path d="M151.3,191.4c-4-2-8.6-0.4-8.8-0.3l-1.2,0.4l0.6,1.1c3.4,5.7,9,6.4,11.7,6.4c0.8,0,1.4-0.1,1.5-0.1c0,0,0.1,0,0.1,0
		c2.1,0,5.7,2,8.6,3.8c-5.4-0.1-7.9,3.1-8.1,3.3l-0.7,0.9l1,0.6c3.3,1.9,6.1,2.6,8.5,2.6c4.5,0,7.3-2.4,8-3.1
		c1.3,0.3,2.8,0.7,4.5,1.2c-2.6,0.6-4.4,1.6-5.4,3c-1,1.4-0.7,2.7-0.6,2.8l0.2,0.8l0.8,0c5.8-0.3,9.5-1.5,11-3.7
		c0.3-0.5,0.5-0.9,0.6-1.3c2.3,0.4,4.3,0.6,5.7,0.6c1.6,0,2.6-0.2,2.8-0.2c0.1,7,4.3,13,6.3,15.5c0,0,0,0,0,0.1
		c0.4,0.5,0.8,0.9,0.9,1.1c0.3,0.5,0.7,1,1.1,1.5c-1.5,0.3-4,0.9-6.1,2.3c-1.1-0.9-5.9-4.6-11.2-3.1l-1.3,0.4l0.7,1.2
		c1,1.6,3.2,3.8,5.9,4.5c-0.7,0.4-1.4,0.9-2.1,1.6c-2.2,2.2-3.2,5.5-3,9.8l0.1,1.4l1.3-0.5c0.3-0.1,7-2.6,9.1-7.3
		c0.7-1.6,0.8-3.3,0.3-5c2.2-2.7,7.6-3.3,7.7-3.3c0.2,0,0.3-0.1,0.4-0.1c5.7,4.9,16,7.9,16.5,8.1c0.1,0,0.2,0,0.3,0
		c0.1,0,0.1,0,0.2-0.1c-0.4,2.4-0.7,4.6-0.9,6.6c-1-1.7-2.5-3.7-4.9-5.9l-1.1-0.9l-0.6,1.3c-0.4,0.8-3.4,8.3-0.4,11.6
		c0.9,1,2.2,1.5,3.9,1.5c0.8,0,1.8-0.2,2.8-0.4c0.3,7.2,2.8,9.1,5.1,10.8c0.3,0.2,0.6,0.4,0.9,0.7c4,3.1,7.3,6.1,10.2,9
		c-0.8-0.1-1.7-0.3-2.7-0.3l-1.7-0.1l0.6,1.5c0.1,0.3,3.4,7.7,9.6,7.7c0.2,0,0.4,0,0.6,0l0.6-0.1c0.3,0.5,0.7,1,1,1.5l0.5,1.1l0.1,0
		c0.6,1.3,1.3,3.1,2,5.2c-7.1-0.7-20.8-3.4-23-9.7c2.2-9.2-4-12.2-4.1-12.2l-0.9-0.4l-0.5,0.8c-0.6,1.1-1,2.2-1.1,3.3
		c-4.1-3.8-10.7-8.2-20.8-11.4c0.1-1.8-0.6-6.1-6.4-11.2l-1.1-0.9l-0.6,1.3c-0.4,0.8-3.4,8.3-0.4,11.6c0.6,0.7,1.3,1.1,2.3,1.3
		c-1.5,0-10-0.9-13.7-15.9l0-0.1l-0.2-1.5c-0.1-1-0.2-1.9-0.3-2.7c0,0,0,0,0,0c5.9,0,7.3-9,7.4-9.4l0.2-1.2h-1.2
		c-3,0-5.7,4.4-7.1,7.2c-0.9-2.6-2.6-4.9-6.3-7.4c0.6-1.1,1.4-3.1,0.9-5.3c-0.4-1.8-1.6-3.4-3.5-4.5l-0.9-0.5l-0.5,0.9
		c-0.1,0.2-2.5,4-1.3,7.3c0.5,1.5,1.7,2.7,3.5,3.4c4,2.4,5.6,4.4,6.4,7c-1.9-2-3.8-2.4-3.9-2.5l-1-0.2l-0.2,1
		c-0.5,3.2,0,5.6,1.5,7.3c1.6,1.7,3.8,2.1,5,2.2c3.3,12.6,10,15.8,13.5,16.6l-0.2,0.2c-1.6,0.1-9.1,0.1-14.1-3.4
		c1.2-0.5,2.1-1.2,2.4-2.2c1.2-3.6-4.3-9-5-9.6l-0.7-0.6l-0.7,0.6c-2.2,1.9-3.3,3.8-3.3,5.8c-3.3-1.9-6.8-2.6-9.9-2.4
		c0.5-2.1-1-4.9-4.6-8.6l-1-1l-0.6,1.3c-0.6,1.3-3.7,7.7-1.5,10.3c0.1,0.1,0.2,0.2,0.4,0.3c-0.5,0.2-0.9,0.5-1.3,0.7
		c-4.7-4.3-11-3.3-11.3-3.2l-0.9,0.1l0,0.9c0,2.5,0.9,4.3,2.5,5.3c0.9,0.6,2.1,0.8,3.2,0.8c0.3,0,0.5,0,0.8,0
		c-2.4,2-5.6,5.6-3.7,9.5l0.4,0.8l0.9-0.3c0.3-0.1,6.3-2.5,7.4-6.5c0.4-1.3,0.1-2.7-0.7-4c1.3-0.9,4.2-2.7,7-3.7
		c0.3,0,0.6-0.1,1-0.3c3.4-0.8,8.7-0.3,13.3,3.4c0,0,0,0,0,0c-1.3-0.3-2.6-0.2-3.9,0.2c-4.3,1.4-6.5,6.3-6.6,6.5l-0.5,1.1l1.2,0.3
		c1.7,0.4,3.3,0.6,4.8,0.6c2.4,0,4.4-0.6,5.9-1.7c1.5-1.2,2.2-2.6,2.5-3.6c4.5,4,11.3,4.7,14.8,4.8c-1,1.4-2,3.4-1.9,5.6
		c0.1,2.2,1.3,4.3,3.5,6l1,0.7l0.6-1.1c0.2-0.4,4.2-8.1,0.8-12.2l5.4-3.4c11.4,3.6,18.1,8.7,21.9,12.6c0.6,3,2.8,5.2,4.5,6.3
		c3.2,8.4,21,10.6,25.6,11c2.6,8.4,5.1,19.5,5.5,21.4c-1.7,4-0.9,6.3-0.9,6.5c0.1,0.4,0.5,0.7,1,0.7c0.1,0,0.2,0,0.3,0
		c0.5-0.2,0.8-0.7,0.7-1.3c0-0.1-1.7-6.1,9.2-15.7c0,0,0,0,0,0c0.1-0.1,0.2-0.2,0.2-0.3c0.3-0.6,0.7-1.3,1-2c0.5,0.1,1.2,0.3,2,0.3
		c1,0,2.1-0.2,3.3-0.8c2.5-1.3,4.3-3.9,5.3-8l0.3-1.4l-1.4,0.1c0,0-2.7,0.2-5.5,1.7c1.8-3.8,3.4-7.2,3.7-8.9
		c0.2-0.2,0.4-0.5,0.7-0.9c1.2,0.3,2.4,0.4,3.5,0.4c9.3,0,13.8-8.8,13.8-8.9l0.6-1.2l-1.4-0.2c-6.5-1.1-11,1.2-14,3.6
		c0.1-0.9,0.1-1.8-0.1-2.6c-0.3-1.3-1-2.5-2-3.6c0.1-0.2,0.1-0.3,0.1-0.5c0-0.3-0.4-5-2.9-11.2c0.1-0.1,0.1-0.3,0.1-0.4
		c0-0.1,0.6-9.8,7.8-13.6c0.2-0.1,0.4-0.3,0.5-0.6c1.3-1.4,0.9-4.5,0.1-6.5c-0.7-1.6-1.4-2.5-2-3.2c-0.7-0.8-1.2-1.4-1.5-3l-0.6-3
		l-1.3,2.8c-0.1,0.3-3.2,6.8,0.8,11.6c0.5,0.6,0.9,1,1.3,1.3c-4.3,3.2-6,8.1-6.6,11.3c-0.8-1.7-1.8-3.4-3-5.2
		c3.7-4.2,0.2-10.9,0.1-11.2l-0.5-0.9l-0.9,0.5c-1.5,0.9-2.5,2.1-2.9,3.7c-0.1,0.5-0.2,1-0.2,1.6c-2-2.9-2.6-3.7-3.1-4.8
		c1.2-0.1,3.8-0.5,5.1-2.7c1.4-2.2,1-5.3-1.1-9.4l-0.6-1.2l-1,0.9c-0.5,0.4-3.5,3.1-5,6c-1.5-4.2-2.8-9.1-2.3-10.4
		c0.2-0.5-0.1-1.1-0.6-1.3c-0.5-0.2-1.1,0.1-1.3,0.6c-0.6,1.7,0.4,5.7,1.6,9.3c-8.7-4-11.5-0.3-11.6-0.1l-0.6,0.8l0.7,0.6
		c3.2,2.7,6.1,4.1,8.5,4.1c0.5,0,1-0.1,1.5-0.2c1.3-0.3,2.1-1.1,2.7-1.8c0.2,0.7,0.5,1.3,0.7,1.8c0,0,0,0,0,0
		c0.1,0.4,0.2,0.8,0.5,1.2c0.1,0.3,0.3,0.6,0.3,0.8l0.2,0.4c1.1,2.3,1.1,2.4,4.9,7.8l0.7,1.1c-7.2-2.7-9.7,0.6-9.8,0.7l-0.6,0.8
		l0.7,0.6c3.2,2.7,6.1,4.1,8.5,4.1c0.5,0,1-0.1,1.5-0.2c1.2-0.3,2-1,2.6-1.6c4.7,7.3,6.2,14.3,6.6,17c-0.4-0.3-0.9-0.5-1.4-0.7
		l-0.9-0.4l-0.4,0.9c-0.2,0.3-3.9,8.4,1.5,15c-0.4,1.7-2.6,6.5-5.8,12.8c-0.3,0.5-0.6,1.1-0.9,1.7c0,0,0,0.1-0.1,0.1
		c0-0.1,0-0.2-0.1-0.3c-0.6-2.3-2.5-6-8.2-5.4l-1,0.1l0.1,1c0,0.3,1,7.1,6.1,9.2c-2.8,2.7-4.8,5.1-6.1,7.2c-1.4-6.2-5-21.2-8-27.1
		c3.7-2.8,5.7-5.5,5.7-8.2c0.1-2.7-1.8-4.2-1.8-4.3l-0.4-0.3l-0.5,0.1c-2.7,0.7-4.6,2-5.6,4.1c-0.4,0.9-0.6,1.9-0.7,2.8
		c-0.1-0.3-0.3-0.5-0.4-0.8c-0.6-0.9-1.5-1.6-2.7-2.2c-2.5-2.8-5.4-5.6-8.8-8.5c-0.6-1.3-4.5-10.4-0.9-16.5c0.1-0.2,0.4-0.5,0.8-1.1
		c1.2,0.3,2.4,0.4,3.5,0.4c9.3,0,13.8-8.8,13.8-8.9l0.6-1.2l-1.4-0.2c-6.5-1.1-11.1,1.2-14,3.6c0.1-0.9,0.1-1.7-0.1-2.6
		c-0.6-2.5-2.4-4.5-5.5-5.8l-0.9-0.4l-0.4,0.9c-0.2,0.3-3.9,8.3,1.4,14.8c-2.5,4.8-1.4,10.6-0.2,14.3c-0.3-0.3-0.6-0.5-0.9-0.7
		c-0.3-0.2-0.6-0.5-0.9-0.7c-2.9-2.2-6.2-4.7-3-23.6c0.1-0.8-0.2-1.8-0.4-3c-0.4-1.8-0.9-4.1,0-5.3c1.6-1.5,2.3-3,2-4.6
		c-0.8-3.9-7.8-6.1-8.6-6.3l-1.2-0.3l-0.1,1.2c-0.6,5.1,0.2,8.4,2.3,10c0.9,0.7,1.9,0.9,2.8,0.9c0.1,0,0.3,0,0.4,0
		c-0.3,1.6,0.1,3.4,0.4,5c0.1,0.4,0.2,0.8,0.2,1.1c-1.3-0.4-13.7-4.3-17.5-9.6c0.8-0.6,1.9-1.7,2.4-3.4c0.8-2.7-0.3-6.1-3-9.9
		l-0.5-0.7l-0.8,0.4c-0.1,0.1-3.1,1.6-3.9,4.7c-1-2.3-1.7-5-1.7-7.8l0,0l0,0c0.1-3,1-6.3,3.5-9.4c1.1,0.3,2.1,0.5,3,0.5
		c1.4,0,2.7-0.4,3.7-1.2c3-2.3,2.7-7.2,2.7-7.5l-0.1-1.1l-1.1,0.1c-2.1,0.2-3.9,1.3-5.4,2.6c0.4-1.9,0.5-4.7-0.6-7.2
		c-1-2.3-2.9-4-5.6-5l-0.6-0.2l-0.5,0.5c-0.1,0.1-2.7,2.9-2.1,6.8c0.5,3,2.8,5.6,6.8,7.9c-0.8,1-1.3,1.7-1.4,1.9
		c-2.6,3.1-3.8,6.3-4.2,9.3c-2.1-2.2-10.5-12.6-5.6-31.5c2-1.8,2.9-3.7,2.6-5.7c-0.5-4-5.2-6.6-5.4-6.7l-1.2-0.7l-0.3,1.4
		c-1.1,5.5-0.8,9.2,0.9,11.1c0.4,0.5,0.9,0.7,1.3,0.9c-0.2,0.9-0.4,1.8-0.6,2.7c-1.3-2.3-3.8-5-8.5-6.7c0,0,0,0,0,0
		c3.1-4.7,0.2-9-1.9-10.7l-1-0.8l-0.6,1.1c-1.5,3-1.3,5.8-0.7,7.8c-6.4-2.4-13.1,1.9-13.2,2l-1.2,0.8l1.2,0.9c3.2,2.4,6.3,3.2,9,3.2
		c3.8,0,6.8-1.5,7.9-2.1c7.6,2.9,8.3,8.6,8.3,9c-0.1,0.6-0.1,1.1-0.1,1.7c-1.2-1.8-3.6-3.9-8.2-5.8l-1.3-0.6l-0.1,1.4
		c-0.1,0.9-0.4,9.1,3.5,11.4c0.7,0.4,1.4,0.6,2.2,0.6c1.2,0,2.5-0.4,3.9-1.3c0.8,8.8,4.5,14.5,6.6,17.1c-1.1,0-2.6,0-4.5-0.3
		c-0.1-1.8-0.7-7.2-5.9-9.8l-0.9-0.4l-0.5,0.8c-0.1,0.2-2.4,4.3-0.7,7.5c0,0.1,0.1,0.1,0.1,0.2c-2.9-0.7-5.3-1.3-6.7-1.8
		c0.9-1.6,2.5-6.3-4.3-13.6l-1.8-2v2.6c0,0.1-0.1,0.3-0.1,0.5c-1,3.7-1,6.6,0,8.9c-3-1.8-6.5-3.7-9-3.9
		C154.9,194.3,153.4,192.4,151.3,191.4z M144.5,192.7c1.4-0.3,3.8-0.5,5.9,0.5c1.4,0.7,2.5,2,3.2,3.7
		C151.6,196.9,147.4,196.4,144.5,192.7z M185.5,229c2.7-0.1,5.2,1.2,6.7,2.2C189.1,232.2,186.7,230.4,185.5,229z M192.1,237.5
		c-1.3,2.8-4.7,4.7-6.6,5.6c0.1-2.9,0.9-5.2,2.4-6.7c1.5-1.6,3.5-2,4.5-2.2C192.7,235.3,192.6,236.4,192.1,237.5z M213,249.3
		c-1.5-1.6-0.5-5.7,0.3-8.1c4.2,4.1,4.7,7.3,4.6,8.6C216.2,250.2,214,250.4,213,249.3z M179.2,233.1c-0.6,2-1.8,4.9-4,5.6
		C176.3,236.6,177.8,234.2,179.2,233.1z M165.4,229.2c-0.8-0.5-1.4-1.1-1.6-1.8c-0.5-1.6,0.1-3.5,0.6-4.6c0.9,0.7,1.5,1.6,1.7,2.6
		C166.4,226.8,165.8,228.3,165.4,229.2z M169.5,242.7c-0.9-1-1.3-2.4-1.1-4.3c1.2,0.6,3.1,2.2,4.1,5.8
		C171.5,244.1,170.3,243.7,169.5,242.7z M143.7,260.9c-0.5,2.1-3.3,3.8-5.1,4.7c-0.5-2.9,3.1-5.9,4.7-7
		C143.7,259.4,143.8,260.2,143.7,260.9z M137.7,255.5c-0.8-0.5-1.3-1.4-1.4-2.6c1.6-0.1,5.1,0,8,2.2
		C142.3,255.8,139.4,256.5,137.7,255.5z M153.1,250.8c-0.1,0.3-0.4,0.6-0.7,0.7c-0.3,0.1-0.7,0.2-1,0.3l0,0c-0.7,0.2-2,0.5-2.5,0
		c-0.8-1,0.1-4.2,1.2-6.7C153.3,248.7,153.3,250.3,153.1,250.8z M165.9,262.3c-1.7,1.2-4.3,1.6-7.7,1c0.8-1.3,2.4-3.5,4.7-4.2
		c1.5-0.5,3.1-0.3,4.8,0.5C167.6,260.3,167.1,261.4,165.9,262.3z M169.9,257.6c-0.7-0.8-1.4-1.5-2.2-2.2c-0.3-0.5-0.6-1.1-0.6-1.7
		c-0.1-1.2,0.5-2.5,1.8-3.8c2,2.1,4.3,5.3,3.8,6.8c-0.2,0.7-1.2,1.1-2.1,1.2C170.3,257.9,170.1,257.8,169.9,257.6z M186.3,274.2
		c-1.1-1.1-1.7-2.3-1.7-3.6c-0.1-2.2,1.3-4.2,2.2-5.2C188.7,267.7,187.2,272.1,186.3,274.2z M189.2,261.3
		C189.2,261.2,189.2,261.2,189.2,261.3C189.2,261.2,189.2,261.2,189.2,261.3L189.2,261.3z M187.7,258.4c-1.5-1.6-0.5-5.7,0.3-8.1
		c4.2,4.1,4.7,7.3,4.6,8.6C190.9,259.4,188.8,259.6,187.7,258.4z M220.3,277.3c-1.6-1.4-3.9-4.2-2.3-8.2
		C219.2,270.1,221.1,272.5,220.3,277.3z M273.2,234c0.3,0.4,0.5,0.7,0.8,1c0.6,0.7,1.1,1.3,1.7,2.7c0.8,2,0.6,4.1,0.3,4.3
		c0,0-0.5,0-1.5-1.3C272.7,238.6,272.8,235.9,273.2,234z M249.8,233.5c-1.3,0.3-3.5,0.1-7.1-2.7c1.2-0.5,3.9-0.9,8.8,1.5
		C251.1,232.8,250.6,233.2,249.8,233.5z M256,235.8c-0.1-0.2-0.2-0.4-0.3-0.7c-0.2-1.7,2.1-4.7,4.2-6.7c1.2,2.7,1.4,4.8,0.6,6.1
		c-1,1.5-3.2,1.7-3.8,1.7C256.3,236.1,256.1,235.9,256,235.8z M260.2,250.8c-1.3,0.3-3.5,0.1-7.1-2.7c1.2-0.5,3.9-0.9,8.8,1.5
		C261.5,250.1,261,250.6,260.2,250.8z M263.4,247.6c-0.7-1.5-1.5-3.8-1-5.6c0.2-0.7,0.5-1.2,1-1.7C264,242,265,245.3,263.4,247.6z
		 M286.2,274.1c-1.7,2.4-6.1,7.5-13.5,6.3C274.3,278.1,278.5,273.4,286.2,274.1z M268.6,269.8c1.9,1,3,2.3,3.4,3.9
		c0.6,2.7-1.2,5.8-2.3,7.3C266.7,276.7,267.9,271.8,268.6,269.8z M264.6,296.6c1.8-2.6,4.7-3.7,6.5-4.1c-0.9,2.6-2.1,4.3-3.8,5.1
		c-1.3,0.7-2.6,0.6-3.4,0.5C264.1,297.6,264.4,297.1,264.6,296.6z M255,293.8c1.6,0,2.9,0.6,3.8,1.7c1.2,1.5,1.4,3.7,1.4,4.9
		C256.8,299.4,255.4,295.7,255,293.8z M244,274.6c0.6-1.3,1.9-2.3,3.7-2.8c0.3,0.4,0.8,1.2,0.7,2.3c-0.1,1.4-0.9,3.5-4.5,6.3
		C243.5,279,243.1,276.6,244,274.6z M239.9,278.7c0,0.1,0,0.2,0,0.3c-3.1-0.2-5.3-3-6.5-4.8c1.4,0.2,2.6,0.5,3.6,1
		C238.1,276.3,239.1,277.5,239.9,278.7z M244.3,239.4c-1.7,2.5-6.1,7.5-13.5,6.3C232.4,243.4,236.6,238.7,244.3,239.4z M226.7,235.1
		c1.9,1,3,2.3,3.4,3.9c0.6,2.7-1.2,5.8-2.3,7.3C224.8,242,226,237.1,226.7,235.1z M216.7,227.3c-0.9-0.7-1.9-2.4-1.6-6.8
		c2.5,0.9,5.6,2.6,6,4.4c0.2,0.8-0.3,1.7-1.3,2.6C219.3,227.7,217.8,228.1,216.7,227.3z M197.9,218.2c0.3-1.6,1.4-2.6,2.2-3.2
		c1.9,2.9,2.7,5.4,2.2,7.3c-0.3,1.2-1.1,2-1.7,2.4C198.5,222.3,197.6,220.1,197.9,218.2z M205.2,193.4c-0.1,1.3-0.5,3.4-1.9,4.5
		c-1,0.8-2.4,0.9-4.2,0.5C200.2,196.9,202.5,194.3,205.2,193.4z M193.3,188.3c-0.3-2,0.6-3.7,1.1-4.5c1.8,0.8,3.1,2,3.8,3.6
		c1.1,2.5,0.7,5.5,0.2,7.1C195.4,192.5,193.6,190.5,193.3,188.3z M160.8,172.8c2.5-1.2,7.9-3.1,12.4,0.3c0,0.1,0.1,0.1,0.1,0.1
		C171.1,174.4,166.1,176,160.8,172.8z M174.2,170.9c-0.7-1.3-1.6-3.7-0.7-6.5C174.5,165.7,175.7,168.1,174.2,170.9z M182.5,189.2
		c-1.8,1.1-3.2,1.3-4.2,0.7c-2-1.2-2.5-5.3-2.5-8C182.4,185.1,182.6,188.3,182.5,189.2z M184.3,166.5c1.2,0.9,2.9,2.5,3.1,4.3
		c0.1,1.3-0.5,2.6-1.9,3.9c-0.2-0.1-0.4-0.2-0.7-0.5C184.3,173.5,183.5,171.5,184.3,166.5z M179.6,200.4c3,2,3.7,5.2,3.8,6.9
		c-2.1-0.3-3.4-1.1-4-2.2C178.6,203.5,179.1,201.5,179.6,200.4z M181.6,209.5c0,0.1-0.1,0.2-0.2,0.3c-0.6,0.8-2.4,2.3-8.2,2.7
		c0-0.1,0.1-0.2,0.2-0.3C174,211.4,175.9,210,181.6,209.5z M166.5,193.6c4.1,5,3.5,8.1,3,9.4C165.6,201,165.8,197,166.5,193.6z
		 M170.2,206.4c-1.8,1.3-5.8,3.1-11.8,0C160,205.2,163.7,203.4,170.2,206.4z"/>
	<path d="M271.3,211.2l0.3-1.4l-1.4,0.1c-0.1,0-8.2,0.6-10.6,7.4c-1.3-0.9-2.6-2.1-3.5-3.7c2.3-1.2,3.6-2.8,3.9-4.7
		c0.5-3.6-3.4-6.8-3.6-6.9l-0.7-0.6l-0.6,0.7c-2.6,2.6-3.9,4.9-4,7c-1.1-0.6-2.3-1.3-3.7-1.8c0.3-0.5,0.6-1.2,0.6-2.2
		c0-1.7-1.1-3.4-3-5.1c0-0.3,0-0.6-0.1-0.9c0-0.7-0.1-1.6,0-2.6c1.3,0.3,2.5,0.5,3.5,0.5c1.7,0,3.1-0.5,3.9-1.4
		c1.9-2,0.8-5.2,0.8-5.3l-0.3-0.9l-0.9,0.2c-3.1,0.6-5.3,2.4-6.5,3.7c0.5-2,1.5-4.2,3.3-6l0.1-0.2c0.3-0.5,2.6-4.5,2.5-7.6
		c0.9-0.1,1.8-0.4,2.6-0.9c3.3-2.3,4.2-8.2,4.2-8.5l0.2-1.5l-1.5,0.3c-3.3,0.8-5.6,2.2-6.8,4.3c-1.6,2.6-0.9,5.3-0.9,5.4l0,0.2
		c0.4,1.3-0.3,3.5-1.1,5.3c0.2-6.5-5.6-9.7-5.7-9.8l-0.9-0.5l-0.5,0.9c-1,1.9-1.1,3.9-0.5,5.8c1.3,3.9,5.8,6.1,5.9,6.2
		c-0.6,0.7-1.1,1.5-1.5,2.3c-1.8-2.5-6-7.8-12.2-11.2c0.4-6.1,1.7-14.8,3.6-17c1.2,0.5,2.4,0.8,3.6,0.8c0.9,0,1.8-0.2,2.7-0.5
		c3.7-1.3,5.4-5.1,5.5-5.3l0.4-0.9l-0.8-0.5c-2.5-1.4-4.9-1.7-7.1-0.9c-3.3,1.2-4.9,4.5-5.3,5.4c-0.7,0.6-1.3,1.6-1.8,2.8
		c-0.9-3.7-3.4-5.3-3.6-5.3l-0.9-0.5l-0.5,0.9c-1.9,3.3-2.4,6.1-1.3,8.2c1.1,2.2,3.4,3,4.6,3.2c-0.5,3-0.8,5.9-1,7.9
		c-3-4.1-12-17.9-5.2-27.4c0.1,0,0.3,0,0.5,0c5.5,0,8.3-6.8,8.4-7.2l0.4-1l-1-0.4c-1.6-0.6-3.2-0.5-4.7,0.2c-1.8,0.9-3,2.5-3.9,4
		c-2.6-7.9-6.9-7.7-7.1-7.7l-0.9,0.1l0,1c0,5.2,1.2,8.6,3.5,10.1c0.8,0.5,1.6,0.8,2.3,0.9c-0.6,1-1,2-1.4,3.1
		c-1.6-1.3-5.1-3.3-10.8-3.4c-0.1-1.7-1.3-4.7-6.7-8.4l-1.6-1.2v2l0,0.2c-1.2,4.4,0.5,6.9,2.8,8.4c-2.2,1.1-5.3,3.2-5.4,6.2l-0.1,1
		l1,0.1c0.2,0,0.5,0,1.1,0c2.3,0,7.4-0.3,9.1-3c0.6-0.9,0.7-2,0.3-3.2c6.6,0.2,9.5,3.2,9.8,3.6c-1.3,8.3,3.7,17.1,6.8,21.6
		c-2.3-0.7-4.8-1.2-7.4-1.1c2.1-4.1-0.7-9.6-0.8-9.9l-0.5-0.9l-0.9,0.5c-1.5,0.9-2.5,2.1-2.9,3.7c-0.5,1.9,0,3.9,0.6,5.5
		c-7.7-3.1-10.3,0.3-10.4,0.4l-0.6,0.8l0.7,0.6c3.2,2.7,6.1,4.1,8.5,4.1c0.5,0,1-0.1,1.5-0.2c1.8-0.5,2.8-1.8,3.2-2.5
		c13.9-1.3,23.6,12.4,24.9,14.5c-0.7,1.9-1,3.8-1.1,5.4c-0.9-0.5-1.8-0.8-2.6-0.8l-1.2-0.1l0.1,1.2c0.2,2.2,0.9,3.7,2.1,4.5
		c0.6,0.4,1.2,0.5,1.7,0.5c0.3,0,0.6,0,0.8-0.1c1.4,1.3,2.2,2.5,2.2,3.5c0,0.9-0.4,1.4-0.5,1.4c-0.1,0-0.1,0.1-0.1,0.2
		c-2.7-0.7-5.8-1-9.2-0.2c0.1-0.3,0.3-0.5,0.4-0.8c1-2.6,0.5-5.8-1.5-9.5l-0.7-1.2l-1,1c-0.1,0.1-5.5,5.9-2.8,12.6
		c-1.9,0.9-7.3,2.7-12.1-3.2c3.6-4.2,0.2-10.8,0-11.1l-0.5-0.9l-0.9,0.5c-1.5,0.9-2.5,2.1-2.9,3.7c-0.5,1.9,0,3.9,0.6,5.5
		c-7.7-3.1-10.3,0.3-10.4,0.4l-0.6,0.8l0.7,0.6c3.2,2.7,6.1,4.1,8.5,4.1c0.5,0,1-0.1,1.5-0.2c1.3-0.3,2.1-1.1,2.7-1.8
		c6.9,8.1,15.1,3,15.2,3c0,0,0.1,0,0.1-0.1c8.7-4.2,15.9-0.5,19.3,2.1c0.7,1.1,1.7,1.7,2.2,2c3.8,7.3,12.6,8.3,13,8.3
		c0,0,0.1,0,0.1,0c0.5,0,1-0.4,1-0.9c0.1-0.6-0.4-1.1-0.9-1.1c0,0-1.1-0.1-2.6-0.6c0.5-0.1,0.9-0.3,1.4-0.5
		C268.5,217.9,270.3,215.2,271.3,211.2z M251.2,191.7c0.1,0.8,0,1.7-0.5,2.4c-0.7,0.7-2.1,0.9-4.1,0.6
		C247.5,193.7,249,192.4,251.2,191.7z M251.6,174.1c0.8-1.3,2.1-2.2,4-2.9c-0.5,1.8-1.5,4.4-3,5.5c-0.5,0.4-1.1,0.6-1.7,0.6
		C250.8,176.6,250.9,175.3,251.6,174.1z M242.2,179.8c-0.3-1-0.4-2,0-3.1c1.4,1.1,3.8,3.5,3.7,7.3
		C244.6,183.2,242.9,181.7,242.2,179.8z M241,155.3c1.3-0.5,2.8-0.4,4.5,0.3c-0.6,1-1.9,2.6-3.9,3.3c-1.3,0.5-2.8,0.5-4.4-0.1
		C237.9,157.8,239.1,156,241,155.3z M229.9,142.2c0.5-0.3,1-0.4,1.6-0.4c0.1,0,0.2,0,0.3,0c-0.9,1.6-2.8,4.4-5.5,4.8
		C227,145.1,228.2,143,229.9,142.2z M204.1,142.5c4.2,3.2,4.6,5.5,4.6,6.2l-0.8-0.3C204.2,146.9,203.8,144.5,204.1,142.5z
		 M209.1,152.5c-0.9,1.5-4.4,2-7.1,2c1-2.2,4.4-3.7,5.8-4.2l1-0.3C209.4,151.1,209.5,151.9,209.1,152.5z M221.7,146.1
		c-1.1-0.7-2.3-2.6-2.5-7.2c1.2,0.6,3.1,2.4,4.5,7.7C223.2,146.7,222.4,146.6,221.7,146.1z M215,177.2c-1.3,0.3-3.5,0.1-7.1-2.7
		c1.2-0.5,3.9-0.9,8.8,1.5C216.4,176.5,215.8,177,215,177.2z M218.3,174c-0.7-1.5-1.5-3.8-1-5.6c0.2-0.7,0.5-1.2,1-1.7
		C218.9,168.4,219.9,171.7,218.3,174z M231.5,165.9c-0.9-0.3-2.1-0.9-2.7-2c-0.6-1.2-0.4-3,0.7-5.1
		C230.4,159.8,231.9,162,231.5,165.9z M242.1,199.4c-0.4-0.2-0.7-0.7-0.9-1.4c0.6,0.3,1.2,0.7,1.5,1.4c0,0.1,0,0.1,0,0.2
		C242.5,199.6,242.3,199.6,242.1,199.4z M213.9,206.8c-1.3,0.3-3.5,0.1-7.1-2.7c1.2-0.5,3.9-0.9,8.8,1.5
		C215.2,206.1,214.7,206.5,213.9,206.8z M217.1,203.6c-0.7-1.5-1.5-3.8-1-5.6c0.2-0.7,0.5-1.2,1-1.7
		C217.7,198,218.7,201.3,217.1,203.6z M234.5,204.9c-0.5,1.4-1.5,2.2-2.2,2.7c-1.5-3.8,0.3-7.3,1.5-9
		C234.9,201,235.1,203.2,234.5,204.9z M253.3,210.7c-0.1-0.2-0.2-0.4-0.2-0.6c-0.3-1.5,0.6-3.5,2.7-5.8c1,1,2.4,2.8,2.1,4.4
		c-0.2,1.2-1.2,2.3-3.1,3.2C254.5,211.6,254,211.2,253.3,210.7z M261.6,217.8c1.5-3.8,5.2-5.1,7.3-5.6c-0.9,2.6-2.1,4.3-3.8,5.1
		C263.8,218,262.4,217.9,261.6,217.8z"/>
	<path d="M251.5,128.8L251.5,128.8c2.8,5.3,3.8,9.1,4.2,10.8c-3.7-1.2-8.5-1.9-14.6-1.7c0.1-1.5-0.3-2.9-1.2-4
		c-2.7-3.3-8.9-3.3-9.2-3.3l-1.1,0l0.1,1.1c0.2,2.8,1.1,5,2.9,6.4c2,1.6,4.5,1.9,6.1,1.9c0.1,0,0.2,0,0.3,0c0.2,0.1,0.3,0.1,0.5,0.1
		c7.8-0.5,13.4,0.5,17.3,2.2c-0.3,0-0.7,0-1,0.1c-3.6,0.8-5.5,4.8-5.6,4.9l-0.5,1l1.1,0.4c3.2,1.1,5.8,1.7,7.7,1.7
		c1.7,0,2.9-0.4,3.6-1.3c0.7-0.7,0.8-1.6,0.8-2.4c0.4,0.6,0.9,1.1,1.3,1.5c2.7,4,11.4,8.4,13.7,9.6c0,0.1,0,0.2,0,0.2
		c-0.6,3.5-0.9,8-1.1,12.8c-4.8-5.8-10.9-5.5-11.2-5.5l-1,0.1l0,1c0.1,2.4,1,4.3,2.6,5.6c2.3,1.9,5.5,2.2,7.7,2.2
		c0.8,0,1.4,0,1.9-0.1c0,5.7,0.2,11.6,0.4,16.4c-2.1-2.4-5.8-4.8-10.3-3.7c-0.1,0-0.3-0.1-0.4-0.1c0.1-0.3,0.2-0.6,0.2-1
		c0.1-2.1-1.4-4.7-4.5-7.8l-1.3-1.3l-0.4,1.8c-0.5,2-0.6,5.5,1.5,7.8c-1.1,0.1-2.2,0.4-3.1,0.9c-2.8,1.6-3.4,4.7-3.5,4.8l-0.2,1
		l1,0.2c0.9,0.2,1.7,0.3,2.5,0.3c4.9,0,7.9-3.5,8.8-4.6c5.7-1.3,9.3,4.6,9.4,4.8c0.1,0.2,0.3,0.3,0.4,0.4c0,0.5,0.1,1,0.1,1.5
		c-3.5-3.2-9.2-2.9-9.4-2.8l-1.2,0.1l0.3,1.2c2.2,8.3,9.2,9,11.3,9c0.1,0.3,0.3,0.6,0.7,0.7c0.1,0,0.2,0.1,0.3,0.1
		c0.4,0,0.8-0.3,1-0.7c0-0.1,2.2-6,12.9-9c0.8,1,2.8,2.7,6.6,2.7c2.1,0,4.8-0.5,8.2-2.1l1.2-0.6l-0.9-1c0,0-2.1-2.5-6-3.1
		c2-1.1,4-2.5,5.6-4.2c0.1,0,0.2,0,0.3,0c1.2,0,3.4-0.6,6.7-3.7c0,0,0,0,0,0c2.6,2.4,5.3,3.7,7.9,3.7c0.2,0,0.5,0,0.8,0
		c4.2-0.4,6.8-3.8,6.9-4l0.6-0.8l-0.8-0.6c-3.3-2.4-8-2-11.3-1.3c2.6-1.7,4.8-3.1,3.8-6.9c0.7-0.8,1.2-1.6,1.5-2.4
		c1.9-2.7,5.4-6.7,9.6-9.1c1.1,0.5,2.2,0.8,3.3,0.8c0.7,0,1.3-0.1,2-0.3c4.1-1.2,6.5-5.8,6.6-6l0.7-1.3l-1.5-0.2
		c-1.7-0.2-3.3,0.1-4.8,0.6c1.3-1.9,1.8-3.6,1.5-5c0-0.3,0.1-0.5,0.1-0.7l0,0c0.4-0.1,10.7-2.9,10.7-8.7V139l-0.8-0.2
		c-0.1,0-5.7-1.2-9.1,3.8c0-0.8-0.1-1.6-0.4-2.4c1.7-0.8,2.9-1.9,3.4-3.4c1.2-3.1-0.8-6.5-0.9-6.6l-0.5-0.9l-0.9,0.6
		c-2.5,1.6-4,3.5-4.4,5.6c-0.5,2.5,0.8,4.5,1.1,4.8c0.3,0.6,0.5,1.2,0.5,1.9c0,0,0-0.1,0-0.1c-2.2-3.3-6.3-4.1-6.4-4.1l-0.9-0.2
		l-0.2,0.9c-1.6,5.9,5,10.2,6.8,11.2c0.1,1.2-0.7,3.5-5.2,7.6c-0.6,0.5-1,0.9-1.2,1.1c0,0-0.1,0-0.1,0.1c0.1-0.7,0-1.6-0.3-2.5
		c-0.5-1.8-1.8-3.3-3.8-4.5c1.9-1.6,2.9-3.3,3-5.2c0.1-3.5-2.7-6-2.9-6.2l-0.6-0.5l-0.6,0.4c-1.7,1.1-2.7,2.5-3,4.2
		c-0.4,1.9,0.2,3.8,0.9,5.2c-3.5-2.6-4.8-6.2-6-9.4c-0.1-0.2-0.1-0.3-0.2-0.5c1.5-0.1,2.7-0.7,3.5-1.7c2.4-3,0.9-8.6,0.8-8.8
		l-0.3-1.3l-1.1,0.6c-3.1,1.7-5,3.6-5.7,5.6c-0.8-1-1.9-1.6-3.2-1.8c-4.1-0.6-8.9,3.5-9.1,3.7l-1.2,1l1.4,0.7c4.2,2,7.4,3,9.5,3
		c1.2,0,2.2-0.3,2.8-1c0.1-0.1,0.1-0.2,0.2-0.3c0.2,0.4,0.3,0.9,0.5,1.4c0.5,1.4,1,2.8,1.7,4.3c-2.9-1-6.2-0.6-8.1,0l-1.4,0.4
		l0.9,1.2c3,3.8,7.5,4.5,10.3,4.5c1.6,0,2.7-0.2,2.8-0.2l0.1,0c0.8,0.6,1.6,1.2,2.6,1.7c2.2,1.1,3.5,2.4,4,4c0.5,1.5,0,2.9-0.2,3.4
		c-2.6,1.8-4.7,4-6.4,6c-0.8-2.4-3-4-3.2-4l-1.1-0.7l-0.5,1.2c-1.9,4.9,0.4,8.7,1,9.6c0.8,2.6-0.3,3.3-2.9,5
		c-1.2,0.8-2.8,1.8-4.3,3.2c-1.5,1.4-2.7,2.2-3.6,2.6c0.4-0.7,0.8-1.4,1.1-2.1c1.2-3,0.9-6.3-0.7-9.6c0,0-0.1-0.2-0.2-0.5
		c0.7-0.5,1.3-1.1,1.6-1.8c1.6-3.3-0.3-8.4-0.4-8.6l-0.4-1l-1,0.5c-1.7,0.8-2.8,2-3.3,3.5c-0.1,0.4-0.2,0.8-0.3,1.2
		c-0.6-0.7-1.2-1.3-1.9-1.9c0.7-1.6,0.8-3.3,0.3-4.9c-1.2-3.9-5.5-6.1-5.7-6.2l-0.7-0.3l-0.5,0.6c-1.3,1.4-1.9,2.9-1.6,4.6
		c0.6,4.1,6.2,7.3,6.4,7.4l0,0c1.3,1,2.3,2.3,3.1,3.5c-3.8-2.6-8.1-2.8-8.4-2.8l-1.4,0l0.4,1.3c0.8,2.8,2.2,4.8,4.4,6
		c1.7,0.9,3.5,1.2,5,1.2c1.3,0,2.3-0.2,2.8-0.3c1.2,2.6,1.4,5.1,0.5,7.5c-0.6,1.5-1.5,2.8-2.7,4c0.8-1.9,0.7-3.9,0.3-5.3l-0.2-0.9
		l-1,0.2c-5.2,1-6.2,6.8-6,9.8l0.1,1c-0.9,0.5-1.9,0.9-2.7,1.3c-1.1,0.3-2.4,0.8-3.7,1.5c-7.9,2-11.7,5.6-13.5,8
		c-0.2-2.1-0.4-5.8-0.6-10.3c0.1,0,0.2,0,0.4,0c1.5,0,2.8-0.5,3.9-1.5c4.4-3.8,4.8-13.6,4.8-14l0.1-1.7l-1.5,0.7
		c-4.6,2.2-6.8,5.6-7.9,8.8c-0.1-2.6-0.1-5.3-0.1-8l0.1,0l-0.1-0.1c0-5.8,0.3-11.3,1.1-15.4c0-0.1,0.9-5.5,6.3-11.9
		c1.3,1,2.8,1.4,4.3,1.4c3.3,0,6.5-1.8,6.7-1.9l0.9-0.5l-0.6-0.9c-0.9-1.5-2.2-2.4-3.8-2.7c-1.9-0.4-3.9,0.2-5.5,0.8
		c2.8-7.9-0.7-10.3-0.9-10.4l-0.8-0.5l-0.6,0.8c-3.1,4.1-4.3,7.5-3.4,10.1c0.4,1.3,1.3,2.2,2,2.7c-3.2,3.9-4.9,7.4-5.8,9.7
		c-2-3.5-5.9-12.6,0.9-22.9l0,0c0,0,0,0,0-0.1c0,0,0-0.1,0.1-0.1c0,0,0,0,0-0.1c0.2-0.2,0.3-0.5,0.4-0.7c0,0,0,0,0,0
		c0.6-1,1.4-2.5,1.7-4c0.2,0,0.4,0.1,0.6,0.1c1,0,2-0.3,2.8-0.9c3.6-2.5,4-9.7,4-10l0.1-1.3l-1.2,0.2c-2.6,0.4-4.6,1.3-6,2.6
		c-0.5-1.7-1.3-3.2-2.2-4.3c0.6-1.4,0.6-2.8,0.1-4.1c-1.6-4.1-7.8-6.5-8-6.6l-1-0.4l-0.3,1c-1.8,5.5-1.7,9.1,0.4,11
		c1,0.9,2.3,1.2,3.6,1.2c1.5,0,2.9-0.4,3.8-0.7c0.9,1.1,1.7,3,2.1,5c-1.4,2.7-0.8,5.5-0.7,6.1c0,0.4,0,0.7-0.1,1.2
		c-1.8-2.9-6.3-4.9-6.9-5.2l-1.2-0.5l-0.2,1.3c-0.7,4.3-0.1,7.3,1.8,8.8c1.1,0.9,2.4,1.2,3.5,1.2c0,0,0.1,0,0.1,0
		c-5.2,9.2-2.7,17.5-0.6,21.8c-3.2-1.7-8-4.6-10-7.1c1.4-2.1,1.9-4.2,1.6-6.3c-0.7-3.9-4.2-6.3-4.3-6.4l-0.8-0.6l-0.6,0.8
		c-1.6,2.3-1.8,4.7-1.4,6.9c-0.9-0.6-1.8-1.1-2.9-1.5c-0.1-0.8-0.7-4.8-3.9-11.2c0.9,0,1.7-0.3,2.4-0.7c3.9-2.5,4.8-10.3,4.8-10.6
		l0.2-1.7l-1.6,0.6c-4.4,1.7-7.2,4-8.3,6.8c-1.1,2.6-0.3,4.6-0.3,4.7L251.5,128.8z M239.1,137.9c-1.2,0-3.5-0.1-5.2-1.4
		c-1.1-0.9-1.8-2.1-2-3.8c1.9,0.2,5,0.8,6.4,2.5C238.9,135.9,239.1,136.8,239.1,137.9z M268.6,170.5c-0.9-0.8-1.5-1.8-1.7-3
		c1.8,0.2,5.4,1,8.5,4.8C273.5,172.3,270.5,172,268.6,170.5z M264.8,185.7c-2-1-2.4-3.1-2.4-4.7C264.5,183.6,264.8,185,264.8,185.7z
		 M257.9,191.4c0.3-0.8,1-1.8,2.1-2.4c1.3-0.8,3.1-0.9,5.2-0.4C264,189.8,261.5,191.8,257.9,191.4z M269.6,194.7
		c1.7,0.1,4.7,0.5,6.7,2.4c0.9,0.9,1.4,2,1.6,3.3c0,0.2,0,0.4,0,0.6C275.9,200.8,271.5,199.9,269.6,194.7z M350.3,140.8
		c0.1,0,0.1,0,0.2,0c-0.8,2.4-4.5,4.3-7.2,5.3C345.1,141.4,348.5,140.8,350.3,140.8z M341.1,135.8c0.2-1.3,1.1-2.4,2.5-3.5
		c0.4,1,0.8,2.5,0.3,3.9c-0.4,1-1.2,1.8-2.4,2.3C341.2,137.9,340.9,136.9,341.1,135.8z M334.9,140.3c1.1,0.4,2.9,1.2,4.1,3
		c0.7,1.1,1.1,2.4,1.1,3.8c0,0.2-0.1,0.3-0.1,0.5C338,146.3,334.7,143.6,334.9,140.3z M343.2,155.8c-0.9,1.2-2.5,2.9-4.4,3.5
		c-1,0.3-1.9,0.3-2.9,0C337.4,158,340.2,156.1,343.2,155.8z M316,138.5c-0.3,0.3-1.9,1.2-8.5-1.7c1.6-1.1,4.2-2.5,6.2-2.2
		c0.9,0.1,1.7,0.6,2.2,1.4C316.1,136.5,316.5,137.9,316,138.5z M319.3,137.9c-0.3-0.4-0.6-1.2-0.5-2.2c0.2-1.5,1.5-3,3.8-4.5
		c0.3,1.7,0.4,4.3-0.7,5.6C321.3,137.5,320.5,137.8,319.3,137.9z M314.1,146.9c2.2-0.3,6-0.3,8.4,2.4
		C320.5,149.4,316.9,149.2,314.1,146.9z M327.2,144.9c0.2-0.9,0.6-1.7,1.4-2.4c0.7,0.8,1.7,2.3,1.6,3.9c-0.1,1.2-0.7,2.4-1.9,3.4
		C327.8,148.7,326.9,146.7,327.2,144.9z M321.3,164.9c0.6,0.7,1.3,1.6,1.4,2.8c0,0.4,0,0.7-0.1,1.1c-0.3,0.4-0.6,0.8-0.8,1.1
		C321.4,168.7,320.9,167,321.3,164.9z M328.2,181.4c-0.9,0.9-2.5,2.1-4.7,2.3c-2,0.2-3.9-0.5-6-2.1
		C320.1,180.8,324.9,179.7,328.2,181.4z M302.9,161.6c-1.7-1.1-4.1-3.2-4.5-5.4c-0.1-0.8,0.1-1.5,0.6-2.3c1.1,0.7,3.3,2.3,4,4.5
		C303.3,159.5,303.3,160.6,302.9,161.6z M302,170.2c-1.2-0.7-2.2-1.8-2.9-3.2c2,0.3,5.5,1.3,7.8,4.1
		C305.7,171.2,303.7,171.2,302,170.2z M309.3,169.1c-0.2-0.3-0.4-0.7-0.6-1.1c-0.3-1.2-0.5-2.6-0.1-3.8c0.2-0.7,0.6-1.3,1.2-1.7
		c0.5,1.7,0.9,4.2,0.1,5.8C309.8,168.6,309.6,168.9,309.3,169.1z M305.1,180.7c0.1,1.6-0.2,4.4-3.3,5.9
		C301.9,184.8,302.5,181.8,305.1,180.7z M297.8,192.3c3.9-1.1,6.6,0.1,8,1.1c-6,2.3-9,1-10.3-0.1C296.1,193,296.9,192.7,297.8,192.3
		z M286.2,175.8c-0.4,3.3-1.4,8.6-4,10.7c-0.7,0.6-1.4,0.9-2.2,1C280,185.3,280.7,179.3,286.2,175.8z M293.4,143.8
		c0.7,0.1,1.3,0.4,1.8,0.9c-1.7,0.7-4.9,1.8-7.3,0.4C289.3,144.3,291.6,143.4,293.4,143.8z M284.5,142c-0.4-1.2-0.3-3.5,2.3-7.2
		c0.6,1.2,1,3.8-1.1,8.8C285.3,143.3,284.8,142.7,284.5,142z M278.1,113c-1.3,0.5-4.2,1.2-5.6,0c-1.2-1.1-1.3-3.8-0.1-7.7
		c1.9,0.9,5,2.7,5.8,5C278.6,111.1,278.5,112.1,278.1,113z M282.7,120.4c0.9-1.4,2.4-2.3,4.5-2.9c-0.3,2.2-1.1,5.8-3,7.1
		c-0.7,0.5-1.4,0.6-2.3,0.5C281.7,124.2,281.6,122.2,282.7,120.4z M274.6,130.1c-1.1-0.9-1.5-2.8-1.2-5.6c1.9,1,4.6,2.8,5.1,4.6
		c0.1,0.5,0.1,0.9-0.1,1.3c0,0.1-0.1,0.2-0.1,0.2C277.5,130.8,275.7,131.1,274.6,130.1z M263.3,137.3c0.9,0.8,2.3,2.4,2.6,4.3
		c0.2,1.4-0.1,2.8-0.9,4.2c-0.3-0.3-0.5-0.6-0.8-1C263,143,261.9,140.2,263.3,137.3z M260.7,145.6c0.2,0.5,0.4,1.5-0.1,2.1
		c-0.4,0.5-2.1,1.3-8-0.6c0.7-1,1.9-2.4,3.6-2.8C257.7,144,259.2,144.4,260.7,145.6z M259,119.5c-0.5,2.5-1.6,6.1-3.6,7.3
		c-0.7,0.4-1.4,0.5-2.3,0.3C252.9,125.9,252.9,122.5,259,119.5z"/>
	<path d="M295.8,382.1l-1-0.2l-0.2,1c0,0.2-0.6,3.7,1.6,6.9c1.5,2,3.8,3.3,6.8,4c-2.6,24,2.1,41.7,14,52.8
		c11.3,10.6,26.9,12.6,37,12.6c6.1,0,10.2-0.7,10.3-0.7c0.6-0.1,0.9-0.6,0.8-1.2c-0.1-0.6-0.6-0.9-1.2-0.8
		c-0.3,0.1-28.2,4.9-45.5-11.4c-11.3-10.6-15.8-27.7-13.3-50.9l0,0l0.1-0.9c0-0.1,0-0.1,0-0.2c0,0,0,0,0,0l0,0
		C305.2,392.9,305.7,383.6,295.8,382.1z M297.9,388.6c-1.1-1.5-1.3-3.2-1.4-4.3c5.2,1.3,6.3,5.4,6.5,7.4
		C300.8,391.2,299,390.1,297.9,388.6z"/>
	<path d="M250.3,353C250.4,353,250.4,353,250.3,353c0.6,0,1.1-0.4,1.1-0.9c0-0.1,0.1-0.9,0.1-2.4c4.1-0.6,6.9-2,8.3-4.3
		c1.6-2.8,0.4-5.7,0.3-5.8l-0.4-0.9l-0.9,0.4c-3.9,1.6-6.2,3.6-7.5,5.5c-0.8-8.8-4-23.3-16.5-31.9c1.9-8.9-4.1-11.8-4.1-11.9
		l-0.9-0.4l-0.5,0.8c-1.7,3.2-1.5,6-0.4,8.2c-3.1-1.4-6.7-2.4-10.8-3c-0.1,0-0.2,0-0.4,0c0,0,0,0,0,0l-3.9-6.6
		c0.5,0.1,1.1,0.1,1.8,0.1c3.3,0,8.2-1.1,10.3-7.4l0.3-0.9l-0.9-0.3c-0.2-0.1-4.2-1.5-8.1,0.4c-2.2,1.1-3.8,3-4.9,5.6l-3.3-5.5
		c0.2-1.4,0.1-6-6.4-11.7l-1.1-0.9l-0.6,1.3c-0.4,0.8-3.4,8.3-0.4,11.6c0.9,1,2.2,1.5,3.9,1.5c0.9,0,1.9-0.2,3-0.4l7.8,13.3
		c-5.7-0.2-11,1.1-16.1,2.3c-0.2,0-0.4,0.1-0.5,0.1l0-0.2c2.4-9.5-3.9-12.6-4-12.6l-0.9-0.4l-0.5,0.8c-3.4,6.2,0.9,11,3.7,12.7
		c-5.7,1.3-11.6,2.4-18.3,1.4c-3.6-0.5-7-1.9-10.1-3.7l0.1,0c1.9-1.5,3.1-3.3,3.4-5.5c0.5-4.2-2.4-8-2.5-8.1l-0.6-0.8l-0.8,0.7
		c-2.1,1.7-3.3,3.8-3.5,6.1c-0.2,2.7,0.9,5,1.8,6.4c-1.8-1.2-3.4-2.5-4.9-3.8c-0.7-0.9-4.8-6.5-3.8-16.5c0.1-0.3,0.2-0.8,0.1-1.6
		c4.1-2.9,6.2-5.8,6.3-8.6c0.1-2.7-1.8-4.2-1.8-4.3l-0.4-0.3l-0.5,0.1c-2.7,0.7-4.6,2-5.6,4.1c-0.7,1.4-0.8,3-0.7,4.4
		c-1.7-1.2-4.2-1.9-7.5-2l-1.7-0.1l0.6,1.5c0.1,0.3,3.2,7.2,9,7.6c-0.3,4.6,0.3,8.3,1.3,11.1c-1.5-1.7-2.5-3-3-3.6
		c0.3-1,0.3-2.1-0.1-3.1c-1.7-3.9-8.9-6.1-9.7-6.4l-1.3-0.4l0,1.4c0,3.4,0.9,6,2.9,7.7c0.5,0.4,1.1,0.8,1.6,1.1
		c-2.8,0.8-5.9,2.2-7.6,4.6c-0.9,0.3-3.7,1.5-4.9,4c-0.7,1.5-0.8,3.2-0.1,5l0.3,0.9l0.9-0.3c2.4-0.7,6.4-3.4,5.5-8.4
		c2.5-3.4,9-4.5,11-4.7c2.1,2.8,12.4,15.7,26.1,17.7c2,0.3,4,0.4,5.9,0.4c-2.6,2-7.7,5.4-13.1,4.7c-3.7-0.4-7.9-1.3-8.6-2.2
		c-0.1-0.5-0.5-1.3-1.4-2.2c-1.9-1.6-5.1-2.3-9.7-1.9l-1.4,0.1l0.5,1.3c0.3,0.6,2.7,6.2,6.5,6.7c0.2,0,0.4,0,0.6,0
		c1.4,0,2.8-0.7,4-2.1c1.2,0.8,3.3,1.4,5.2,1.7c-1.4,1.3-2.4,3.5-2.8,6.6L164,327l1.3-0.2c0.2,0,4.7-0.6,6.6-3.5
		c0.7-1,0.9-2.2,0.7-3.5c0.1,0,0.1,0,0.2,0c7.8,0,14.3-6.5,14.6-6.8c0,0,0.1-0.1,0.1-0.2c4.2-0.4,8.2-1.3,12-2.2
		c3.4-0.8,6.8-1.6,10.2-2c-1.7,1.5-3,4-3.8,7.6l-0.4,1.6l1.6-0.4c0.4-0.1,8.6-2.2,9.2-8.8l0-0.2c0.5,0,0.9,0.1,1.4,0.1
		c5.4,0.8,10.1,2.4,14.1,4.8c0.4,0.3,0.8,0.6,1.1,0.8l1.1,0.6c5.7,4,9.9,9.8,12.5,17.3c2.1,6,2.7,11.9,2.8,15.6
		c-3.1-1.6-10.2-6-10.7-11.4c0.5-1.4,0-4-0.1-4.5c-0.6-2.3-2.5-6-8.2-5.4l-1,0.1l0.1,1c0,0.3,1.1,8.1,7.3,9.5
		c1.2,6.7,10.1,11.7,12.6,12.9l0,0l0.1,0c0,0,0,0,0.1,0c0,1.2-0.1,1.9-0.1,1.9C249.4,352.5,249.8,353,250.3,353z M258.5,341.5
		c0.1,0.8,0.1,1.9-0.5,3c-0.9,1.6-3,2.7-6.1,3.2C252.6,346.1,254.2,343.5,258.5,341.5z M218.1,293.4c2.1-1,4.3-0.8,5.5-0.5
		c-2.3,5.2-7.2,5.2-9.4,4.9C215.2,295.7,216.5,294.2,218.1,293.4z M202.2,290.6c-1.5-1.6-0.5-5.7,0.3-8.1c4.2,4.1,4.7,7.3,4.6,8.6
		C205.3,291.5,203.2,291.7,202.2,290.6z M149.5,279.2c2.9,0.4,4.9,1.3,5.8,2.7c0.5,0.8,0.6,1.6,0.6,2.1
		C152.9,283.8,150.6,281,149.5,279.2z M136.3,305.6c-0.1-0.8,0-1.6,0.3-2.3c0.6-1.3,1.9-2.1,2.9-2.6
		C139.7,303.4,137.6,304.9,136.3,305.6z M152.1,292.8c-1.1,0-3.4-0.1-5.1-1.6c-1.2-1-1.9-2.6-2.1-4.7c2.4,0.9,6.1,2.6,7,4.8
		C152.2,291.8,152.3,292.2,152.1,292.8z M157.8,275.5c0.6-1.3,1.9-2.3,3.7-2.8c0.3,0.4,0.8,1.2,0.7,2.3c-0.1,1.4-0.9,3.5-4.5,6.3
		C157.3,279.9,156.9,277.5,157.8,275.5z M166.8,299.3c0.1-1.4,0.7-2.7,1.9-3.9c0.7,1.2,1.7,3.4,1.4,5.7c-0.2,1.3-0.8,2.5-1.8,3.5
		C167.7,303.4,166.6,301.4,166.8,299.3z M157.5,317.3c-1.7-0.2-3.3-2.4-4.2-4.1c5.6-0.1,7,1.6,7.3,2.4
		C159.5,316.9,158.5,317.5,157.5,317.3z M170.3,322.1c-0.8,1.3-2.6,2-3.8,2.3c0.5-2.2,1.3-3.6,2.4-4.3c0.5-0.3,1.1-0.4,1.5-0.4
		c0.1,0,0.3,0,0.4,0C170.9,320.7,170.7,321.5,170.3,322.1z M197.1,306.5c-1.6-1.4-3.9-4.2-2.3-8.2
		C195.9,299.3,197.8,301.7,197.1,306.5z M208.5,314.8c0.9-2.8,2.1-4.6,3.6-5.3c0.5-0.3,1.1-0.3,1.5-0.3c0.3,0,0.5,0,0.7,0.1
		C213.6,312.3,210.5,314,208.5,314.8z M233,311.4c-1.6-1.4-3.9-4.2-2.3-8.1C231.9,304.3,233.8,306.7,233,311.4z M231.8,328.4
		c1.6,0,2.9,0.6,3.8,1.7c1.2,1.5,1.4,3.7,1.4,4.9C233.6,334,232.2,330.3,231.8,328.4z"/>
</g>
</svg>
