<?xml version="1.0" encoding="utf-8"?>
<!-- Generator: Adobe Illustrator 26.3.1, SVG Export Plug-In . SVG Version: 6.00 Build 0)  -->
<svg version="1.1" id="Layer_1" xmlns="http://www.w3.org/2000/svg" xmlns:xlink="http://www.w3.org/1999/xlink" x="0px" y="0px"
	 viewBox="0 0 56.7 56.7" style="enable-background:new 0 0 56.7 56.7;" xml:space="preserve">
<g>
	<path d="M47.6,1.4H19.4c-4.2,0-7.7,3.4-7.7,7.7v5.1c0,4.2,3.4,7.7,7.7,7.7h28.2c4.2,0,7.7-3.4,7.7-7.7V9.1
		C55.3,4.9,51.8,1.4,47.6,1.4z M47.6,13.3c0,0.5-0.4,1-1,1H20.3c-0.5,0-1-0.4-1-1v-3.2c0-0.5,0.4-1,1-1h26.3c0.5,0,1,0.4,1,1V13.3z"
		/>
	<path d="M19.4,24.5H9.1V1.4H1.4v30.8h25.6C27.1,27.9,23.6,24.5,19.4,24.5z"/>
	<path d="M11.7,42.5h7.7v4.2c0,0.5-0.4,1-1,1h-8.3c-0.5,0-1-0.4-1-1V34.8H1.4v12.8c0,4.2,3.4,7.7,7.7,7.7h10.3
		c4.2,0,7.7-3.4,7.7-7.7V34.8H11.7V42.5z"/>
	<path d="M47.6,24.5H37.3c-4.2,0-7.7,3.4-7.7,7.7v15.4c0,4.2,3.4,7.7,7.7,7.7h10.3c4.2,0,7.7-3.4,7.7-7.7V32.2
		C55.3,27.9,51.8,24.5,47.6,24.5z M47.6,46.6c0,0.5-0.4,1-1,1h-8.3c-0.5,0-1-0.4-1-1V33.2c0-0.5,0.4-1,1-1h8.3c0.5,0,1,0.4,1,1V46.6
		z"/>
</g>
</svg>
