<?xml version="1.0" encoding="utf-8"?>
<!-- Generator: Adobe Illustrator 26.3.1, SVG Export Plug-In . SVG Version: 6.00 Build 0)  -->
<svg version="1.1" id="Layer_1" xmlns="http://www.w3.org/2000/svg" xmlns:xlink="http://www.w3.org/1999/xlink" x="0px" y="0px"
	 viewBox="0 0 425.2 425.2" style="enable-background:new 0 0 425.2 425.2;" xml:space="preserve">
<style type="text/css">
	.st0{fill:#0098FF;}
</style>
<path class="st0" d="M212.6,0C95.2,0,0,95.2,0,212.6s95.2,212.6,212.6,212.6S425.2,330,425.2,212.6S330,0,212.6,0z M212.6,388.2
	c-97,0-175.6-78.6-175.6-175.6S115.6,37,212.6,37s175.6,78.6,175.6,175.6S309.6,388.2,212.6,388.2z M303.8,166.4
	c0-38.3-31.1-69.4-69.4-69.4h-44.1l23.8,34.9h20.3c19.1,0,34.6,15.5,34.6,34.6c0,17.2-12.5,31.3-28.9,34L193.4,132l-23.9-35h-43.6
	v214.8h34.9V142.7l39.7,58.3h-21.6v34.9h45.4l52.5,77h39.8l-56.1-82.2C285.9,220.3,303.8,195.5,303.8,166.4z"/>
</svg>
