<?xml version="1.0" encoding="utf-8"?>
<!-- Generator: Adobe Illustrator 26.3.1, SVG Export Plug-In . SVG Version: 6.00 Build 0)  -->
<svg version="1.1" id="Layer_1" xmlns="http://www.w3.org/2000/svg" xmlns:xlink="http://www.w3.org/1999/xlink" x="0px" y="0px"
	 viewBox="0 0 56.7 56.7" style="enable-background:new 0 0 56.7 56.7;" xml:space="preserve">
<style type="text/css">
	.st0{fill:#FFFFFF;}
</style>
<path id="XMLID_14_" class="st0" d="M19.4,48.6l2.1,6.6h-1.4l-1.2-4l-1.2,4h-1.4l2.1-6.6H19.4z M16.4,31.1h-2.5V45h2.5V31.1z
	 M8,52.2l1.8,3.1H8.3l-1.9-3.5v3.5H5v-6.6v0l2.3,0c0.9,0,1.7,0.7,1.7,1.7v0.4C9,51.3,8.6,51.9,8,52.2z M7.7,50.3
	c0-0.2-0.2-0.4-0.4-0.4h-1v1h1c0.2,0,0.4-0.2,0.4-0.4V50.3z M22.8,45h2.5V31.1h-2.5V45z M37.4,13.2c-0.7,0-1.3,0.6-1.3,1.3
	c0,0.7,0.6,1.3,1.3,1.3c0.7,0,1.3-0.6,1.3-1.3C38.7,13.8,38.1,13.2,37.4,13.2z M47.7,28.4V11c0-2.6-1-5-2.8-6.8
	c-2.2-2.2-5.6-3.1-8.8-2.4l-3,0.6l-3.9-0.8c-1.9-0.4-3.7,0.3-4.8,1.8c-0.6,0.8-0.9,1.8-0.9,2.8v2C13.2,8.8,5,17.4,5,27.9v0.7V45h2.5
	V28.6h0l16-11l17.1,11l0,16.4h2.5V27.2L23.4,14.5L7.7,25.4c1.2-8.3,8.4-14.7,17.1-14.7h1.3V6.1c0-0.5,0.1-0.9,0.4-1.3
	c0.5-0.7,1.4-1,2.3-0.8l4.4,0.9l3.5-0.7C39,3.7,41.5,4.3,43.1,6c1.3,1.3,2.1,3.1,2.1,5v17.5c0,3.6,2.9,6.5,6.5,6.5v-2.5
	C49.5,32.4,47.7,30.6,47.7,28.4z M43.1,48.6h-3.4V50h1.8l-1.8,4.1l0,1.2h3.4V54h-1.8l1.8-4.2L43.1,48.6z M30.5,51.1L30.5,51.1
	c-0.3-0.1-0.7-0.3-0.7-0.6c0-0.3,0.3-0.6,0.6-0.6c0.1,0,0.3,0.1,0.4,0.1c0.1,0.1,0.1,0.1,0.1,0.2l0.1,0.2l1.2-0.5L32,49.8
	c-0.1-0.2-0.3-0.4-0.4-0.6c-0.3-0.3-0.8-0.5-1.3-0.5c-1,0-1.9,0.8-1.9,1.9c0,0.9,0.6,1.6,1.7,1.9c0.9,0.2,0.9,0.6,0.9,0.8
	c0,0.4-0.4,0.8-0.8,0.8c-0.3,0-0.6-0.2-0.7-0.5c-0.1-0.2-0.1-0.4-0.1-0.4l-1.3,0.3c0,0,0,0.3,0.2,0.6c0.3,0.7,1.1,1.2,1.9,1.2
	c1.2,0,2.1-0.9,2.1-2.1C32.4,52.6,32.2,51.5,30.5,51.1z M32.4,37.6L29.5,45h2.7l2.6-6.9v-6.9h-2.5V37.6z"/>
</svg>
