<?xml version="1.0" encoding="utf-8"?>
<!-- Generator: Adobe Illustrator 26.3.1, SVG Export Plug-In . SVG Version: 6.00 Build 0)  -->
<svg version="1.1" id="Layer_1" xmlns="http://www.w3.org/2000/svg" xmlns:xlink="http://www.w3.org/1999/xlink" x="0px" y="0px"
	 viewBox="0 0 56.7 56.7" style="enable-background:new 0 0 56.7 56.7;" xml:space="preserve">
<path d="M13,22.8l7.5-2v23.7h-6.3v7.3H13V22.8z M1.4,51.9h1.1v-7.3h6.3V24l-7.5,2V51.9z M36.2,51.9h1.1v-7.3h6.3V14.5l-7.5,2V51.9z
	 M24.6,51.9h1.1v-7.3h6.3V17.6l-7.5,2V51.9z M47.8,13.3v7.8h7.5v-9.8L47.8,13.3z M16.7,6.3L8.9,4.8v15.5l7.8-2.1V6.3z M28.3,8.3
	l-7.9-1.4v10.3l7.9-2.1V8.3z M32,9v5.1l11.4-3.1L32,9z"/>
</svg>
