<svg version="1.1" id="Layer_1" xmlns="http://www.w3.org/2000/svg" x="0" y="0" viewBox="0 0 566.9 566.9" style="enable-background:new 0 0 566.9 566.9" xml:space="preserve"><style>.st0,.st1{opacity:.23;enable-background:new}.st1{opacity:.49}</style><path class="st0" d="M304.5 441.8v88.3l248.3-211.7v-87z"/><path d="m490.5 274.8 59.9-50.7-110.7-73.6L311 427zM377.6 108.7 268.2 36.8 28.6 237.7l133.6-49.4z"/><path class="st0" d="m152.5 249.2 38.7 25.8 15.8-5.9v-39.8c0-.1.1-.2.1-.3 0-.2.1-.3.1-.5.1-.1.1-.3.2-.4.1-.2.2-.3.3-.4.1-.1.2-.2.3-.4.1-.1.2-.2.4-.3.1-.1.2-.2.4-.3.1 0 .1-.1.2-.1s.2-.1.3-.1.1-.1.2-.1L352 174.3h.1c.3-.1.6-.2.9-.2h.2c.3 0 .6 0 .9.1h.2c.3.1.6.2.8.3 0 0 .1 0 .1.1.3.2.5.4.7.6l.1.1v.1c.2.2.4.5.5.8 0 0 0 .1.1.1l.3.9v36.5l25.2-9.4v-89.4L197 183.1 14.2 250.6v90.1l47-17.5V282c0-.1 0-.2.1-.3 0-.2.1-.3.1-.5.1-.1.1-.3.2-.4.1-.2.2-.3.3-.4s.2-.2.3-.4c.1-.1.2-.2.4-.3.1-.1.2-.2.4-.3.1 0 .1-.1.2-.1s.2-.1.3-.1.2-.1.2-.1l85.8-30.4c.9-.3 2-.2 3 .5z"/><path d="m207 276.7-8.5 3.1 8.5 5.7z"/><path class="st0" d="m317.9 261.7-12.7 27.5v81.1l44.3-97.2v-79.4z"/><path d="m218.5 230.6 76.2 49.1 5.4 3.5 46.1-99.3z"/><path class="st1" d="M214.1 236.2v54l67 44.7c.1 0 .1.1.2.1.1.1.2.1.3.2l.2.2c.1.1.1.2.2.2.1.1.1.2.2.2.1.1.1.2.2.3 0 .1.1.2.1.3 0 .1.1.2.1.3 0 .1.1.2.1.3 0 .1 0 .2.1.3v32.3L298 380v-89.7l-12.9-8.3-71-45.8z"/><path class="st0" d="M253 404v81.1l22.6-51.6v-79.2l-8 17.8z"/><path d="m150 256.1-77.3 27.3 47.9 31.3L248 398l26.7-58.8z"/><path class="st1" d="M68.3 289.1v89.1l177.6 117.4v-90.4l-63.5-41.6z"/></svg>