<?xml version="1.0" encoding="utf-8"?>
<!-- Generator: Adobe Illustrator 26.3.1, SVG Export Plug-In . SVG Version: 6.00 Build 0)  -->
<svg version="1.1" id="Layer_1" xmlns="http://www.w3.org/2000/svg" xmlns:xlink="http://www.w3.org/1999/xlink" x="0px" y="0px"
	 viewBox="0 0 566.9 566.9" style="enable-background:new 0 0 566.9 566.9;" xml:space="preserve">
<style type="text/css">
	.st0{opacity:0.23;enable-background:new    ;}
	.st1{opacity:0.49;enable-background:new    ;}
</style>
<polygon class="st0" points="304.5,441.8 304.5,530.1 552.8,318.4 552.8,231.4 "/>
<polygon points="490.5,274.8 550.4,224.1 439.7,150.5 311,427 "/>
<polygon points="377.6,108.7 268.2,36.8 28.6,237.7 162.2,188.3 "/>
<path class="st0" d="M152.5,249.2l38.7,25.8l15.8-5.9v-39.4c0-0.1,0-0.1,0-0.2c0-0.1,0-0.1,0-0.2c0-0.1,0.1-0.2,0.1-0.3
	c0-0.2,0.1-0.3,0.1-0.5c0.1-0.1,0.1-0.3,0.2-0.4c0.1-0.2,0.2-0.3,0.3-0.4c0.1-0.1,0.2-0.2,0.3-0.4c0.1-0.1,0.2-0.2,0.4-0.3
	c0.1-0.1,0.2-0.2,0.4-0.3c0.1,0,0.1-0.1,0.2-0.1c0.1,0,0.2-0.1,0.3-0.1s0.1-0.1,0.2-0.1L352,174.3c0,0,0,0,0.1,0
	c0.3-0.1,0.6-0.2,0.9-0.2c0.1,0,0.1,0,0.2,0c0.3,0,0.6,0,0.9,0.1c0,0,0,0,0.1,0h0.1c0.3,0.1,0.6,0.2,0.8,0.3c0,0,0.1,0,0.1,0.1
	c0.3,0.2,0.5,0.4,0.7,0.6c0,0,0,0,0.1,0.1c0,0,0,0,0,0.1c0.2,0.2,0.4,0.5,0.5,0.8c0,0,0,0.1,0.1,0.1c0.1,0.3,0.2,0.6,0.3,0.9v0.1
	c0,0.2,0,0.3,0,0.5v35.9l25.2-9.4v-89.4L197,183.1L14.2,250.6v90.1l47-17.5v-40.8c0-0.1,0-0.1,0-0.2s0-0.1,0-0.2s0-0.2,0.1-0.3
	c0-0.2,0.1-0.3,0.1-0.5c0.1-0.1,0.1-0.3,0.2-0.4c0.1-0.2,0.2-0.3,0.3-0.4s0.2-0.2,0.3-0.4c0.1-0.1,0.2-0.2,0.4-0.3
	c0.1-0.1,0.2-0.2,0.4-0.3c0.1,0,0.1-0.1,0.2-0.1c0.1,0,0.2-0.1,0.3-0.1s0.2-0.1,0.2-0.1l85.8-30.4
	C150.4,248.4,151.5,248.5,152.5,249.2z"/>
<polygon points="207,276.7 198.5,279.8 207,285.5 "/>
<polygon class="st0" points="317.9,261.7 305.2,289.2 305.2,370.3 349.5,273.1 349.5,193.7 "/>
<polygon points="218.5,230.6 294.7,279.7 300.1,283.2 346.2,183.9 "/>
<path class="st1" d="M214.1,236.2v54l67,44.7c0.1,0,0.1,0.1,0.2,0.1c0.1,0.1,0.2,0.1,0.3,0.2c0.1,0.1,0.1,0.1,0.2,0.2
	s0.1,0.2,0.2,0.2c0.1,0.1,0.1,0.2,0.2,0.2c0.1,0.1,0.1,0.2,0.2,0.3c0,0.1,0.1,0.2,0.1,0.3c0,0.1,0.1,0.2,0.1,0.3
	c0,0.1,0.1,0.2,0.1,0.3c0,0.1,0,0.2,0.1,0.3c0,0.1,0,0.2,0,0.3c0,0.1,0,0.1,0,0.2v31.8L298,380v-89.7l-12.9-8.3L214.1,236.2z"/>
<polygon class="st0" points="253,404 253,485.1 275.6,433.5 275.6,354.3 267.6,372.1 "/>
<polygon points="150,256.1 72.7,283.4 120.6,314.7 248,398 274.7,339.2 "/>
<polygon class="st1" points="68.3,289.1 68.3,378.2 245.9,495.6 245.9,405.2 182.4,363.6 "/>
</svg>
