<?xml version="1.0" encoding="utf-8"?>
<!-- Generator: Adobe Illustrator 28.0.0, SVG Export Plug-In . SVG Version: 6.00 Build 0)  -->
<svg version="1.1" id="Layer_1" xmlns="http://www.w3.org/2000/svg" xmlns:xlink="http://www.w3.org/1999/xlink" x="0px" y="0px"
	 viewBox="0 0 566.9 566.9" style="enable-background:new 0 0 566.9 566.9;" xml:space="preserve">
<g id="Layer_2_00000052087498457827552260000007752421157795725961_">
</g>
<g id="Layer_4">
</g>
<g id="Layer_3">
	<g>
		<path d="M506.4,207.8c-14.3-9.1-41.9-22.8-91.9-36.8l7.6-32.1l-2.6-0.6l-89.2,305.9l79.5-308.3l9.7,2.3l29.3-123.4L442.5,0
			l-32.2,136l-9.3-2.2L432.6,0l-21.1,12L395.7,0L366,125.6l-2.6-0.6l-7.6,32.1c-52.2-10.4-83.6-10.5-100.8-8.7
			c-10.1,1-18.5,8.3-20.8,18.2L193.1,340c-8.9,37.6,8.4,78.2,31.2,112.5c27.4,2.4,11.4,31.9,36.8,31c34.8-1.2,12.4,26.8,51.5,45.8
			c40.9-12.5,146.3-51.3,163.1-122.4l41.1-173.5C519.2,223.5,515,213.3,506.4,207.8z M239.4,257.7L239.4,257.7L239.4,257.7
			c32.3-20,74.7-9.9,94.7,22.4l0,0l0,0C301.8,300,259.4,290,239.4,257.7z M480.5,313.1c-32.3,20-74.7,9.9-94.7-22.4l0,0l0,0
			C418.1,270.7,460.5,280.7,480.5,313.1L480.5,313.1L480.5,313.1z"/>
		<path d="M83,506.9c0-1.6-1.3-2.9-2.9-2.9s-2.9,1.3-2.9,2.9s1.3,2.9,2.9,2.9S83,508.5,83,506.9z"/>
		<path d="M55.3,507.2c0-0.3,0-0.5-0.1-0.7c0.9-0.5,1.4-1.4,1.4-2.5c0-1-0.5-1.8-1.2-2.4c0.4-0.5,0.7-1.2,0.7-1.9
			c0-1.2-0.7-2.1-1.6-2.6c0.2-0.4,0.4-0.9,0.4-1.4c0-1.6-1.3-2.9-2.9-2.9c-0.3,0-0.5,0-0.8,0.1c-0.3-0.6-0.7-1.1-1.3-1.4
			c1.4-0.2,2.5-1.4,2.5-2.9c0-1.6-1.3-2.9-2.9-2.9c-1.6,0-2.9,1.3-2.9,2.9c0,1.1,0.6,2.1,1.5,2.6c-0.2,0-0.3,0.1-0.4,0.1
			c-0.5-1-1.5-1.6-2.6-1.6c-1.6,0-2.9,1.3-2.9,2.9s1.3,2.9,2.9,2.9c0.3,0,0.6-0.1,0.9-0.1c0.5,1,1.5,1.6,2.6,1.6
			c0.3,0,0.5,0,0.8-0.1c0.3,0.6,0.8,1.1,1.4,1.4c-0.2,0.3-0.3,0.7-0.4,1.1c-1.6,0-2.9,1.3-2.9,2.9c0,0.1,0,0.2,0,0.3
			c-0.5-0.7-1.4-1.2-2.3-1.3c0.5-0.5,0.7-1.2,0.7-1.9c0-1.6-1.3-2.9-2.9-2.9s-2.9,1.3-2.9,2.9c0,0.3,0,0.5,0.1,0.7
			c-0.9,0.5-1.4,1.4-1.4,2.5c0,1,0.5,1.8,1.2,2.4c-0.4,0.5-0.7,1.2-0.7,1.9c0,1.6,1.3,2.9,2.9,2.9c1.5,0,2.7-1.2,2.9-2.6
			c1.6,0,2.9-1.3,2.9-2.9c0-0.1,0-0.2,0-0.3c0.5,0.7,1.4,1.2,2.3,1.3c-0.5,0.5-0.7,1.2-0.7,1.9c0,1.6,1.3,2.9,2.9,2.9
			C54,510.1,55.3,508.8,55.3,507.2z"/>
		<path d="M33.3,504.3c-1.6,0-2.9,1.3-2.9,2.9s1.3,2.9,2.9,2.9c1.6,0,2.9-1.3,2.9-2.9C36.3,505.6,34.9,504.3,33.3,504.3z"/>
		<path d="M14.3,504.3c-1.6,0-2.9,1.3-2.9,2.9s1.3,2.9,2.9,2.9s2.9-1.3,2.9-2.9C17.2,505.6,15.9,504.3,14.3,504.3z"/>
		<path d="M68.2,499.7c0-1.6-1.3-2.9-2.9-2.9c-0.5,0-0.9,0.1-1.3,0.3l0,0c0-1.6-1.3-2.9-2.9-2.9c-1.2,0-2.1,0.7-2.6,1.6
			c-1.2,0.4-2.1,1.5-2.1,2.8c0,1.2,0.7,2.1,1.6,2.6c-0.2,0.4-0.4,0.9-0.4,1.4c0,1,0.5,1.8,1.2,2.4c-0.4,0.5-0.7,1.2-0.7,1.9
			c0,1.6,1.3,2.9,2.9,2.9c1.5,0,2.7-1.2,2.9-2.6c1.6,0,2.9-1.3,2.9-2.9c0-0.7-0.2-1.3-0.6-1.8C67.4,502.1,68.2,501,68.2,499.7z"/>
		<path d="M72.7,506.9c1,0,1.9-0.5,2.4-1.3l0,0c1.6,0,2.9-1.3,2.9-2.9c0-0.4-0.1-0.8-0.3-1.2c0.2,0,0.3,0.1,0.5,0.1
			c1.6,0,2.9-1.3,2.9-2.9c0-1.1-0.6-2.1-1.6-2.6c-0.3-1.2-1.5-2.1-2.8-2.1c-1.6,0-2.9,1.3-2.9,2.9c0,1.1,0.6,2.1,1.6,2.6
			c0,0.1,0.1,0.3,0.1,0.4c-0.2,0-0.3-0.1-0.5-0.1c-1,0-1.9,0.5-2.4,1.3l0,0c-1.6,0-2.9,1.3-2.9,2.9
			C69.8,505.6,71.1,506.9,72.7,506.9z"/>
		<path d="M34.1,496.8c-0.1,0-0.3,0-0.4,0c-0.1,0-0.3,0-0.4,0c-0.9,0-1.7,0.4-2.2,1.1c-0.5-0.6-1.3-1.1-2.2-1.1
			c-1.6,0-2.9,1.3-2.9,2.9c0,0.6,0.2,1.2,0.5,1.6c-0.2,0-0.3-0.1-0.5-0.1c-0.3,0-0.5,0-0.8,0.1c-0.5-1-1.5-1.7-2.7-1.7
			c-1.6,0-2.9,1.3-2.9,2.9c0,0.9,0.4,1.7,1.1,2.3c-0.7,0.5-1.1,1.4-1.1,2.3c0,1.6,1.3,2.9,2.9,2.9s2.9-1.3,2.9-2.9c0,0,0,0,0-0.1
			c0.2,0,0.3,0.1,0.5,0.1c1.6,0,2.9-1.3,2.9-2.9c0-0.6-0.2-1.2-0.5-1.6c0.2,0,0.3,0.1,0.5,0.1c0.9,0,1.7-0.4,2.2-1.1
			c0.5,0.6,1.3,1.1,2.2,1.1c0.1,0,0.3,0,0.4,0c0.1,0,0.3,0,0.4,0c1.6,0,2.9-1.3,2.9-2.9S35.7,496.8,34.1,496.8z"/>
		<path d="M70.9,498.6c1.6,0,2.9-1.3,2.9-2.9c0-0.5-0.1-1-0.4-1.4c1.1-0.4,2-1.5,2-2.7c0-1.6-1.3-2.9-2.9-2.9s-2.9,1.3-2.9,2.9
			c0,0.2,0,0.4,0.1,0.5c-0.5-0.6-1.3-0.9-2.1-0.9c-1.6,0-2.9,1.3-2.9,2.9s1.3,2.9,2.9,2.9c0.3,0,0.5,0,0.8-0.1
			C68.7,497.9,69.7,498.6,70.9,498.6z"/>
		<path d="M100.2,476.1c1.6,0,2.9-1.3,2.9-2.9s-1.3-2.9-2.9-2.9s-2.9,1.3-2.9,2.9S98.6,476.1,100.2,476.1z"/>
		<path d="M54.8,487.2c0.1,0,0.1,0,0.2,0c-0.8,0.5-1.3,1.4-1.3,2.5c0,1.6,1.3,2.9,2.9,2.9c0.3,0,0.6-0.1,0.9-0.1
			c0.5,1,1.5,1.6,2.6,1.6c1.6,0,2.9-1.3,2.9-2.9c0-0.2,0-0.4-0.1-0.5c0.5,0.6,1.3,0.9,2.1,0.9c1.6,0,2.9-1.3,2.9-2.9
			s-1.3-2.9-2.9-2.9v-0.1c0-0.6-0.2-1.1-0.5-1.6c0.1,0,0.3,0,0.4,0c0.6,0,1.2-0.2,1.7-0.6c-0.1,0.3-0.1,0.6-0.1,0.9
			c0,1.6,1.3,2.9,2.9,2.9c0.8,0,1.5-0.3,2.1-0.8c0.5,0.3,1,0.5,1.7,0.5c1.5,0,2.7-1.1,2.9-2.6c0.4-0.5,0.6-1.1,0.6-1.7
			c0-0.2,0-0.4-0.1-0.7c0.6-0.1,1.2-0.4,1.6-0.9c0,0.1,0,0.2,0,0.3c0,1.2,0.7,2.2,1.8,2.7c-1.3,0.3-2.3,1.5-2.3,2.8
			c0,0.5,0.1,1,0.4,1.4c-1.1,0.4-2,1.5-2,2.7c0,1.6,1.3,2.9,2.9,2.9c0.5,0,0.9-0.1,1.3-0.3c0.5,1,1.5,1.7,2.7,1.7
			c0.3,0,0.6-0.1,0.9-0.1c0.4,0.8,1.2,1.4,2.1,1.6c-1.2,0.3-2.1,1.5-2.1,2.8l0,0c-1.4,0.2-2.6,1.4-2.6,2.9c0,1.6,1.3,2.9,2.9,2.9
			s2.9-1.3,2.9-2.9l0,0c1.4-0.2,2.6-1.4,2.6-2.9c0-0.4-0.1-0.8-0.3-1.2c0.2,0,0.3,0.1,0.5,0.1c1.6,0,2.9-1.3,2.9-2.9
			c0-0.5-0.1-1-0.4-1.4c0.8-0.3,1.5-0.9,1.8-1.7c0.1,0,0.3,0,0.4,0c0.3,0,0.6-0.1,0.9-0.1c0.5,1,1.5,1.6,2.6,1.6
			c1.6,0,2.9-1.3,2.9-2.9c0-0.2,0-0.4-0.1-0.5c0.5,0.6,1.3,0.9,2.1,0.9c1.6,0,2.9-1.3,2.9-2.9s-1.3-2.9-2.9-2.9c-0.1,0-0.2,0-0.3,0
			c0.2-0.4,0.4-0.9,0.4-1.4s-0.2-1-0.4-1.4c0.9-0.5,1.5-1.4,1.5-2.5c0-1.3-0.9-2.4-2-2.8c-0.5-0.4-1.2-0.7-1.9-0.7
			c-0.1,0-0.1,0-0.2,0c-0.5-0.7-1.3-1.1-2.2-1.1c-0.3,0-0.6,0.1-0.9,0.1c-0.5-1-1.5-1.6-2.6-1.6c-1.3,0-2.4,0.9-2.8,2
			c-0.2-1.4-1.4-2.4-2.9-2.4c-0.1,0-0.1,0-0.2,0c-0.4-1.1-1.5-1.9-2.7-1.9c-1.3,0-2.5,0.9-2.8,2.1c-0.5-0.8-1.4-1.3-2.4-1.3
			c-1.6,0-2.9,1.3-2.9,2.9c0,0.3,0.1,0.7,0.2,1c-0.5-0.4-1.1-0.6-1.7-0.6c-1.6,0-2.9,1.3-2.9,2.9c0,0.2,0,0.4,0.1,0.7
			c-0.2,0-0.5,0.1-0.7,0.2c0.1-0.2,0.1-0.4,0.1-0.7c0-1.6-1.3-2.9-2.9-2.9c-1.5,0-2.7,1.1-2.9,2.5c-0.5-0.4-1.1-0.7-1.8-0.7
			c-1.3,0-2.3,0.8-2.8,2c-0.3-1.2-1.5-2.1-2.8-2.1c-1.6,0-2.9,1.3-2.9,2.9c0,0.5,0.1,1,0.4,1.4c-0.5-0.6-1.3-1-2.2-1
			c-1.6,0-2.9,1.3-2.9,2.9C51.9,485.9,53.2,487.2,54.8,487.2z M68,481.6c0.1,0.1,0.2,0.1,0.3,0.2c-0.1,0.1-0.3,0.1-0.4,0.2
			C67.9,481.9,68,481.7,68,481.6z M79.1,479.5c0-0.1,0-0.2,0-0.3c0-0.3-0.1-0.7-0.2-1c0.4,0.3,0.8,0.5,1.3,0.5
			C79.8,478.9,79.4,479.1,79.1,479.5z M93.5,487c0-0.1,0-0.2,0-0.3c1-0.5,1.7-1.5,1.7-2.7c0-0.1,0-0.3,0-0.4c0.3,0.1,0.7,0.2,1,0.2
			c0.4,0,0.8-0.1,1.2-0.3c-0.1,0.2-0.1,0.4-0.1,0.7c0,0.3,0.1,0.6,0.1,0.8c-0.4,0.5-0.7,1.1-0.7,1.9c0,0.3,0.1,0.6,0.1,0.9
			c-0.5-0.7-1.4-1.1-2.3-1.1C94.2,486.7,93.8,486.8,93.5,487z M83.5,476.6c0.5,0.8,1.4,1.3,2.4,1.3c0.1,0,0.1,0,0.2,0
			c0.4,1.1,1.5,1.9,2.7,1.9c1.3,0,2.4-0.9,2.8-2c0.2,1.1,0.9,1.9,1.9,2.2c-0.1,0.3-0.2,0.6-0.2,1c0,0.1,0,0.3,0,0.4
			c-0.3-0.1-0.7-0.2-1-0.2c-0.4,0-0.7,0.1-1,0.2c-0.5-0.9-1.5-1.6-2.6-1.6c-1.6,0-2.9,1.3-2.9,2.9c0,1.3,0.9,2.4,2,2.8
			c-0.1,0.3-0.1,0.5-0.1,0.8c0,1.4,0.9,2.5,2.2,2.8c-0.8,0.5-1.3,1.4-1.3,2.4c0,0.2,0,0.4,0.1,0.5c-0.5-0.6-1.3-0.9-2.1-0.9
			c-0.3,0-0.6,0.1-0.9,0.1c0,0,0-0.1-0.1-0.1c0.9-0.5,1.5-1.4,1.5-2.5c0-1.6-1.3-2.9-2.9-2.9c-0.3,0-0.5,0-0.8,0.1
			c-0.3-0.7-0.8-1.2-1.5-1.5c1.3-0.3,2.3-1.5,2.3-2.8c0-1.5-1.1-2.7-2.5-2.9C82.5,478.3,83.2,477.5,83.5,476.6z M61.9,482.7
			c0.2-0.2,0.3-0.5,0.4-0.8c0.1,0.3,0.2,0.6,0.4,0.8c-0.1,0-0.3,0-0.4,0C62.1,482.7,62,482.7,61.9,482.7z M57.7,484.3
			c0-0.5-0.1-1-0.4-1.4c0.5,0.6,1.3,1,2.2,1c0.1,0,0.2,0,0.4,0c-0.3,0.4-0.5,0.9-0.6,1.4c-0.4,0.5-0.6,1.1-0.6,1.7
			c0,0.3,0.1,0.6,0.1,0.9c-0.5-0.7-1.4-1.1-2.3-1.1c-0.1,0-0.1,0-0.2,0C57.2,486.2,57.7,485.3,57.7,484.3z"/>
		<circle cx="38.4" cy="492.9" r="2.9"/>
		<path d="M91.5,474.3c1.6,0,2.9-1.3,2.9-2.9s-1.3-2.9-2.9-2.9s-2.9,1.3-2.9,2.9S89.9,474.3,91.5,474.3z"/>
		<path d="M179.3,527.7c-2,0-3.6,1.6-3.6,3.6s1.6,3.6,3.6,3.6s3.6-1.6,3.6-3.6C182.9,529.3,181.3,527.7,179.3,527.7z"/>
		<path d="M146.1,526.8c-0.7,0-1.4,0.2-2,0.6c0-0.2,0.1-0.4,0.1-0.6c0-2-1.6-3.6-3.6-3.6s-3.6,1.6-3.6,3.6s1.6,3.6,3.6,3.6
			c0.7,0,1.4-0.2,2-0.6c0,0.2-0.1,0.4-0.1,0.6c0,2,1.6,3.6,3.6,3.6s3.6-1.6,3.6-3.6C149.7,528.4,148.1,526.8,146.1,526.8z"/>
		<path d="M126.4,526.8c-2,0-3.6,1.6-3.6,3.6s1.6,3.6,3.6,3.6c2,0,3.6-1.6,3.6-3.6C130,528.4,128.4,526.8,126.4,526.8z"/>
		<circle cx="69" cy="530.7" r="3.6"/>
		<circle cx="45.7" cy="530.7" r="3.6"/>
		<path d="M123.9,525.2c0-0.5-0.1-1-0.3-1.5c0.2,0,0.4,0.1,0.6,0.1c2,0,3.6-1.6,3.6-3.6c0-1.4-0.8-2.5-1.9-3.2
			c-0.4-1.5-1.8-2.6-3.4-2.6c-2,0-3.6,1.6-3.6,3.6c0,1.4,0.8,2.5,1.9,3.2c0,0.2,0.1,0.3,0.2,0.5c-0.2,0-0.4-0.1-0.6-0.1
			c-1.2,0-2.3,0.6-3,1.6l0,0c-2,0-3.6,1.6-3.6,3.6s1.6,3.6,3.6,3.6c1.2,0,2.3-0.6,3-1.6l0,0C122.3,528.8,123.9,527.2,123.9,525.2z"
			/>
		<path d="M108.2,518c-0.6,0-1.1,0.1-1.6,0.4l0,0c0-2-1.6-3.6-3.6-3.6c-1.4,0-2.6,0.8-3.2,2c-1.5,0.5-2.5,1.8-2.5,3.4
			c0,1.4,0.8,2.6,2,3.2c-0.3,0.5-0.5,1.1-0.5,1.7c0,1.2,0.6,2.3,1.5,2.9c-0.5,0.6-0.9,1.4-0.9,2.3c0,2,1.6,3.6,3.6,3.6
			c1.9,0,3.4-1.4,3.6-3.2c2,0,3.6-1.6,3.6-3.6c0-0.8-0.3-1.6-0.8-2.2c1.4-0.5,2.3-1.8,2.3-3.4C111.8,519.6,110.1,518,108.2,518z"/>
		<path d="M163.9,523.2c-0.3,0-0.6,0.1-0.9,0.1c-0.6-1.2-1.8-2.1-3.3-2.1c-2,0-3.6,1.6-3.6,3.6s1.6,3.6,3.6,3.6
			c0.3,0,0.6-0.1,0.9-0.1c0.6,1.2,1.8,2.1,3.3,2.1c2,0,3.6-1.6,3.6-3.6S165.9,523.2,163.9,523.2z"/>
		<path d="M115.1,520.2c2,0,3.6-1.6,3.6-3.6c0-0.6-0.2-1.2-0.5-1.7c1.4-0.5,2.4-1.8,2.4-3.4c0-2-1.6-3.6-3.6-3.6s-3.6,1.6-3.6,3.6
			c0,0.2,0,0.4,0.1,0.7c-0.7-0.7-1.6-1.2-2.6-1.2c-2,0-3.6,1.6-3.6,3.6s1.6,3.6,3.6,3.6c0.3,0,0.6-0.1,0.9-0.1
			C112.4,519.3,113.6,520.2,115.1,520.2z"/>
		<circle cx="75.2" cy="513.2" r="3.6"/>
		<path d="M290.1,522.3c-0.4,0-0.7,0.1-1.1,0.2c-0.2-0.5-0.6-0.9-1-1.2c0.7-0.7,1.2-1.6,1.2-2.6c0-2-1.6-3.6-3.6-3.6
			c-0.9,0-1.6,0.3-2.2,0.8c-0.1-1.2-0.9-2.2-1.9-2.7c-0.4-1.5-1.8-2.6-3.4-2.6c-2,0-3.6,1.6-3.6,3.6c0,1.4,0.8,2.5,1.9,3.2
			c0,0.2,0.1,0.3,0.2,0.5c-0.2,0-0.4-0.1-0.6-0.1c-1.2,0-2.3,0.6-3,1.6l0,0c-0.1,0-0.3,0-0.4,0c0.3-0.5,0.5-1.1,0.5-1.7
			c0-0.6-0.2-1.3-0.5-1.8c1.1-0.6,1.8-1.8,1.8-3.1c0-1-0.5-2-1.2-2.6c0.4,0.1,0.8,0.2,1.2,0.2c2,0,3.6-1.6,3.6-3.6s-1.6-3.6-3.6-3.6
			c-1.2,0-2.2,0.6-2.9,1.5c0.1-0.3,0.2-0.7,0.2-1c0-2-1.6-3.6-3.6-3.6c-1.3,0-2.4,0.6-3,1.6c-0.6-0.5-1.4-0.8-2.3-0.8
			c-0.2,0-0.4,0-0.6,0.1c-0.6-0.9-1.5-1.5-2.7-1.6c-0.6-1.3-1.8-2.1-3.3-2.1c-0.2,0-0.3,0-0.5,0c-0.7-0.7-1.6-1.2-2.7-1.2
			c-1.1,0-2.1,0.5-2.7,1.3c-0.2-1.8-1.7-3.2-3.5-3.2c-1.5,0-2.8,1-3.4,2.3c0-0.7-0.3-1.3-0.6-1.9c0.7-0.7,1.2-1.6,1.2-2.6
			c0-2-1.6-3.6-3.6-3.6c-0.2,0-0.3,0-0.5,0.1c0-0.2,0.1-0.3,0.1-0.5c0-2-1.6-3.6-3.6-3.6c-1.3,0-2.4,0.6-3,1.6c-0.6-1-1.7-1.6-3-1.6
			c-0.4,0-0.8,0.1-1.2,0.2c0.8-0.7,1.4-1.7,1.4-2.8c0-2-1.6-3.6-3.6-3.6c-1,0-2,0.4-2.6,1.2c-0.1-0.1-0.3-0.2-0.4-0.3
			c1.1-0.6,1.9-1.8,1.9-3.2c0-2-1.6-3.6-3.6-3.6c-1.3,0-2.4,0.7-3,1.7c-0.2-0.1-0.3-0.1-0.5-0.2c0.9-0.7,1.5-1.7,1.5-2.9
			c0-2-1.6-3.6-3.6-3.6s-3.6,1.6-3.6,3.6c0,0.1,0,0.2,0,0.2c-0.1-0.2-0.3-0.5-0.5-0.7c0.6-0.6,1-1.5,1-2.5c0-2-1.6-3.6-3.6-3.6
			c-1.5,0-2.8,1-3.3,2.3c-0.6-1.1-1.8-1.9-3.1-1.9c-2,0-3.6,1.6-3.6,3.6s1.6,3.6,3.6,3.6c0.2,0,0.3,0,0.5,0c-0.4,0.3-0.7,0.7-1,1.1
			c-0.6-1.1-1.8-1.8-3.1-1.8c-0.4,0-0.8,0.1-1.1,0.2c-0.5-1.4-1.8-2.4-3.4-2.4c-2,0-3.6,1.6-3.6,3.6c0,0.5,0.1,0.9,0.2,1.3
			c-0.5-0.3-1.1-0.4-1.7-0.4c-0.1,0-0.1,0-0.2,0c-0.1-1.9-1.7-3.4-3.6-3.4c-2,0-3.6,1.6-3.6,3.6c0,0.2,0,0.5,0.1,0.7
			c-0.6-0.5-1.4-0.8-2.3-0.8c-1.8,0-3.3,1.4-3.5,3.2c-0.6,0.4-1,1-1.2,1.7c-0.3-0.3-0.5-0.5-0.9-0.7c0.5-0.5,0.7-1.2,0.7-1.9
			c0-1.6-1.3-2.9-2.9-2.9s-2.9,1.3-2.9,2.9c0,0.6,0.2,1.2,0.5,1.7c-0.3,0.3-0.6,0.7-0.8,1.1c-0.4,0-0.9,0.2-1.2,0.4
			c0.3-0.5,0.5-1,0.5-1.7c0-1.4-0.9-2.5-2.2-2.8c0.5-0.5,0.8-1.2,0.8-2c0-1.6-1.3-2.9-2.9-2.9c-1.3,0-2.4,0.9-2.8,2.1
			c-0.5-0.6-1.3-1-2.2-1c-0.7,0-1.4,0.3-1.9,0.7c0-0.3-0.1-0.6-0.2-0.9c1.6,0,2.9-1.3,2.9-2.9s-1.3-2.9-2.9-2.9
			c-1.6,0-2.9,1.3-2.9,2.9c0,0.3,0.1,0.7,0.2,1c-0.1,0-0.1,0-0.2,0c0-0.2,0-0.3,0-0.5c0-1.6-1.3-2.9-2.9-2.9c0-0.1,0-0.1,0-0.2
			c0.5-0.5,0.8-1.2,0.8-2c0-1.6-1.3-2.9-2.9-2.9c-0.8,0-1.5,0.3-2,0.8c-0.4-1.2-1.5-2-2.8-2c-1.1,0-2,0.6-2.5,1.4
			c-0.5-0.9-1.4-1.4-2.5-1.4c-1.6,0-2.9,1.3-2.9,2.9c0,1.5,1.1,2.7,2.6,2.9c0,0.1,0.1,0.2,0.2,0.3c-0.9,0.5-1.5,1.4-1.5,2.5
			c0,0.9,0.4,1.7,1,2.2c-0.3-0.1-0.6-0.2-0.9-0.2c-0.1,0-0.1,0-0.2,0c-0.3-0.4-0.7-0.7-1.2-0.9c0.6-0.5,1-1.3,1-2.2
			c0-1.6-1.3-2.9-2.9-2.9c0-1.6-1.3-2.9-2.9-2.9c-1.6,0-2.9,1.3-2.9,2.9s1.3,2.9,2.9,2.9c0,0.2,0,0.4,0.1,0.5
			c-0.7,0.1-1.3,0.3-1.7,0.8c0,0,0,0,0-0.1c0-1.6-1.3-2.9-2.9-2.9c-0.2,0-0.4,0-0.6,0.1c0.2-0.4,0.3-0.8,0.3-1.3
			c0-1.6-1.3-2.9-2.9-2.9s-2.9,1.3-2.9,2.9s1.3,2.9,2.9,2.9c0.2,0,0.4,0,0.6-0.1c-0.2,0.4-0.3,0.8-0.3,1.3c0,0.1,0,0.3,0,0.4
			c-0.5-0.7-1.4-1.2-2.3-1.2c-0.4,0-0.8,0.1-1.2,0.3c0.1-0.2,0.1-0.4,0.1-0.7c0-1.6-1.3-2.9-2.9-2.9s-2.9,1.3-2.9,2.9
			s1.3,2.9,2.9,2.9c0.4,0,0.8-0.1,1.2-0.3c-0.1,0.2-0.1,0.4-0.1,0.7c0,1.6,1.3,2.9,2.9,2.9c0,0.6,0.2,1.2,0.5,1.7
			c-0.6,0.5-0.9,1.3-0.9,2.1c0,1.5,1.1,2.7,2.5,2.9c-0.7,0.5-1.2,1.4-1.2,2.4c0,1.1,0.6,2.1,1.6,2.6c0,0.1,0.1,0.3,0.1,0.4
			c-0.2,0-0.3-0.1-0.5-0.1c-1,0-1.9,0.5-2.4,1.3l0,0c-0.1,0-0.2,0-0.3,0c0.2-0.4,0.4-0.9,0.4-1.4s-0.2-1-0.4-1.4
			c0.9-0.5,1.5-1.4,1.5-2.5c0-1.6-1.3-2.9-2.9-2.9c-0.3,0-0.5,0-0.8,0.1c-0.5-1-1.5-1.7-2.7-1.7c-0.1,0-0.1,0-0.2,0
			c0-0.2,0-0.3,0-0.5c0-1.6-1.3-2.9-2.9-2.9c0-0.1,0-0.1,0-0.2c0.5-0.5,0.8-1.2,0.8-2c0-1.6-1.3-2.9-2.9-2.9c-0.8,0-1.5,0.3-2,0.8
			c-0.4-1.2-1.5-2-2.8-2c-1.6,0-2.9,1.3-2.9,2.9c0,1,0.5,1.9,1.3,2.5c-1.2,0.3-2.2,1.5-2.2,2.8c0,1.6,1.3,2.9,2.9,2.9
			c0.3,0,0.6-0.1,0.9-0.1c0.5,1,1.5,1.6,2.6,1.6c0.4,0,0.7-0.1,1-0.2c0,0.1,0,0.2,0,0.3c-0.6,0.3-1.1,0.9-1.4,1.6
			c-0.1,0-0.3,0-0.4,0c-1.6,0-2.9,1.3-2.9,2.9s1.3,2.9,2.9,2.9c0.2,0,0.4,0,0.5-0.1c0.5,0.5,1.3,0.9,2.1,0.9c0.5,0,1-0.2,1.5-0.4
			c0.5,0.4,1.2,0.7,1.9,0.7c0.9,0,1.8-0.5,2.3-1.2c0.5,0.7,1.3,1.1,2.3,1.1c0.1,0,0.2,0,0.3,0c-0.2,0.4-0.4,0.9-0.4,1.4
			c0,0.2,0,0.4,0.1,0.5c-0.5-0.6-1.3-0.9-2.1-0.9c-1.6,0-2.9,1.3-2.9,2.9c0,0.8,0.4,1.6,0.9,2.1c-0.4-0.2-0.9-0.3-1.4-0.3
			c-0.2,0-0.5,0-0.7,0.1c0.3-0.4,0.4-0.9,0.4-1.5c0-1.6-1.3-2.9-2.9-2.9s-2.9,1.3-2.9,2.9c0,0.2,0,0.4,0.1,0.5
			c-0.5-0.6-1.3-0.9-2.1-0.9c-1.6,0-2.9,1.3-2.9,2.9c0,0.5,0.1,1,0.4,1.4c-0.5-0.3-1.2-0.5-1.8-0.5c-1,0-1.9,0.4-2.5,1
			c-0.4-0.2-0.8-0.3-1.3-0.3c-1,0-1.9,0.5-2.4,1.3c-1.2,0.4-2,1.5-2,2.8c0,0.1,0,0.2,0,0.3c-0.3,0.3-0.6,0.7-0.8,1.1
			c-0.1,0-0.3,0-0.4,0c-1.6,0-2.9,1.3-2.9,2.9c0,0.1,0,0.3,0,0.4h-0.1c-2,0-3.6,1.6-3.6,3.6c0,1.4,0.8,2.5,1.9,3.1
			c-0.2,0-0.4,0.1-0.5,0.1c-0.6-1.2-1.8-2-3.2-2c-2,0-3.6,1.6-3.6,3.6s1.6,3.6,3.6,3.6c0.4,0,0.7-0.1,1.1-0.2
			c0.1,0.1,0.1,0.3,0.2,0.4c-0.5,0.3-0.9,0.7-1.2,1.2c-0.5-0.8-1.4-1.4-2.5-1.4c-1.4,0-2.6,1-2.9,2.3c-0.6,0.6-0.9,1.4-0.9,2.3
			c-0.4-1.1-1.5-1.9-2.7-1.9c-0.5,0-1,0.1-1.4,0.4c-0.6-1-1.7-1.6-3-1.6c-0.2,0-0.3,0-0.5,0s-0.3,0-0.5,0c-1.1,0-2.1,0.5-2.8,1.3
			c-0.7-0.8-1.6-1.3-2.7-1.3c-2,0-3.6,1.6-3.6,3.6c0,0.8,0.2,1.4,0.6,2c-0.2,0-0.4-0.1-0.6-0.1c-0.3,0-0.6,0.1-0.9,0.1
			c-0.6-1.2-1.8-2.1-3.3-2.1c-2,0-3.6,1.6-3.6,3.6c0,1.1,0.5,2.1,1.4,2.8c-0.8,0.7-1.4,1.7-1.4,2.8c0,2,1.6,3.6,3.6,3.6
			s3.6-1.6,3.6-3.6c0,0,0,0,0-0.1c0.2,0,0.4,0.1,0.6,0.1c2,0,3.6-1.6,3.6-3.6c0-0.8-0.2-1.4-0.6-2c0.2,0,0.4,0.1,0.6,0.1
			c1.1,0,2.1-0.5,2.8-1.3c0.7,0.8,1.6,1.3,2.7,1.3c0.2,0,0.3,0,0.5,0s0.3,0,0.5,0c0.9,0,1.7-0.4,2.4-0.9c0.5,0.5,1.2,0.8,2,0.8
			c0.4,0,0.8-0.1,1.1-0.2c0,0.1,0,0.2,0,0.3c0,1.2,0.6,2.3,1.5,2.9c-0.5,0.6-0.9,1.4-0.9,2.3c0,2,1.6,3.6,3.6,3.6
			c1.9,0,3.4-1.4,3.6-3.2c2,0,3.6-1.6,3.6-3.6c0-0.1,0-0.2,0-0.3c0.6,0.9,1.7,1.5,2.8,1.6c-0.6,0.6-0.9,1.5-0.9,2.4
			c0,2,1.6,3.6,3.6,3.6s3.6-1.6,3.6-3.6c0-0.3-0.1-0.6-0.1-0.9c1-0.6,1.8-1.8,1.8-3.1c0-1.2-0.6-2.3-1.5-2.9
			c0.5-0.6,0.9-1.4,0.9-2.3c0-1.4-0.8-2.6-2-3.2c0.3-0.5,0.5-1.1,0.5-1.7c0-2-1.6-3.6-3.6-3.6c-0.3,0-0.6,0.1-0.9,0.1
			c-0.3-0.7-0.9-1.3-1.6-1.7c1.7-0.3,3.1-1.7,3.1-3.5c0-0.4-0.1-0.7-0.2-1.1c0.4-0.1,0.8-0.2,1.2-0.4c0,0.2,0,0.3,0,0.5
			c0,0.7,0.3,1.4,0.7,1.9c0,0.1,0,0.3,0,0.4c0,2,1.6,3.6,3.6,3.6c0.4,0,0.7-0.1,1.1-0.2c0.6,1.2,1.8,2,3.2,2c2,0,3.6-1.6,3.6-3.6
			c0-0.2,0-0.4-0.1-0.7c0.7,0.7,1.6,1.2,2.6,1.2c2,0,3.6-1.6,3.6-3.6s-1.6-3.6-3.5-3.6v-0.1c0-0.7-0.2-1.4-0.6-1.9
			c0.2,0,0.3,0.1,0.5,0.1c0.8,0,1.5-0.3,2.1-0.7c-0.1,0.3-0.2,0.7-0.2,1.1c0,2,1.6,3.6,3.6,3.6c1,0,1.9-0.4,2.5-1
			c0.6,0.4,1.3,0.6,2,0.6c1.8,0,3.3-1.4,3.5-3.2c0.4-0.6,0.7-1.3,0.7-2.1c0-0.3,0-0.5-0.1-0.8c0.8-0.1,1.5-0.5,2-1.1
			c0,0.1,0,0.2,0,0.4c0,1.5,0.9,2.7,2.2,3.3c-1.6,0.4-2.8,1.8-2.8,3.5c0,0.6,0.2,1.2,0.5,1.7c-1.4,0.5-2.4,1.8-2.4,3.4
			c0,2,1.6,3.6,3.6,3.6c0.6,0,1.1-0.1,1.5-0.4c0.6,1.3,1.8,2.1,3.3,2.1c0.4,0,0.7-0.1,1.1-0.2c0.5,1,1.4,1.7,2.5,1.9
			c-1.5,0.4-2.6,1.8-2.6,3.4l0,0c-1.8,0.2-3.1,1.7-3.1,3.5c0,2,1.6,3.6,3.6,3.6s3.6-1.6,3.6-3.6l0,0c1.8-0.2,3.1-1.7,3.1-3.5
			c0-0.5-0.1-1-0.3-1.5c0.2,0,0.4,0.1,0.6,0.1c2,0,3.6-1.6,3.6-3.6c0-0.6-0.2-1.2-0.5-1.7c1-0.4,1.8-1.1,2.2-2.1c0.2,0,0.3,0,0.5,0
			c0.4,0,0.7-0.1,1.1-0.2c0.6,1.2,1.8,2,3.2,2c2,0,3.6-1.6,3.6-3.6c0-0.2,0-0.4-0.1-0.7c0.2,0.2,0.3,0.3,0.5,0.5
			c-0.1,0.3-0.1,0.5-0.1,0.8c0,1.1,0.7,2.1,1.6,2.6c0,0.1,0,0.2,0,0.3c-0.5-0.4-1.1-0.6-1.7-0.6c-1.6,0-2.9,1.3-2.9,2.9
			c0,0.1,0,0.1,0,0.2c-0.5-0.3-1.2-0.5-1.8-0.5c-1.2,0-2.3,0.6-3,1.6c-1.4,0.5-2.5,1.8-2.5,3.4c0,2,1.6,3.6,3.6,3.6
			c1.2,0,2.3-0.6,3-1.6c0.9-0.3,1.6-0.9,2-1.7c0.6,1,1.8,1.7,3.1,1.7c2,0,3.6-1.6,3.6-3.6c0-0.7-0.2-1.3-0.5-1.9
			c0.3,0.1,0.5,0.1,0.8,0.1s0.6-0.1,0.9-0.1c0.6,1.2,1.8,2.1,3.3,2.1c1.2,0,2.3-0.6,2.9-1.5c0.3,0.2,0.6,0.3,0.9,0.4
			c0.5,0.4,1,0.7,1.7,0.9c0,0.1,0,0.2,0,0.3c0,2,1.6,3.6,3.6,3.6c0.2,0,0.4,0,0.6-0.1c0.6,0.7,1.5,1.1,2.5,1.1c2,0,3.6-1.6,3.6-3.6
			c0-1.8-1.3-3.3-3.1-3.5c0.3-0.4,0.4-0.9,0.4-1.5c0-0.1,0-0.2,0-0.2c0.5,0.3,1.1,0.5,1.7,0.5c0.4,0,0.7-0.1,1.1-0.2
			c0.6,1.2,1.8,2,3.2,2c0.3,0,0.6-0.1,0.9-0.1c0.6,1.2,1.8,2.1,3.3,2.1c2,0,3.6-1.6,3.6-3.6c0-0.6-0.2-1.2-0.5-1.7
			c0.2-0.1,0.3-0.1,0.4-0.2c0.5,0.4,1.1,0.7,1.7,0.7c-0.9,0.6-1.6,1.7-1.6,3c0,0.3,0,0.6,0.1,0.8c-0.1,0-0.2,0-0.2,0
			c-1.6,0-2.9,1.3-2.9,2.9c0,0.1,0,0.2,0,0.3c-0.7-0.8-1.6-1.2-2.7-1.2c-2,0-3.6,1.6-3.6,3.6s1.6,3.6,3.6,3.6c0.3,0,0.6-0.1,0.9-0.1
			c0.6,1.2,1.8,2.1,3.3,2.1c1.4,0,2.5-0.8,3.1-1.9c0.4,0.2,0.9,0.3,1.4,0.3c0.3,0,0.6-0.1,0.9-0.1c0.1,0.2,0.2,0.4,0.3,0.5
			c-0.1,0.4-0.2,0.8-0.2,1.2c0,2,1.6,3.6,3.6,3.6s3.6-1.6,3.6-3.6c0-0.7-0.2-1.4-0.6-2c0.1-0.4,0.2-0.8,0.2-1.2c0-1-0.4-1.9-1.1-2.6
			c0.1,0,0.1,0,0.2,0c0.4,1.1,1.5,1.8,2.7,1.8c0.6,0,1.2-0.2,1.6-0.5c0.1,0.3,0.2,0.7,0.4,0.9c-1.9,0.1-3.5,1.6-3.5,3.6
			s1.6,3.6,3.6,3.6s3.6-1.6,3.6-3.6c0-0.7-0.2-1.4-0.6-2c0.3,0,0.6-0.1,0.8-0.1c0.6,1.2,1.8,2.1,3.3,2.1c1.4,0,2.5-0.8,3.1-1.9
			c0.4,0.2,0.9,0.3,1.4,0.3c0.3,0,0.6-0.1,0.9-0.1c0.6,1.2,1.8,2.1,3.3,2.1s2.7-0.9,3.3-2.1c0.1,1.9,1.7,3.4,3.6,3.4
			c2,0,3.6-1.6,3.6-3.6c0.3,0,0.6-0.1,0.9-0.1c0.6,1.2,1.8,2.1,3.3,2.1c0.6,0,1.1-0.2,1.6-0.4c1.5-0.1,2.7-1,3.1-2.3
			c0.2,0,0.3,0,0.5,0c0.4,0,0.7-0.1,1.1-0.2c0.1,0.1,0.1,0.2,0.2,0.3c-0.6,0.6-1,1.5-1,2.5c0,2,1.6,3.6,3.6,3.6s3.6-1.6,3.6-3.6
			c0-0.5-0.1-0.9-0.3-1.3c1.4-0.3,2.5-1.4,2.8-2.7c0.2,0,0.3,0,0.5,0c0.1,0,0.2,0,0.2,0c0.1,0.2,0.2,0.3,0.3,0.5
			c-0.7,0.7-1.2,1.6-1.2,2.6c0,2,1.6,3.6,3.6,3.6c1.7,0,3.2-1.3,3.5-2.9c0.4,0.1,0.8,0.2,1.2,0.2c0.6,0,1.1-0.2,1.6-0.4
			c0.6,0,1.1-0.2,1.5-0.4c0.6,0.5,1.4,0.9,2.3,0.9c1.1,0,2-0.5,2.6-1.2c0.4,0.2,0.9,0.3,1.4,0.3c0.6,0,1.1-0.1,1.5-0.4
			c0.6,1.3,1.8,2.1,3.3,2.1c0.4,0,0.7-0.1,1.1-0.2c0.6,1.2,1.8,2,3.2,2c1.7,0,3.2-1.3,3.5-2.9c0.4,0.1,0.8,0.2,1.2,0.2
			c0.6,0,1.1-0.2,1.6-0.4c1.5-0.1,2.7-1,3.1-2.3c0.2,0,0.3,0,0.5,0c0.4,0,0.7-0.1,1.1-0.2c0.6,1.2,1.8,2,3.2,2c2,0,3.6-1.6,3.6-3.6
			S292.1,522.3,290.1,522.3z M141.3,498.8c-0.4,0-0.9,0.1-1.3,0.2c-0.6-1.1-1.8-1.9-3.2-1.9c-2,0-3.6,1.6-3.6,3.6
			c0,1.6,1.1,2.9,2.5,3.4c-0.1,0.3-0.2,0.7-0.2,1c0,1.7,1.1,3,2.7,3.5c-0.9,0.6-1.6,1.7-1.6,3c0,0.2,0,0.4,0.1,0.7
			c-0.7-0.7-1.6-1.2-2.6-1.2c-0.4,0-0.7,0.1-1.1,0.2c0-0.1-0.1-0.1-0.1-0.2c1.1-0.6,1.8-1.8,1.8-3.1c0-2-1.6-3.6-3.6-3.6
			c-0.3,0-0.6,0.1-0.9,0.1c-0.4-0.8-1-1.5-1.8-1.8c1.6-0.4,2.8-1.8,2.8-3.5c0-1.8-1.3-3.3-3.1-3.5c1.1-0.4,1.9-1.3,2.3-2.4
			c0.6,0.9,1.7,1.6,3,1.6c0.1,0,0.2,0,0.2,0c0.5,1.3,1.8,2.3,3.3,2.3c1.6,0,2.9-1,3.4-2.5c0.2,1.3,1.1,2.3,2.3,2.8
			c-0.1,0.4-0.2,0.8-0.2,1.2c0,0.2,0,0.3,0,0.5C142.2,498.9,141.8,498.8,141.3,498.8z M127.1,478.3c0.4,0.3,0.9,0.4,1.5,0.4
			c0.5,0,0.9-0.1,1.3-0.3c0,0.1,0.1,0.1,0.1,0.2c-0.5,0.2-1,0.5-1.4,1c-0.5-0.5-1.1-0.9-1.8-1C126.9,478.5,127,478.4,127.1,478.3z
			 M130.5,484.3c0.1,0,0.3,0,0.4,0c1.6,0,2.9-1.3,2.9-2.9c0-0.3-0.1-0.6-0.1-0.9c0.4,0.5,1,0.9,1.7,1.1c-1.2,0.3-2.1,1.5-2.1,2.8
			l0,0c-1.4,0.2-2.6,1.4-2.6,2.9c0,0.5,0.1,0.9,0.3,1.3c-0.5,0.4-0.9,1-1,1.7c-0.6-0.9-1.7-1.5-2.8-1.6c0.2-0.4,0.4-0.9,0.4-1.4
			c0-0.4-0.1-0.8-0.3-1.2c0.2,0,0.3,0.1,0.5,0.1C129,486.2,130.1,485.4,130.5,484.3z M142.3,480.3c0-0.1,0-0.1,0-0.2
			c0.5,0.5,1.2,0.8,2,0.8c0.3,0,0.6-0.1,0.9-0.2c-0.3,0.2-0.6,0.5-0.9,0.8c-1,0.3-1.8,1.2-2,2.3c-0.6-0.4-1.3-0.7-2.1-0.7
			c-0.5,0-0.9,0.1-1.4,0.3c0-0.1-0.1-0.2-0.1-0.3c0.2,0,0.3,0.1,0.5,0.1C141,483.3,142.3,481.9,142.3,480.3z M157.1,473.2
			c0,1.5,1.1,2.6,2.6,2.8c-0.2,0.2-0.4,0.4-0.5,0.6c-0.5-0.5-1.2-0.8-2-0.8c-0.3,0-0.6,0.1-0.9,0.2c-0.3-0.1-0.7-0.2-1.1-0.2
			c-1.6,0-2.9,1.3-2.9,2.9c0,0.6,0.2,1.1,0.4,1.5c-0.2,0-0.4-0.1-0.6-0.1c-0.7,0-1.3,0.2-1.8,0.6c-0.5-0.6-1.3-1-2.2-1
			c-0.7,0-1.2,0.2-1.7,0.6c-0.1,0-0.2,0.1-0.4,0.1c0.6-0.4,1.1-1.1,1.3-1.8c0.1,0,0.3,0,0.4,0c1.3,0,2.5-0.9,2.8-2.1
			c0.4,0,0.8-0.2,1.1-0.3c1.3-0.3,2.2-1.3,2.3-2.7c0.4,0.2,0.9,0.4,1.4,0.4C155.9,473.9,156.5,473.7,157.1,473.2z M162.8,474
			c0.4,0.4,0.9,0.7,1.4,0.9c-0.3,0.4-0.6,0.8-0.7,1.3c-0.4-0.4-1-0.7-1.6-0.8C162.3,475,162.6,474.6,162.8,474z M140.6,492.9
			c-0.1-0.7-0.4-1.3-0.9-1.8c0.4,0.3,1,0.4,1.5,0.4c0.1,0,0.1,0,0.2,0C141,491.9,140.7,492.4,140.6,492.9z M151,492.6
			c2,0,3.6-1.6,3.6-3.6c0-1.4-0.8-2.5-1.9-3.1c1.1-0.3,1.9-1.2,2-2.4c0.2,0.3,0.5,0.6,0.9,0.7c0.1,1.1,0.7,2.1,1.6,2.7
			c-1.5,0.4-2.7,1.8-2.7,3.5c0,2,1.6,3.6,3.6,3.6c0.4,0,0.7-0.1,1.1-0.2c0.6,1.2,1.8,2,3.2,2c0.4,0,0.9-0.1,1.3-0.2
			c0,0.1,0,0.2,0,0.3c-0.2,0.1-0.5,0.3-0.7,0.5c-0.4-0.2-0.8-0.3-1.3-0.3c-1.3,0-2.3,0.8-2.7,1.9c-0.1,0-0.3,0-0.4,0
			c-1.6,0-2.9,1.3-2.9,2.9c0,0.2,0,0.4,0.1,0.5c-0.3-0.3-0.7-0.6-1.1-0.7c0.9-0.7,1.4-1.7,1.4-2.8c0-1.6-1-2.9-2.5-3.4
			c-0.6-0.5-1.4-0.9-2.3-0.9c-0.1,0-0.1,0-0.2,0c-0.7-0.8-1.6-1.3-2.8-1.3c-0.4,0-0.7,0.1-1.1,0.2c-0.6-1.2-1.8-2-3.2-2
			c-0.2,0-0.3,0-0.5,0.1c0.4-0.5,0.7-1.1,0.7-1.8c0-0.4-0.1-0.8-0.2-1.2c0-0.1,0-0.2,0-0.4c0.4,0.3,1,0.4,1.5,0.4
			c1.1,0,2.1-0.7,2.6-1.6c0.2-0.1,0.3-0.2,0.5-0.3c0.4-0.1,0.8-0.3,1.2-0.5c0.2,0.2,0.3,0.3,0.5,0.5c-1.6,0.4-2.8,1.8-2.8,3.5
			C147.4,491,149,492.6,151,492.6z M174.8,506.2L174.8,506.2L174.8,506.2L174.8,506.2z M168.7,512.9c0-0.1,0-0.2-0.1-0.2
			C168.6,512.7,168.7,512.8,168.7,512.9L168.7,512.9z M171.6,507.5c-0.7,0-1.3,0.2-1.8,0.6c-0.1-0.5-0.4-1-0.8-1.4
			c0.1,0,0.1-0.1,0.2-0.1c1.1-0.1,2-0.7,2.4-1.6l0,0c0.5,0.6,1.2,1,1.9,1.2C172.7,506.3,172,506.8,171.6,507.5z M168.2,511.3
			c0,0.3,0.1,0.6,0.2,0.9c-0.1-0.3-0.3-0.5-0.5-0.7C168,511.4,168.1,511.4,168.2,511.3z M160.6,487.8c-0.1-0.1-0.3-0.2-0.5-0.4
			c0.2,0,0.4-0.1,0.5-0.2C160.6,487.4,160.6,487.6,160.6,487.8z M136.8,489.9c-0.2-0.4-0.4-0.7-0.6-1.1c0.1-0.1,0.1-0.2,0.2-0.3
			c0,0,0,0,0.1,0c0.3,0,0.6-0.1,0.8-0.1c0.3,0.6,0.8,1.1,1.4,1.5c0.1,0.2,0.2,0.4,0.4,0.6c-0.6-0.4-1.2-0.6-1.9-0.6
			C136.9,489.9,136.9,489.9,136.8,489.9z M157.6,509.9c0.4-0.6,0.6-1.2,0.6-1.9c0-0.1,0-0.2,0-0.3c1-0.5,1.7-1.5,1.7-2.6
			c0-0.2,0-0.3,0-0.5c0.2,0.1,0.4,0.2,0.7,0.3c-0.3,0.5-0.5,1-0.5,1.6c0,1,0.5,1.9,1.3,2.4c-0.2,0.2-0.5,0.5-0.6,0.8
			c-0.3,0.3-0.6,0.6-0.8,1c-0.3-0.1-0.7-0.2-1.1-0.2c-0.3,0-0.5,0-0.8,0.1C157.9,510.2,157.8,510.1,157.6,509.9z M180.9,502.8
			c-1.2,0-2.3,0.6-3,1.6l0,0c-0.1,0-0.3,0-0.4,0c0.3-0.5,0.5-1.1,0.5-1.7s-0.2-1.3-0.5-1.8c1.1-0.6,1.8-1.8,1.8-3.1
			c0-2-1.6-3.6-3.6-3.6c-0.3,0-0.6,0.1-0.9,0.1c-0.5-1.1-1.5-1.9-2.8-2.1c1.6,0,2.8-1.3,2.8-2.9s-1.3-2.9-2.9-2.9
			c-1.3,0-2.3,0.8-2.7,2c-0.4-0.2-0.9-0.3-1.5-0.3c0-0.1,0-0.1,0-0.2c0.6-0.6,0.9-1.5,0.9-2.4c0-2-1.6-3.6-3.6-3.6
			c-1,0-1.8,0.4-2.5,1c-0.2-0.6-0.6-1.2-1.1-1.6c1.4,0,2.5-1,2.8-2.2c0.5,0.5,1.2,0.8,2,0.8c0.5,0,1-0.1,1.4-0.4
			c-0.3,0.5-0.5,1-0.5,1.7c0,1.6,1.3,2.9,2.9,2.9c0.6,0,1.1-0.2,1.6-0.5c0.5,0.3,1,0.4,1.6,0.4c0.3,0.8,0.9,1.5,1.7,1.8
			c0.5,1.4,1.8,2.4,3.4,2.4c0,0.8,0.2,1.5,0.7,2.1c-0.7,0.7-1.2,1.6-1.2,2.6c0,1.8,1.3,3.3,3.1,3.5c-0.9,0.7-1.5,1.7-1.5,2.9
			c0,1.4,0.8,2.5,1.9,3.2c0,0.2,0.1,0.3,0.2,0.5C181.3,502.8,181.1,502.8,180.9,502.8z M218.4,482.8c-0.1,0-0.2,0-0.3,0
			c0-0.2,0.1-0.4,0.1-0.6c0-0.6-0.2-1.2-0.5-1.7l0,0c0.2,0,0.4,0,0.6-0.1c-0.1,0.4-0.2,0.7-0.2,1.1
			C218.2,482,218.3,482.4,218.4,482.8z M205.1,499.4c-1.4,0.5-2.5,1.8-2.5,3.4c0,0.8,0.2,1.5,0.6,2c0.1,0.2,0.2,0.4,0.4,0.5
			c-0.6-0.6-1.5-1-2.5-1c-0.6,0-1.2,0.2-1.7,0.4c-0.1-0.7-0.4-1.3-0.8-1.7c0-0.1,0-0.2,0-0.3c0-0.5-0.1-1-0.3-1.5
			c0.2,0,0.4,0.1,0.6,0.1c2,0,3.6-1.6,3.6-3.6c0-0.1,0-0.2,0-0.2c0.6,0.6,1.5,1,2.5,1c0.4,0,0.8-0.1,1.1-0.2
			C205.8,498.6,205.4,499,205.1,499.4z M198.7,511C198.7,511,198.8,511,198.7,511C198.8,511,198.7,511,198.7,511L198.7,511z
			 M203.5,486.5c-0.2-0.6-0.7-1.1-1.2-1.4c1.6-0.4,2.8-1.8,2.8-3.5c0-0.6-0.2-1.2-0.4-1.7c0.7-0.4,1.3-1,1.6-1.8
			c0.5,0,0.9-0.1,1.3-0.3c-0.1,0.3-0.1,0.5-0.1,0.8c0,0.4,0.1,0.7,0.2,1c-1.1,0.6-1.9,1.8-1.9,3.1c0,0.9,0.3,1.6,0.8,2.3
			c-0.2,0-0.3-0.1-0.5-0.1C205,485,204,485.6,203.5,486.5z M180.5,481.6c-0.1-0.1-0.2-0.1-0.3-0.2c0.1-0.1,0.2-0.1,0.3-0.2
			C180.5,481.3,180.5,481.5,180.5,481.6z M185.8,496.9c-0.6-0.7-1.3-1.1-2.2-1.3c0.1-0.1,0.3-0.2,0.4-0.3c0.5,0.3,1.1,0.5,1.8,0.5
			c0.6,0,1.1-0.1,1.5-0.4c0,0.1,0.1,0.2,0.1,0.3C186.8,495.9,186.2,496.4,185.8,496.9z M214.8,486.1c-0.5-0.3-1.1-0.4-1.7-0.4
			c-0.6,0-1.2,0.2-1.7,0.5c-0.3,0.1-0.6,0.2-0.9,0.4c-0.2,0-0.3-0.1-0.5-0.1c-0.5,0-0.9,0.1-1.3,0.3c-0.1-0.2-0.2-0.3-0.3-0.5
			c0.3,0.1,0.6,0.1,0.9,0.1c1.2,0,2.2-0.6,2.9-1.5c0.6,0.6,1.5,0.9,2.4,0.9c0.1,0,0.2,0,0.3,0C214.9,485.9,214.8,486,214.8,486.1z
			 M214.6,478.6L214.6,478.6L214.6,478.6L214.6,478.6z M196.2,490.7c0.2,0.1,0.5,0.2,0.7,0.3c0.6,0.5,1.4,0.9,2.3,0.9
			c1.4,0,2.6-0.8,3.2-2c0.3-0.3,0.6-0.6,0.8-1c0.4,1,1.3,1.7,2.5,1.8c-0.1,0.2-0.2,0.4-0.2,0.6c-0.2,0-0.3-0.1-0.5-0.1
			c-2,0-3.6,1.6-3.6,3.6c0,0.1,0,0.2,0,0.2c-0.6-0.6-1.5-1-2.5-1c-0.3,0-0.6,0.1-0.9,0.1c-0.6-1.2-1.8-2.1-3.3-2.1h-0.1
			C195.4,491.9,195.9,491.3,196.2,490.7z M212.2,498.3c-0.7-0.7-1.6-1.2-2.6-1.2c-0.8,0-1.5,0.3-2.1,0.7c-0.2,0-0.3,0.1-0.5,0.1
			c0.8-0.5,1.4-1.3,1.6-2.2c0.2,0,0.3,0.1,0.5,0.1c1.6,0,3-1.1,3.4-2.6c0.5,0,1-0.2,1.4-0.4c1.5-0.3,2.7-1.7,2.8-3.3
			c0.5,0.3,1.1,0.4,1.7,0.4c0.9,0,1.7-0.3,2.3-0.8c0,1.8,1.4,3.2,3.1,3.5c-0.2,0.2-0.5,0.4-0.7,0.7c-0.6-0.6-1.5-1-2.5-1
			c-0.4,0-0.8,0.1-1.2,0.2c-0.4-0.2-0.9-0.3-1.3-0.3c-2,0-3.6,1.6-3.6,3.6c0,0.7,0.2,1.3,0.5,1.9c-0.3-0.1-0.5-0.1-0.8-0.1
			C213.5,497.6,212.8,497.9,212.2,498.3z M227.7,490.1c0.5,0.5,1.1,0.9,1.7,1c-0.4,0.4-0.7,1-0.8,1.6c-0.5-0.5-1.2-0.8-2-0.9
			C227.1,491.3,227.5,490.7,227.7,490.1z M235.5,502c0,0.1,0,0.2,0,0.4c0,0.3,0.1,0.6,0.1,0.9c-0.5-0.7-1.4-1.1-2.3-1.1
			c-0.3,0-0.6,0.1-0.8,0.1c-0.7-0.8-1.6-1.2-2.7-1.2c-2,0-3.6,1.6-3.6,3.6c0,1,0.4,1.9,1.1,2.6c0,0.2,0.1,0.4,0.1,0.7
			c-0.1,0-0.2,0-0.2,0c-0.4,0-0.7,0.1-1.1,0.2c-0.1-0.3-0.3-0.5-0.5-0.8c-0.2-0.4-0.5-0.7-0.9-1c0.6-0.5,1.1-1.3,1.1-2.2
			c0-1.3-0.8-2.3-1.9-2.7c0-0.1,0.1-0.2,0.1-0.2c0.9-0.4,1.6-1.2,1.9-2.2c0.1,0,0.2,0,0.3,0c1.7,0,3.1-1.2,3.5-2.8
			c0.6,0.6,1.5,1,2.5,1c0.6,0,1.2-0.2,1.7-0.5c-0.4,0.6-0.6,1.3-0.6,2C233.1,500.2,234.1,501.5,235.5,502z M246.4,507.7
			c0,0.1,0.1,0.3,0.1,0.4c-0.2,0-0.3-0.1-0.5-0.1c-0.1,0-0.2,0-0.3,0c-0.6-0.6-1.4-1-2.3-1c-0.1-0.2-0.1-0.4-0.2-0.5
			c0.7-0.4,1.3-1.1,1.4-2c0.1,0,0.2,0,0.2-0.1c0,0.2-0.1,0.4-0.1,0.6C244.8,506.3,245.4,507.2,246.4,507.7z M232.7,510.7
			c0.5,0,1-0.2,1.5-0.4c0.5,0.4,1.1,0.7,1.8,0.7l0,0c0,0.1,0,0.3,0,0.4c-1.1,0-2,0.5-2.6,1.3c-0.4-0.3-1-0.4-1.5-0.4
			s-0.9,0.1-1.3,0.3h-0.1c0.1-0.4,0.2-0.8,0.2-1.2c0-0.6-0.1-1.1-0.4-1.6c0.1,0,0.2,0,0.3,0C231.2,510.3,231.9,510.7,232.7,510.7z
			 M238.3,505.3c-0.3,0-0.5,0.1-0.8,0.2c-0.4-0.2-0.9-0.4-1.3-0.4V505c0-0.3-0.1-0.6-0.1-0.9C236.6,504.9,237.4,505.3,238.3,505.3z
			 M217.4,512.4c0.1,0.1,0.1,0.2,0.2,0.3c-0.2,0.2-0.4,0.5-0.6,0.7c-0.1,0-0.3,0-0.4,0C216.9,513.1,217.2,512.8,217.4,512.4z
			 M251,512.3C251,512.3,250.9,512.3,251,512.3c-0.1-1-0.6-1.9-1.4-2.5c0.9-0.1,1.6-0.6,2.1-1.3c0.4,0.2,0.9,0.3,1.5,0.3
			c-0.6,0.5-1,1.3-1,2.2c0,0.1,0,0.1,0,0.2c-0.4,0.3-0.6,0.7-0.8,1.2C251.2,512.3,251.1,512.3,251,512.3z M240.5,500.4
			c-0.1-0.1-0.3-0.3-0.4-0.4c0,0,0,0,0-0.1c0.2,0,0.4,0,0.5-0.1C240.6,500,240.5,500.2,240.5,500.4z M222,517.9
			c0-0.2-0.1-0.3-0.1-0.5c1.1-0.2,2-1.1,2.3-2.2c0.1,0,0.3,0,0.4,0c0.1,0,0.1,0,0.2,0c0.1,0.1,0.1,0.3,0.2,0.4
			c-0.6,0.5-0.9,1.3-0.9,2.1c-0.3,0.3-0.6,0.6-0.9,0.9C222.8,518.3,222.4,518.1,222,517.9z M263.7,512.9c0.7,0.8,1.7,1.4,2.8,1.4
			h0.1c0.1,0.2,0.2,0.4,0.4,0.7c-0.2,0.1-0.3,0.3-0.4,0.5c-0.6-0.8-1.6-1.3-2.7-1.3v-0.1C263.9,513.5,263.8,513.2,263.7,512.9z
			 M282.5,522.8c-0.2,0-0.3,0-0.5,0c-0.6,0-1.1,0.2-1.6,0.4c-0.2,0-0.5,0.1-0.7,0.1c-0.1-0.3-0.3-0.5-0.4-0.7
			c0.2-0.4,0.3-0.9,0.3-1.4s-0.1-1-0.3-1.5c0.2,0,0.4,0.1,0.6,0.1c0.9,0,1.6-0.3,2.2-0.8c0.1,1,0.6,1.9,1.4,2.4
			C283,521.8,282.7,522.3,282.5,522.8z M270.9,505.6c-0.1,0.3-0.2,0.7-0.2,1c0,1,0.5,2,1.2,2.6c-0.4-0.1-0.8-0.2-1.2-0.2
			c-0.3,0-0.6,0.1-0.9,0.1c-0.5-1.2-1.7-2-3.1-2.1c0-0.1-0.1-0.2-0.1-0.3c0.4,0.2,0.9,0.3,1.4,0.3
			C269.2,507,270.2,506.5,270.9,505.6z M249.5,499.8c0.1,1.1,0.7,2,1.6,2.6c-0.1,0.1-0.1,0.1-0.2,0.2c-0.3,0.2-0.6,0.4-0.8,0.8
			c-0.5-0.7-1.3-1.1-2.3-1.1c-0.1,0-0.3,0-0.4,0c0.1-0.4,0.2-0.8,0.2-1.2V501C248.3,500.8,249,500.3,249.5,499.8z M236.8,491.2
			c0,0.2-0.1,0.3-0.1,0.5c0,0.8,0.2,1.5,0.7,2.1c-0.4,0.4-0.7,0.8-0.9,1.4c-0.5,0-1.1,0.2-1.5,0.4c0.4-0.6,0.6-1.3,0.6-2
			c0-1.7-1.1-3.1-2.7-3.5c0.1-0.1,0.3-0.3,0.4-0.4c0.6,1,1.7,1.6,3,1.6C236.5,491.2,236.7,491.2,236.8,491.2z M228.1,484.8
			c-0.6,0.4-1,1.1-1.2,1.8c-0.7-0.7-1.6-1.2-2.6-1.2c-0.9,0-1.7,0.3-2.3,0.8c0-0.4-0.1-0.8-0.2-1.1c1,0,2-0.4,2.6-1.2
			c0.7,0.7,1.6,1.1,2.6,1.1C227.3,485.1,227.7,485,228.1,484.8z M215.7,474c-0.2,0.1-0.4,0.3-0.5,0.4c-0.3-0.7-0.9-1.3-1.6-1.6
			c0-0.1,0-0.1,0-0.2s0-0.2,0-0.2C214,473.2,214.8,473.7,215.7,474z M206.9,469.3c0.2,0.3,0.3,0.5,0.6,0.8c-0.2,0.3-0.4,0.5-0.6,0.9
			c-0.2,0-0.5-0.1-0.7-0.1s-0.3,0-0.5,0C206.2,470.6,206.6,470,206.9,469.3z M196.6,475.7c0.5,1.3,1.6,2.2,3,2.3
			c0.1,0.1,0.1,0.3,0.2,0.4c-1.1,0.6-1.8,1.8-1.8,3.1c0,1.1,0.5,2,1.2,2.7c-0.2-0.1-0.5-0.1-0.7-0.2c-0.2-0.8-0.8-1.4-1.5-1.7
			c0.4-0.6,0.6-1.3,0.6-2c0-2-1.6-3.6-3.6-3.6c0-0.5-0.1-0.9-0.2-1.3c0.5,0.3,1.1,0.4,1.7,0.4C195.8,475.9,196.2,475.8,196.6,475.7z
			 M186.9,476.9c0.1,1.9,1.7,3.4,3.6,3.4c0,0.2,0,0.5,0.1,0.7c-0.5,0-1,0.2-1.5,0.5c-0.2,0-0.4-0.1-0.6-0.1c0,0,0,0-0.1,0
			c-0.2-1.8-1.7-3.1-3.5-3.1c-0.2,0-0.5,0-0.7,0.1c0.2-0.5,0.4-1,0.4-1.5c0-0.2,0-0.5-0.1-0.7c0.6,0.5,1.4,0.8,2.3,0.8
			C186.7,477,186.8,476.9,186.9,476.9z M152.3,470.5c0,0.1,0,0.2,0,0.3c-0.4-0.2-0.9-0.4-1.4-0.4s-1,0.1-1.4,0.4
			c-1.1,0.2-1.9,1-2.2,2.1c-1.3,0.1-2.3,1-2.6,2.3c-0.1,0-0.3,0-0.4,0c-1.6,0-2.9,1.3-2.9,2.9c0,0.1,0,0.1,0,0.2
			c-0.5-0.5-1.2-0.8-2-0.8c-0.3,0-0.5,0-0.8,0.1c-0.5-1-1.5-1.7-2.7-1.7h-0.1c0.5-0.3,0.9-0.7,1.2-1.2c0.2,0.1,0.4,0.2,0.6,0.3
			c0.5,0.4,1.2,0.7,1.9,0.7c1.6,0,2.9-1.3,2.9-2.9c0-1.2-0.7-2.2-1.8-2.7c0.2,0,0.4,0.1,0.7,0.1c1.6,0,2.9-1.3,2.9-2.9
			c0-0.5-0.1-0.9-0.3-1.3c0.6-0.3,1-0.9,1.3-1.5c0.4,0,0.8-0.1,1.1-0.2c-0.1,0.2-0.1,0.4-0.1,0.7c0,0.3,0.1,0.6,0.1,0.8
			c-0.9,0.5-1.5,1.4-1.5,2.5c0,1.6,1.3,2.9,2.9,2.9c1,0,1.8-0.5,2.4-1.2c0.5,0.5,1.2,0.8,1.9,0.8
			C152.2,470.5,152.2,470.5,152.3,470.5z M129.8,469.5L129.8,469.5c0,1.3,0.8,2.4,2,2.8c-0.1,0.3-0.2,0.6-0.2,1s0.1,0.8,0.2,1.2
			c-0.2,0-0.4,0.1-0.6,0.2c-0.5-1-1.5-1.7-2.7-1.7c-0.1,0-0.1,0-0.2,0c0-0.2,0-0.3,0-0.5c0-0.9-0.4-1.6-1-2.2c0.1,0,0.2,0,0.4,0
			C128.6,470.3,129.3,469.9,129.8,469.5z M125.8,469.5c-0.1,0-0.2,0-0.4,0c0-0.1,0-0.3,0-0.4C125.6,469.2,125.7,469.4,125.8,469.5z
			 M117.7,481.5c0,0.1,0.1,0.2,0.1,0.3c-0.3,0.2-0.6,0.5-0.9,0.8c-0.4-0.4-0.9-0.8-1.4-0.9c0-0.1,0-0.2,0-0.3
			c0.4,0.2,0.9,0.4,1.4,0.4C117.2,481.6,117.5,481.6,117.7,481.5z M108,472.1c-0.1-0.1-0.2-0.2-0.4-0.3c0.1,0,0.3-0.1,0.4-0.1
			C108.1,471.9,108,472,108,472.1z M117.2,494.1c1.6,0,2.9-1.3,2.9-2.9c0-0.2,0-0.4-0.1-0.5c0.5,0.6,1.3,0.9,2.1,0.9
			c0.5,0,1.1-0.2,1.5-0.4c-0.1,0.4-0.2,0.7-0.2,1.1s0.1,0.8,0.2,1.2c-0.6-0.4-1.3-0.7-2.1-0.7c-2,0-3.6,1.6-3.6,3.6
			c0,0.3,0,0.5,0.1,0.8c-0.3,0.1-0.6,0.1-0.8,0.3c0.1-0.3,0.1-0.5,0.1-0.8c0-1.1-0.5-2-1.3-2.7C116.4,494,116.8,494.1,117.2,494.1z
			 M111.5,499.3c0.1,0.1,0.2,0.2,0.3,0.3c-0.2,0.1-0.3,0.2-0.5,0.3C111.4,499.7,111.5,499.5,111.5,499.3z M110.6,494.5
			c0.1,0,0.2,0,0.3,0c-0.3,0.5-0.6,1-0.6,1.6c-0.6-0.4-1.2-0.7-2-0.8c0.2-0.4,0.2-0.7,0.2-1.2c0-0.2,0-0.4-0.1-0.5
			C108.9,494.1,109.7,494.5,110.6,494.5z M104,500.7c0.2-0.3,0.4-0.6,0.5-1c0.1,0.4,0.2,0.7,0.4,1c-0.2,0-0.3-0.1-0.5-0.1
			C104.3,500.7,104.1,500.7,104,500.7z M104.6,497.6c-0.1-0.3-0.2-0.7-0.4-1c0.2,0.1,0.5,0.2,0.7,0.3
			C104.8,497.1,104.7,497.4,104.6,497.6z M101.6,502.1c-0.4,0.5-0.6,1.1-0.7,1.7c-0.4,0.6-0.7,1.3-0.7,2.1c0,0.4,0.1,0.7,0.2,1.1
			c-0.4-0.5-0.8-0.8-1.4-1.1c-0.2-0.4-0.4-0.8-0.7-1.1c0.4-0.6,0.7-1.3,0.7-2.1c0-0.5-0.1-1-0.3-1.4h0.1c0.6,0.6,1.5,1,2.4,1
			C101.3,502.1,101.4,502.1,101.6,502.1z M90.1,520c-0.3-0.3-0.8-0.5-1.2-0.6c0-0.1,0-0.1,0-0.2c0-0.2,0-0.3,0-0.5
			c0.3,0.5,0.8,0.8,1.3,1.1C90.2,519.9,90.1,519.9,90.1,520z M83.4,523.6c0.5-0.6,0.8-1.3,0.9-2c0.3,0.3,0.7,0.5,1.2,0.5
			c0,0.1,0,0.1,0,0.2c0,0.8,0.3,1.5,0.8,2c0,0.2,0,0.3,0,0.5c0,0.1,0,0.2,0,0.3C85.6,524.2,84.6,523.6,83.4,523.6z M125.1,496.7
			c0-0.1,0-0.2,0-0.4c0-0.4-0.1-0.8-0.2-1.2c0.5,0.3,1,0.6,1.6,0.7C126,496,125.5,496.3,125.1,496.7z M142.7,506
			c0-0.1,0-0.2,0.1-0.3c1.2-0.6,2.1-1.8,2.1-3.3c0-0.2,0-0.3,0-0.5c0.4,0.1,0.8,0.2,1.3,0.2c0.3,0,0.7-0.1,1-0.2
			c0,0.6,0.2,1.1,0.5,1.5c0,0.1,0,0.1,0,0.2c-0.5,0.6-0.8,1.4-0.8,2.3c0,0.4,0.1,0.7,0.2,1.1c-0.7-0.8-1.7-1.4-2.8-1.4
			C143.7,505.6,143.2,505.8,142.7,506z M179.8,511.2c0-0.1-0.1-0.1-0.1-0.2c0.5-0.3,0.9-0.6,1.2-1.1l0,0c2,0,3.6-1.6,3.6-3.6
			c0-0.5-0.1-1-0.3-1.5c0.2,0,0.4,0.1,0.6,0.1c1.5,0,2.8-1,3.4-2.3c0.2,0,0.3,0,0.5,0c2,0,3.6-1.6,3.6-3.6c0-0.4-0.1-0.7-0.2-1.1
			c0.5,0.7,1.3,1.1,2.1,1.3c-1.5,0.4-2.6,1.8-2.6,3.4l0,0c-1.8,0.2-3.1,1.7-3.1,3.5c0,0.1,0,0.1,0,0.2c-0.1,0.1-0.2,0.1-0.2,0.2
			c-0.9,0.1-1.8,0.6-2.2,1.3c-1.5,0.4-2.6,1.8-2.6,3.4c0,0.2,0,0.4,0.1,0.7c-0.7-0.7-1.6-1.2-2.6-1.2
			C180.5,511,180.1,511.1,179.8,511.2z M200.8,520.5c0-0.2-0.1-0.5-0.2-0.7c0.2,0.1,0.5,0.1,0.7,0.1c0.8,0,1.4-0.3,1.9-0.8
			c-0.4,0.4-0.7,1-0.8,1.5c-0.4-0.2-0.8-0.3-1.2-0.3C201.2,520.5,201,520.5,200.8,520.5z M209.7,523.3c-0.1-0.2-0.2-0.4-0.3-0.5
			c0.1-0.4,0.2-0.8,0.2-1.2c0-2-1.6-3.6-3.6-3.6c-0.9,0-1.8,0.4-2.4,0.9c0.4-0.5,0.7-1.2,0.7-1.9c0-0.8-0.3-1.5-0.8-2.1
			c0-0.2,0.1-0.4,0.1-0.6c0-0.7-0.2-1.4-0.6-2c1.3-0.3,2.2-1.5,2.2-2.8c0-0.5-0.1-0.9-0.3-1.3c0-0.1,0-0.2,0-0.4
			c0-0.9-0.3-1.7-0.9-2.3c0.6,0.6,1.5,1,2.5,1c1.4,0,2.6-0.8,3.2-2c0.2-0.1,0.4-0.2,0.6-0.4c0.5-0.1,1-0.3,1.5-0.7
			c0.7,0.7,1.6,1.2,2.6,1.2c0.9,0,1.8-0.4,2.4-1c0.1,0.2,0.2,0.4,0.4,0.6c0,0.1-0.1,0.2-0.1,0.3c-1.5,0-2.7,1.1-2.9,2.6
			c-1,0-1.8,0.4-2.5,1c-0.4-0.2-0.9-0.3-1.4-0.3c-1.4,0-2.6,0.8-3.2,2c-1.2,0.6-2.1,1.8-2.1,3.2c0,2,1.6,3.6,3.6,3.6
			c0.4,0,0.7-0.1,1.1-0.2c0.6,1.2,1.8,2,3.2,2c0.3,0,0.6-0.1,0.9-0.1c0,0.1,0.1,0.2,0.2,0.3c-1.1,0.6-1.8,1.8-1.8,3.1
			c0,0.4,0.1,0.7,0.2,1c-0.1,0.2-0.3,0.4-0.4,0.6c-0.4-0.2-0.9-0.3-1.4-0.3C210.3,523.2,210,523.2,209.7,523.3z M222.9,526.9
			c-0.1-0.9-0.4-1.7-1.1-2.3c0.8-0.3,1.4-0.8,1.9-1.5c0.6,0.6,1.5,1,2.5,1l0,0c0,0.2-0.1,0.4-0.1,0.6
			C224.7,524.8,223.4,525.6,222.9,526.9z M261,523.6c-0.6-0.5-1.4-0.9-2.3-0.9c-0.6,0-1.1,0.2-1.6,0.4c-0.2,0-0.5,0.1-0.7,0.1
			c-0.6-1.2-1.8-2.1-3.3-2.1l0,0c0-0.2,0.1-0.4,0.1-0.6c0-1-0.4-1.9-1.1-2.6c0.4-0.1,0.8-0.4,1.1-0.7c0.5,1.5,1.8,2.5,3.4,2.5
			c0.2,0,0.4,0,0.6-0.1c0.6,0.7,1.5,1.1,2.5,1.1c0.7,0,1.3-0.2,1.8-0.5c0.6,0.5,1.4,0.9,2.3,0.9l0,0c0,0.8,0.2,1.5,0.7,2.1
			c-0.1,0.1-0.1,0.1-0.2,0.2c-0.4-0.2-0.9-0.3-1.4-0.3C262.1,523.2,261.5,523.4,261,523.6z"/>
	</g>
</g>
</svg>
