<svg version="1.1" id="Layer_1" xmlns="http://www.w3.org/2000/svg" x="0" y="0" viewBox="0 0 56.7 56.7" style="enable-background:new 0 0 56.7 56.7" xml:space="preserve"><style>.st0{opacity:.23}.st1{opacity:.49}</style><path d="m43.6 14.2 10.8 7.7-5.9 5.4-17.5 16z"/><path class="st0" d="M54.6 31.9 30.4 54.1v-9.3l24.2-22.1z"/><path d="m24.9 40.2-12.4-8.7-4.7-3.3 7.5-2.9L27.5 34zM22 22.6l12.5-4.9L30 28.1l-.6-.3z"/><path class="st1" d="M28.3 33.9c0-.1 0-.1 0 0 0-.1 0-.1 0 0v-.1l-6.5-4.7v-5.7l6.9 4.8 1.3.9v9.4l-1.5-1.1-.2-3.5z"/><path class="st0" d="M30.5 37.3v-8.5l1.2-2.9 3.1-7.2v8.4z"/><path d="m26.9 2.3 10.6 7.5-21 8.4-13 5.2z"/><path class="st0" d="M2.1 34.2v-9.5l17.8-7.1 18-7.2v9.4l-2.5 1v-4s0-.1-.1-.1l-.1-.1h-.3L21 22.1v4.2l-1.5.6-3.8-2.7c-.1-.1-.2-.1-.3 0L7 27.4v4.4l-4.9 2.4z"/><path class="st1" d="m7.4 28.8 11.1 7.8 6.2 4.4v9.5L7.4 38.1z"/><path class="st0" d="M25.4 49.4v-8.6l1.4-3.3.8-1.9v8.3z"/></svg>