<svg xmlns="http://www.w3.org/2000/svg" viewBox="0 0 56.7 56.7" style="enable-background:new 0 0 56.7 56.7" xml:space="preserve"><path d="m29.8 52.1-1.4 3.2-1.5-3.2v-7.7h2.9zM37 9.2c-4.2 0-7.7.5-8.6 1.3-.9-.7-4.4-1.3-8.6-1.3V11c4.2 0 7.7 3 8.6 6.9.9-4 4.4-6.9 8.6-6.9V9.2z"/><path d="M30.7 12.2H26L24.4 1.4l2.3 2.8 1.6-2.8 1.5 2.8 2.5-2.8zm-3.9 8.3L28 31.8c.1.6-.2 1.1-.7 1.4l-4.2 2.6 3.7-15.3zm3.1.4-1.1 8.7c-.1.6.3 1.3.8 1.5l4 2-3.7-12.2z"/><path d="M39.2 13.3c-2.9-.2-5.5.9-7.3 2.8-1.4 1.6-2.1 3.7-2.1 5.8v22.4s16-9.4 17.4-20.7c.6-5-2.9-9.9-8-10.3zm-14.4 2.8c-1.8-1.9-4.4-3.1-7.3-2.8-5.1.4-8.6 5.3-8 10.4C10.9 35 26.9 44.4 26.9 44.4V22c0-2.2-.7-4.3-2.1-5.9z"/></svg>