<?xml version="1.0" encoding="utf-8"?>
<!-- Generator: Adobe Illustrator 28.0.0, SVG Export Plug-In . SVG Version: 6.00 Build 0)  -->
<svg version="1.1" id="Layer_1" xmlns="http://www.w3.org/2000/svg" xmlns:xlink="http://www.w3.org/1999/xlink" x="0px" y="0px"
	 viewBox="0 0 566.9 566.9" style="enable-background:new 0 0 566.9 566.9;" xml:space="preserve">
<g id="Layer_1_00000009556111343211183850000007308998178914139026_">
</g>
<g id="Layer_2_00000171692573757479026370000003942271244705314962_">
	<g>
		<g>
			<path d="M213.2,459.1c0.9,0,0.9-1.4,0-1.4C212.3,457.8,212.3,459.1,213.2,459.1L213.2,459.1z"/>
		</g>
	</g>
	<g>
		<g>
			<path d="M343.6,71.4c-0.1-1,0.2-4-0.4-4.8c-0.7,3.7-0.9,4.7-0.4,2.8c1.1-4,1.1-8.1,0-12.1c-1.5-5.9-5.9-12-10-16.3
				c-5.5-5.8-12.9-10.7-20-14.3c-15-7.5-31.3-11.2-48.1-9.4c-18,2-33.8,8.3-47.3,20.6C211.8,43,207,49.1,203,55.5
				c-7.2,11.3-11.6,24.3-3.7,36.6c-0.6-4.7-1.2-9.4-1.9-14.1c-1.8,5.6-3.8,12.4-3.8,18.3c0-0.4,1.2,10.5,2.6,9.8
				c-0.3-1.4-0.7-2.7-1-4.1c0.2,1,0.2,1.9,0.2,2.9c0,2.8-0.3,5.6-0.3,8.5c0,5.5,0.2,10.9,2,16.1c0.6,1.9,0.9,3.9,1.3,5.9
				c0.6,2.7,2.4,5.4,3.2,7.1c1.6,3.6,2.1,7.8,3.5,11.4c1.7,4.3,3.5,8.8,5.9,12.8c1.4,2.3,3.1,3.8,5.1,5.5c1.3,1.1-1.6-2.7-0.1,0
				c0.5,0.9,1.2,1.7,1.7,2.5c2.5,3.4,5.1,6.7,8,9.7c19.8,20.5,52.7,29.8,79,16.3c7.4-3.8,12.9-10.7,18-17
				c6.8-8.3,12.9-16.3,17.7-26.1c0.2-0.3-0.3-0.6-0.5-0.3c-4.4,7.9-9.5,15.4-15.9,21.8c-5,5-12,8.5-18.6,10.8
				c-12.1,4.2-23.1,8.1-36.1,5.9c-12-2-22.8-8-31.4-16.6c-2.2-2.2-4.2-4.4-6.1-6.9c-1-1.3-2-2.7-2.9-4.1c-0.4-0.6-0.7-1.1-1.1-1.7
				c-0.4-0.6-0.7-1.2-1.1-1.8c0.4,1.9,0.5,2.1,0.4,0.6c0.3-3.5-2-6.8-3.2-9.9c-1.5-3.8-2.6-7.7-3.6-11.6c-0.2-0.7-0.3-1.5-0.5-2.2
				c-0.2-0.8-0.3-1.5-0.4-2.3c-0.3-1.7-0.3-1.5-0.1,0.5c0.8-2.4,1-4.8,0.9-7.4c0-1.2-0.1-2.5,0-3.7c-0.2,2,0.5-1.4,0.6-1.6
				c0.7-3.2,0.6-6.6,0.8-9.8c0.1-0.9,0.1-1.8,0.2-2.6c0.1-0.6,0.5-4.4,0.4-3.6c-0.2,1.6,0.4-2.5,0.5-2.5c-0.1,0-2.6,3.4-0.5,0.8
				c3.4-4.1,4.9-7.8,6.6-12.6c0.3-0.9,0.7-1.8,1-2.7c-1.6,4.3,0.6-1.2,1-2c-3.7,2.8-7.3,5.6-11,8.4c3.1-0.6,6-1.6,8.8-3.1
				c3.4-2,6.1-4.7,8.2-8.2c-0.7,0.8-1.3,1.7-2,2.5c2.6-3.4,5-6.7,7.3-10.3c2.6-3.9-3.4,3.8-0.5,0.7c0.9-1,1.7-1.9,2.6-2.9
				c1.7-1.8,4-3.3,5.6-5.2c-3.8,4.7-3,2.2-0.9,0.8c1-0.7,2.1-1.4,3.2-2c2.2-1.3,4.5-2.2,6.7-3.4c-7.4,3.8-0.2,0.3,2.3-0.3
				c1.2-0.3,2.5-0.5,3.8-0.8c4.7-1-6.9,0.4-1,0.2c2.6-0.1,5.2-0.2,7.8-0.1c1.3,0.1,2.6,0.3,3.9,0.3c2.7,0-7.2-1.4-1.7-0.2
				c5.3,1.1,10.5,2.1,15.6,3.9c0.9,0.3,5.7,2.2,1.4,0.4c-4.3-1.8,0.5,0.3,1.3,0.8c2.5,1.3,4.9,2.7,7.3,4.3
				c8.8,5.9,17.5,9.6,28.4,7.2c-3.6,0-7.2,0-10.8,0c2.1,0.4,4.1,1,6.1,1.7C332.9,89.8,344.2,81.4,343.6,71.4L343.6,71.4z"/>
		</g>
	</g>
	<g>
		<g>
			<path d="M238,120.8c-0.1,0.4-0.3,0.7-0.4,1.1c-0.4,1.5-0.4,3,0,4.5c0.4,1.4,1.1,2.7,2.2,3.8c1.1,1.1,2.3,1.8,3.8,2.2s3,0.4,4.5,0
				c0.4-0.1,0.7-0.3,1.1-0.4c1.5-0.4,2.9-1.2,4-2.3s1.9-2.5,2.3-4c0.9-3.1,0-6.5-2.3-8.8s-5.7-3.2-8.8-2.3c-1.5,0.4-2.9,1.2-4,2.3
				C239.2,118,238.5,119.3,238,120.8L238,120.8z"/>
		</g>
	</g>
	<g>
		<g>
			<path d="M301.8,131.8c2.4,0,4.9-1,6.6-2.8c1.6-1.6,2.9-4.3,2.8-6.6c-0.1-2.4-0.9-4.9-2.8-6.6c-1.8-1.7-4.1-2.8-6.6-2.8
				c-2.4,0-4.9,1-6.6,2.8c-1.6,1.6-2.9,4.3-2.8,6.6c0.1,2.4,0.9,4.9,2.8,6.6C297,130.7,299.3,131.8,301.8,131.8L301.8,131.8z"/>
		</g>
	</g>
	<g>
		<g>
			<path d="M261.7,171.4c8.1,5.2,16.2,8.5,26,6.6c9.7-1.9,18.8-8.7,23.1-17.6c3.7-7.5-6.3-13.2-11.1-6.5c-4.2,5.8-9.5,10-16,12.9
				c-6.7,3.1-14.4,6-21.8,4.2C261.6,170.9,261.4,171.2,261.7,171.4L261.7,171.4z"/>
		</g>
	</g>
	<g>
		<g>
			<path d="M391.6,135.2c5.6,16.8,15.5,32.2,32.7,38.7c12.2,4.6,25.5,2,36.4-4.5c20.6-12.1,37.5-35.9,43.7-58.9
				c5.2-19.4,3.4-41.1-6-58.8c-9.1-17.2-25.9-30.6-44.7-35.7c-18.4-5-38.1-1.9-54,8.5c-15.3,10-25.4,26.4-29.3,44.1
				c-4.5,20.7-1.5,42.4,8.3,61.2c9.4,17.9,24.9,31.6,42.6,40.9c10.1,5.3,19.1-10,9-15.4c-25.8-13.8-45.5-38.5-45.1-68.9
				c0.2-14.3,4.7-29.4,14.4-40.1c10-11,24.7-15.9,39.5-14.1c13.7,1.7,27.8,9.8,35.2,21.5c7.9,12.6,9.1,28.7,6.3,42.1
				c-2.3,10.8-5.3,18.5-10.8,27.9c-2.3,4-4.9,7.9-7.5,11.7c-0.6,0.9-1.3,1.8-1.9,2.7c-0.5,0.6-2.8,3.5-1,1.4
				c-1.6,1.9-3.1,3.8-4.8,5.5c-1.9,2-3.9,3.8-5.9,5.5c1.9-1.5-1.3,0.9-1.9,1.3c-1,0.7-2.1,1.3-3.1,1.9c-0.5,0.3-1.1,0.5-1.6,0.8
				c-1.4,0.7,2.3-0.7-0.3,0.1c-1.1,0.4-2.3,0.7-3.4,1c-0.6,0.2-1.2,0.3-1.7,0.4c1.5-0.3,0.6,0-0.4,0c-1.2,0-2.4,0.1-3.6,0
				c-1.6-0.1,1.4,0.3-0.2,0c-0.8-0.2-1.6-0.3-2.4-0.5c-0.5-0.1-3.2-1.1-2.5-0.8c-2.7-1.2-5.3-2.8-7.6-4.6
				c-7.3-5.7-13.9-12.7-20.1-19.6C396.4,127.1,390.1,130.7,391.6,135.2L391.6,135.2z"/>
		</g>
	</g>
	<g>
		<g>
			<path d="M434.7,167.3c-5.2,22.8-10.2,45.6-14.3,68.7c-3.4,19.1-6.5,38.3-9.8,57.5c-5,29-7.8,58.4-11,87.6
				c-3.9,36.1-6.9,73.8-21,107.7c-3.6,8.7-7.9,17-12.8,25c-5.7,9.3-12.3,17.9-17.8,27.3c-0.6,1,0.8,2,1.6,1.2
				c12.9-12.7,22.9-29.4,30.9-45.5c7.2-14.5,12.5-30,15.9-45.8c4.2-19.2,6.6-38.8,9-58.4c3.4-27.8,6.6-55.7,10.4-83.5
				c2.8-21,4.9-42.1,8-63.1c3.9-26.2,7.6-52.4,11.8-78.6C435.6,167,434.8,166.8,434.7,167.3L434.7,167.3z"/>
		</g>
	</g>
	<g>
		<g>
			<path d="M319.6,525.7c-0.4,5.9-0.7,11.4,2.7,16.5c3.1,4.6,7.9,7.7,13.4,8.6c11.8,2.1,21.6-6.8,24.2-17.8
				c2.7-11.3-2.2-23.1-13.3-27.5c-10.3-4.1-23.6-0.7-27.4,10.5c-1.5,4.5,4.1,6.5,7.1,4.1c4.4-3.5,10.6-5.7,16.1-3.7
				c5.8,2.2,7.7,8.3,6.3,14c-1.5,5.8-6.3,11.3-12.8,10.2c-6.6-1.1-15.3-8.1-14.9-15.1C321.1,524.8,319.7,524.8,319.6,525.7
				L319.6,525.7z"/>
		</g>
	</g>
	<g>
		<g>
			<path d="M230.1,223.7c-14.8,7.1-19.8,23.9-21.8,39.1c-2.4,18.4-2.4,37.5-7.2,55.5c-4,15.2-8.9,27.3-17,40.5
				c-2,3.2-4.1,6.4-6.4,9.5c-1.1,1.5-2.3,3.1-3.4,4.6c1.6-2.2-2,2.5-2.5,3c-5.1,6-10.6,11.6-16.6,16.8c-0.7,0.6-1.5,1.2-2.2,1.9
				c-0.3,0.3-3.4,2.7-1.7,1.4c2.2-1.8-3.1,2.4-2.3,1.8c-4.6,3.6,1.4-1-1.7,1.3c-3.5,2.6-7.1,5-10.8,7.3c-7.8,4.8-15.8,9.7-23.9,13.8
				c-15.4,7.8-4.6,31.6,11.5,27.4c8.9-2.3,17.7-5.3,25.6-9.9c7.5-4.4,14.6-9.4,21.2-14.9c12.5-10.4,23.8-23.9,31.9-38
				c8.1-14.2,14.6-30.2,17.3-46.4c3-18,1-35.7-1.8-53.6c-1.7-11.1-3-21.7-0.3-32.7c2.3-9.6,7.3-18.5,13.6-26.1
				C232.9,224.6,231.6,222.9,230.1,223.7L230.1,223.7z"/>
		</g>
	</g>
	<g>
		<g>
			<g>
				<path d="M151.7,214.5c-3.7-0.4-7.6,4.3-10.1,6.6c-3.6,3.4-7.7,5.7-11.9,8.2c-6.4,3.7-2.2,14.9,5.2,12.3
					c6.9-2.4,12.7-7.4,16.5-13.6C152.6,225.9,156.7,215,151.7,214.5L151.7,214.5z"/>
			</g>
		</g>
		<g>
			<g>
				<path d="M162.9,199.5c2.2,3.6,3.5,7.3,4.6,11.3c0.5,1.6,2.4,2.9,4.1,2.3c6.3-2.2,14.8-7.3,11.4-15.3c-3.3-7.9-13.1-5.4-18.9-2.5
					c-4.8,2.4-0.2,10.1,4.2,7.1c1.6-1.1,7-5.2,8.5-2c1.6,3.3-4.9,5.6-6.9,6.3c0.9,0.1,1.7,0.2,2.6,0.3c-3.2-2.4-6.1-4.9-8.5-8.1
					C163.5,198.3,162.5,198.8,162.9,199.5L162.9,199.5z"/>
			</g>
		</g>
		<g>
			<g>
				<path d="M160.2,202.2c-2-3.6-3.7-7.3-6.2-10.6c-2.6-3.5-5.8-6.1-9.1-8.8c-2.5-2-5.2-2.4-8.1-1c-10.2,4.8-11.4,19.4-2.3,25.8
					c10.4,7.3,22.7,1,30.6-6.7c1.6-1.6,0-5.1-2.4-4.1c-5,2.1-12.6,6.5-18.2,4.5c-3.9-1.4-5.1-6.2-1-8c-2.7-0.3-5.4-0.7-8.1-1
					c3.5,3,6.8,6,11,8.1c3.8,1.9,7.8,3,11.8,4.3C159.8,205.2,160.9,203.4,160.2,202.2L160.2,202.2z"/>
			</g>
		</g>
		<g>
			<g>
				<path d="M237.4,77c-3.2-7.4-10.9-12.3-19-11.6C208,66.3,201.6,76,202.2,86.2c0.7,11.4,10.1,21.6,22,20.2
					c5.5-0.6,10.9-3.4,14.6-7.5c5-5.6,6.3-12.2,5-19.4c-1.2-6.6-9.6-11-15.8-9c-7.1,2.3-10.2,8.7-9,15.8c-0.2-1.1-0.5-3.6,0.6-4.4
					c-0.2,0.6-0.5,1.1-0.9,1.6c0.3-0.4,0.5-0.7,0.8-1.1c-2.8,1.6,2.3-1.2-0.5,0.4c2.5-1.4-0.1-0.1-0.7,0.1c-1.7,0.8,1.3,0.6-0.6,0.2
					c1.2,0.3,2,0.9,1,0c1.5,1.7,1.9,2,1.3,1c-0.3-0.6-0.3-0.5-0.1,0c0,0.1-0.5-2.7-0.4-1.5c-0.1-1.2,0.1-2,0.8-3.2
					c0.7-1.3,1.7-2.3,3-3c3.9-2,8.9-0.8,12.2,1.8C236.7,79.1,238,78.2,237.4,77L237.4,77z"/>
			</g>
		</g>
		<g>
			<g>
				<path d="M234.6,52.2c0,0.1,0,0.2-0.1,0.3c-1.1,3.5-1.3,7-0.5,10.5c0.2,3.5,1.2,6.8,3.1,9.8c1.4,1.8,2.8,3.6,4.1,5.3
					c3.3,3.3,7.2,5.5,11.6,6.8c0.1,0,0.2,0.1,0.3,0.1c2.4,0.3,4.7,0.6,7.1,1c2.4-0.3,4.7-0.6,7.1-1c3.5-0.8,6.5-2.4,9.1-4.8
					c2-1.2,3.6-2.8,4.8-4.8c1.7-1.7,2.8-3.6,3.4-5.9c1.2-2.1,1.8-4.3,1.8-6.8c0.6-2.4,0.6-4.7,0-7.1c-0.2-3.6-1.2-6.9-3.2-9.9
					c-1.4-1.8-2.8-3.6-4.2-5.4c-1.8-1.4-3.6-2.8-5.4-4.2c-2.1-0.9-4.3-1.8-6.4-2.7c-2.4-0.3-4.7-0.6-7.1-1c-2.4,0.3-4.7,0.6-7.1,1
					c-3.5,0.8-6.5,2.4-9.1,4.8c-2,1.2-3.6,2.8-4.8,4.8C237,45.7,235.4,48.8,234.6,52.2L234.6,52.2z"/>
			</g>
		</g>
		<g>
			<g>
				<path d="M180.1,115.6c-0.1,0.4-0.1,0.7-0.2,1.1c-1.6,8.9,2.4,19,12.1,21.2c8.8,2,19.1-2.6,21.2-12.1c0.1-0.4,0.2-0.7,0.2-1.1
					c2-8.8-2.7-19.1-12.1-21.3C192.9,101.6,181.8,106.1,180.1,115.6L180.1,115.6z"/>
			</g>
		</g>
		<g>
			<g>
				<path d="M180.5,166.3c15.2,0,15.2-23.5,0-23.5C165.4,142.7,165.3,166.3,180.5,166.3L180.5,166.3z"/>
			</g>
		</g>
		<g>
			<g>
				<path d="M169.3,191c9.5,0,9.5-14.8,0-14.8S159.8,191,169.3,191L169.3,191z"/>
			</g>
		</g>
	</g>
	<g>
		<g>
			<path d="M86.3,446.4c-6.2-1.3-13.3,0.3-19.5,1c-5.8,0.7-11.9,1-17.6,2.3c-9,2.1-19.3,7.4-20.5,17.6c-1.3,11,8.7,19,18.9,19.5
				c6,0.3,11.6-1.9,16.9-4.3c5.6-2.6,11.3-6.6,17.7-6.9c9.3-0.5,9.4-14.3,0-14.5c-10.3-0.2-17.6,5.4-26.7,9.3
				c-2.6,1.1-15.2,3.9-13.3-3c1.5-5.6,13.7-8,18.1-9.6c8.4-3,19.1-5.1,26.1-10.7C86.8,446.9,86.6,446.5,86.3,446.4L86.3,446.4z"/>
		</g>
	</g>
	<g>
		<g>
			<path d="M312.3,75.7c0.4,0,0.4-0.6,0-0.6C311.8,75,311.8,75.7,312.3,75.7L312.3,75.7z"/>
		</g>
	</g>
	<g>
		<g>
			<path d="M306.8,271.4c2.2-2-2.5,1.2,0.9-0.8c1.7-1,3-2,4.4-3.4c1.9-2,0.9-1,0.5-0.6c2-2.1,4-4.1,6.1-6c1.1-1,2.4-1.9,0.4-0.4
				c-0.7,0.6,7.6-5.5,3.2-2.6c2.2-1.4,4.4-2.6,6.6-3.9c1.4-0.9-1.3,0.5-1.4,0.5c0.6-0.2,1.3-0.5,1.9-0.7c1.1-0.4,2.3-0.7,3.4-1
				c0.8-0.2,3-0.2,3.5-0.7c-0.2,0.2-4.1,0.4-1.3,0.2c0.7,0,1.3-0.1,2-0.1c2.3-0.1,4.8,0.5,7,0.2c-2.9,0.4-3.2-0.4-1.5-0.2
				c0.7,0.1,1.5,0.2,2.2,0.3c2.7,0.4,3,0.4,1,0.1c-0.6,0.6-2-0.4,0.2,0.1c0.8,0.2,1.6,0.4,2.4,0.6c1,0.3,1.9,0.6,2.8,0.9
				c3,0.8-1.4-0.5-1.2-0.6c0.1-0.1,1.9,0.9,1.8,0.8c1,0.6,2,1.1,3,1.7c0.4,0.3,0.8,0.6,1.2,0.8c2.5,1.3-1.8-1.9-0.6-0.5
				c0.7,0.9,1.8,1.6,2.6,2.4c0.6,0.7,3.3,2.9,1.4,1.4c-1.4-1.1-0.6-0.8-0.1,0c0.4,0.6,0.8,1.2,1.1,1.8c0.6,1,1.1,2,1.6,3.1
				c1.5,2.9-0.3-1.1-0.3-0.7c0.2,0.9,0.6,1.7,0.9,2.6s0.4,1.8,0.7,2.7c0.1,0.5,0.1,1,0.3,1.5c0.5,1.6-0.3-4.4-0.2-1.5
				c0.1,1.9,0.2,3.8,0.2,5.7c0,1-0.1,1.9-0.1,2.9c-0.1,0.7-0.5,4.6-0.1,1.7c0.4-2.8-0.1,0.7-0.3,1.4c-0.2,1-0.4,2.1-0.6,3.1
				c-0.5,2.3-1.1,4.5-1.7,6.8c-1.4,4.8-3.1,9.5-4.9,14.1c-0.4,1.1-0.9,2.3-1.4,3.4c-0.3,0.8-1.9,4.2-0.4,1c-1.2,2.5-2.2,5-3.4,7.4
				c-2.3,4.9-4.6,9.8-6.9,14.7c-5.1,10.7-9.4,22-13.7,33c-4.1,10.7-6.6,21.3-7.9,32.7c-1.3,11.4-2,22.6,0.4,33.9
				c2.5,12.2,9,22.4,17.7,31.1c3,3,8.2-0.9,5.9-4.6c-11.2-18.2-13.5-40.3-5.7-60.1c1.5-3.9,4.3-9.1,6.5-13.8
				c2.4-5.3,4.8-10.5,7.5-15.7c5.4-10.4,11.7-20.3,17.2-30.7c10.4-19.6,21.5-40,23.5-62.4c2.2-25.3-14.4-48.4-38.9-54.9
				c-14.4-3.8-31-0.9-43.5,7.1c-6.5,4.2-12.4,9.5-16,16.4c-1.9,3.7-3.3,7.4-3.9,11.5c-0.4,2.9-1.4,4.4-0.3,8.2
				c1.4,5,1.3,2.9,0.8,1.8c0.3,1,0.6,2,0.9,3C296.3,273.5,302.6,275.2,306.8,271.4L306.8,271.4z"/>
		</g>
	</g>
</g>
</svg>
