<?xml version="1.0" encoding="utf-8"?>
<!-- Generator: Adobe Illustrator 28.1.0, SVG Export Plug-In . SVG Version: 6.00 Build 0)  -->
<svg version="1.1" id="Layer_1" xmlns="http://www.w3.org/2000/svg" xmlns:xlink="http://www.w3.org/1999/xlink" x="0px" y="0px"
	 viewBox="0 0 566.9 566.9" style="enable-background:new 0 0 566.9 566.9;" xml:space="preserve">
<style type="text/css">
	.st0{clip-path:url(#SVGID_00000054248636438721885270000009513004843850371993_);}
	.st1{clip-path:url(#SVGID_00000160877879447308801540000005593364753776370856_);}
</style>
<g id="Layer_1_00000011754367859317917640000018059165697890620859_">
</g>
<g>
	<g>
		<defs>
			<circle id="SVGID_1_" cx="283.5" cy="283.5" r="283.5"/>
		</defs>
		<clipPath id="SVGID_00000175315144974742274260000011693263037098657202_">
			<use xlink:href="#SVGID_1_"  style="overflow:visible;"/>
		</clipPath>
		<g style="clip-path:url(#SVGID_00000175315144974742274260000011693263037098657202_);">
			<g>
				<defs>
					<rect id="SVGID_00000038373281740431362980000017749660066043863707_" x="1.5" y="41.5" width="563.8" height="563.8"/>
				</defs>
				<clipPath id="SVGID_00000108296612348837823490000006525283242525062795_">
					<use xlink:href="#SVGID_00000038373281740431362980000017749660066043863707_"  style="overflow:visible;"/>
				</clipPath>
				<g style="clip-path:url(#SVGID_00000108296612348837823490000006525283242525062795_);">
					<path d="M276.9,400.7c2.9,2.9,3,7.2,0.4,9.5c-2.3,2.6-6.6,2.4-9.5-0.5l-40.9-41.5c-2.9-2.9-3-7.2-0.4-9.5
						c2.3-2.6,6.6-2.4,9.5,0.5L276.9,400.7z"/>
					<path d="M249.4,350.3c-2.5-3.1-6.5-3.8-8.9-1.6c-2.7,1.9-2.9,5.9-0.4,9.1l35.3,44.1c2.5,3.1,6.5,3.8,8.9,1.6
						c2.7-1.9,2.9-5.9,0.4-9.1L249.4,350.3z"/>
					<path d="M257.2,344.7c-2.7-2.8-6.6-3.2-8.7-0.9c-2.4,2-2.2,5.9,0.5,8.7l37.9,39.5c2.7,2.8,6.6,3.2,8.7,0.9
						c2.4-2,2.2-5.9-0.5-8.7L257.2,344.7z"/>
					<path d="M268.5,337.2c-2.4-2.9-6-3.7-8.2-1.7c-2.4,1.7-2.5,5.4-0.1,8.3l33.2,41.5c2.4,2.9,6,3.7,8.2,1.7
						c2.4-1.7,2.5-5.4,0.1-8.3L268.5,337.2z"/>
					<path d="M275.3,332.3c-2.6-2.6-6.2-3-8-0.9c-2.1,1.8-1.7,5.4,0.9,8l36.6,36.4c2.6,2.6,6.2,3,8,0.9c2.1-1.8,1.7-5.4-0.9-8
						L275.3,332.3z"/>
					<path d="M309.4,351.8c-4-5.7-8.3-11.1-13-16.2l-9.9-10.8c-2.2-2.8-5.6-3.6-7.5-1.8c-2.2,1.5-2.1,5,0.1,7.7l31.4,39.2
						c2.2,2.8,5.6,3.6,7.5,1.8c2.2-1.5,2.1-5-0.1-7.7L309.4,351.8z"/>
					<path d="M227.3,365.5c-2.7-3.3-7.1-3.9-9.9-1.4c-3.1,2.1-3.5,6.6-0.8,9.9l37.6,47c2.7,3.3,7.1,3.9,9.9,1.4
						c3.1-2.1,3.5-6.6,0.8-9.9L227.3,365.5z"/>
					<path d="M213.7,377c-2.9-2.9-7.1-3.1-9.5-0.5c-2.7,2.3-2.5,6.5,0.4,9.5l40.9,41.5c2.9,2.9,7.1,3.1,9.5,0.5
						c2.7-2.3,2.5-6.5-0.4-9.5L213.7,377z"/>
					<path d="M206,384.9c-2.5-3.1-6.5-3.8-8.9-1.6c-2.7,1.9-2.9,5.9-0.4,9.1l35.3,44.1c2.5,3.1,6.5,3.8,8.9,1.6
						c2.7-1.9,2.9-5.9,0.4-9.1L206,384.9z"/>
					<path d="M194.3,394.8c-2.7-2.8-6.6-3.1-8.7-0.7c-2.4,2-2.1,5.9,0.6,8.7l38,38.3l0.5,0.5c2.7,2.8,6.6,3.1,8.7,0.7
						c2.4-2,2.1-5.9-0.6-8.7L194.3,394.8z"/>
					<path d="M188.1,401.4c-2.4-2.9-6-3.7-8.2-1.7c-2.4,1.7-2.5,5.4-0.1,8.3l33.2,41.5c2.4,2.9,6,3.7,8.2,1.7
						c2.4-1.7,2.5-5.4,0.1-8.3L188.1,401.4z"/>
					<path d="M195.6,428.6l-18.3-18.2c-2.6-2.6-6.2-2.9-8-0.8c-2.1,1.8-1.7,5.4,0.9,8l36.6,36.4c2.6,2.6,6.2,2.9,8,0.8
						c2.1-1.8,1.7-5.4-0.9-8L195.6,428.6z"/>
					<path d="M202.9,454.8l-15.3-19.1l-15.7-19.6c-2.2-2.8-5.6-3.6-7.5-1.8c-2.2,1.5-2.1,5,0.1,7.7l31.4,39.2
						c2.2,2.8,5.6,3.6,7.5,1.8c2.2-1.5,2.1-5-0.1-7.7C203.3,455.3,202.9,454.8,202.9,454.8z"/>
					<path d="M311,323.8l-36.2-50.4c-4.3,4.5-9.3,8.4-14.7,11.5l-0.5,0.3l40,47.4c4.3,5.1,8.4,10.3,12.3,15.8l36.2,50.4
						c4.3-4.5,9.3-8.4,14.7-11.5l0.5-0.3l-40-47.4C319,334.4,314.9,329.2,311,323.8z"/>
					<ellipse transform="matrix(0.6328 -0.7743 0.7743 0.6328 -302.2407 290.4943)" cx="155.2" cy="463.9" rx="28.7" ry="28.7"/>
					<g>
						<path d="M645.4-46.3c-2.3,10.3-10,21.5-25.7,32.2c-33.7,23-67,59.8-102.9,134.3c-53.7,111.7-114,93.5-219.9,190.1l12.8,18.4
							c-0.7-0.7,2.6,3.8,3.9,5c13.8-13.2,31.5-29.3,46.6-41.1c36-29.6,81.5-48.1,114.5-80.3c10.9-10.8,20.2-23.2,28.5-36.2
							c17-26.2,28.4-55.4,42.6-83.1c21-41.9,50.1-80.2,87.1-109.1C596.5,13.5,568.5,52,548.3,94.2c-13.8,28-24.7,57.5-40.7,84.5
							c-15.7,27.6-38.3,51-64.8,68.3c-39.4,25.2-78.2,50.7-111.7,83.5c-2.2,2.1-4.4,4.2-6.6,6.4c3,2.7,6.1,5.5,9.3,8.1l13.7,11.5
							c109.7-105,154.6-75,202.8-223c26.6-81.8,80.1-156,126.1-165.6c7.3-1.5,11-7.9,24.7-7.3c-8.4-4.3-20,0.2-26.6,0.5
							c-10.8,0.6-19.3,3.9-25.2,7.2c2.5-3.6,3.9-9,2-17c-0.8-3.3,0.3-11.9-2.1-16.2C650.1-60.6,646.5-50.9,645.4-46.3z"/>
					</g>
					<g>
						<path d="M235.4,154c-42.6,21.8-76,38.1-138.3,107C0,368.3-54.5,338.2-200.8,406c0,0,11.9,17.8,12.8,19.5
							c25.3-13.4,81.6-35.8,158.7-59.4c139-42.5,132.6-149.2,270.7-201.5c-125.5,47.6-120,157.6-265,206.8
							c-24.1,8.2-111.9,36.9-159.9,62c2.4,3.9,13.7,23.9,13.7,23.9c133.9-68,215.1-58.4,289-169.1
							C223.8,131.5,374.6,172.5,420.3,113c-45.6,37.2-120.3,15.3-178.9,51.6c43.2-24.9,19.6-59.5,78.1-108.3
							C259.8,96.7,251.8,145.7,235.4,154z"/>
					</g>
				</g>
			</g>
		</g>
	</g>
</g>
<g>
	<path d="M283.5,10c36.9,0,72.7,7.2,106.4,21.5c32.6,13.8,61.8,33.5,86.9,58.6c25.1,25.1,44.8,54.4,58.6,86.9
		c14.3,33.7,21.5,69.5,21.5,106.4s-7.2,72.7-21.5,106.4c-13.8,32.6-33.5,61.8-58.6,86.9c-25.1,25.1-54.4,44.8-86.9,58.6
		c-33.7,14.3-69.5,21.5-106.4,21.5s-72.7-7.2-106.4-21.5c-32.6-13.8-61.8-33.5-86.9-58.6c-25.1-25.1-44.8-54.4-58.6-86.9
		C17.2,356.2,10,320.4,10,283.5s7.2-72.7,21.5-106.4c13.8-32.6,33.5-61.8,58.6-86.9C115.2,65,144.4,45.2,177,31.5
		C210.7,17.2,246.5,10,283.5,10 M283.5,0C126.9,0,0,126.9,0,283.5s126.9,283.5,283.5,283.5S566.9,440,566.9,283.5S440,0,283.5,0
		L283.5,0z"/>
</g>
</svg>
