<?xml version="1.0" encoding="utf-8"?>
<!-- Generator: Adobe Illustrator 28.0.0, SVG Export Plug-In . SVG Version: 6.00 Build 0)  -->
<svg version="1.1" id="Layer_1" xmlns="http://www.w3.org/2000/svg" xmlns:xlink="http://www.w3.org/1999/xlink" x="0px" y="0px"
	 viewBox="0 0 566.9 566.9" style="enable-background:new 0 0 566.9 566.9;" xml:space="preserve">
<style type="text/css">
	.st0{clip-path:url(#SVGID_00000075885165526343995880000006463922461243922615_);}
	.st1{clip-path:url(#SVGID_00000006687450930041840240000002223042766685723535_);}
</style>
<g id="Layer_1_00000011754367859317917640000018059165697890620859_">
</g>
<g>
	<path d="M283.5,0C283.4,0,283.4,0,283.5,0c-1.2,0-2.1,0.9-2.1,2.1c0,1.1,0.9,2.1,2.1,2.1l0,0h0.1c1.1,0,2.1-0.9,2.1-2.1
		C285.5,0.9,284.6,0,283.5,0C283.5,0,283.5,0,283.5,0L283.5,0z M271.2,0.2C271.1,0.2,271.1,0.2,271.2,0.2c-0.1,0-0.1,0-0.1,0l0,0
		c-1.1,0-2,1-2,2.1c0,1.1,1,2,2.1,2c0,0,0.1,0,0.1,0l0.1,0c1.1,0,2-1,2-2.1C273.2,1.1,272.3,0.2,271.2,0.2L271.2,0.2z M258.9,1
		c-0.1,0-0.1,0-0.2,0c0,0-0.1,0-0.1,0c-1.1,0.1-2,1.1-1.9,2.2c0.1,1.1,1,1.9,2,1.9c0.1,0,0.1,0,0.2,0l0.1,0c1.1-0.1,2-1.1,1.9-2.2
		C260.9,1.8,260,1,258.9,1L258.9,1z M246.7,2.4c-0.1,0-0.2,0-0.3,0l0,0c0,0,0,0,0,0c-1.1,0.1-1.9,1.2-1.8,2.3c0.1,1,1,1.8,2,1.8
		c0.1,0,0.2,0,0.3,0l0.1,0c1.1-0.1,1.9-1.2,1.8-2.3C248.6,3.1,247.7,2.4,246.7,2.4L246.7,2.4z M234.5,4.2c-0.1,0-0.2,0-0.3,0
		c0,0,0,0-0.1,0c0,0,0,0,0,0c-1.1,0.2-1.9,1.3-1.7,2.4c0.2,1,1,1.7,2,1.7c0.1,0,0.2,0,0.4,0l0.1,0c1.1-0.2,1.9-1.3,1.7-2.4
		C236.4,4.9,235.5,4.2,234.5,4.2L234.5,4.2z M222.5,6.6c-0.1,0-0.3,0-0.4,0c0,0,0,0,0,0c0,0,0,0,0,0c-1.1,0.2-1.8,1.3-1.6,2.4
		c0.2,1,1.1,1.6,2,1.6c0.1,0,0.3,0,0.4,0l0.1,0c1.1-0.2,1.8-1.3,1.6-2.4C224.3,7.3,223.4,6.6,222.5,6.6L222.5,6.6z M210.6,9.5
		c-0.2,0-0.3,0-0.5,0.1c0,0,0,0,0,0c0,0,0,0,0,0c-1.1,0.3-1.7,1.4-1.5,2.5c0.2,0.9,1.1,1.5,2,1.5c0.2,0,0.4,0,0.5-0.1l0.1,0
		c1.1-0.3,1.7-1.4,1.5-2.5C212.3,10.1,211.5,9.5,210.6,9.5L210.6,9.5z M198.8,13c-0.2,0-0.4,0-0.6,0.1c0,0,0,0,0,0c0,0,0,0,0,0
		c-1.1,0.3-1.7,1.5-1.3,2.6c0.3,0.9,1.1,1.4,2,1.4c0.2,0,0.4,0,0.6-0.1l0.1,0c1.1-0.3,1.7-1.5,1.3-2.6C200.4,13.5,199.6,13,198.8,13
		L198.8,13z M187.1,16.9c-0.2,0-0.5,0-0.7,0.1c0,0,0,0,0,0c0,0,0,0,0,0c0,0,0,0,0,0c-1.1,0.4-1.6,1.6-1.2,2.6
		c0.3,0.8,1.1,1.4,1.9,1.4c0.2,0,0.5,0,0.7-0.1l0.1,0c1.1-0.4,1.6-1.6,1.2-2.6C188.7,17.4,188,16.9,187.1,16.9L187.1,16.9z
		 M175.7,21.4c-0.3,0-0.5,0-0.8,0.2c0,0,0,0,0,0c0,0,0,0,0,0c0,0,0,0,0,0c-1,0.4-1.5,1.6-1.1,2.7c0.3,0.8,1.1,1.3,1.9,1.3
		c0.3,0,0.5-0.1,0.8-0.2l0.1,0c1-0.4,1.5-1.6,1.1-2.7C177.2,21.8,176.5,21.4,175.7,21.4L175.7,21.4z M164.4,26.3
		c-0.3,0-0.6,0.1-0.9,0.2c0,0,0,0,0,0c0,0,0,0,0,0c-1,0.5-1.5,1.7-1,2.7c0.3,0.7,1.1,1.2,1.9,1.2c0.3,0,0.6-0.1,0.9-0.2l0,0
		c1-0.5,1.5-1.7,1-2.7C165.9,26.8,165.2,26.3,164.4,26.3L164.4,26.3z M153.4,31.8c-0.3,0-0.6,0.1-0.9,0.2c0,0,0,0,0,0c0,0,0,0,0,0
		c-1,0.5-1.4,1.8-0.9,2.8c0.4,0.7,1.1,1.1,1.8,1.1c0.3,0,0.6-0.1,0.9-0.2l0,0c1-0.5,1.4-1.8,0.9-2.8
		C154.9,32.2,154.1,31.8,153.4,31.8L153.4,31.8z M142.6,37.7c-0.3,0-0.7,0.1-1,0.3c0,0,0,0,0,0c0,0,0,0,0,0c-1,0.6-1.3,1.8-0.7,2.8
		c0.4,0.7,1.1,1,1.8,1c0.3,0,0.7-0.1,1-0.3l0,0c1-0.6,1.3-1.8,0.7-2.8C144,38.1,143.3,37.7,142.6,37.7L142.6,37.7z M132.1,44.1
		c-0.4,0-0.8,0.1-1.1,0.3c0,0,0,0,0,0c0,0,0,0,0,0c-1,0.6-1.2,1.9-0.6,2.8c0.4,0.6,1.1,0.9,1.7,0.9c0.4,0,0.8-0.1,1.1-0.3l0,0
		c1-0.6,1.2-1.9,0.6-2.8C133.5,44.4,132.8,44.1,132.1,44.1L132.1,44.1z M121.9,50.9c-0.4,0-0.8,0.1-1.2,0.4c0,0,0,0,0,0c0,0,0,0,0,0
		c-0.9,0.7-1.1,1.9-0.5,2.9c0.4,0.6,1,0.9,1.7,0.9c0.4,0,0.8-0.1,1.2-0.4l0,0c0.9-0.7,1.2-1.9,0.5-2.9
		C123.2,51.2,122.6,50.9,121.9,50.9L121.9,50.9z M112,58.2c-0.4,0-0.9,0.1-1.2,0.4c0,0,0,0,0,0c0,0,0,0,0,0c-0.9,0.7-1.1,2-0.4,2.9
		c0.4,0.5,1,0.8,1.6,0.8c0.4,0,0.9-0.1,1.3-0.4l0,0c0.9-0.7,1.1-2,0.4-2.9C113.3,58.5,112.6,58.2,112,58.2L112,58.2z M102.5,65.9
		c-0.5,0-0.9,0.2-1.3,0.5c0,0,0,0,0,0c-0.9,0.7-1,2-0.2,2.9c0.4,0.5,1,0.7,1.6,0.7c0.5,0,0.9-0.2,1.3-0.5l0,0c0.9-0.7,1-2,0.2-2.9
		C103.6,66.2,103,65.9,102.5,65.9L102.5,65.9z M93.2,74c-0.5,0-1,0.2-1.4,0.5c0,0,0,0,0,0c-0.8,0.8-0.9,2.1-0.1,2.9
		c0.4,0.4,1,0.7,1.5,0.7c0.5,0,1-0.2,1.4-0.5l0,0c0.8-0.8,0.9-2.1,0.1-2.9C94.3,74.2,93.8,74,93.2,74L93.2,74z M84.4,82.5
		c-0.5,0-1.1,0.2-1.5,0.6c0,0,0,0,0,0c0,0,0,0,0,0c0,0,0,0,0,0c-0.8,0.8-0.8,2.1,0,2.9c0.4,0.4,0.9,0.6,1.5,0.6
		c0.5,0,1.1-0.2,1.5-0.6l0,0c0.8-0.8,0.8-2.1,0-2.9C85.4,82.7,84.9,82.5,84.4,82.5L84.4,82.5z M75.9,91.4c-0.6,0-1.1,0.2-1.5,0.7
		c0,0,0,0,0,0c-0.8,0.8-0.7,2.1,0.1,2.9c0.4,0.4,0.9,0.5,1.4,0.5c0.6,0,1.1-0.2,1.5-0.7l0,0c0.8-0.8,0.7-2.1-0.1-2.9
		C76.9,91.6,76.4,91.4,75.9,91.4L75.9,91.4z M67.8,100.7c-0.6,0-1.2,0.2-1.6,0.7c0,0,0,0,0,0c0,0,0,0,0,0l0,0c0,0,0,0,0,0
		c-0.7,0.9-0.6,2.2,0.3,2.9c0.4,0.3,0.9,0.5,1.3,0.5c0.6,0,1.2-0.2,1.6-0.7l0,0c0.7-0.9,0.6-2.2-0.3-2.9
		C68.7,100.8,68.2,100.7,67.8,100.7L67.8,100.7z M60.1,110.2c-0.6,0-1.2,0.3-1.6,0.8c0,0,0,0,0,0c0,0,0,0,0,0
		c-0.7,0.9-0.5,2.2,0.4,2.9c0.4,0.3,0.8,0.4,1.2,0.4c0.6,0,1.2-0.3,1.6-0.8l0,0c0.7-0.9,0.5-2.2-0.4-2.9
		C60.9,110.4,60.5,110.2,60.1,110.2L60.1,110.2z M52.8,120.1c-0.6,0-1.3,0.3-1.7,0.9c0,0,0,0,0,0c0,0,0,0,0,0
		c-0.7,0.9-0.4,2.2,0.5,2.9c0.4,0.3,0.8,0.4,1.2,0.4c0.6,0,1.3-0.3,1.7-0.9l0,0c0.7-0.9,0.4-2.2-0.5-2.9
		C53.6,120.3,53.2,120.1,52.8,120.1L52.8,120.1z M46,130.4c-0.7,0-1.3,0.3-1.7,0.9c0,0,0,0,0,0c0,0,0,0,0,0c-0.6,1-0.3,2.2,0.6,2.8
		c0.3,0.2,0.7,0.3,1.1,0.3c0.7,0,1.3-0.3,1.7-1l0,0c0.6-1,0.3-2.2-0.6-2.8C46.7,130.5,46.4,130.4,46,130.4L46,130.4z M39.6,140.9
		c-0.7,0-1.4,0.4-1.8,1c0,0,0,0,0,0c0,0,0,0,0,0.1c-0.6,1-0.2,2.2,0.8,2.8c0.3,0.2,0.7,0.3,1,0.3c0.7,0,1.4-0.4,1.8-1l0,0
		c0.6-1,0.2-2.2-0.8-2.8C40.3,141,39.9,140.9,39.6,140.9L39.6,140.9z M33.7,151.6c-0.7,0-1.5,0.4-1.8,1.1c0,0,0,0,0,0c0,0,0,0,0,0
		l0,0c0,0,0,0,0,0c-0.5,1-0.1,2.2,0.9,2.8c0.3,0.2,0.6,0.2,0.9,0.2c0.7,0,1.5-0.4,1.8-1.1l0,0c0.5-1,0.1-2.2-0.9-2.8
		C34.3,151.7,34,151.6,33.7,151.6L33.7,151.6z M28.3,162.7c-0.8,0-1.5,0.4-1.9,1.2c0,0,0,0,0,0c0,0,0,0,0,0c0,0,0,0,0,0
		c-0.5,1,0,2.2,1,2.7c0.3,0.1,0.6,0.2,0.9,0.2c0.8,0,1.5-0.4,1.9-1.2l0,0c0.5-1,0-2.3-1-2.7C28.8,162.7,28.5,162.7,28.3,162.7
		L28.3,162.7z M23.3,173.9c-0.8,0-1.6,0.5-1.9,1.3c0,0,0,0,0,0.1c-0.4,1,0.1,2.2,1.1,2.7c0.3,0.1,0.5,0.2,0.8,0.2
		c0.8,0,1.6-0.5,1.9-1.3l0-0.1c0.4-1-0.1-2.2-1.1-2.7C23.8,174,23.6,173.9,23.3,173.9L23.3,173.9z M18.9,185.4
		c-0.8,0-1.6,0.5-1.9,1.3c0,0,0,0,0,0c0,0,0,0,0,0c-0.4,1.1,0.2,2.2,1.2,2.6c0.2,0.1,0.5,0.1,0.7,0.1c0.8,0,1.6-0.5,1.9-1.4l0-0.1
		c0.4-1.1-0.2-2.2-1.2-2.6C19.3,185.4,19.1,185.4,18.9,185.4L18.9,185.4z M14.9,197c-0.9,0-1.7,0.6-2,1.4c0,0,0,0,0,0c0,0,0,0,0,0
		c-0.3,1.1,0.3,2.2,1.3,2.6c0.2,0.1,0.4,0.1,0.6,0.1c0.9,0,1.7-0.6,2-1.4l0-0.1c0.3-1.1-0.3-2.2-1.3-2.6C15.3,197,15.1,197,14.9,197
		L14.9,197z M11.5,208.8c-0.9,0-1.7,0.6-2,1.5c0,0,0,0,0,0c0,0,0,0,0,0c-0.3,1.1,0.4,2.2,1.5,2.5c0.2,0,0.4,0.1,0.5,0.1
		c0.9,0,1.7-0.6,2-1.5l0-0.1c0.3-1.1-0.4-2.2-1.5-2.5C11.9,208.8,11.7,208.8,11.5,208.8L11.5,208.8z M8.6,220.8
		c-0.9,0-1.8,0.6-2,1.6c0,0,0,0,0,0.1c-0.2,1.1,0.5,2.2,1.6,2.4c0.1,0,0.3,0,0.4,0c0.9,0,1.8-0.7,2-1.6l0-0.1
		c0.2-1.1-0.5-2.2-1.6-2.4C8.9,220.8,8.7,220.8,8.6,220.8L8.6,220.8z M6.2,232.8c-1,0-1.8,0.7-2,1.7c0,0,0,0,0,0c0,0,0,0,0,0.1
		c-0.2,1.1,0.6,2.2,1.7,2.4c0.1,0,0.2,0,0.4,0c1,0,1.8-0.7,2-1.7l0-0.1c0.2-1.1-0.6-2.2-1.7-2.4C6.5,232.8,6.3,232.8,6.2,232.8
		L6.2,232.8z M4.4,245c-1,0-1.9,0.7-2,1.8c0,0,0,0,0,0.1c0,0,0,0,0,0c-0.1,1.1,0.6,2.2,1.8,2.3c0.1,0,0.2,0,0.3,0c1,0,1.9-0.8,2-1.8
		l0-0.1c0.1-1.1-0.6-2.2-1.8-2.3C4.6,245,4.5,245,4.4,245L4.4,245z M3.1,257.2c-1.1,0-2,0.8-2,1.9c0,0,0,0,0,0c0,0,0,0,0,0
		c0,0,0,0,0,0c-0.1,1.1,0.7,2.1,1.9,2.2c0.1,0,0.1,0,0.2,0c1.1,0,2-0.8,2-1.9l0-0.1c0.1-1.1-0.7-2.1-1.9-2.2
		C3.2,257.2,3.1,257.2,3.1,257.2L3.1,257.2z M2.3,269.4c-1.1,0-2,0.9-2.1,2c0,0,0,0,0,0.1c0,0,0,0,0,0c0,1.1,0.8,2.1,2,2.1
		c0,0,0.1,0,0.1,0c1.1,0,2-0.9,2.1-2l0-0.1C4.4,270.5,3.5,269.5,2.3,269.4C2.4,269.4,2.3,269.4,2.3,269.4L2.3,269.4z M2.1,281.7
		C2.1,281.7,2.1,281.7,2.1,281.7c-1.1,0-2.1,0.9-2.1,2.1c0,0,0,0,0,0c0,0,0,0,0,0c0,1.1,0.9,2,2.1,2c0,0,0,0,0,0
		c1.1,0,2.1-0.9,2.1-2.1l0-0.1C4.1,282.7,3.2,281.7,2.1,281.7L2.1,281.7z M2.3,294C2.3,294,2.3,294,2.3,294c-1.2,0.1-2.1,1-2.1,2.1
		l0,0c0,0,0,0,0,0c0,0,0,0,0,0c0.1,1.1,1,2,2.1,2c0,0,0.1,0,0.1,0c1.1-0.1,2-1,2-2.1l0-0.1C4.3,294.9,3.4,294,2.3,294L2.3,294z
		 M3.1,306.3c-0.1,0-0.1,0-0.2,0c-1.1,0.1-2,1.1-1.9,2.2c0,0,0,0,0,0.1c0,0,0,0,0,0c0.1,1.1,1,1.9,2,1.9c0.1,0,0.1,0,0.2,0
		c1.1-0.1,2-1.1,1.9-2.2l0-0.1C5.1,307.1,4.2,306.3,3.1,306.3L3.1,306.3z M4.5,318.5c-0.1,0-0.2,0-0.3,0c-1.1,0.1-1.9,1.2-1.8,2.3
		c0,0,0,0,0,0c0,0,0,0,0,0c0.1,1,1,1.8,2,1.8c0.1,0,0.2,0,0.3,0c1.1-0.1,1.9-1.2,1.8-2.3l0-0.1C6.4,319.3,5.5,318.5,4.5,318.5
		L4.5,318.5z M6.4,330.7c-0.1,0-0.2,0-0.4,0c-1.1,0.2-1.9,1.3-1.7,2.4c0,0,0,0,0,0c0,0,0,0,0,0c0,0,0,0,0,0c0.2,1,1,1.7,2,1.7
		c0.1,0,0.2,0,0.4,0c1.1-0.2,1.9-1.3,1.7-2.4l0-0.1C8.2,331.4,7.3,330.7,6.4,330.7L6.4,330.7z M8.8,342.7c-0.1,0-0.3,0-0.4,0
		c-1.1,0.2-1.8,1.3-1.6,2.4c0,0,0,0,0,0c0,0,0,0,0,0c0,0,0,0,0,0c0.2,1,1.1,1.6,2,1.6c0.1,0,0.3,0,0.4,0c1.1-0.2,1.8-1.3,1.6-2.5
		l0-0.1C10.5,343.4,9.7,342.7,8.8,342.7L8.8,342.7z M11.7,354.6c-0.2,0-0.4,0-0.5,0.1c-1.1,0.3-1.7,1.4-1.5,2.5c0,0,0,0,0,0
		c0,0,0,0,0,0c0.2,0.9,1.1,1.5,2,1.5c0.2,0,0.4,0,0.5-0.1c1.1-0.3,1.7-1.4,1.4-2.5l0-0.1C13.4,355.2,12.6,354.6,11.7,354.6
		L11.7,354.6z M15.1,366.4c-0.2,0-0.4,0-0.6,0.1c-1.1,0.3-1.7,1.5-1.3,2.6l0,0c0,0,0,0,0,0c0,0,0,0,0,0c0.3,0.9,1.1,1.4,2,1.4
		c0.2,0,0.4,0,0.6-0.1c1.1-0.3,1.7-1.5,1.3-2.6l0-0.1C16.8,367,16,366.4,15.1,366.4L15.1,366.4z M19.1,378.1c-0.2,0-0.5,0-0.7,0.1
		c-1.1,0.4-1.6,1.6-1.2,2.6c0,0,0,0,0,0c0,0,0,0,0,0c0,0,0,0,0,0c0.3,0.8,1.1,1.3,1.9,1.3c0.2,0,0.5,0,0.7-0.1
		c1.1-0.4,1.6-1.6,1.2-2.6l0-0.1C20.7,378.6,19.9,378.1,19.1,378.1L19.1,378.1z M23.6,389.5c-0.3,0-0.5,0.1-0.8,0.2
		c-1,0.4-1.5,1.6-1.1,2.7c0,0,0,0,0,0.1c0.3,0.8,1.1,1.3,1.9,1.3c0.3,0,0.5-0.1,0.8-0.2c1-0.4,1.5-1.6,1.1-2.7l0-0.1
		C25.1,390,24.4,389.5,23.6,389.5L23.6,389.5z M28.5,400.7c-0.3,0-0.6,0.1-0.9,0.2c-1,0.5-1.5,1.7-1,2.7c0,0,0,0,0,0.1c0,0,0,0,0,0
		c0.3,0.7,1.1,1.2,1.9,1.2c0.3,0,0.6-0.1,0.9-0.2c1-0.5,1.5-1.7,1-2.7l0,0C30.1,401.2,29.3,400.7,28.5,400.7L28.5,400.7z M34,411.8
		c-0.3,0-0.6,0.1-1,0.2c-1,0.5-1.4,1.8-0.9,2.8c0,0,0,0,0,0.1c0.4,0.7,1.1,1.1,1.8,1.1c0.3,0,0.6-0.1,1-0.2c1-0.5,1.4-1.8,0.9-2.8
		l0,0C35.5,412.2,34.7,411.8,34,411.8L34,411.8z M39.9,422.5c-0.4,0-0.7,0.1-1,0.3c-1,0.6-1.3,1.8-0.7,2.8c0,0,0,0,0,0c0,0,0,0,0,0
		c0.4,0.7,1.1,1,1.8,1c0.4,0,0.7-0.1,1-0.3c1-0.6,1.3-1.8,0.7-2.8l0,0C41.3,422.9,40.6,422.5,39.9,422.5L39.9,422.5z M46.3,433
		c-0.4,0-0.8,0.1-1.1,0.3c-1,0.6-1.2,1.9-0.6,2.8c0,0,0,0,0,0c0,0,0,0,0,0c0.4,0.6,1.1,0.9,1.7,0.9c0.4,0,0.8-0.1,1.1-0.3
		c1-0.6,1.2-1.9,0.6-2.8l0,0C47.7,433.3,47,433,46.3,433L46.3,433z M53.2,443.2c-0.4,0-0.8,0.1-1.2,0.4c-0.9,0.7-1.2,1.9-0.5,2.9
		c0,0,0,0,0,0c0,0,0,0,0,0c0,0,0,0,0,0c0.4,0.6,1,0.9,1.7,0.9c0.4,0,0.8-0.1,1.2-0.4c0.9-0.7,1.1-1.9,0.5-2.9l0,0
		C54.5,443.5,53.8,443.2,53.2,443.2L53.2,443.2z M60.5,453.1c-0.4,0-0.9,0.1-1.3,0.4c-0.9,0.7-1.1,2-0.4,2.9c0,0,0,0,0,0
		c0,0,0,0,0,0c0.4,0.5,1,0.8,1.6,0.8c0.4,0,0.9-0.1,1.3-0.4c0.9-0.7,1.1-2,0.4-2.9l0,0C61.7,453.4,61.1,453.1,60.5,453.1L60.5,453.1
		z M68.2,462.7c-0.5,0-0.9,0.2-1.3,0.5c-0.9,0.7-1,2-0.2,2.9c0,0,0,0,0,0c0,0,0,0,0,0c0.4,0.5,1,0.7,1.6,0.7c0.5,0,0.9-0.2,1.3-0.5
		c0.9-0.7,1-2,0.2-2.9l0,0C69.4,462.9,68.8,462.7,68.2,462.7L68.2,462.7z M76.3,471.9c-0.5,0-1,0.2-1.4,0.5
		c-0.8,0.8-0.9,2.1-0.1,2.9c0,0,0,0,0,0.1c0.4,0.4,1,0.7,1.5,0.7c0.5,0,1-0.2,1.4-0.5c0.8-0.8,0.9-2.1,0.1-2.9l0,0
		C77.4,472.1,76.9,471.9,76.3,471.9L76.3,471.9z M84.8,480.7c-0.5,0-1.1,0.2-1.5,0.6c-0.8,0.8-0.8,2.1,0,2.9c0,0,0,0,0,0
		c0,0,0,0,0,0c0.4,0.4,0.9,0.6,1.4,0.6c0.5,0,1.1-0.2,1.5-0.6c0.8-0.8,0.8-2.1,0-2.9l0,0C85.9,480.9,85.4,480.7,84.8,480.7
		L84.8,480.7z M93.7,489.2c-0.6,0-1.1,0.2-1.5,0.7c-0.8,0.8-0.7,2.1,0.1,2.9l0,0c0,0,0,0,0,0c0.4,0.4,0.9,0.5,1.4,0.5
		c0.6,0,1.1-0.2,1.5-0.7c0.8-0.8,0.7-2.1-0.1-2.9l0,0C94.7,489.4,94.2,489.2,93.7,489.2L93.7,489.2z M103,497.3
		c-0.6,0-1.2,0.3-1.6,0.7c-0.7,0.9-0.6,2.2,0.2,2.9c0,0,0,0,0,0c0,0,0,0,0,0c0,0,0,0,0,0c0.4,0.3,0.8,0.5,1.3,0.5
		c0.6,0,1.2-0.3,1.6-0.7c0.7-0.9,0.6-2.2-0.3-2.9l0,0C103.9,497.5,103.5,497.3,103,497.3L103,497.3z M112.6,505
		c-0.6,0-1.2,0.3-1.6,0.8c-0.7,0.9-0.5,2.2,0.4,2.9c0,0,0,0,0.1,0c0.4,0.3,0.8,0.4,1.2,0.4c0.6,0,1.2-0.3,1.6-0.8
		c0.7-0.9,0.5-2.2-0.4-2.9l0,0C113.5,505.1,113,505,112.6,505L112.6,505z M122.5,512.3c-0.6,0-1.3,0.3-1.7,0.9
		c-0.6,0.9-0.4,2.2,0.5,2.9c0,0,0,0,0,0l0,0c0,0,0,0,0,0c0.4,0.3,0.8,0.4,1.2,0.4c0.6,0,1.3-0.3,1.7-0.9c0.6-0.9,0.4-2.2-0.5-2.9
		l0,0C123.3,512.4,122.9,512.3,122.5,512.3L122.5,512.3z M132.7,519.1c-0.7,0-1.3,0.3-1.7,1c-0.6,1-0.3,2.2,0.6,2.8c0,0,0,0,0,0
		c0.3,0.2,0.7,0.3,1.1,0.3c0.7,0,1.3-0.3,1.7-1c0.6-1,0.3-2.2-0.6-2.8l0,0C133.5,519.2,133.1,519.1,132.7,519.1L132.7,519.1z
		 M143.2,525.4c-0.7,0-1.4,0.4-1.8,1c-0.6,1-0.2,2.2,0.8,2.8c0,0,0,0,0,0c0,0,0,0,0,0c0,0,0,0,0,0c0,0,0,0,0,0
		c0.3,0.2,0.7,0.3,1,0.3c0.7,0,1.4-0.4,1.8-1c0.6-1,0.2-2.2-0.8-2.8l0,0C143.9,525.5,143.6,525.4,143.2,525.4L143.2,525.4z
		 M154,531.3c-0.7,0-1.5,0.4-1.8,1.1c-0.5,1-0.1,2.2,0.9,2.8c0,0,0,0,0,0c0,0,0,0,0,0c0.3,0.2,0.6,0.2,0.9,0.2
		c0.7,0,1.5-0.4,1.8-1.1c0.5-1,0.1-2.2-0.9-2.8l0,0C154.7,531.4,154.3,531.3,154,531.3L154,531.3z M165.1,536.8
		c-0.8,0-1.5,0.4-1.9,1.2c-0.5,1,0,2.2,1,2.7c0,0,0,0,0,0c0,0,0,0,0,0c0.3,0.1,0.6,0.2,0.9,0.2c0.8,0,1.5-0.4,1.9-1.2
		c0.5-1,0-2.3-1-2.7l0,0C165.6,536.8,165.3,536.8,165.1,536.8L165.1,536.8z M176.3,541.7c-0.8,0-1.6,0.5-1.9,1.3
		c-0.4,1,0.1,2.2,1.1,2.7c0,0,0,0,0,0c0,0,0,0,0,0c0.3,0.1,0.5,0.2,0.8,0.2c0.8,0,1.6-0.5,1.9-1.3c0.4-1-0.1-2.2-1.1-2.7l-0.1,0
		C176.8,541.7,176.6,541.7,176.3,541.7L176.3,541.7z M187.8,546.1c-0.8,0-1.6,0.5-1.9,1.4c-0.4,1.1,0.2,2.2,1.2,2.6c0,0,0,0,0,0
		c0,0,0,0,0,0c0,0,0,0,0,0c0.2,0.1,0.5,0.1,0.7,0.1c0.8,0,1.6-0.5,1.9-1.4c0.4-1.1-0.2-2.2-1.2-2.6l-0.1,0
		C188.2,546.2,188,546.1,187.8,546.1L187.8,546.1z M199.4,550c-0.9,0-1.7,0.6-2,1.4c-0.3,1.1,0.3,2.2,1.3,2.6c0,0,0,0,0.1,0
		c0.2,0.1,0.4,0.1,0.6,0.1c0.9,0,1.7-0.6,2-1.4c0.3-1.1-0.3-2.2-1.3-2.6l-0.1,0C199.8,550.1,199.6,550,199.4,550L199.4,550z
		 M211.2,553.4c-0.9,0-1.7,0.6-2,1.5c-0.3,1.1,0.4,2.2,1.5,2.5c0,0,0,0,0,0c0,0,0,0,0,0c0,0,0,0,0,0c0.2,0,0.4,0.1,0.5,0.1
		c0.9,0,1.7-0.6,2-1.5c0.3-1.1-0.4-2.2-1.5-2.5l-0.1,0C211.6,553.5,211.4,553.4,211.2,553.4L211.2,553.4z M223.2,556.3
		c-0.9,0-1.8,0.7-2,1.6c-0.2,1.1,0.5,2.2,1.6,2.4c0,0,0,0,0,0c0,0,0,0,0,0c0.1,0,0.3,0,0.4,0c0.9,0,1.8-0.7,2-1.6
		c0.2-1.1-0.5-2.2-1.6-2.4l-0.1,0C223.5,556.3,223.3,556.3,223.2,556.3L223.2,556.3z M235.2,558.7c-1,0-1.8,0.7-2,1.7
		c-0.2,1.1,0.6,2.2,1.7,2.4c0,0,0,0,0,0c0,0,0,0,0,0c0,0,0,0,0,0c0.1,0,0.2,0,0.4,0c1,0,1.8-0.7,2-1.7c0.2-1.1-0.6-2.2-1.7-2.4
		l-0.1,0C235.5,558.7,235.3,558.7,235.2,558.7L235.2,558.7z M247.4,560.5c-1,0-1.9,0.8-2,1.8c-0.1,1.1,0.7,2.2,1.8,2.3
		c0,0,0,0,0.1,0c0.1,0,0.2,0,0.3,0c1,0,1.9-0.8,2-1.8c0.1-1.1-0.7-2.2-1.8-2.3l-0.1,0C247.5,560.5,247.5,560.5,247.4,560.5
		L247.4,560.5z M259.6,561.8c-1.1,0-2,0.8-2,1.9c-0.1,1.1,0.7,2.1,1.9,2.2c0,0,0,0,0.1,0c0,0,0,0,0,0c0.1,0,0.1,0,0.2,0
		c1.1,0,2-0.8,2-1.9c0.1-1.1-0.7-2.1-1.9-2.2l-0.1,0C259.7,561.8,259.7,561.8,259.6,561.8L259.6,561.8z M271.9,562.6
		c-1.1,0-2,0.9-2.1,2c0,1.1,0.8,2.1,2,2.1c0,0,0,0,0.1,0c0,0,0,0,0.1,0c1.1,0,2-0.9,2.1-2c0-1.1-0.8-2.1-2-2.1L271.9,562.6
		C271.9,562.6,271.9,562.6,271.9,562.6L271.9,562.6z M284.2,562.8C284.2,562.8,284.2,562.8,284.2,562.8L284.2,562.8
		c-1.2,0-2.1,0.9-2.1,2.1c0,1.1,0.9,2,2.1,2c0,0,0,0,0,0c0,0,0,0,0,0c1.1,0,2.1-0.9,2-2.1C286.3,563.7,285.3,562.8,284.2,562.8
		L284.2,562.8z M296.5,562.5C296.5,562.5,296.4,562.5,296.5,562.5l-0.1,0c-1.1,0.1-2,1-2,2.1c0,1.1,1,2,2.1,2c0,0,0.1,0,0.1,0
		c0,0,0,0,0.1,0c1.1-0.1,2-1,2-2.1C298.5,563.4,297.6,562.5,296.5,562.5L296.5,562.5z M308.8,561.7c-0.1,0-0.1,0-0.2,0l-0.1,0
		c-1.1,0.1-2,1.1-1.9,2.2c0.1,1.1,1,1.9,2,1.9c0.1,0,0.1,0,0.2,0c0,0,0,0,0,0c0,0,0,0,0,0c1.1-0.1,2-1.1,1.9-2.2
		C310.7,562.5,309.8,561.7,308.8,561.7L308.8,561.7z M321,560.3c-0.1,0-0.2,0-0.3,0l-0.1,0c-1.1,0.1-1.9,1.2-1.8,2.3
		c0.1,1,1,1.8,2,1.8c0.1,0,0.2,0,0.3,0c0,0,0.1,0,0.1,0c1.1-0.2,1.9-1.2,1.8-2.3C322.9,561.1,322,560.3,321,560.3L321,560.3z
		 M333.1,558.4c-0.1,0-0.2,0-0.4,0l-0.1,0c-1.1,0.2-1.9,1.3-1.7,2.4c0.2,1,1,1.7,2,1.7c0.1,0,0.2,0,0.4,0c0,0,0,0,0,0c0,0,0,0,0,0
		c1.1-0.2,1.9-1.3,1.7-2.4C335,559.1,334.1,558.4,333.1,558.4L333.1,558.4z M345.2,556c-0.1,0-0.3,0-0.5,0l-0.1,0
		c-1.1,0.2-1.8,1.3-1.6,2.5c0.2,1,1.1,1.6,2,1.6c0.1,0,0.3,0,0.5,0c0,0,0,0,0.1,0c1.1-0.2,1.8-1.3,1.6-2.5
		C347,556.7,346.1,556,345.2,556L345.2,556z M357.1,553.1c-0.2,0-0.4,0-0.5,0.1l-0.1,0c-1.1,0.3-1.7,1.4-1.4,2.5
		c0.2,0.9,1.1,1.5,2,1.5c0.2,0,0.4,0,0.5-0.1c0,0,0,0,0,0c0,0,0,0,0,0c1.1-0.3,1.7-1.4,1.4-2.5C358.8,553.7,358,553.1,357.1,553.1
		L357.1,553.1z M368.9,549.6c-0.2,0-0.4,0-0.6,0.1l-0.1,0c-1.1,0.3-1.7,1.5-1.3,2.6c0.3,0.9,1.1,1.4,2,1.4c0.2,0,0.4,0,0.6-0.1
		c0,0,0,0,0.1,0c1.1-0.3,1.7-1.5,1.3-2.6C370.6,550.2,369.8,549.6,368.9,549.6L368.9,549.6z M380.5,545.6c-0.2,0-0.5,0-0.7,0.1
		l-0.1,0c-1.1,0.4-1.6,1.6-1.2,2.6c0.3,0.8,1.1,1.3,1.9,1.3c0.2,0,0.5,0,0.7-0.1c0,0,0,0,0,0c0,0,0,0,0,0c1.1-0.4,1.6-1.6,1.2-2.6
		C382.1,546.1,381.3,545.6,380.5,545.6L380.5,545.6z M391.9,541.1c-0.3,0-0.5,0.1-0.8,0.2l-0.1,0c-1,0.4-1.5,1.6-1.1,2.7
		c0.3,0.8,1.1,1.3,1.9,1.3c0.3,0,0.5-0.1,0.8-0.2c0,0,0,0,0,0c0,0,0,0,0,0c1-0.4,1.5-1.6,1.1-2.7
		C393.5,541.6,392.8,541.1,391.9,541.1L391.9,541.1z M403.2,536.1c-0.3,0-0.6,0.1-0.9,0.2l0,0c-1,0.5-1.5,1.7-1,2.7
		c0.4,0.7,1.1,1.2,1.9,1.2c0.3,0,0.6-0.1,0.9-0.2c0,0,0,0,0,0c0,0,0,0,0,0c1-0.5,1.5-1.7,1-2.7C404.7,536.6,403.9,536.1,403.2,536.1
		L403.2,536.1z M414.2,530.7c-0.3,0-0.6,0.1-1,0.2l0,0c-1,0.5-1.4,1.8-0.9,2.8c0.4,0.7,1.1,1.1,1.8,1.1c0.3,0,0.6-0.1,0.9-0.2
		c0,0,0,0,0.1,0c1-0.5,1.4-1.8,0.9-2.8C415.6,531.1,414.9,530.7,414.2,530.7L414.2,530.7z M424.9,524.7c-0.4,0-0.7,0.1-1,0.3l0,0
		c-1,0.6-1.3,1.8-0.7,2.8c0.4,0.7,1.1,1,1.8,1c0.3,0,0.7-0.1,1-0.3c0,0,0,0,0,0c0,0,0,0,0,0c0,0,0,0,0,0c1-0.6,1.3-1.8,0.7-2.8
		C426.3,525.1,425.6,524.7,424.9,524.7L424.9,524.7z M435.4,518.3c-0.4,0-0.8,0.1-1.1,0.3l0,0c-1,0.6-1.2,1.9-0.6,2.8
		c0.4,0.6,1.1,0.9,1.7,0.9c0.4,0,0.8-0.1,1.1-0.3c0,0,0,0,0,0c0,0,0,0,0,0c1-0.6,1.2-1.9,0.6-2.8
		C436.7,518.6,436.1,518.3,435.4,518.3L435.4,518.3z M445.6,511.4c-0.4,0-0.8,0.1-1.2,0.4l0,0c-0.9,0.7-1.1,1.9-0.5,2.9
		c0.4,0.6,1,0.9,1.7,0.9c0.4,0,0.8-0.1,1.2-0.4c0,0,0,0,0,0c0.9-0.7,1.1-1.9,0.5-2.9C446.9,511.7,446.2,511.4,445.6,511.4
		L445.6,511.4z M455.5,504.1c-0.4,0-0.9,0.1-1.3,0.4l0,0c-0.9,0.7-1.1,2-0.4,2.9c0.4,0.5,1,0.8,1.6,0.8c0.4,0,0.9-0.1,1.2-0.4
		c0,0,0,0,0.1,0c0.9-0.7,1.1-2,0.4-2.9C456.7,504.4,456.1,504.1,455.5,504.1L455.5,504.1z M465,496.4c-0.5,0-0.9,0.2-1.3,0.5l0,0
		c-0.9,0.7-1,2-0.2,2.9c0.4,0.5,1,0.7,1.6,0.7c0.5,0,0.9-0.2,1.3-0.5c0,0,0,0,0,0c0.9-0.7,1-2,0.2-2.9
		C466.2,496.6,465.6,496.4,465,496.4L465,496.4z M474.2,488.3c-0.5,0-1,0.2-1.4,0.5l0,0c-0.8,0.8-0.9,2.1-0.1,2.9
		c0.4,0.4,1,0.7,1.5,0.7c0.5,0,1-0.2,1.4-0.5c0,0,0,0,0,0c0,0,0,0,0,0c0.8-0.8,0.9-2.1,0.1-2.9C475.4,488.5,474.8,488.3,474.2,488.3
		L474.2,488.3z M483.1,479.7c-0.5,0-1.1,0.2-1.5,0.6l0,0c-0.8,0.8-0.8,2.1,0,2.9c0.4,0.4,0.9,0.6,1.4,0.6c0.5,0,1.1-0.2,1.5-0.6
		c0,0,0,0,0,0c0,0,0,0,0,0c0.8-0.8,0.8-2.1,0-2.9C484.1,479.9,483.6,479.7,483.1,479.7L483.1,479.7z M491.6,470.8
		c-0.6,0-1.1,0.2-1.5,0.7l0,0c-0.8,0.8-0.7,2.1,0.1,2.9c0.4,0.4,0.9,0.5,1.4,0.5c0.6,0,1.1-0.2,1.5-0.7c0,0,0,0,0,0c0,0,0,0,0,0
		c0.8-0.8,0.7-2.1-0.1-2.9C492.6,471,492.1,470.8,491.6,470.8L491.6,470.8z M499.6,461.6c-0.6,0-1.2,0.3-1.6,0.7l0,0
		c-0.7,0.9-0.6,2.2,0.3,2.9c0.4,0.3,0.9,0.5,1.3,0.5c0.6,0,1.2-0.2,1.6-0.7c0,0,0,0,0-0.1c0.7-0.9,0.6-2.2-0.3-2.9
		C500.6,461.7,500.1,461.6,499.6,461.6L499.6,461.6z M507.3,452c-0.6,0-1.2,0.3-1.6,0.8l0,0c-0.7,0.9-0.5,2.2,0.4,2.9
		c0.4,0.3,0.8,0.4,1.2,0.4c0.6,0,1.2-0.3,1.6-0.8c0,0,0,0,0,0c0,0,0,0,0,0c0.7-0.9,0.5-2.2-0.4-2.9C508.2,452.1,507.7,452,507.3,452
		L507.3,452z M514.6,442c-0.6,0-1.3,0.3-1.7,0.9l0,0c-0.6,0.9-0.4,2.2,0.5,2.9c0.4,0.2,0.8,0.4,1.2,0.4c0.6,0,1.3-0.3,1.7-0.9
		c0,0,0,0,0,0c0,0,0,0,0,0c0.6-0.9,0.4-2.2-0.5-2.9C515.4,442.2,515,442,514.6,442L514.6,442z M521.4,431.8c-0.7,0-1.3,0.3-1.7,1
		l0,0c-0.6,1-0.3,2.2,0.6,2.8c0.3,0.2,0.7,0.3,1.1,0.3c0.7,0,1.3-0.3,1.7-1c0,0,0,0,0,0c0,0,0,0,0,0c0.6-1,0.3-2.2-0.6-2.8
		C522.1,431.9,521.7,431.8,521.4,431.8L521.4,431.8z M527.7,421.3c-0.7,0-1.4,0.4-1.8,1l0,0c-0.6,1-0.2,2.2,0.8,2.8
		c0.3,0.2,0.7,0.3,1,0.3c0.7,0,1.4-0.4,1.8-1c0,0,0,0,0,0c0,0,0,0,0,0c0.6-1,0.2-2.2-0.8-2.8C528.4,421.4,528.1,421.3,527.7,421.3
		L527.7,421.3z M533.6,410.5c-0.7,0-1.5,0.4-1.8,1.1l0,0c-0.5,1-0.1,2.2,0.9,2.8c0.3,0.2,0.6,0.2,0.9,0.2c0.7,0,1.5-0.4,1.8-1.1
		c0,0,0,0,0-0.1c0.5-1,0.1-2.2-0.9-2.8C534.2,410.6,533.9,410.5,533.6,410.5L533.6,410.5z M539,399.4c-0.8,0-1.5,0.4-1.9,1.2l0,0
		c-0.5,1,0,2.3,1,2.7c0.3,0.1,0.6,0.2,0.9,0.2c0.8,0,1.5-0.4,1.9-1.2c0,0,0,0,0,0c0,0,0,0,0,0c0,0,0,0,0,0c0.5-1,0-2.2-1-2.7
		C539.6,399.5,539.3,399.4,539,399.4L539,399.4z M543.9,388.2c-0.8,0-1.6,0.5-1.9,1.3l0,0.1c-0.4,1,0.1,2.2,1.1,2.7
		c0.3,0.1,0.5,0.2,0.8,0.2c0.8,0,1.6-0.5,1.9-1.3c0,0,0,0,0-0.1c0.4-1-0.1-2.2-1.1-2.7C544.4,388.2,544.2,388.2,543.9,388.2
		L543.9,388.2z M548.3,376.7c-0.8,0-1.6,0.5-1.9,1.4l0,0.1c-0.4,1.1,0.2,2.2,1.2,2.6c0.2,0.1,0.5,0.1,0.7,0.1c0.8,0,1.6-0.5,1.9-1.4
		c0,0,0,0,0,0c0,0,0,0,0,0c0,0,0,0,0,0c0.4-1.1-0.2-2.2-1.2-2.6C548.8,376.8,548.6,376.7,548.3,376.7L548.3,376.7z M552.2,365.1
		c-0.9,0-1.7,0.6-2,1.4l0,0.1c-0.3,1.1,0.3,2.2,1.4,2.6c0.2,0.1,0.4,0.1,0.6,0.1c0.9,0,1.7-0.6,2-1.4c0,0,0,0,0,0c0,0,0,0,0,0
		c0.3-1.1-0.3-2.2-1.4-2.6C552.6,365.1,552.4,365.1,552.2,365.1L552.2,365.1z M555.6,353.3c-0.9,0-1.7,0.6-2,1.5l0,0.1
		c-0.3,1.1,0.4,2.2,1.5,2.5c0.2,0,0.4,0.1,0.5,0.1c0.9,0,1.7-0.6,2-1.5c0,0,0,0,0-0.1c0.3-1.1-0.4-2.2-1.5-2.5
		C556,353.3,555.8,353.3,555.6,353.3L555.6,353.3z M558.5,341.3c-0.9,0-1.8,0.7-2,1.6l0,0.1c-0.2,1.1,0.5,2.2,1.6,2.4
		c0.1,0,0.3,0,0.4,0c0.9,0,1.8-0.7,2-1.6c0,0,0,0,0,0c0,0,0,0,0,0c0.2-1.1-0.5-2.2-1.6-2.4C558.8,341.3,558.6,341.3,558.5,341.3
		L558.5,341.3z M560.8,329.2c-1,0-1.9,0.7-2,1.7l0,0.1c-0.2,1.1,0.6,2.2,1.7,2.4c0.1,0,0.2,0,0.3,0c1,0,1.9-0.7,2-1.7c0,0,0,0,0-0.1
		c0.2-1.1-0.6-2.2-1.7-2.4C561.1,329.3,560.9,329.2,560.8,329.2L560.8,329.2z M562.6,317.1c-1,0-1.9,0.8-2,1.8l0,0.1
		c-0.1,1.1,0.7,2.2,1.8,2.3c0.1,0,0.2,0,0.3,0c1,0,1.9-0.8,2-1.8c0,0,0,0,0,0c0,0,0,0,0,0c0,0,0,0,0,0c0.1-1.1-0.7-2.2-1.8-2.3
		C562.8,317.1,562.7,317.1,562.6,317.1L562.6,317.1z M563.9,304.9c-1.1,0-2,0.8-2,1.9l0,0.1c-0.1,1.1,0.7,2.1,1.9,2.2
		c0.1,0,0.1,0,0.2,0c1.1,0,1.9-0.8,2-1.9c0,0,0,0,0-0.1c0.1-1.1-0.8-2.1-1.9-2.2C564,304.9,564,304.9,563.9,304.9L563.9,304.9z
		 M564.7,292.6c-1.1,0-2,0.9-2.1,2l0,0.1c0,1.1,0.8,2.1,2,2.1c0,0,0.1,0,0.1,0c1.1,0,2-0.9,2.1-2c0,0,0,0,0,0c0,0,0,0,0,0
		c0,0,0,0,0,0C566.8,293.6,565.9,292.6,564.7,292.6C564.7,292.6,564.7,292.6,564.7,292.6L564.7,292.6z M564.9,280.3
		C564.9,280.3,564.9,280.3,564.9,280.3c-1.1,0-2.1,0.9-2.1,2.1l0,0.1c0,1.1,0.9,2,2.1,2c0,0,0,0,0,0c1.1,0,2.1-0.9,2-2.1
		c0,0,0,0,0,0c0,0,0,0,0-0.1C566.9,281.2,566,280.3,564.9,280.3L564.9,280.3z M564.6,268C564.5,268,564.5,268,564.6,268
		c-1.2,0.1-2.1,1-2.1,2.2l0,0.1c0.1,1.1,1,2,2.1,2c0,0,0.1,0,0.1,0c1.1-0.1,2-1,2-2.1c0,0,0,0,0,0c0,0,0,0,0,0c0,0,0,0,0,0
		C566.6,268.9,565.7,268,564.6,268L564.6,268z M563.7,255.8c-0.1,0-0.1,0-0.2,0c-1.1,0.1-2,1.1-1.9,2.2l0,0.1c0.1,1.1,1,1.9,2,1.9
		c0.1,0,0.1,0,0.2,0c1.1-0.1,2-1.1,1.9-2.2c0,0,0,0,0,0c0,0,0,0,0,0c0,0,0,0,0,0C565.7,256.6,564.8,255.8,563.7,255.8L563.7,255.8z
		 M562.4,243.5c-0.1,0-0.2,0-0.3,0c-1.1,0.2-1.9,1.2-1.8,2.3l0,0.1c0.1,1,1,1.8,2,1.8c0.1,0,0.2,0,0.3,0c1.1-0.2,1.9-1.2,1.8-2.3
		c0,0,0,0,0,0c0,0,0,0,0,0c0,0,0,0,0,0C564.2,244.3,563.4,243.5,562.4,243.5L562.4,243.5z M560.5,231.4c-0.1,0-0.2,0-0.4,0
		c-1.1,0.2-1.9,1.3-1.7,2.4l0,0.1c0.2,1,1,1.7,2,1.7c0.1,0,0.2,0,0.4,0c1.1-0.2,1.9-1.3,1.7-2.4c0,0,0,0,0,0c0,0,0,0,0,0
		c0,0,0,0,0,0C562.3,232.1,561.4,231.4,560.5,231.4L560.5,231.4z M558,219.4c-0.1,0-0.3,0-0.5,0.1c-1.1,0.2-1.8,1.3-1.6,2.5l0,0.1
		c0.2,1,1.1,1.6,2,1.6c0.1,0,0.3,0,0.5-0.1c1.1-0.2,1.8-1.3,1.6-2.5c0,0,0,0,0,0c0,0,0,0,0,0c0,0,0,0,0,0
		C559.8,220,559,219.4,558,219.4L558,219.4z M555.1,207.4c-0.2,0-0.4,0-0.5,0.1c-1.1,0.3-1.7,1.4-1.4,2.5l0,0.1
		c0.2,0.9,1.1,1.5,2,1.5c0.2,0,0.4,0,0.5-0.1c1.1-0.3,1.7-1.4,1.4-2.5c0,0,0,0,0-0.1C556.8,208,556,207.4,555.1,207.4L555.1,207.4z
		 M551.6,195.6c-0.2,0-0.4,0-0.6,0.1c-1.1,0.3-1.7,1.5-1.3,2.6l0,0.1c0.3,0.9,1.1,1.4,2,1.4c0.2,0,0.4,0,0.6-0.1
		c1.1-0.3,1.7-1.5,1.3-2.6c0,0,0,0,0,0c0,0,0,0,0,0C553.2,196.2,552.4,195.6,551.6,195.6L551.6,195.6z M547.6,184
		c-0.2,0-0.5,0-0.7,0.1c-1.1,0.4-1.6,1.6-1.2,2.6l0,0.1c0.3,0.8,1.1,1.3,1.9,1.3c0.2,0,0.5,0,0.7-0.1c1.1-0.4,1.6-1.6,1.2-2.6
		c0,0,0,0,0-0.1C549.2,184.5,548.4,184,547.6,184L547.6,184z M543.1,172.6c-0.3,0-0.5,0.1-0.8,0.2c-1,0.4-1.5,1.6-1.1,2.7l0,0.1
		c0.3,0.8,1.1,1.3,1.9,1.3c0.3,0,0.5-0.1,0.8-0.2c1-0.4,1.5-1.6,1.1-2.7c0,0,0,0,0,0l0,0C544.6,173.1,543.9,172.6,543.1,172.6
		L543.1,172.6z M538.1,161.4c-0.3,0-0.6,0.1-0.9,0.2c-1,0.5-1.5,1.7-1,2.7l0,0c0.4,0.7,1.1,1.2,1.9,1.2c0.3,0,0.6-0.1,0.9-0.2
		c1-0.5,1.5-1.7,1-2.7c0,0,0-0.1,0-0.1C539.6,161.8,538.8,161.4,538.1,161.4L538.1,161.4z M532.6,150.4c-0.3,0-0.7,0.1-1,0.2
		c-1,0.5-1.4,1.8-0.9,2.8l0,0c0.4,0.7,1.1,1.1,1.8,1.1c0.3,0,0.7-0.1,1-0.2c1-0.5,1.4-1.8,0.9-2.8c0,0,0,0,0,0c0,0,0,0,0,0
		c0,0,0,0,0,0C534,150.8,533.3,150.4,532.6,150.4L532.6,150.4z M526.6,139.6c-0.4,0-0.7,0.1-1,0.3c-1,0.6-1.3,1.8-0.7,2.8l0,0
		c0.4,0.7,1.1,1,1.8,1c0.4,0,0.7-0.1,1-0.3c1-0.6,1.3-1.8,0.7-2.8c0,0,0,0,0-0.1c0,0,0,0,0,0C528,140,527.3,139.6,526.6,139.6
		L526.6,139.6z M520.2,129.2c-0.4,0-0.8,0.1-1.1,0.3c-1,0.6-1.2,1.9-0.6,2.8l0,0c0.4,0.6,1.1,0.9,1.7,0.9c0.4,0,0.8-0.1,1.1-0.3
		c1-0.6,1.2-1.9,0.6-2.8c0,0,0,0,0,0c0,0,0,0,0,0C521.5,129.5,520.9,129.2,520.2,129.2L520.2,129.2z M513.3,119
		c-0.4,0-0.8,0.1-1.2,0.4c-0.9,0.7-1.1,1.9-0.5,2.9l0,0c0.4,0.6,1,0.9,1.7,0.9c0.4,0,0.8-0.1,1.2-0.4c0.9-0.7,1.1-1.9,0.5-2.9
		c0,0,0,0,0,0c0,0,0,0,0,0C514.6,119.3,513.9,119,513.3,119L513.3,119z M506,109.1c-0.4,0-0.9,0.1-1.3,0.4c-0.9,0.7-1.1,2-0.4,2.9
		l0,0c0.4,0.5,1,0.8,1.6,0.8c0.4,0,0.9-0.1,1.3-0.4c0.9-0.7,1.1-2,0.4-2.9c0,0,0,0,0,0c0,0,0,0,0,0
		C507.2,109.4,506.6,109.1,506,109.1L506,109.1z M498.2,99.6c-0.5,0-0.9,0.2-1.3,0.5c-0.9,0.7-1,2-0.2,2.9l0,0
		c0.4,0.5,1,0.7,1.6,0.7c0.5,0,0.9-0.2,1.3-0.5c0.9-0.7,1-2,0.2-2.9c0,0,0,0,0,0l0,0C499.4,99.8,498.8,99.6,498.2,99.6L498.2,99.6z
		 M490.1,90.4c-0.5,0-1,0.2-1.4,0.5c-0.8,0.8-0.9,2.1-0.1,2.9l0,0c0.4,0.4,1,0.7,1.5,0.7c0.5,0,1-0.2,1.4-0.5
		c0.8-0.8,0.9-2.1,0.1-2.9c0,0,0,0,0,0c0,0,0,0,0,0C491.2,90.6,490.6,90.4,490.1,90.4L490.1,90.4z M481.6,81.5
		c-0.5,0-1.1,0.2-1.5,0.6c-0.8,0.8-0.8,2.1,0,2.9l0,0c0.4,0.4,0.9,0.6,1.4,0.6c0.5,0,1.1-0.2,1.5-0.6c0.8-0.8,0.8-2.1,0-2.9l0,0
		c0,0,0,0,0,0l0,0C482.6,81.7,482.1,81.5,481.6,81.5L481.6,81.5z M472.6,73.1c-0.6,0-1.1,0.2-1.5,0.7c-0.8,0.8-0.7,2.1,0.1,2.9l0,0
		c0.4,0.4,0.9,0.5,1.4,0.5c0.6,0,1.1-0.2,1.5-0.7c0.8-0.8,0.7-2.1-0.1-2.9c0,0,0,0,0,0c0,0,0,0,0,0
		C473.6,73.2,473.1,73.1,472.6,73.1L472.6,73.1z M463.4,65c-0.6,0-1.2,0.3-1.6,0.7c-0.7,0.9-0.6,2.2,0.3,2.9l0,0
		c0.4,0.3,0.8,0.5,1.3,0.5c0.6,0,1.2-0.3,1.6-0.7c0.7-0.9,0.6-2.2-0.3-2.9c0,0,0,0,0,0c0,0,0,0,0,0l0,0
		C464.3,65.1,463.8,65,463.4,65L463.4,65z M453.8,57.3c-0.6,0-1.2,0.3-1.6,0.8c-0.7,0.9-0.5,2.2,0.4,2.9l0,0
		c0.4,0.3,0.8,0.4,1.2,0.4c0.6,0,1.2-0.3,1.6-0.8c0.7-0.9,0.5-2.2-0.4-2.9c0,0,0,0,0,0c0,0,0,0,0,0
		C454.6,57.5,454.2,57.3,453.8,57.3L453.8,57.3z M443.8,50.1c-0.7,0-1.3,0.3-1.7,0.9c-0.6,0.9-0.4,2.2,0.5,2.9l0,0
		c0.4,0.2,0.8,0.4,1.2,0.4c0.7,0,1.3-0.3,1.7-0.9c0.6-0.9,0.4-2.2-0.5-2.9c0,0,0,0,0,0c0,0,0,0,0,0
		C444.6,50.2,444.2,50.1,443.8,50.1L443.8,50.1z M433.6,43.3c-0.7,0-1.3,0.3-1.7,1c-0.6,1-0.3,2.2,0.6,2.8l0,0
		c0.3,0.2,0.7,0.3,1.1,0.3c0.7,0,1.3-0.3,1.7-1c0.6-1,0.3-2.2-0.6-2.8c0,0,0,0,0,0l0,0c0,0,0,0,0,0C434.3,43.4,434,43.3,433.6,43.3
		L433.6,43.3z M423,37c-0.7,0-1.4,0.4-1.8,1c-0.6,1-0.2,2.2,0.8,2.8l0,0c0.3,0.2,0.7,0.3,1,0.3c0.7,0,1.4-0.4,1.8-1
		c0.6-1,0.2-2.2-0.8-2.8c0,0,0,0,0,0c0,0,0,0-0.1,0C423.7,37.1,423.4,37,423,37L423,37z M412.2,31.1c-0.7,0-1.5,0.4-1.8,1.1
		c-0.5,1-0.1,2.2,0.9,2.8l0,0c0.3,0.2,0.6,0.2,0.9,0.2c0.7,0,1.5-0.4,1.8-1.1c0.5-1,0.1-2.2-0.9-2.8l0,0c0,0,0,0,0,0
		C412.9,31.2,412.6,31.1,412.2,31.1L412.2,31.1z M401.2,25.7c-0.8,0-1.5,0.4-1.9,1.2c-0.5,1,0,2.3,1,2.7l0,0
		c0.3,0.1,0.6,0.2,0.9,0.2c0.8,0,1.5-0.4,1.9-1.2c0.5-1,0-2.2-1-2.7c0,0,0,0-0.1,0C401.8,25.8,401.5,25.7,401.2,25.7L401.2,25.7z
		 M389.9,20.8c-0.8,0-1.6,0.5-1.9,1.3c-0.4,1,0.1,2.2,1.1,2.7l0.1,0c0.3,0.1,0.5,0.2,0.8,0.2c0.8,0,1.6-0.5,1.9-1.3
		c0.4-1-0.1-2.2-1.1-2.7c0,0,0,0,0,0c0,0,0,0-0.1,0C390.5,20.9,390.2,20.8,389.9,20.8L389.9,20.8z M378.5,16.4
		c-0.8,0-1.6,0.5-1.9,1.4c-0.4,1.1,0.2,2.2,1.2,2.6l0.1,0c0.2,0.1,0.5,0.1,0.7,0.1c0.8,0,1.6-0.5,1.9-1.4c0.4-1.1-0.2-2.2-1.2-2.6
		c0,0-0.1,0-0.1,0C378.9,16.5,378.7,16.4,378.5,16.4L378.5,16.4z M366.8,12.5c-0.9,0-1.7,0.6-2,1.4c-0.3,1.1,0.3,2.2,1.4,2.6l0.1,0
		c0.2,0.1,0.4,0.1,0.6,0.1c0.9,0,1.7-0.6,2-1.4c0.3-1.1-0.3-2.2-1.3-2.6c0,0,0,0,0,0c0,0,0,0,0,0C367.2,12.6,367,12.5,366.8,12.5
		L366.8,12.5z M355,9.2c-0.9,0-1.7,0.6-2,1.5c-0.3,1.1,0.4,2.2,1.5,2.5l0.1,0c0.2,0,0.3,0.1,0.5,0.1c0.9,0,1.7-0.6,2-1.5
		c0.3-1.1-0.4-2.2-1.5-2.5c0,0,0,0,0,0c0,0,0,0,0,0c0,0,0,0,0,0C355.3,9.2,355.2,9.2,355,9.2L355,9.2z M343,6.3
		c-0.9,0-1.8,0.7-2,1.6c-0.2,1.1,0.5,2.2,1.6,2.4l0.1,0c0.1,0,0.3,0,0.4,0c0.9,0,1.8-0.7,2-1.6c0.2-1.1-0.5-2.2-1.6-2.4
		c0,0,0,0-0.1,0C343.3,6.3,343.2,6.3,343,6.3L343,6.3z M331,4c-1,0-1.9,0.7-2,1.7c-0.2,1.1,0.6,2.2,1.7,2.4l0.1,0c0.1,0,0.2,0,0.3,0
		c1,0,1.9-0.7,2-1.7c0.2-1.1-0.6-2.2-1.7-2.4c0,0,0,0,0,0c0,0,0,0,0,0C331.2,4,331.1,4,331,4L331,4z M318.8,2.2c-1,0-1.9,0.8-2,1.8
		c-0.1,1.1,0.7,2.2,1.8,2.3l0.1,0c0.1,0,0.2,0,0.3,0c1,0,1.9-0.8,2-1.8c0.1-1.1-0.7-2.1-1.8-2.3c0,0,0,0-0.1,0c0,0,0,0,0,0
		C319,2.2,318.9,2.2,318.8,2.2L318.8,2.2z M306.6,0.9c-1.1,0-2,0.8-2,1.9c-0.1,1.1,0.8,2.1,1.9,2.2l0.1,0c0.1,0,0.1,0,0.2,0
		c1.1,0,2-0.8,2-1.9c0.1-1.1-0.7-2.1-1.9-2.2c0,0,0,0,0,0c0,0,0,0,0,0C306.7,0.9,306.6,0.9,306.6,0.9L306.6,0.9z M294.3,0.2
		c-1.1,0-2,0.9-2.1,2c0,1.1,0.8,2.1,2,2.1l0.1,0c0,0,0.1,0,0.1,0c1.1,0,2-0.9,2.1-2c0-1.1-0.8-2.1-2-2.1c0,0,0,0,0,0
		C294.4,0.2,294.4,0.2,294.3,0.2C294.4,0.2,294.4,0.2,294.3,0.2C294.4,0.2,294.3,0.2,294.3,0.2L294.3,0.2z"/>
</g>
<g>
	<defs>
		<circle id="SVGID_1_" cx="283.5" cy="283.5" r="283.5"/>
	</defs>
	<clipPath id="SVGID_00000052815321960211094220000017843684565098324640_">
		<use xlink:href="#SVGID_1_"  style="overflow:visible;"/>
	</clipPath>
	<g style="clip-path:url(#SVGID_00000052815321960211094220000017843684565098324640_);">
		<defs>
			<rect id="SVGID_00000085220474344991005050000012295010463709895826_" x="1.5" y="41.5" width="563.8" height="563.8"/>
		</defs>
		<clipPath id="SVGID_00000008828786508514800820000000452304812634904736_">
			<use xlink:href="#SVGID_00000085220474344991005050000012295010463709895826_"  style="overflow:visible;"/>
		</clipPath>
		<g style="clip-path:url(#SVGID_00000008828786508514800820000000452304812634904736_);">
			<path d="M276.9,400.7c2.9,2.9,3,7.2,0.4,9.5c-2.3,2.6-6.6,2.4-9.5-0.5l-40.9-41.5c-2.9-2.9-3-7.2-0.4-9.5
				c2.3-2.6,6.6-2.4,9.5,0.5L276.9,400.7z"/>
			<path d="M249.4,350.3c-2.5-3.1-6.5-3.8-8.9-1.6c-2.7,1.9-2.9,5.9-0.4,9.1l35.3,44.1c2.5,3.1,6.5,3.8,8.9,1.6
				c2.7-1.9,2.9-5.9,0.4-9.1L249.4,350.3z"/>
			<path d="M257.2,344.7c-2.7-2.8-6.6-3.2-8.7-0.9c-2.4,2-2.2,5.9,0.5,8.7l37.9,39.5c2.7,2.8,6.6,3.2,8.7,0.9c2.4-2,2.2-5.9-0.5-8.7
				L257.2,344.7z"/>
			<path d="M268.5,337.2c-2.4-2.9-6-3.7-8.2-1.7c-2.4,1.7-2.5,5.4-0.1,8.3l33.2,41.5c2.4,2.9,6,3.7,8.2,1.7c2.4-1.7,2.5-5.4,0.1-8.3
				L268.5,337.2z"/>
			<path d="M275.3,332.3c-2.6-2.6-6.2-3-8-0.9c-2.1,1.8-1.7,5.4,0.9,8l36.6,36.4c2.6,2.6,6.2,3,8,0.9c2.1-1.8,1.7-5.4-0.9-8
				L275.3,332.3z"/>
			<path d="M309.4,351.8c-4-5.7-8.3-11.1-13-16.2l-9.9-10.8c-2.2-2.8-5.6-3.6-7.5-1.8c-2.2,1.5-2.1,5,0.1,7.7l31.4,39.2
				c2.2,2.8,5.6,3.6,7.5,1.8c2.2-1.5,2.1-5-0.1-7.7L309.4,351.8z"/>
			<path d="M227.3,365.5c-2.7-3.3-7.1-3.9-9.9-1.4c-3.1,2.1-3.5,6.6-0.8,9.9l37.6,47c2.7,3.3,7.1,3.9,9.9,1.4
				c3.1-2.1,3.5-6.6,0.8-9.9L227.3,365.5z"/>
			<path d="M213.7,377c-2.9-2.9-7.1-3.1-9.5-0.5c-2.7,2.3-2.5,6.5,0.4,9.5l40.9,41.5c2.9,2.9,7.1,3.1,9.5,0.5
				c2.7-2.3,2.5-6.5-0.4-9.5L213.7,377z"/>
			<path d="M206,384.9c-2.5-3.1-6.5-3.8-8.9-1.6c-2.7,1.9-2.9,5.9-0.4,9.1l35.3,44.1c2.5,3.1,6.5,3.8,8.9,1.6
				c2.7-1.9,2.9-5.9,0.4-9.1L206,384.9z"/>
			<path d="M194.3,394.8c-2.7-2.8-6.6-3.1-8.7-0.7c-2.4,2-2.1,5.9,0.6,8.7c0,0,38,38.3,38,38.3l0.5,0.5c2.7,2.8,6.6,3.1,8.7,0.7
				c2.4-2,2.1-5.9-0.6-8.7L194.3,394.8z"/>
			<path d="M188.1,401.4c-2.4-2.9-6-3.7-8.2-1.7c-2.4,1.7-2.5,5.4-0.1,8.3l33.2,41.5c2.4,2.9,6,3.7,8.2,1.7c2.4-1.7,2.5-5.4,0.1-8.3
				L188.1,401.4z"/>
			<path d="M195.6,428.6l-18.3-18.2c-2.6-2.6-6.2-2.9-8-0.8c-2.1,1.8-1.7,5.4,0.9,8l36.6,36.4c2.6,2.6,6.2,2.9,8,0.8
				c2.1-1.8,1.7-5.4-0.9-8L195.6,428.6z"/>
			<path d="M202.9,454.8l-15.3-19.1l-15.7-19.6c-2.2-2.8-5.6-3.6-7.5-1.8c-2.2,1.5-2.1,5,0.1,7.7l31.4,39.2c2.2,2.8,5.6,3.6,7.5,1.8
				c2.2-1.5,2.1-5-0.1-7.7C203.3,455.3,202.9,454.8,202.9,454.8z"/>
			<path d="M311,323.8l-36.2-50.4c-4.3,4.5-9.3,8.4-14.7,11.5l-0.5,0.3l40,47.4c4.3,5.1,8.4,10.3,12.3,15.8l36.2,50.4
				c4.3-4.5,9.3-8.4,14.7-11.5l0.5-0.3l-40-47.4C319,334.4,314.9,329.2,311,323.8z"/>
			<ellipse transform="matrix(0.6328 -0.7743 0.7743 0.6328 -302.2419 290.5343)" cx="155.2" cy="463.9" rx="28.7" ry="28.7"/>
			<g>
				<path d="M645.4-46.3c-2.3,10.3-10,21.5-25.7,32.2c-33.7,23-67,59.8-102.9,134.3c-53.7,111.7-114,93.5-219.9,190.1l12.8,18.4
					c-0.7-0.7,2.6,3.8,3.9,5c13.8-13.2,31.5-29.3,46.6-41.1c36-29.6,81.5-48.1,114.5-80.3c10.9-10.8,20.2-23.2,28.5-36.2
					c17-26.2,28.4-55.4,42.6-83.1c21-41.9,50.1-80.2,87.1-109.1C596.5,13.5,568.5,52,548.3,94.2c-13.8,28-24.7,57.5-40.7,84.5
					c-15.7,27.6-38.3,51-64.8,68.3c-39.4,25.2-78.2,50.7-111.7,83.5c-2.2,2.1-4.4,4.2-6.6,6.4c3,2.7,6.1,5.5,9.3,8.1l13.7,11.5
					c109.7-105,154.6-75,202.8-223c26.6-81.8,80.1-156,126.1-165.6c7.3-1.5,11-7.9,24.7-7.3c-8.4-4.3-20,0.2-26.6,0.5
					c-10.8,0.6-19.3,3.9-25.2,7.2c2.5-3.6,3.9-9,2-17c-0.8-3.3,0.3-11.9-2.1-16.2C650.1-60.6,646.5-50.9,645.4-46.3z"/>
			</g>
			<g>
				<path d="M235.4,154c-42.6,21.8-76,38.1-138.3,107C0,368.3-54.5,338.2-200.8,406c0,0,11.9,17.8,12.8,19.5
					c25.3-13.4,81.6-35.8,158.7-59.4c139-42.5,132.6-149.2,270.7-201.5c-125.5,47.6-120,157.6-265,206.8
					c-24.1,8.2-111.9,36.9-159.9,62c2.4,3.9,13.7,23.9,13.7,23.9c133.9-68,215.1-58.4,289-169.1
					c104.6-156.7,255.4-115.7,301.1-175.2c-45.6,37.2-120.3,15.3-178.9,51.6c43.2-24.9,19.6-59.5,78.1-108.3
					C259.8,96.7,251.8,145.7,235.4,154z"/>
			</g>
		</g>
	</g>
</g>
</svg>
