<?xml version="1.0" encoding="utf-8"?>
<!-- Generator: Adobe Illustrator 28.1.0, SVG Export Plug-In . SVG Version: 6.00 Build 0)  -->
<svg version="1.1" id="Layer_1" xmlns="http://www.w3.org/2000/svg" xmlns:xlink="http://www.w3.org/1999/xlink" x="0px" y="0px"
	 viewBox="0 0 56.7 56.7" style="enable-background:new 0 0 56.7 56.7;" xml:space="preserve">
<path d="M33.8,28.4c0,3-2.5,5.4-5.5,5.4c-3,0-5.4-2.5-5.4-5.5c0-3,2.5-5.5,5.5-5.4C31.4,22.9,33.8,25.4,33.8,28.4z M41.6,22.7
	c0,3.8,0,7.5,0,11.3c0,1.1-0.1,2.2-0.4,3.2c-0.6,2.4-2.2,3.7-4.6,4.2c-0.8,0.2-1.7,0.2-2.6,0.2c-3.9,0-7.7,0-11.6,0
	c-1,0-2.1-0.1-3.1-0.3c-2.3-0.6-3.7-2.2-4.2-4.5C15,35.2,15,33.5,15,31.9c0-1.2,0-2.4,0-3.6c0,0,0,0,0,0c0-2.3,0.1-4.5,0.1-6.8
	c0-1,0.2-2,0.6-3c0.8-1.8,2.1-2.8,4-3.2c0.9-0.2,1.9-0.3,2.8-0.3c2.4-0.1,4.8-0.1,7.2-0.1c1.8,0,3.6,0,5.4,0.1
	c1.2,0,2.4,0.3,3.5,0.9c1.5,0.8,2.4,2.1,2.7,3.8C41.6,20.7,41.6,21.7,41.6,22.7z M36.7,28.4c0-4.6-3.7-8.4-8.4-8.4
	c-4.6,0-8.3,3.7-8.3,8.3c0,4.6,3.7,8.4,8.3,8.4C32.9,36.7,36.7,33,36.7,28.4z M39,19.7c0-1.1-0.9-1.9-2-1.9c-1.1,0-1.9,0.9-2,1.9
	c0,1.1,0.9,2,2,2C38.1,21.6,39,20.7,39,19.7z M55.2,28.3c0,14.9-12,26.9-26.9,26.9c-14.9,0-26.9-12-26.9-26.9
	c0-14.9,12.1-26.9,26.9-26.9C43.2,1.5,55.2,13.5,55.2,28.3z M44.6,23.7c0-1.5,0-2.9-0.3-4.4c-0.8-3.5-2.8-5.7-6.3-6.7
	c-1.4-0.4-2.8-0.5-4.3-0.5c-3.6,0-7.2,0-10.8,0c-1.2,0-2.5,0.1-3.7,0.3c-3.4,0.8-5.6,2.8-6.6,6.1c-0.4,1.4-0.5,2.9-0.5,4.4
	c0,3.6,0,7.2,0,10.8c0,1.2,0.1,2.5,0.3,3.7c0.8,3.6,3,5.9,6.7,6.8c1.5,0.4,3,0.4,4.5,0.4c1.6,0,3.1,0,4.7,0c1.6,0,3.2,0,4.7,0
	c1.4,0,2.9,0,4.3-0.3c3.7-0.8,5.9-3,6.8-6.7c0.4-1.5,0.4-3,0.4-4.6C44.6,29.9,44.6,26.8,44.6,23.7z"/>
</svg>
