<?xml version="1.0" encoding="utf-8"?>
<!-- Generator: Adobe Illustrator 26.3.1, SVG Export Plug-In . SVG Version: 6.00 Build 0)  -->
<svg version="1.1" id="Layer_1" xmlns="http://www.w3.org/2000/svg" xmlns:xlink="http://www.w3.org/1999/xlink" x="0px" y="0px"
	 viewBox="0 0 260 260" style="enable-background:new 0 0 260 260;" xml:space="preserve">
<style type="text/css">
	.st0{fill:#FFFFFF;}
</style>
<path class="st0" d="M163.9,37.9H96.1c-9.3,0.1-16.9,7.6-16.9,16.9v150.2c0.1,9.3,7.6,16.9,16.9,16.9h67.7
	c9.3-0.1,16.9-7.6,16.9-16.9h0V54.9C180.7,45.6,173.2,38,163.9,37.9z M119.4,49.9h21.2c0,0,0,0,0.1,0c1.1,0,2,1,2,2.1c0,0,0,0,0,0.1
	c0,1.1-1,2.1-2.1,2h-21.2c0,0,0,0,0,0c-1.2,0-2.1-0.9-2.1-2.1S118.2,49.9,119.4,49.9z M130,215.7c-5.8,0-10.6-4.7-10.6-10.5
	c0-5.8,4.7-10.6,10.5-10.6c5.8,0,10.6,4.7,10.6,10.6C140.6,210.9,135.9,215.7,130,215.7z M168.1,184c-0.1,2.3-1.9,4.2-4.2,4.2H96.1
	c-2.3-0.1-4.2-1.9-4.2-4.2V71.1c0-2.3,1.9-4.2,4.2-4.3h67.7c2.3,0.1,4.2,2,4.2,4.3h0V184z"/>
<g>
	<g>
		<path class="st0" d="M38.2,130c0,9.7,5.7,19.3,16.3,26c4.9,3.1,10.8,5.6,17.1,7.2v-6.7c-3.6-1.5-6.9-3.4-9.7-5.5
			C54,145,50.1,137.5,50.1,130c0-7.5,3.9-15,11.8-20.9c2.8-2.1,6.1-4,9.7-5.5v-6.7c-6.3,1.6-12.2,4-17.1,7.2
			C43.9,110.7,38.2,120.3,38.2,130z"/>
		<path class="st0" d="M48.9,91.5c-19.1,8.3-30,23.3-30.1,38.5c0.1,15.2,11,30.2,30.1,38.5c6.9,3,14.7,5.2,22.7,6.2v-5.8
			c-6.1-1.4-11.8-3.4-17-6C39,154.9,30.8,142.5,30.8,130c0-12.5,8.2-24.9,23.9-32.8c5.2-2.7,10.9-4.7,17-6v-5.8
			C63.6,86.3,55.8,88.4,48.9,91.5z"/>
		<path class="st0" d="M57.1,130c-0.2,7.2,5.5,14.9,14.5,18.6v-6.8c-2.5-3.7-3.8-7.6-3.8-11.9c0-4.2,1.3-8.2,3.8-11.9v-6.8
			C62.7,115.1,56.9,122.8,57.1,130z"/>
	</g>
	<g>
		<path class="st0" d="M221.8,130c0,9.7-5.7,19.3-16.3,26c-4.9,3.1-10.8,5.6-17.1,7.2v-6.7c3.6-1.5,6.9-3.4,9.7-5.5
			c7.9-5.9,11.8-13.4,11.8-20.9c0-7.5-3.9-15-11.8-20.9c-2.8-2.1-6.1-4-9.7-5.5v-6.7c6.3,1.6,12.2,4,17.1,7.2
			C216.1,110.7,221.8,120.3,221.8,130z"/>
		<path class="st0" d="M211.1,91.5c19.1,8.3,30,23.3,30.1,38.5c-0.1,15.2-11,30.2-30.1,38.5c-6.9,3-14.7,5.2-22.7,6.2v-5.8
			c6.1-1.4,11.8-3.4,17-6c15.7-7.9,23.8-20.3,23.9-32.8c0-12.5-8.2-24.9-23.9-32.8c-5.2-2.7-10.9-4.7-17-6v-5.8
			C196.4,86.3,204.2,88.4,211.1,91.5z"/>
		<path class="st0" d="M202.9,130c0.2,7.2-5.5,14.9-14.5,18.6v-6.8c2.5-3.7,3.8-7.6,3.8-11.9c0-4.2-1.3-8.2-3.8-11.9v-6.8
			C197.3,115.1,203.1,122.8,202.9,130z"/>
	</g>
</g>
</svg>
