<svg version="1.1" id="Layer_1" xmlns="http://www.w3.org/2000/svg" x="0" y="0" viewBox="0 0 260 260" style="enable-background:new 0 0 260 260" xml:space="preserve"><style>.st0{fill:#fff}</style><path class="st0" d="M163.9 37.9H96.1c-9.3.1-16.9 7.6-16.9 16.9V205c.1 9.3 7.6 16.9 16.9 16.9h67.7c9.3-.1 16.9-7.6 16.9-16.9V54.9c0-9.3-7.5-16.9-16.8-17zm-44.5 12h21.3c1.1 0 2 1 2 2.1v.1c0 1.1-1 2.1-2.1 2h-21.2c-1.2 0-2.1-.9-2.1-2.1s.9-2.1 2.1-2.1zM130 215.7c-5.8 0-10.6-4.7-10.6-10.5s4.7-10.6 10.5-10.6 10.6 4.7 10.6 10.6c.1 5.7-4.6 10.5-10.5 10.5zm38.1-31.7c-.1 2.3-1.9 4.2-4.2 4.2H96.1c-2.3-.1-4.2-1.9-4.2-4.2V71.1c0-2.3 1.9-4.2 4.2-4.3h67.7c2.3.1 4.2 2 4.2 4.3V184zM38.2 130c0 9.7 5.7 19.3 16.3 26 4.9 3.1 10.8 5.6 17.1 7.2v-6.7c-3.6-1.5-6.9-3.4-9.7-5.5-7.9-6-11.8-13.5-11.8-21s3.9-15 11.8-20.9c2.8-2.1 6.1-4 9.7-5.5v-6.7c-6.3 1.6-12.2 4-17.1 7.2-10.6 6.6-16.3 16.2-16.3 25.9z"/><path class="st0" d="M48.9 91.5c-19.1 8.3-30 23.3-30.1 38.5.1 15.2 11 30.2 30.1 38.5 6.9 3 14.7 5.2 22.7 6.2v-5.8c-6.1-1.4-11.8-3.4-17-6-15.6-8-23.8-20.4-23.8-32.9s8.2-24.9 23.9-32.8c5.2-2.7 10.9-4.7 17-6v-5.8c-8.1.9-15.9 3-22.8 6.1z"/><path class="st0" d="M57.1 130c-.2 7.2 5.5 14.9 14.5 18.6v-6.8c-2.5-3.7-3.8-7.6-3.8-11.9 0-4.2 1.3-8.2 3.8-11.9v-6.8c-8.9 3.9-14.7 11.6-14.5 18.8zm164.7 0c0 9.7-5.7 19.3-16.3 26-4.9 3.1-10.8 5.6-17.1 7.2v-6.7c3.6-1.5 6.9-3.4 9.7-5.5 7.9-5.9 11.8-13.4 11.8-20.9 0-7.5-3.9-15-11.8-20.9-2.8-2.1-6.1-4-9.7-5.5V97c6.3 1.6 12.2 4 17.1 7.2 10.6 6.5 16.3 16.1 16.3 25.8z"/><path class="st0" d="M211.1 91.5c19.1 8.3 30 23.3 30.1 38.5-.1 15.2-11 30.2-30.1 38.5-6.9 3-14.7 5.2-22.7 6.2v-5.8c6.1-1.4 11.8-3.4 17-6 15.7-7.9 23.8-20.3 23.9-32.8 0-12.5-8.2-24.9-23.9-32.8-5.2-2.7-10.9-4.7-17-6v-5.8c8 .8 15.8 2.9 22.7 6z"/><path class="st0" d="M202.9 130c.2 7.2-5.5 14.9-14.5 18.6v-6.8c2.5-3.7 3.8-7.6 3.8-11.9 0-4.2-1.3-8.2-3.8-11.9v-6.8c8.9 3.9 14.7 11.6 14.5 18.8z"/></svg>