<svg version="1.1" id="Layer_1" xmlns="http://www.w3.org/2000/svg" x="0" y="0" viewBox="0 0 56.7 56.7" style="enable-background:new 0 0 56.7 56.7" xml:space="preserve"><style>.st1{fill:#231f20}</style><path style="fill:#ff0241" d="M0 0h56.7v56.7H0z"/><path class="st1" d="M30.1 29.1c-10.6 0-14.8-1.6-19.1-3.8-1.9-1-5.2-3-9.6 2.3.7.2 2.3.7 3.1 2.2 2.1 3.7 6.9 8.2 14.4 7.9 2.6-.1 5.2-.5 7.6-1.3l21.8-7.2H30.1z"/><path d="M33.7 41.2c-.2-.2-.2-.6.1-.8l1.4-1.2c.2-.2.6-.2.8.1l.7.8c.2.2.2.6-.1.8l-1.2 1c.6.2 1.2.5 1.7.7l.5-.4c.2-.2.6-.2.8.1l.7.8c.1.1.1.2.1.4 2.2.9 4 1.6 4 1.6L21.6 18.7l-9.8 8.1c-1.6 1.2-3.5 1.7-5.5 1.7s-4.4-.8-4.2-.7c.7.3 1.7.8 2.4 2 2.1 3.7 6.9 8.2 14.4 7.9 3.7-.1 7.3.6 10.7 1.9.1 0 1.9.8 4.1 1.6zm-13.9-17-.7-.8c-.2-.2-.2-.6.1-.8l1.4-1.2c.2-.2.6-.2.8.1l.7.8c.2.2.2.6-.1.8l-1.4 1.2c-.3.2-.6.2-.8-.1m2.4 3-.7-.8c-.2-.2-.2-.6.1-.8l1.4-1.2c.2-.2.6-.2.8.1l.7.8c.2.2.2.6-.1.8L23 27.3c-.3.2-.6.1-.8-.1m2.4 3-.7-.8c-.2-.2-.2-.6.1-.8l1.4-1.2c.2-.2.6-.2.8.1l.7.8c.2.2.2.6-.1.8l-1.4 1.2c-.2.1-.6.1-.8-.1m2.5 2.9-.7-.8c-.2-.2-.2-.6.1-.8l1.4-1.2c.2-.2.6-.2.8.1l.7.8c.2.2.2.6-.1.8l-1.4 1.2c-.3.2-.6.2-.8-.1m2.4 3-.7-.8c-.2-.2-.2-.6.1-.8l1.4-1.2c.2-.2.6-.2.8.1l.7.8c.2.2.2.6-.1.8l-1.4 1.2c-.3.2-.6.1-.8-.1m2.4 3-.7-.8c-.2-.2-.2-.6.1-.8l1.4-1.2c.2-.2.6-.2.8.1l.7.8c.2.2.2.6-.1.8l-1.4 1.2c-.2.1-.6.1-.8-.1" style="fill:#fff"/><path class="st1" d="M37.6 6.8c.4-.3.7-.2 1 .1l.6.8c.3.4.3.7-.1 1-.4.3-.7.2-1-.1l-.6-.8c-.3-.4-.3-.7.1-1m-.4-.5c-.7.5-.7 1.2-.3 1.8l.7.9c.5.6 1.1.7 1.8.2s.7-1.2.3-1.8l-.6-.8c-.5-.6-1.2-.8-1.9-.3m-1.6 1.4-.4.3v.1l2 2.6h.1l.4-.3v-.1l-2.1-2.6c.1 0 0 0 0 0m-1.8 2c.4-.3.8-.3 1.1.1l.5.7c.3.4.3.7-.2 1l-.4.3-1.4-1.8.4-.3zm-.3-.4-.8.7v.1l2 2.6h.1l.8-.7c.7-.6.7-1.3.3-1.8l-.6-.7c-.4-.6-1.1-.8-1.8-.2m-1.6 1.2-.4.3v.1l1.3 1.7c.3.3.3.7-.1 1-.4.3-.7.2-.9-.2l-1.3-1.7h-.1l-.4.3v.1l1.3 1.7c.5.6 1.1.7 1.8.2.7-.5.7-1.2.2-1.7l-1.4-1.8c.1 0 0 0 0 0m-2.4 1.9-1.9 1.5v.1l.3.3h.1l.7-.6 1.7 2.2h.1l.4-.3v-.1l-1.7-2.2.7-.6v-.1l-.4-.2c.1 0 0 0 0 0m-3.2 2.4c-.5.4-.6 1-.3 1.5.3.4.7.5 1.4.2.5-.2.7-.2.9 0 .2.2.1.5-.2.7-.3.2-.5.2-.8 0h-.1l-.2.4v.1c.4.3.9.3 1.4-.1.6-.4.7-1.1.3-1.5-.3-.4-.7-.5-1.3-.3-.6.2-.8.2-1 0-.2-.2-.1-.5.2-.7.2-.2.4-.2.7-.1h.1l.2-.3v-.1c-.4-.2-.8-.2-1.3.2m8.2.3c.4-.3.8-.3 1.1.1l.5.7c.3.4.3.7-.2 1l-.4.3-1.4-1.8.4-.3zm-.4-.5-.8.7v.1l2 2.6h.1l.8-.7c.7-.6.7-1.3.3-1.8l-.5-.7c-.5-.6-1.1-.7-1.9-.2M31.9 17c.4-.3.7-.2 1 .1l.6.8c.3.4.3.7-.1 1-.4.3-.7.2-1-.1l-.6-.8c-.3-.4-.3-.7.1-1m-.3-.5c-.7.5-.7 1.2-.3 1.8l.6.8c.5.6 1.1.7 1.8.2.7-.5.7-1.2.3-1.8l-.6-.8c-.5-.5-1.1-.7-1.8-.2m-2.1 2.4c.3-.3.6-.2.8.1l.1.1c.2.3.2.5-.1.8l-.4.3-.8-1 .4-.3zm-.3-.5-.8.6v.1l2 2.6h.1l.4-.3v-.1l-.6-.8.4-.3c.6-.5.6-1 .2-1.5l-.1-.2c-.4-.4-1-.6-1.6-.1M53.1 5.8l-.4.3v.1l2 2.6h.1l.4-.3v-.1l-2.1-2.6c.1-.1.1-.1 0 0m-1.1.9-.5.4s-.1.1 0 .1l.7 1.6c.2.4.3.6.4.9-.3-.2-.5-.4-.8-.7l-1.4-1.1h-.1l-.5.4s-.1.1 0 .1l2 2.6h.2v-.1l-1.1-1.5c-.2-.2-.4-.5-.6-.7l2.3 1.7h.1l.3-.2s.1-.1 0-.1l-1-2.7c.1.2.4.6.5.8l1.1 1.5h.1l.3-.3v-.1l-2-2.6c.1-.1 0-.1 0 0m-3.1 4.9-.1-.4c-.1-.3-.3-.7-.4-1 .2.2.6.4.8.6l.4.2-.7.6zm2.3 0-2.9-2h-.1l-.5.4v.1l1.2 3.3s0 .1.1 0l.4-.3V13l-.3-.8.9-.7.7.5h.1l.4-.4m-2.5 1.9-2.1-.9v-1.7s0-.1-.1 0l-.4.3v2.1l-.9-1.3h-.1l-.4.3v.1l2 2.6h.1l.4-.3v-.1l-.6-.8v-.7l1.6.7h.1l.4-.3m-5.7.1-.4.3v.1l2 2.6h.1l1.5-1.1v-.1L46 15h-.1l-1.1.8-1.8-2.2c.1-.1.1-.1 0 0m-1.7 1.9c.4-.3.7-.2 1 .1l.6.8c.3.4.3.7-.1 1-.4.3-.7.2-1-.1l-.6-.8c-.3-.3-.3-.7.1-1m-.3-.4c-.7.5-.7 1.2-.3 1.8l.6.8c.5.6 1.1.7 1.8.2.7-.5.7-1.2.3-1.8l-.6-.8c-.5-.6-1.2-.7-1.8-.2m.7 3.7-2.1-.9v-1.7s0-.1-.1 0l-.4.3v2.1l-.9-1.2h-.1l-.4.3v.1l2 2.6h.1l.4-.3V20l-.6-.8v-.7l1.6.7h.1l.4-.3c.1 0 .1-.1 0-.1m-5.5 0c-.5.4-.6 1-.3 1.5.3.4.7.5 1.4.2.5-.2.7-.2.9 0 .2.2.1.5-.2.7-.3.2-.5.2-.8 0h-.1l-.2.3v.1c.4.3.9.3 1.4-.1.6-.4.7-1.1.3-1.5-.3-.4-.7-.5-1.3-.3-.6.2-.8.2-1 0-.2-.2-.1-.5.2-.7.2-.2.4-.2.7-.1h.1l.2-.3v-.1c-.4-.1-.8-.1-1.3.3m-1.4 3.7-.1-.4c-.1-.3-.3-.7-.4-1 .2.2.6.4.8.6l.4.2-.7.6zm2.3-.1-2.9-2h-.1l-.5.4v.1l1.2 3.3s0 .1.1 0l.4-.3v-.1L35 23l.9-.7.7.5h.1l.4-.4c0 .1 0 0 0 0m-4.8-.6-.3.3v.1l1.5 1.9c.2.2.2.4 0 .6-.2.1-.3.1-.5.1-.1 0-.1 0-.1.1v.4s0 .1.1.1c.3 0 .6 0 .9-.2.5-.4.5-.9.2-1.4l-1.8-2c.1 0 .1 0 0 0m8.6-7.2c0 .2-.2.4-.4.4s-.4-.2-.4-.4.2-.4.4-.4.4.2.4.4"/><path class="st1" d="M45 14.3c0 .2-.2.4-.4.4s-.4-.2-.4-.4.2-.4.4-.4.4.2.4.4"/></svg>