<?xml version="1.0" encoding="utf-8"?>
<!-- Generator: Adobe Illustrator 28.1.0, SVG Export Plug-In . SVG Version: 6.00 Build 0)  -->
<svg version="1.1" id="Layer_1" xmlns="http://www.w3.org/2000/svg" xmlns:xlink="http://www.w3.org/1999/xlink" x="0px" y="0px"
	 viewBox="0 0 566.9 566.9" style="enable-background:new 0 0 566.9 566.9;" xml:space="preserve">
<path d="M407.6,221.7l-57.4-12.5c-1.9-8.5-5.3-16.4-10.1-23.4l46.5-0.5c7.6-0.1,15.2,1.6,22.1,4.8l86.5,40.8l-66.5-46.2
	c-14.9-10.4-33.1-14.8-51.1-12.5l-43.8,5.6c-2.2-2.4-4.5-4.6-7-6.6l24-36.5c5.3-8.1,6.6-18.1,3.5-27.2L324.9,5.7l13.6,103.7
	c1,6.6-0.1,13.4-3.2,19.3l-18.7,35.6c-0.1,0-0.1-0.1-0.2-0.1c2.9-5.3,4.5-11.4,4.5-17.8c0-20.6-16.7-37.4-37.4-37.4
	s-37.4,16.7-37.4,37.4c0,6.4,1.6,12.5,4.5,17.8c-0.1,0-0.1,0.1-0.2,0.1l-18.7-35.6c-3.1-5.9-4.2-12.7-3.2-19.3L242.1,5.7
	l-29.3,101.7c-3.1,9.1-1.8,19.2,3.5,27.2l24,36.5c-2.5,2-4.8,4.2-7,6.6l-43.8-5.6c-18-2.3-36.2,2.2-51.1,12.5L71.8,231l86.5-40.8
	c6.9-3.3,14.4-4.9,22.1-4.8l46.5,0.5c-4.7,7-8.2,14.9-10.1,23.4l-57.4,12.5c-7.1,1.5-13.4,5.5-17.9,11.1l-55.8,70.1l67.2-60.2
	c3.2-2.9,7.1-5.1,11.2-6.5l51.2-16.7c-0.1,1.5-0.2,3-0.2,4.5c0,4.1,0.4,8.1,1.1,12c-10.2,3.4-18.2,11.9-20.6,22.8l-10.9,47.9
	c-2.3,9.9,0.5,20.3,7.3,27.9l40.7,45.3l-29.8-54.1c-3.6-6.5-4.7-14.1-3.2-21.4l8.3-40.5c1.5-7.1,5.4-13.4,10.8-17.9
	c9,26.6,33.8,45.8,63.3,46.4c-1.5,19.7-2.4,39.3-3,59c-1.7,70-1.1,140.1,3.9,210c0,0,1.1,0,1.1,0c3.6-46.6,4.5-93.3,4.7-140
	c0.1-43-0.6-86.1-3.8-129c29.5-0.6,54.3-19.9,63.3-46.4c5.5,4.5,9.4,10.8,10.8,17.9l8.3,40.5c1.5,7.3,0.3,14.9-3.2,21.4l-29.8,54.1
	l40.7-45.3c6.8-7.6,9.5-18,7.3-27.9l-10.9-47.9c-2.5-10.9-10.5-19.4-20.6-22.8c0.7-3.9,1.1-7.9,1.1-12c0-1.5-0.1-3-0.2-4.5
	l51.2,16.7c4.1,1.3,8,3.5,11.2,6.5l67.2,60.2l-55.8-70.1C421,227.1,414.7,223.2,407.6,221.7z"/>
</svg>
