<svg xmlns="http://www.w3.org/2000/svg" viewBox="0 0 566.9 566.9" style="enable-background:new 0 0 566.9 566.9" xml:space="preserve"><path d="M36 191.9c2.1.9 4 1 5.7.4 1.7-.6 3.4-2 5.1-4.2.7-1 1.5-2 2.3-3.1.8-1 1.5-1.7 2.2-2.2 1.3-.8 2.6-1 3.9-.4 1.4.6 2.3 1.6 2.7 3.1.5 1.5.3 3.1-.4 4.8-1.6 3.8-4.9 5.4-10 4.8l-.6 1.5 7.5 3.2.6-1.4-.7-2.4c1.9-1.1 3.3-2.9 4.4-5.3 1.1-2.5 1.1-4.9.1-7.3-1-2.4-2.8-4.1-5.4-5.3-2.6-1.1-4.9-1.3-6.9-.4-1.8.7-3.8 2.5-5.8 5.3-1.7 2.3-2.7 3.6-3.2 4-1 .9-2.1 1.1-3.3.6-1.1-.5-1.8-1.3-2.1-2.5-.3-1.2-.2-2.6.4-4 1.5-3.6 4.6-5 9.1-4.2l.6-1.3-6.9-2.8-.5 1.2.6 1.9c-1.8 1-3.1 2.5-3.9 4.5-1 2.4-1.1 4.7-.3 6.8.8 2.1 2.4 3.7 4.8 4.7zm10.6-25.2c-3.2-2.8-3.9-5.9-2.1-9.1l2.2-3.9 15.1 24.5 1.4.8 10.5-19-8.3-4.9-.6 1.1c2.3 2.2 3.6 4.1 4.1 5.8.5 1.7.1 3.6-1.1 5.8l-2.1 3.8-15.3-24.7-1.1-.6-9.7 17.6L46 168l.6-1.3zm9.1-28.3 20.5 14.7-2 2.8 1.1.8 8.2-11.3-1.1-.8-2 2.8-20.6-14.8 2-2.8-1-.7-8.2 11.3 1.1.8z"/><path d="M65.8 124.3c.2-.3.5-.4.8-.2.2.1.3.4.4.9l2.4 14 .8.6 15.5.5-2 2.8 1.1.8 8.7-12.1-1.1-.8-2 2.7-20.7-.6-1.4-8.3c-.2-1.1-.3-1.9-.2-2.5.1-.8.4-1.5 1-2.3l1-1.4-1-.8-6 8.4 1 .8 1.7-2.5zm18.1-2.9c2.9 2.7 6.3 3.9 10.4 3.8 4.1-.1 7.4-1.6 10.1-4.5 2.7-2.9 3.9-6.3 3.8-10.4-.2-4.1-1.7-7.4-4.5-10.1-2.8-2.6-6.3-3.9-10.4-3.8-4.1.1-7.5 1.6-10.2 4.4-2.7 2.9-3.9 6.3-3.7 10.4.2 4.2 1.7 7.5 4.5 10.2zm.1-19.7c1.8-1.9 3.7-2.6 5.7-1.9 1.3.4 4 2.6 8.2 6.5 4.2 3.9 6.5 6.4 7 7.7.8 1.9.3 3.9-1.5 5.8s-3.7 2.6-5.7 1.9c-1.3-.4-4-2.6-8.2-6.5-4.2-3.9-6.5-6.5-7-7.7-.8-1.9-.3-3.8 1.5-5.8zm18.5-17.4 9.4 11.2-.9 3.4 1.2 1.4.9-3.4 5.7 6.8-2.2 1.8.9 1.1 18.1-15.2-5.8-7.3-1 .8c1.3 2.7 1.8 4.9 1.6 6.7-.2 1.8-1.2 3.4-3 4.9l-3.1 2.6-8-9.5 2.5-9.4-1.2-1.4-2.5 9.4-7.1-8.5 2.9-2.5-.8-1-10.7 8.9.8 1 2.3-1.8zm19.8-16.2 14.2 6.5 6.6 9.9-2.9 1.9.8 1.1 11.7-7.9-.8-1.1-2.9 1.9-7-10.3-1.1-11.1c-.1-1.3-.1-2.2 0-2.8.2-.7.6-1.3 1.2-1.7l1-.6-.7-1.1-7.5 5 .7 1.1 2-1.3c.8-.5 1.3-.6 1.6-.1.1.2.3.7.3 1.6l1 10.2-12-5.6 2.9-1.9-.7-1.1-11.7 7.9.7 1.1 2.6-1.6zm42.4-25.5L175 65.7l-2.6 1.2.6 1.3 21.6-9.7-3.5-8.6-1.2.5c.5 2.9.4 5.2-.3 6.8-.7 1.7-2.1 3-4.2 3.9l-3.7 1.7-10.3-23.1 3.5-1.6-.5-1.2-12.7 5.7.5 1.2 2.5-1.2zm39.4 12.6-.4-1.3-2.4.8c-.8.3-1.3.1-1.4-.4-.1-.5-.2-.8-.2-1l.3-5.1 8.1-2.6 4.3 5.5-3.2 1 .4 1.3 12.9-4.1-.4-1.3-2.4.8-18.2-22.7-1.6.5-1.6 26.7c-.1 1.5-.5 2.4-1.4 2.7l-1.6.5.4 1.3 8.4-2.6zm-3.2-18.9 6.5 8.2-7.2 2.3.7-10.5zm21.4-14 3.5 18.8c1 5.4 5.1 7.3 12.4 6 4.2-.8 6.9-2.5 8.1-5.1.6-1.4.7-3.8 0-7l-2.7-14.4c-.2-.9-.1-1.6.1-1.9.3-.3.9-.6 1.8-.8l1.4-.3-.2-1.3-8.7 1.6.2 1.3 1.4-.3c.9-.2 1.5-.1 1.8.1.3.2.5.8.7 1.7l2.7 14.4c.4 1.9.5 3.3.5 4.1 0 1.3-.4 2.3-1.1 3.3-1.1 1.4-2.6 2.3-4.7 2.7-2 .4-3.5.1-4.6-.8-1.1-.9-1.8-2.5-2.3-4.8L229.3 21l3.5-.7-.2-1.3-13.7 2.6.2 1.3 3.2-.6zm34.6-5.7 1.4 25.2-3.4.2.1 1.4 14.1-.8c3.9-.2 7-1.2 9.1-2.9 1.7-1.4 3-3.1 3.9-5.2.9-2.1 1.3-4.3 1.1-6.7-.1-2.4-.7-4.5-1.8-6.5s-2.5-3.5-4.3-4.7c-2.4-1.5-5.5-2.2-9.4-2l-14.3.8.1 1.3 3.4-.1zm10.6-.5c1.5-.1 2.7 0 3.4.2 1.1.3 2 1 2.7 2.1.8 1.4 1.4 4.6 1.7 9.7l.1 2c.3 4.8-.1 7.9-1.2 9.4-.5.7-1.2 1.2-2.1 1.5-.7.2-1.7.4-3.2.4l-3.5.2-1.4-25.3 3.5-.2zm46.3 18.4-1.3-.1c-.9 2.8-2.1 4.7-3.5 5.9-1.4 1.1-3.2 1.6-5.5 1.5l-4.6-.3.9-12.3h.8c1.7.1 2.9.6 3.6 1.6.7.9 1.1 2.3 1.1 4.3l1.4.1.9-11.8-1.6-.4c-.7 3.4-2.5 4.9-5.3 4.7-.4 0-.7-.1-.9-.1l.8-11.5 4.8.3c1.9.1 3.2.7 4.2 1.6.9.9 1.8 2.6 2.5 5l1.4.1.4-7.3-23.2-1.7-.1 1.3 2.9.2-1.8 25.2-3.4-.2-.1 1.4 24.6 1.8 1-9.3zm17.3 11.1-3.6-.7 2.5-12.7.7.1c1.9.4 3.2 1 3.9 1.9.7.9.8 2.3.6 4.2-.3 2.3-.5 3.8-.5 4.3-.1 1.5.2 2.7.8 3.8.9 1.5 2.5 2.5 4.9 2.9 1.3.3 3 .2 5-.3l-.2-1.2c-.8.1-1.4.1-1.9 0-.7-.1-1.2-.5-1.3-1.1-.1-.5-.1-1.3.2-2.5.6-3.1.5-5.6-.4-7.3-.9-1.7-2.9-3.1-5.8-4.1l.1-.3c3 .4 5.3.2 7.1-.6 1.8-.8 2.9-2.2 3.3-4.2.4-1.9-.2-3.6-1.6-4.9-1.5-1.4-3.8-2.4-7-3l-15.3-3-.2 1.3 3.2.6-4.9 24.8-3.2-.6-.3 1.3 13.7 2.7.2-1.4zm1.4-25.5 3.5.7c1.9.4 3 .9 3.2 1.6.3.7.2 2.3-.3 4.8-.4 2-.9 3.3-1.5 3.9-.7.7-1.9.8-3.5.5l-3.5-.7 2.1-10.8zm17.233 25.281 1.489-4.982 10.539 3.15-1.489 4.981zM371.7 57.2l-1.7-.7c-.7-.3-1.1-.6-1.3-1.1-.1-.4-.1-1 .2-1.7l8.9-21.2-2.8 27.6 1.3.6 17.8-21h.1l-9.7 23-3.5-1.5-.5 1.3 13.1 5.5.5-1.3-3.2-1.4 9.8-23.3 3.3 1.4.5-1.2-10.5-4.4-11.1 12.8 1.8-16.8-11.1-4.7-.5 1.2 3.4 1.5-9 21.4c-.5 1.3-1.3 1.7-2.3 1.2l-1.9-.8-.5 1.3 8.4 3.5.5-1.2zm30.7 11.5c1 3.9 3.1 6.9 6.5 9 3.4 2 7 2.5 11 1.5s6.9-3.2 8.9-6.5 2.5-6.9 1.5-10.9-3.1-7-6.4-9c-3.3-2-7-2.5-11-1.5s-6.9 3.2-8.9 6.5-2.5 7-1.6 10.9zm4.1 2.7c.2-1.3 1.7-4.4 4.7-9.3 2.9-4.9 5-7.7 6.1-8.5 1.7-1.2 3.7-1.1 6 .3 2.3 1.4 3.3 3.1 3 5.2-.2 1.3-1.7 4.4-4.7 9.3-2.9 4.9-5 7.7-6.1 8.5-1.7 1.2-3.7 1.1-6-.3-2.2-1.4-3.2-3.1-3-5.2zm21.8 16.5-2.6-2-.9 1.1 11 8.7.9-1.1-2.9-2.3 8.1-10.1.6.5c1.5 1.2 2.4 2.4 2.6 3.5.2 1.1-.3 2.4-1.4 4-1.4 1.9-2.2 3.1-2.4 3.5-.7 1.3-1.1 2.5-1 3.7.1 1.7 1.1 3.4 3 4.9 1 .8 2.6 1.5 4.6 2.1l.4-1.2c-.7-.2-1.3-.5-1.7-.9-.6-.5-.8-1-.7-1.6.1-.5.6-1.2 1.3-2.1 2-2.5 3-4.7 3-6.7 0-1.9-1.1-4.1-3.3-6.3l.2-.3c2.4 1.7 4.6 2.7 6.6 2.7s3.6-.7 4.9-2.2c1.2-1.5 1.5-3.2.8-5.1-.7-1.9-2.3-3.8-4.8-5.9l-12.2-9.7-.8 1 2.6 2-15.9 19.8zm24-13.1c1.5 1.2 2.2 2.2 2.1 2.9-.1.7-.9 2.1-2.5 4.1-1.3 1.6-2.3 2.5-3.1 2.7-.9.3-2-.1-3.3-1.2l-2.8-2.2 6.8-8.5 2.8 2.2zm-1.8 31.3-1.2-1.2-1 1 6.1 6.2 1-1-1.7-1.8c-.6-.6-.7-1.1-.3-1.4.3-.3.6-.5.8-.6l4.7-2 6 6.1-3 6.3-2.4-2.4-1 1 9.5 9.7 1-1-1.7-1.8 12-26.5-1.2-1.2-24.5 10.6c-1.5.6-2.5.6-3.1 0zm19.4-5.5-4.4 9.5-5.3-5.4 9.7-4.1zm6.5 35.2c-2.6-3.2-2.4-6.9.6-11l-1-1.3-6.4 5 1 1.2 2.5.5c.1 2.2.9 4.3 2.5 6.4 1.7 2.1 3.8 3.3 6.4 3.6 2.6.3 5-.5 7.2-2.2 2.3-1.8 3.5-3.7 3.7-5.9.2-2-.4-4.5-1.8-7.6-1.2-2.6-1.9-4.1-2-4.7-.3-1.3.1-2.3 1.1-3.1.9-.7 2-.9 3.2-.7s2.3 1.1 3.3 2.3c2.4 3.1 2.2 6.4-.6 10l.9 1.1 5.7-4.7-.8-1-2-.4c0-2-.7-3.9-2-5.6-1.6-2.1-3.6-3.2-5.9-3.5-2.3-.3-4.5.4-6.5 2-1.8 1.4-2.8 3-3.1 4.8-.3 1.8.2 4 1.3 6.5.5 1.1 1.1 2.3 1.6 3.5.5 1.2.8 2.2.9 2.9.1 1.5-.4 2.7-1.6 3.6-1.2.9-2.5 1.2-4 .9-1.7-.2-3-1.1-4.2-2.6zm10.9 13.1-1.8-2.9-1.1.8 7.2 11.8 1.2-.7-1.8-2.9 10.4-6.4 4.9 8-10.4 6.4-1.8-2.9-1.1.7 7.2 11.8 1.1-.7-1.7-2.9 21.5-13.2 1.8 2.9 1.1-.6-7.2-11.9-1.1.7 1.7 2.9-9.7 6-4.9-8 9.8-6 1.7 2.9 1.1-.7-7.2-11.8-1.1.7 1.8 2.9zm15.7 26.6-.7-1.6-1.3.6 3.6 8 1.3-.6-1-2.3c-.3-.8-.3-1.2.2-1.5.4-.2.8-.3 1-.3l5.1-.3 3.5 7.8-5 4.9-1.4-3.1-1.3.6 5.5 12.4 1.3-.6-1-2.3 20.5-20.6-.7-1.5-26.7 1.4c-1.6.1-2.5-.2-2.9-1zm20.1 1.5-7.4 7.4-3.1-6.9 10.5-.5zM56.8 386.5l1 2.6.7-.2-2.7-6.8-13.3 1.1-.1-.3 10.4-8.2-2.7-6.8-.7.2 1 2.6-16.4 6.6-1-2.6-.7.2 2.4 5.9.6-.2-1-2.6 16.1-6.4.1.2-14.7 11.8.4.9L55 383l.1.2-16.1 6.5-1.1-2.7-.6.3 3.4 8.7.7-.3-1.1-2.6zm-8.3 21.6c-.5-.1-.8-.3-1-.5-.1-.2-.1-.4-.1-.6 0-.2.1-.3.3-.4l5.8-2.8c.7-.3 1.2-.6 1.4-.8.3-.3.5-.6.6-1.1.1-.9-.2-2.2-.9-3.7-.6-1.2-1.3-2.1-2.2-2.6-.8-.5-1.6-.6-2.3-.3-.8.4-1 1-.6 1.8s1 1 1.7.7c.3-.1.5-.3.7-.6s.3-.4.3-.4c.2-.1.4 0 .8.3.3.3.6.7.9 1.3.3.7.4 1.3.1 1.6-.2.3-.7.7-1.6 1.1l-1.6.8-.5-1c-.7-1.5-1.7-2.6-2.8-3.3-1.1-.7-2.2-.8-3.2-.3-1.8.9-2.2 2.2-1.3 4 .7 1.4 1.8 2.3 3.4 2.7l.1.1c-1 .8-1.2 1.7-.8 2.7.6 1.1 1.4 1.7 2.6 1.8l.2-.5zm-2.1-4.8c-.6-.2-1.1-.5-1.4-1.1-.6-1.2-.2-2 1-2.6 1.6-.8 3 .1 4.2 2.5l-1.9.9c-.6.4-1.2.5-1.9.3zm17.2 17.9L57 425l-.8-1.3-.6.3 3.1 5.3.6-.3-.8-1.4 6-3.5c2.2-1.3 2.8-2.8 1.8-4.6-.8-1.4-2.2-2.1-4.2-2.1l-.1-.2c.6-.5 1-1.1 1.1-1.9.1-.7 0-1.4-.4-2.1-.8-1.4-2.2-2.1-4.2-2.1l-.1-.2 2.2-1.3c-.8-1-1.4-1.9-1.8-2.6l-.9-1.6-.6.3 1 1.7-8.5 4.9-1-1.7-.6.3 3.3 5.7.6-.3-.8-1.4 4.5-2.6c1-.6 2-.8 3.1-.7 1.1.1 1.8.5 2.1 1.1.3.5.3.9 0 1.2-.2.2-.5.5-1 .8l-6.6 3.8-.8-1.3-.6.3 3.1 5.3.6-.3-.8-1.4 4.5-2.6c1-.6 2-.8 3.1-.7 1.1.1 1.8.5 2.2 1.2.3.9-.1 1.5-1.1 2.2zm12.3 14.7.5-.4-2.5-3.7-.5.4 1.1 1.6-6.8 1.6-.1-.2 3.6-6.3 1.1 1.6.5-.4-3.7-5.4-.5.4.8 1.2-5.8 10.1-3.2.8c-1.1.3-1.8.3-1.9.1-.1-.1 0-.3 0-.7.1-.4 0-.8-.3-1.1-.5-.7-1.1-.8-1.9-.3-.8.5-.9 1.2-.4 2 .5.7 1.3 1.1 2.3 1.1.7 0 2-.2 3.8-.6l13-3 .9 1.2zM86 449.4c.1.1 0 .3-.3.6l-.2.2c-.7.6-.7 1.2 0 2.1.6.8 1.3.8 2.1.1.4-.3.7-.8.7-1.3s-.2-1-.6-1.5c-1-1.3-2.6-1.7-4.6-1.3l-.1-.2 2.2-1.7c-.9-.9-1.6-1.6-2.1-2.2l-1.2-1.4-.5.4 1.2 1.5-7.6 6.2-1.2-1.5-.5.4 4.7 5.8.5-.4-1.6-2 4.2-3.4c.8-.6 1.7-1 2.8-1.1 1-.1 1.7.2 2.1.7zm7.7 4 .7.8 4.7 1.4c.9.3 1.5.2 1.8-.1.2-.2.3-.5.4-.8 0-.3-.1-.6-.3-.8-.3-.3-.9-.5-1.6-.5h-5.7zm2 7.9c.1-1.7-.4-3.1-1.4-4.3-1.1-1.2-2.4-1.8-4.1-1.9-1.7-.1-3.1.4-4.2 1.4-1.2 1-1.8 2.4-1.9 4.1-.1 1.7.4 3.1 1.4 4.3 1.1 1.2 2.4 1.8 4.1 1.9 1.7.1 3.1-.4 4.2-1.4 1.2-1.1 1.8-2.4 1.9-4.1zm-2.8.4-2.6 2.4c-.9.8-1.7 1.3-2.3 1.3-.7.1-1.4-.2-2-.9-.6-.7-.8-1.4-.7-2.1.1-.6.7-1.3 1.6-2.1l2.6-2.4c.9-.8 1.7-1.3 2.3-1.4.7-.1 1.3.2 1.9.9.6.7.9 1.4.7 2.1-.1.6-.6 1.3-1.5 2.2zm9.2 12.8c-1.2.9-2.3 1.4-3.1 1.4-.9.1-1.7-.3-2.4-1l-1.6-1.6 11.5-2.2.6-.6-6.7-6.7-3.1 3.1.5.5c1.4-.8 2.4-1.2 3.1-1.2.7 0 1.4.5 2.3 1.4l.9.9-11.5 2.1-.6.6 7.1 7.1 3.5-3.5-.5-.3zm4.4-12.4c-.3.3-.5.7-.5 1.2s.2.8.5 1.2c.3.3.7.5 1.2.5s.8-.2 1.2-.5c.3-.3.5-.7.5-1.2s-.2-.8-.5-1.2c-.3-.3-.7-.5-1.2-.5s-.8.1-1.2.5zm9.3 20.6c1.5-1.7 1.3-3.3-.4-4.8-1.2-1.1-2.8-1.3-4.7-.8l-.2-.2 1.7-1.9c-1.1-.7-1.9-1.3-2.5-1.9l-1.4-1.2-.4.5 1.5 1.3-6.5 7.3-1.5-1.3-.4.5 5.1 4.5.4-.5-1.3-1.2 3.6-4c.8-.8 1.7-1.4 2.8-1.6 1.1-.2 2 0 2.6.5.4.4.6.8.6 1.1-.1.3-.3.6-.7 1.1l-5.3 5.9-1.3-1.1-.4.5 4.9 4.4.4-.5-1.3-1.2 4.7-5.4zm9.1 3.2c-1.2-1-2.6-1.3-4.2-1-1.6.3-2.9 1.1-4 2.4-1 1.2-1.4 2.6-1.3 4.1.1 1.5.8 2.8 2.1 3.7 2.2 1.7 4.3 1.8 6.6.1l-.5-.4c-.9.6-1.8.9-2.7.9-1 0-1.8-.3-2.6-.9-.6-.5-.9-1.1-1-1.7s.2-1.3.6-1.9l2.1-2.7 5.7 4.6.2-.2c.9-1.1 1.2-2.3 1-3.7-.2-1.3-.8-2.4-2-3.3zm-.2 3.4-1 1.2-3.2-2.6 1-1.2c.9-1.1 1.9-1.2 2.9-.4 1.1.9 1.2 1.9.3 3zm22.1 13.4.4-.5-5.1-3.4-.3.5 1.9 1.4-6 1.1.5 7-1.3-.9-.4.5 5.2 3.5.3-.6-.8-.5-.6-8.8 4-.7z"/><path d="M144.9 490.7c-1.1-.6-2-1.1-2.7-1.5l-1.8-1.2-.4.5 1.8 1.2-9.9 14.8-1.8-1.2-.4.5 6 4 .4-.5-1.6-1.1 10.4-15.5zm11.8 18.9c-.4-1.6-1.3-2.8-2.7-3.6-1.4-.8-2.9-1-4.5-.6s-2.8 1.3-3.6 2.6c-.8 1.3-1 2.8-.6 4.4.4 1.6 1.3 2.8 2.7 3.6 1.4.8 2.9 1 4.5.6s2.8-1.3 3.6-2.6c.8-1.3 1-2.8.6-4.4zm-2.6 1.2-1.8 3c-.6 1-1.2 1.7-1.8 2-.6.3-1.4.2-2.2-.3-.8-.5-1.2-1.1-1.2-1.8 0-.6.2-1.5.8-2.5l1.8-3c.6-1 1.2-1.7 1.8-2 .6-.3 1.3-.2 2.1.3s1.2 1.1 1.3 1.8c.1.6-.2 1.5-.8 2.5zm15.9 6c.3-.5.3-1 .1-1.4s-.6-.9-1.1-1.1c-1.5-.8-3-.5-4.7.7l-.2-.1 1.3-2.5c-1.2-.4-2.2-.8-2.9-1.2l-1.6-.8-.3.6 1.7.9-4.5 8.7-1.7-.9-.3.6 6.7 3.5.3-.6-2.2-1.2 2.5-4.8c.5-.9 1.2-1.6 2.1-2.1.9-.5 1.7-.6 2.3-.3.2.1.2.3 0 .6l-.1.2c-.4.8-.1 1.4.8 1.9.6.4 1.3.2 1.8-.7zm6.1 11.5c-.8.4-1.7.3-2.6-.1l-2.1-1 10.1-6 .3-.7-8.6-3.9-1.8 3.9.6.3c1-1.2 1.8-2 2.5-2.2.6-.2 1.5 0 2.7.5l1.2.5-10.1 6-.3.8 9.2 4.2 2-4.5-.6-.3c-.9 1.3-1.7 2.1-2.5 2.5zm11.8 5.5c-.9.3-1.8.2-2.7-.1-.7-.3-1.2-.7-1.4-1.4-.2-.6-.2-1.3.1-2l1.3-3.2 6.8 2.7.1-.2c.5-1.3.5-2.6-.1-3.8-.6-1.2-1.6-2.1-2.9-2.7-1.4-.6-2.9-.5-4.3.3-1.4.7-2.5 1.9-3.1 3.4-.6 1.4-.6 2.9 0 4.3s1.6 2.4 3 3c2.6 1 4.7.4 6.3-1.8l-.6-.3c-.8.9-1.5 1.5-2.5 1.8zm-1.9-8.9c.5-1.3 1.4-1.7 2.7-1.2 1.3.5 1.7 1.4 1.1 2.7l-.6 1.4-3.8-1.5.6-1.4zm18.2 3.8c-1.6-.5-3.1-.1-4.6 1.2l-.2-.1.8-2.4c-1.2-.2-2.2-.5-3-.7l-1.7-.6-.2.6 1.8.6-3.1 9.3-1.8-.6-.2.6 6.4 2.2.2-.6-1.7-.6 1.7-5.1c.4-1.1 1-1.9 2-2.5.9-.6 1.8-.8 2.6-.5.5.2.9.5 1 .8.1.3 0 .7-.2 1.3l-2.5 7.6-1.6-.5-.2.6 6.2 2.1.2-.6-1.7-.6 2.4-7c.4-2.3-.4-3.8-2.6-4.5zm11.4-4c-.4-.1-.9-.1-1.2.1-.4.2-.6.5-.8 1-.1.4-.1.9.1 1.2.2.4.5.6 1 .8.4.1.9.1 1.3-.1s.7-.5.8-1c.1-.4.1-.9-.2-1.2-.2-.4-.6-.7-1-.8zm-3.3 6.8-1.7-.5-.2.6 1.8.5-2.7 9.5-2.1-.6-.2.6 7 2 .2-.6-2-.6 2.9-10.3c-1.2-.2-2.2-.4-3-.6zm11.7 2.8c-1.5-.4-2.9-.1-4.2.9-1.3.9-2.2 2.2-2.6 3.9-.4 1.5-.2 2.9.6 4.2.8 1.3 1.9 2.1 3.4 2.5 2.7.6 4.7-.2 6-2.7l-.7-.2c-.5.9-1.2 1.6-2.1 2s-1.8.5-2.7.3c-.8-.2-1.3-.6-1.6-1.1-.3-.6-.4-1.2-.2-2l.8-3.3 7.1 1.7.1-.3c.3-1.4.1-2.6-.6-3.7-.8-1.2-1.9-1.9-3.3-2.2zm1.3 3.1-.4 1.5-4-1 .4-1.5c.3-1.4 1.2-1.9 2.5-1.6 1.3.4 1.8 1.2 1.5 2.6zm17.6.6c-1.3 0-2.3-.1-3.1-.2l-1.8-.3-.1.6 1.8.3-1.6 9.7-2.2-.4-.1.6 7.2 1.2.1-.6-2-.3 1.8-10.6zm-.6-7.3c-.5-.1-.9 0-1.2.3-.4.3-.6.6-.7 1.1-.1.5 0 .9.3 1.2.3.4.6.6 1.1.7.5.1.9 0 1.2-.3.4-.3.6-.6.7-1.1.1-.5 0-.9-.3-1.2-.3-.4-.6-.6-1.1-.7zm20.2 9.7c-1.6-.2-3 .6-4.1 2.4h-.2l.3-2.8c-1.3.1-2.3 0-3.1 0l-1.8-.2-.1.7 1.9.2-.9 9.8-1.9-.2-.1.7 7.5.7.1-.7-2.5-.2.5-5.3c.1-1 .5-1.9 1.2-2.7.7-.8 1.3-1.2 2-1.1.2 0 .3.2.2.6v.3c-.1.9.4 1.4 1.5 1.5 1 .1 1.5-.4 1.6-1.4.1-.5-.1-1-.4-1.4-.6-.6-1.1-.9-1.7-.9zm9.8.6c-1.6-.1-3 .5-4.2 1.6-1.2 1.1-1.9 2.5-1.9 4-.1 1.5.5 2.9 1.6 4.2 1.1 1.2 2.5 1.9 4.1 2 1.6.1 3-.5 4.2-1.6 1.2-1.1 1.9-2.5 1.9-4 .1-1.5-.5-2.9-1.6-4.2-1.1-1.3-2.5-2-4.1-2zm2.4 4.2-.1 3.5c0 1.2-.3 2.1-.6 2.6-.4.6-1.1.8-2 .8-.9 0-1.6-.4-1.9-1-.3-.5-.5-1.4-.4-2.6l.1-3.5c.1-1.2.3-2.1.7-2.6.4-.5 1.1-.8 2-.7.9 0 1.6.4 2 .9.1.5.2 1.4.2 2.6zm-4.3-6.4 4.3-2.4c.8-.4 1.2-.9 1.2-1.4 0-.3-.1-.6-.3-.8-.2-.2-.4-.3-.7-.3-.5 0-1 .2-1.5.8l-4 4 1 .1zm16.9-2c.3-.3.5-.7.5-1.2s-.2-.8-.5-1.2c-.3-.3-.7-.5-1.2-.5s-.8.2-1.2.5c-.3.3-.5.7-.5 1.2s.2.8.5 1.2c.3.3.7.5 1.2.5s.9-.1 1.2-.5zm3 10.8c-.2 1.5-.6 2.6-1.2 3.3-.6.7-1.4 1-2.4 1h-2.3l6.5-9.8v-.8l-9.4.2.1 4.3h.7c.4-1.6.8-2.6 1.3-3 .5-.5 1.4-.7 2.6-.7h1.3l-6.5 9.8v.8l10.1-.2-.1-4.9h-.7zm15.9 3.4-.5-7.4c-.1-2.2-1.4-3.2-3.7-3.1-1.6.1-2.9 1.1-3.9 2.8h-.3l-.2-2.6c-1.2.3-2.3.4-3.1.5l-1.8.1v.7l1.9-.1.6 9.8-1.9.1v.7l6.8-.4v-.7l-1.8.1-.3-5.3c-.1-1.1.2-2.2.8-3.1.6-.9 1.4-1.4 2.2-1.5.6 0 1 .1 1.2.4.1.2.2.6.3 1.2l.5 7.9-1.7.1v.7l6.5-.4v-.7l-1.6.2zm12.3-1.9c-.7.7-1.5 1.1-2.4 1.2-.8.1-1.4-.1-1.9-.5s-.8-1-.9-1.8l-.4-3.4 7.3-.9v-.3c-.2-1.4-.8-2.5-1.9-3.3-1.1-.8-2.4-1.1-3.9-.9-1.5.2-2.7.9-3.6 2.3-.9 1.3-1.3 2.9-1.1 4.5.2 1.5.9 2.8 2 3.8 1.2 1 2.5 1.3 4.1 1.2 2.7-.3 4.3-1.9 4.7-4.6l-.7.1c-.2 1-.6 1.9-1.3 2.6zm-5.9-6.8c-.2-1.4.4-2.2 1.8-2.3 1.4-.2 2.1.4 2.3 1.8l.2 1.5-4.1.5-.2-1.5zm22.9 4.5-3.6-18.4c-1.2.4-2.2.7-3 .8l-2.1.4.1.6 2.2-.4 3.4 17.5-2.2.4.1.6 7.2-1.4-.1-.6-2 .5zm3.7-18.6c-.4-.2-.8-.3-1.3-.2-.4.1-.8.3-1 .7-.2.4-.3.8-.2 1.2.1.4.3.8.7 1s.8.3 1.2.2c.4-.1.8-.3 1-.7.2-.4.3-.8.2-1.2.1-.5-.2-.8-.6-1zm4.5 16.8-2.4-10.5c-1.2.4-2.2.8-3 .9l-1.8.4.1.6 1.8-.4 2.2 9.6-2.2.5.1.6 7.1-1.6-.1-.6-1.8.5zm7.2-8.6c-.8.1-1.7.2-2.5.2-.6 0-1-.3-1.1-.8-.3-1.3.3-2.1 1.8-2.5.7-.2 1.4-.1 2 .2.6.3 1.1.9 1.5 1.7l.6-.2-.8-3-.4.1-.3.7c-1-.4-2-.5-2.8-.2-1.1.3-1.9.8-2.3 1.6-.5.8-.5 1.7-.3 2.8.3 1.2.9 1.9 1.9 2.3.7.3 1.8.3 3.3.1 1.6-.2 2.5.1 2.7 1 .2.6.1 1.2-.3 1.7s-1 .8-1.7 1.1c-.8.2-1.6.1-2.4-.4-.8-.5-1.4-1.2-1.9-2.3l-.8.2 1.1 4 .2-.1.9-1c1 .5 2 .5 3 .3 1.2-.3 2-.9 2.5-1.7.5-.8.6-1.8.3-2.9-.6-2.1-2-3.1-4.2-2.9zm-.6-11.2c-.3-.1-.5-.2-.8-.1-.4.1-.8.5-1.2 1.2l-2.6 5.1 1-.3 3.4-3.6c.6-.7.9-1.2.8-1.7-.2-.2-.4-.5-.6-.6zm16.4 12.7c-.5.8-1.2 1.4-2 1.6-1.7.5-2.7 0-3.3-1.7l-1.3-4c-.4-1.2-.5-2.2-.3-2.9.2-.7.8-1.2 1.7-1.5 1.1-.3 1.7-.3 1.9.2 0 0-.1.2-.2.6-.1.4-.1.8 0 1.1.3.9 1 1.3 2 .9.9-.3 1.3-.9 1-1.9-.3-.9-.9-1.5-1.8-1.8-.9-.3-1.9-.2-3.1.1-1.6.5-2.8 1.5-3.5 3-.7 1.5-.8 3-.3 4.7.5 1.5 1.4 2.7 2.7 3.4 1.3.7 2.7.9 4.2.4 2.6-.8 3.8-2.6 3.7-5.3l-.7.2c0 1.2-.2 2.1-.7 2.9zm.9-15.7c.4.2.8.2 1.3 0 .4-.2.7-.4.9-.8.2-.4.2-.8.1-1.3-.2-.4-.4-.7-.9-.9s-.8-.2-1.3 0c-.4.2-.7.4-.9.8-.2.4-.2.8 0 1.3.2.4.4.7.8.9zm8 13.1-3.7-10.1c-1.1.6-2.1 1-2.8 1.3l-1.7.6.2.6 1.7-.6 3.4 9.2-2.1.8.2.6 6.9-2.5-.2-.6-1.9.7zm11.7-7.8c.1 1.1-.1 2-.5 2.8-.5.8-1.1 1.4-2 1.8-.7.3-1.4.3-2 0-.6-.3-1-.8-1.3-1.5l-1.3-3.2 6.8-2.8-.1-.2c-.5-1.3-1.4-2.2-2.7-2.6-1.3-.5-2.6-.4-4 .1-1.4.6-2.4 1.6-2.9 3.2-.5 1.5-.5 3.1.2 4.6.6 1.4 1.6 2.5 3 3.1s2.8.6 4.3 0c2.5-1.1 3.6-2.9 3.3-5.7l-.8.4zm-8.1-2.1c-.5-1.3-.2-2.2 1.1-2.7s2.2-.1 2.7 1.2l.6 1.4-3.8 1.6-.6-1.5zm15.4 0c-.8-.3-1.5-.3-2.2 0-.6.3-.9.6-1.1 1.1-.2.5-.1 1 .2 1.6.5 1 1.2 1.3 2.1.9.6-.3.9-.7.9-1.2s.1-.9.2-.9c.3-.1.6.1.9.8.6 1.2.4 2.9-.5 4.8l.6.3c1.3-2 1.5-3.8.8-5.5-.6-1-1.2-1.6-1.9-1.9zm20-8.6c-.2.1-.4.1-.6.1-.2 0-.3-.1-.4-.3l-3.1-5.7c-.4-.7-.7-1.1-.9-1.4-.3-.3-.6-.5-1.1-.5-.9-.1-2.2.3-3.7 1.1-1.2.7-2 1.4-2.5 2.3-.5.9-.5 1.6-.1 2.3.4.8 1 1 1.8.5.8-.4 1-1 .6-1.8-.1-.3-.3-.5-.6-.6-.3-.2-.4-.3-.4-.3-.1-.2 0-.4.3-.8.3-.3.7-.7 1.3-1 .7-.4 1.2-.4 1.6-.2.3.2.7.7 1.2 1.6l.8 1.5-1 .6c-1.5.8-2.6 1.8-3.2 3-.6 1.2-.7 2.2-.1 3.2.9 1.7 2.3 2.1 4.1 1.1 1.4-.8 2.2-1.9 2.6-3.5l.1-.1c.9.9 1.8 1.1 2.7.6 1.1-.6 1.7-1.5 1.7-2.7l-.5-.2c-.2.7-.4 1.1-.6 1.2zm-4.2 1.3c-.1.6-.5 1.1-1 1.4-1.1.6-2 .3-2.7-.8-.8-1.5-.1-3 2.3-4.3l1 1.8c.4.6.5 1.3.4 1.9zm11.3-5.3-9.7-16c-1 .8-1.8 1.4-2.5 1.8l-1.8 1.1.3.6 1.9-1.1 9.3 15.3-1.9 1.1.3.6 6.2-3.8-.3-.6-1.8 1zm9.9-9.9c.3 1 .3 2 0 2.9-.3.9-.8 1.6-1.6 2.2-.7.4-1.3.6-1.9.4-.6-.2-1.2-.5-1.6-1.2l-1.9-2.9 6.1-4.1-.1-.2c-.8-1.2-1.8-1.9-3.2-2.1-1.3-.2-2.6.1-3.9.9-1.3.8-2 2.1-2.2 3.7-.2 1.6.1 3.1 1.1 4.5.9 1.3 2 2.1 3.5 2.4 1.5.3 2.9.1 4.2-.8 2.3-1.5 3-3.6 2.1-6.2l-.6.5zm-8.3-.5c-.8-1.2-.6-2.1.6-2.9 1.1-.8 2.1-.6 2.9.6l.9 1.3-3.4 2.3-1-1.3zm23.7-9.2c.3 1 .2 1.7-.4 2.1-.7.5-1.3.4-1.9-.4l-5-6.5 2.2-1.7-.4-.5-2.1 1.6-2.1-2.7c-.5.7-1 1.1-1.3 1.4l-.8.6 1.9 2.4-1.5 1.2.4.5 1.5-1.1 5.2 6.7c.5.7 1.1 1.1 1.6 1.1s1.2-.2 2.1-.9c.7-.6 1.2-1.2 1.5-2 .2-.8.2-1.5-.1-2.1l-.8.3zm8.6-9c.4 1 .5 1.9.4 2.9-.2.9-.6 1.7-1.4 2.3-.6.5-1.2.7-1.9.6-.7-.1-1.2-.4-1.7-1l-2.2-2.6 5.6-4.7-.2-.2c-.9-1.1-2-1.6-3.4-1.7-1.4-.1-2.6.4-3.7 1.3-1.2 1-1.8 2.3-1.8 3.9s.5 3.1 1.6 4.4c1 1.2 2.3 1.9 3.8 2 1.5.2 2.9-.3 4.1-1.3 2.1-1.8 2.6-3.9 1.4-6.4l-.6.5zm-8.3.4c-.9-1.1-.8-2.1.2-2.9 1.1-.9 2-.8 2.9.3l1 1.2-3.1 2.7-1-1.3zm21.8-8.9-5.1-5.4c-1.5-1.6-3.1-1.6-4.8 0-1.2 1.1-1.6 2.7-1.2 4.6l-.2.2-1.8-1.9c-.8 1-1.5 1.8-2.1 2.3l-1.3 1.3.5.5 1.4-1.3 6.8 7.1-1.4 1.3.5.5 4.9-4.7-.5-.5-1.3 1.2-3.7-3.9c-.8-.8-1.2-1.8-1.3-2.9-.1-1.1.1-2 .7-2.5.4-.4.8-.5 1.2-.5.3.1.6.3 1 .8l5.5 5.8-1.2 1.2.5.5 4.7-4.5-.5-.5-1.3 1.3zm6.8-16.8c-.6.5-1.3 1-2 1.6-.5.3-1 .3-1.4-.1-1-.9-.9-1.9.1-3.1.5-.5 1.1-.8 1.8-.9.7-.1 1.4.1 2.2.6l.4-.5-2.3-2.1-.2.3.1.8c-1.1.2-1.9.7-2.5 1.4-.8.8-1.1 1.7-1 2.6.1.9.5 1.7 1.3 2.5.9.8 1.8 1.1 2.8.9.8-.2 1.7-.7 2.8-1.7 1.2-1 2.2-1.2 2.9-.6.5.4.7.9.6 1.6 0 .6-.3 1.2-.9 1.8-.6.6-1.3.9-2.2 1-.9 0-1.8-.3-2.8-.9l-.5.6 3.1 2.8.2-.2.2-1.4c1.1-.2 1.9-.6 2.6-1.4.8-.9 1.2-1.8 1.2-2.8 0-1-.5-1.8-1.3-2.6-1.7-1.5-3.4-1.5-5.2-.2zm15.8-9.9c.1.5.1.9-.1 1.1-.1.1-.3.2-.5.3-.2 0-.4 0-.5-.1l-5-4.1c-.6-.5-1-.8-1.3-.9-.4-.2-.8-.2-1.2-.1-.9.3-1.9 1.1-3 2.4-.9 1.1-1.3 2.1-1.4 3.1-.1 1 .1 1.7.7 2.2.7.6 1.3.5 1.9-.2.6-.7.5-1.3-.1-1.8-.2-.2-.5-.3-.8-.4-.3-.1-.5-.1-.5-.1-.2-.1-.2-.4-.1-.8s.4-.9.8-1.4c.5-.6 1-.9 1.4-.8.3.1.9.4 1.7 1l1.4 1.1-.7.9c-1.1 1.3-1.7 2.6-1.8 3.9-.1 1.3.2 2.3 1.1 3 1.5 1.2 2.9 1.1 4.2-.5 1-1.2 1.3-2.6 1-4.2l.1-.1c1.2.5 2.1.4 2.8-.4.8-1 1-2 .5-3.1h-.6zm-3.9 5.5c-.8 1-1.8 1.1-2.8.2-1.4-1.1-1.2-2.7.5-4.9l1.6 1.3c.6.5.9 1 1.1 1.7.1.7 0 1.2-.4 1.7zm17.4-22.8-5.7-4c-2.1-1.5-3.7-1.3-4.9.3-.9 1.3-.9 2.8-.1 4.7l-.1.2c-.7-.3-1.4-.4-2.1-.2-.7.2-1.3.6-1.7 1.2-.9 1.3-.9 2.8-.1 4.7l-.1.2-2.1-1.5c-.6 1.1-1.1 2-1.6 2.7l-1.1 1.5.5.4 1.1-1.6 8 5.6-1.1 1.6.5.4 3.8-5.3-.5-.4-.9 1.3-4.2-3c-.9-.7-1.6-1.5-1.9-2.5-.4-1-.3-1.8.1-2.4.3-.4.7-.6 1.1-.5.3 0 .7.2 1.2.6l6.2 4.4-.9 1.2.5.4 3.5-5-.5-.4-.9 1.3-4.2-3c-.9-.7-1.6-1.5-2-2.5-.4-1-.3-1.8.1-2.5.4-.6 1.2-.6 2.2.1l6.2 4.4-.9 1.2.5.4 3.5-5-.5-.4-.9 1.4zm14.2-10.8-6.4-3.6.2-.3c1.4-.2 2.5-.9 3.1-2 .7-1.3.9-2.7.4-4.1-.5-1.4-1.4-2.6-3-3.4-1.5-.8-3-1.1-4.4-.7s-2.6 1.1-3.2 2.4c-.7 1.2-.7 2.5-.2 3.8l-.2.3-1.5-.8c-.5 1.2-.9 2.1-1.3 2.8l-.9 1.7.6.3.9-1.7 14.4 8-.9 1.7.6.3 3.3-6-.6-.3-.9 1.6zm-8.6-4.8-2.7-1.5c-1-.5-1.6-1.3-1.9-2.4-.3-.9-.2-1.8.3-2.7.6-1.2 1.9-1.2 3.7-.2l3.6 2c1 .6 1.7 1.1 2 1.6.4.6.3 1.3-.1 2s-1.1 1.2-2.1 1.5c-1.1.2-2 .1-2.8-.3zm-4.1-20.1c-.4-.2-.8-.2-1.3-.1-.4.2-.7.4-.9.8-.2.4-.2.8-.1 1.2.1.4.4.7.8.9.4.2.8.2 1.2.1.4-.1.7-.4.9-.8.2-.4.2-.8.1-1.3-.1-.2-.3-.6-.7-.8zm14.5 7.1-9.6-4.8c-.4 1.2-.8 2.2-1.1 2.9l-.8 1.6.6.3.8-1.7 8.8 4.4-1 2 .6.3 3.2-6.5-.6-.3-.9 1.8zm3.4-14.4-.3.6c.8.7 1.3 1.5 1.6 2.4.2.9.2 1.8-.2 2.7-.3.7-.8 1.2-1.4 1.4-.6.2-1.3.2-2-.1l-3.1-1.4 3-6.7-.2-.1c-1.3-.6-2.5-.6-3.8-.1-1.3.5-2.2 1.5-2.8 2.8-.6 1.4-.6 2.8.1 4.3s1.8 2.6 3.3 3.2c1.4.6 2.8.7 4.3.2 1.4-.5 2.5-1.5 3.1-2.9 1.1-2.4.6-4.5-1.6-6.3zm-6.1 5.3-1.4-.6c-1.3-.6-1.6-1.5-1.1-2.7.6-1.3 1.5-1.6 2.8-1l1.4.6-1.7 3.7zm-2.1-22.2c-.3-.1-.6-.1-.8 0-.3.1-.5.3-.6.6-.2.4-.1 1 .3 1.7l2.6 5.1.4-1-.9-4.9c-.3-.8-.6-1.4-1-1.5zm16.4 4-6.9-2.6c-2.1-.8-3.5-.1-4.4 2.1-.6 1.5-.3 3.1 1 4.7l-.1.2-2.4-.9c-.3 1.2-.6 2.2-.9 3l-.6 1.7.6.2.7-1.8 9.2 3.5-.7 1.8.6.2 2.4-6.3-.6-.2-.7 1.6-5-1.9c-1.1-.4-1.9-1.1-2.5-2.1-.6-1-.7-1.8-.4-2.6.2-.5.5-.8.9-.9.3 0 .7 0 1.2.3l7.4 2.8-.6 1.6.6.2 2.3-6.1-.6-.2-.5 1.7zm-10.4-10.3c2.5.3 5 .9 7.5 1.7l.2.1.3-.9-.2-.1c-2.5-.8-4.8-1.8-7.1-3-2.2-1.2-3.4-1.8-3.5-1.9-1.2-.4-2 0-2.3 1.2-.4 1.2 0 1.9 1.2 2.3.1.1 1.4.3 3.9.6zm13.8 1.8c-.2-.5-.6-.8-1.1-.9-.5-.2-1-.1-1.4.1-.5.2-.8.6-.9 1.1-.2.5-.1 1 .1 1.4.2.5.6.8 1.1.9.5.2 1 .1 1.4-.1.5-.2.8-.6.9-1.1.1-.4.1-.9-.1-1.4zm-279.4.5h.4c6 0 12-8.6 12.3-9l1.2-1.7-2.1.1c-3.3.2-5.8 1-7.7 2 3.7-6.4 7.2-9.1 7.3-9.1.5-.3.6-1 .2-1.4-.3-.5-1-.6-1.4-.2-.1.1-5.4 4.3-10.2 14.4-1.2 1.7-1.5 3.2-1.6 3.6-.2.5-.4 1.1-.6 1.7-.5-2.2-2-5.4-6.2-9.1l-1.1-.9-.6 1.3c-.4.8-3.4 8.3-.4 11.6.9 1 2.2 1.5 3.9 1.5.9 0 1.9-.2 3-.5-2.4 7.7-4.1 17.6-3.9 30 .4 21.4-5 36.5-16.1 44.9-16.9 12.8-41.7 5.4-41.9 5.3-.5-.2-1.1.1-1.3.7-.2.5.1 1.1.7 1.3.6.2 7.9 2.4 17.2 2.4 8.3 0 18.2-1.7 26.5-8 11.7-8.8 17.4-24.4 16.9-46.5-.2-15.1 2.3-26.3 5.5-34.4zm1.5-3.6c1.2-1.7 3.5-3.8 8.1-4.7-2.2 2.6-5.7 5.9-8.8 6.2.2-.4.4-1 .7-1.5zm-10.5 5.5c-1.5-1.6-.5-5.7.3-8.1 4.2 4.1 4.7 7.3 4.6 8.6-1.8.4-3.9.6-4.9-.5zm189.5-101.6-2.1.1c-3.5.2-6.1 1.1-8 2.2 1.6-3.4 3.1-6.7 4.2-9.7.7-.2 9.8-2.4 10.1-8.4l.1-1.1h-1.1c-.1 0-4.1.1-7.3 3.3.2-1.4.3-2.6 0-3.5 1.4-.9 3.9-3.3 5.1-8.3l.5.1c.4.1.9.1 1.3.1 6 0 12-8.6 12.3-9l1.2-1.7-2.1.1c-8 .5-11.3 4.2-12.6 6.8.2-2 .1-4.2-.2-6.8 2.2-2.6 3-5.2 2.3-7.5-1.1-4-6.1-5.8-6.3-5.8l-.6-.2-.5.5c-1.4 1.6-2.1 3.5-1.9 5.4.4 3.8 3.8 6.9 4.9 7.8 1.2 9.8-1.8 14.2-3.7 16-.3-2.2-1.6-5.8-6.4-9.9l-1.1-.9-.6 1.3c-.4.8-3.4 8.3-.4 11.6.9 1 2.2 1.5 3.9 1.5.8 0 1.8-.2 2.9-.4.6 2.9-2.9 13.9-15.4 35.2-.8 1.3-1.6 2.5-2.5 3.7.2-2.4-1.5-4.8-5.1-7.3l-1.3-.9-.3 1.6c-.2.9-1.4 9 2.4 11.1l.2.1c-7.8 7.4-18 11.3-25.6 13.3-.7-3.1 3.4-7.4 5.1-8.8 4.2-2.9 6.3-5.9 6.4-8.7.1-2.7-1.8-4.2-1.8-4.3l-.4-.3-.5.1c-2.7.7-4.6 2-5.6 4.1-1.5 3-.5 6.5 0 8-1.6 1.5-6.2 6.1-5.2 10.4-5 1.2-8.4 1.5-8.4 1.5h-1.1c-6.9-.2-13.1.2-18.7 1 .8-1.1 1.5-2.7 1.7-3.2.1-.4.3-.9.3-1.5l.2.1s1.3.4 3.1.4c3.3 0 8.2-1.1 10.3-7.4l.3-.9-.9-.3c-.2-.1-4.3-1.5-8.1.4-2.2 1-3.8 3-4.9 5.6-.3-1.8-1.5-3.7-4.3-5.1l-.9-.5-.5 1c-.1.3-3.5 7.6 1.1 12.1-10.6 1.8-18.8 5.1-25.2 9-.5.1-1.1.2-1.6.4 2.5-6.1-1-9.9-1-9.9l-.7-.7-.7.6c-5.1 4.4-3.3 10-1.4 12.8-.3.4-.6.9-.9 1.4-8.3 6.9-12.3 14.4-14.1 18.6-.1-.5-.2-1-.4-1.5-.1-.6-.3-1.4-.6-2.1-2.2-7.1-6-14.3-12.3-20.5 3.8-2.8 5.9-5.6 5.9-8.3.1-2.7-1.8-4.2-1.8-4.3l-.4-.3-.5.1c-2.7.7-4.6 2-5.6 4.1-1 2.1-.8 4.4-.5 6.2-1.2-1-2.5-2-3.8-2.9.8-1.6.5-4.2-.3-5.9-.7-1.6-1.4-2.5-2-3.2-.7-.8-1.2-1.4-1.5-3l-.6-3-1.3 2.8c-.1.3-2.9 6.2.3 10.9-.7-.5-1.6-1-2.9-1.2-2.7-.3-5.7 1.3-8.8 4.7l-1.1 1.2 1.6.5c.2 0 2.1.6 4.5.6 2.7 0 5.9-.7 7.9-3.5l.4-.6c.8.8 1.6 1 2.1 1h.1c8.3 5.5 13.5 12.7 16.7 20-1.2-.7-2.7-1.3-4.6-1.6l-1-.2-.2 1c0 .2-.6 3.7 1.6 6.9 1.6 2.2 4.1 3.6 7.5 4.1 2.3 10.4 1.6 20 .9 25.3-.2.4-.3.9-.4 1.3-.2.9-.3 1.9-.3 2.8v.6c0 .4 0 .9.1 1.2l.1 2.1 1.6-1.4c.8-.7 2.1-1.3 3.3-2 .7-.4 1.4-.7 2-1 2.2-1.3 3.6-3 4.1-4.8.2-1 .2-2 .1-3 0-.7-.1-1.4 0-2l.2-1.4-1.4.2c-2.7.4-5.1 1.7-6.9 3.6.4-5.1.5-12-.9-19.5 0-.2 2.7-11 14.2-20.6.9.4 2.6 1 4.6 1 .8 0 1.5-.1 2.3-.3 2.2-.6 4-2.2 5.3-4.7l.5-.9-1-.5c-.7-.3-1.6-.6-2.6-.8 9.8-5.3 23.6-9.1 42.9-8.6.5 1.4 2 3.8 7 4h.8l.3-.7c.1-.2.5-1.6-.4-3-.3-.5-.8-.8-1.3-1.2 1.2-.2 2.5-.5 3.9-.8 2.2 3 7.8 4.5 17 4.6.6.9 2 2.6 4.4 3.3.7.2 1.3.3 2 .3 2.2 0 4.6-.9 7.3-2.7l1.2-.8-1.1-.9c-.1-.1-6.8-5.2-13.4-1.3-9.1-.1-13.3-1.6-15.1-3.2 10.3-2.8 24.9-8.9 32.7-22.3.2.7.7 1.5 1.5 2.3 2 2 5.5 3 10.2 3h1.6l.1-.8c0-.2.2-1.8-1.2-3.5-1.8-2.2-5.5-3.3-10.8-3.4 1.2-2 2.5-4.3 3.8-6.9.3 0 .6.1.9.1 6 0 12-8.6 12.3-9l1.3-2zm11.9-33.5c-2.2 2.6-5.8 6-8.9 6.2.7-1.7 2.8-5.1 8.9-6.2zm-15.4-10c-.1-1.2.2-2.3.9-3.3 1.2.5 3.7 1.9 4.3 4.2.4 1.5-.1 3.3-1.6 5.2-1.2-1.2-3.4-3.5-3.6-6.1zm5.4 28.8c-.9 2.2-3.9 3.8-6.2 4.6 1.8-3.2 4.6-4.2 6.2-4.6zm-13.2-4.1c-1.5-1.6-.5-5.7.3-8.1 4.2 4.1 4.7 7.3 4.6 8.6-1.7.4-3.9.6-4.9-.5zm-37.2 42.2c.6-1.3 1.9-2.3 3.7-2.8.3.4.8 1.2.7 2.3-.1 1.4-.9 3.5-4.5 6.3-.4-1.4-.8-3.8.1-5.8zm-27.5 9.2c2.1-1 4.3-.8 5.5-.5-2.3 5.2-7.2 5.2-9.4 4.9 1-2.1 2.3-3.6 3.9-4.4zm-90.2 15.9c2.2-2 4.2-2.9 5.8-2.8 1 .1 1.6.5 2 .9-2.2 2.3-5.7 2.2-7.8 1.9zm12.5-2.9s-.5 0-1.5-1.3c-1.8-2.1-1.7-4.8-1.3-6.8.3.4.5.7.8 1 .6.7 1.1 1.3 1.7 2.7.8 2 .6 4.1.3 4.4zm7.9 4.2c-.4-1.4-.9-3.8.1-5.8.6-1.3 1.9-2.3 3.7-2.8.3.4.8 1.2.7 2.3-.1 1.3-.9 3.5-4.5 6.3zm6.4 22.8c-1.1-1.5-1.3-3.2-1.4-4.3 3.3.8 5 2.8 5.8 4.6.2.8.5 1.5.7 2.3 0 .2.1.3.1.5-2.3-.6-4.1-1.6-5.2-3.1zm8.7 31c1.1-2.6 3.6-4.8 6.5-5.6v1c.1.9.1 1.7-.1 2.4-.4 1.6-1.9 2.8-3.1 3.6-.5.3-1.2.6-1.8 1-.7.3-1.4.7-2 1.1.1-.8.3-1.9.5-3.5zm15.7-58c.8 1.4 1.7 4.3-.7 8.4-1-1.8-2.2-5.3.7-8.4zm8 9.7c-.9 1.4-2.1 2.3-3.4 2.7-2 .6-3.9 0-5.1-.4 2.5-3.6 6.6-2.9 8.5-2.3zm21.1-21.7c1.3.9 2.1 2.1 2.3 3.4.2 1.9-.8 3.9-1.5 4.9-2.3-2.6-1.5-6.4-.8-8.3zm23.5 10.9c2.4.3 3.2 1 3.6 1.4.1.1.2.3.2.4-2.2-.3-3.3-1.1-3.8-1.8zm36 3c-2.4 1.3-4.5 1.8-6.2 1.3-1.4-.4-2.4-1.3-2.9-2 3.6-1.8 7.2-.4 9.1.7zm-1.2-22.6c-1.3-1.3-1.4-4.6-1.2-6.9 2 1.6 2.9 3.2 2.8 4.5 0 1.2-1 2-1.6 2.4zm18.6-2.8c.3.4.5.7.6 1-6.4-.1-8.5-2.3-9.2-3.6 5.3.2 7.6 1.5 8.6 2.6zm-4.2-13.4c.7-1.7 2.8-5.1 8.9-6.2-2.2 2.5-5.8 6-8.9 6.2zM366 204.2l-1 .6.7.9c.1.2 3 3.8 6.8 4.3.3 0 .6.1.8.1 1.5 0 3-.5 4.4-1.6l.5-.4-.2-.7c0-.1-.9-3.3-3.9-4.5-2.2-1-5-.6-8.1 1.3zm7.4.5c1.4.6 2.1 1.8 2.5 2.5-1 .6-2 .9-3.1.7-2-.2-3.7-1.6-4.6-2.6 2-.9 3.8-1.1 5.2-.6z"/><path d="M410.7 233.2c1.5 0 3.8-.3 5.3-1.8 1.5-1.4 2.1-3.5 1.7-6.2l-.2-1.3-1.2.4c-.9.3-8.3 3-8.4 6.9-.2.1-.4.2-.5.3-2.1 2.7-3.9 4.5-5.2 5.6.4-2.3-.3-4.9-.4-5.2l-.3-1.1-1.1.5c-4.3 2.1-5.2 5.5-5 7.6-2.1 1.2-3.9 2.3-5.5 3.3.2-1.8.2-4.2-.7-6.9l.3-.3c.1-.1 3.6-8 .2-16.4.2-.1.3-.4.4-.6 0-.2.6-2.8 2.9-5l.2.1c4.2 2.7 7.4 3.6 9.9 3.6 4.2 0 6-2.6 6.1-2.7l.5-.7-.6-.6c-2.6-2.4-5.3-3.3-7.6-3.5.9-.8 2.4-3 3.1-9.4.5.1 1 .2 1.7.2 1 0 2.1-.2 3.3-.8 2.5-1.3 4.3-3.9 5.3-8l.3-1.4-1.4.1c-.1 0-5.6.4-8.9 4.4.1-2.7.1-6-.1-9.8 2-1 3.3-2.3 3.9-4.1 1.1-3.5-1.2-7.1-1.3-7.2l-.7-1.1-.9 1c-5 5.6-3.7 9.7-3.1 11l-1 12c-1.8-1.7-5.2-4.5-9.6-7.2 3-7.1-2.9-12-3-12l-.9-.7-.6 1c-1.8 3-2.5 5.6-2.2 7.8-2.6-.6-5.9-.4-9.1 3.1l-.9.9 1.1.7c1.7 1 4.5 2.1 7.3 2.1 1.9 0 3.8-.5 5.3-1.9.5.3 1 .4 1.2.5 7 4.1 11.4 8.8 11.4 8.8.2.2.4.3.6.3-.7 6.3-2.1 8-2.4 8.2-1.2.2-2.3.5-3.3.8.3-.8.4-1.6.3-2.4-.6-3.7-5.6-6.2-5.8-6.3l-1-.5-.4 1c-1.3 3-1.4 5.6-.3 7.6.8 1.5 2.1 2.3 3.1 2.8-2.4 1.9-3.6 4.2-4.1 5.6-1.5-2.6-3.7-5.1-6.9-7.4 1.2-2.2 3.9-8.2-.2-12.4-.2-.2-.6-.4-.9-.3-.7.1-2.2.8-3 2.4-1.2 2.5-.6 6.2 1.8 11.1.1.1.2.3.3.4 12 8.2 9.7 19.2 8.5 23-1.2-2.3-3.2-4.5-6.3-6.5 2.3-8.8-3.5-12-3.6-12l-.9-.4-.5.8c-3.7 6.1.5 11.2 3.2 13h.1c10 6 7.8 14.9 7.4 16.4-.3.3-.6.5-.9.8-1.6-1.8-7.1-7.5-14.5-10.2 1.2-1 1.6-2.1 1.7-3 .4-4.1-4.9-8.5-5.5-8.9l-1.2-.9-.4 1.4c-1 3.3-1.4 5.9-1.2 7.9-2.5-1.3-6.2-2.1-11.2 0l-1.2.5.8 1c0 .1 3.3 4.4 8.9 4.4 1.7 0 3.5-.4 5.6-1.4 8.7 1.8 15.5 9.1 16.9 10.7-.3.3-.5.7-.7 1v-.1c-1.1-1.8-3.6-2.5-7.9-2.2l-1.1.1.1 1.1c.1.6.8 6.3 3.8 7.3.3.1.6.1.9.1.7 0 1.4-.3 2.2-.8-.5 2.8-.4 3.7-.1 6.2.1 1 .2 2.3.4 4l-.1 1h.1c.1 4.9-1.6 8.4-2.2 9.3-6.8 2.3-12.2 1.9-16.9 1.6h-.2c3.3-2.4 5-4.9 5.1-7.3.1-2.6-1.8-4-1.9-4.1l-.4-.3-.5.1c-2.8.7-4.7 2-5.7 4-1.3 2.8-.4 6 .1 7.4-7.9.1-15.1 1.3-21.4 3.5 2.7-2.9 7.8-9.4 9.6-19.1.4.1 1 .2 1.6.2 1 0 2.1-.2 3.3-.8 2.5-1.3 4.3-3.9 5.3-8l.3-1.4-1.4.1c-.1 0-5.5.4-8.8 4.3.3-1.4.9-2.8 2.3-3.5l.3-.3c4.3-1.7 6.9-3.9 7.5-6.4.6-2.5-.9-4.3-.9-4.4l-.3-.4h-.5c-2.9 0-5 .9-6.4 2.7-2 2.5-1.7 6-1.5 7.4-3.4 2.5-2.9 7.9-2.7 9l-.2.7h.1c-1.3 7.8-5 13.5-7.7 16.7.1-.4.1-.8.2-1.2.1-3.4-2.5-5.6-2.6-5.7l-.4-.4-.5.2c-6.3 2.2-3.1 12.4-2.9 12.9-.6.3-1.2.6-1.7 1 .4-3.3 1.1-11-1.6-16.9-.6-1.8-1.3-3.3-2.1-4.5-1-2.2-1.4-3.1-1.4-3.8h.5c.9 0 2.2-.2 3.4-1.2 1.8-1.4 2.7-4.1 2.6-7.7v-1.5l-1.4.5c-.2.1-2.9 1.1-4.8 3.1.1-1.8.2-3.9.5-4.4l.2-.2c.4-.3.8-.7 1.1-1 .9-.9 1.6-1.9 2.2-2.9 2.6 0 4.7-.8 6.3-2.3 2.6-2.5 2.6-6.1 2.6-6.2v-1.1h-1.1c-2.7.1-4.8 1.2-6.2 2.7v-.6c.3 0 .5-.1.7-.3 1.8-2 10.3-11.6 11.8-16.3.4.1 1 .2 1.6.2 1 0 2.1-.2 3.3-.8 2.5-1.3 4.3-3.9 5.3-8l.3-1.4-1.4.1c-.1 0-5.8.4-9.1 4.6-.2-4.4 0-11.1 3.7-17.4l.2.2.4-1.2c2.7-4.2 6.5-6.2 9.9-7.9 3.6-1.9 7-3.7 7.6-7.7l.2-.2-.1-.4c.5-1.8.8-3.7 1.1-5.7.5.1 1.1.2 1.7.2 1 0 2.1-.2 3.3-.8 2.5-1.3 4.3-3.9 5.3-8l.3-1.4-1.4.1c-.1 0-5.2.4-8.6 4 .5-3.3 1.5-6.4 3.6-8.6 12.7-3.8 10.9-11.1 10.8-11.4l-.2-.8-.9.1c-2.6.3-4.6 1.1-6.1 2.2 1.2-1.3 1.8-2.8 1.5-4.3-.6-3.7-5.6-6.2-5.8-6.3l-1-.5-.4 1c-1.3 3-1.4 5.6-.3 7.6 1.4 2.7 4.4 3.3 4.6 3.3l.3.1c-3.1 2.8-3.9 6.6-4 7.7-2.9 2.9-3.8 6.9-4.3 11.1-1.3-.6-3.7-2.3-5-6.7 1.4-.8 2.3-1.8 2.6-3.2.9-3.7-2.9-8.1-3.1-8.3l-.9-1-.7 1.1c-2.4 3.4-3.2 6.3-2.5 8.6.5 1.7 1.8 2.6 2.5 3 1.6 6 5.3 8 6.8 8.6v.4c-.2 1.7-.4 3.4-.7 5-.6-.7-1.4-1.5-2.5-1.9-2.3-.9-5-.5-8.2 1.3l-1 .6.7.9c.1.2 3 3.8 6.8 4.3.3 0 .6.1.8.1.7 0 1.4-.1 2.1-.4-1 1.9-3.2 3-5.9 4.4-2.5 1.3-5.5 2.9-8.1 5.5.3-6.3-4.1-8.7-4.1-8.7l-.9-.4-.5.8c-3.4 5.6-.2 10.2 2.4 12.4-2.2 3.7-3.2 7.5-3.7 10.9-1.4-1.7-3.8-4.3-6.8-6 .9-.7 1.5-1.6 1.7-2.6.9-3.7-2.9-8.1-3.1-8.3l-.9-1-.3 1.3c-1.6 2.3-2.5 4.4-2.7 6.2-.9-1.3-2.1-2.1-3.6-2.3-4.1-.6-8.9 3.5-9.1 3.7l-1.2 1 1.4.7c4.2 2 7.4 3 9.5 3 1.2 0 2.2-.3 2.8-1 .5-.5.7-1 .8-1.6.9 1.4 2.2 2 2.4 2.1 5 2.1 8.9 7.9 8.9 8l.1.1c-.2 2.7 0 5.1.1 6.8 0 .7.1 1.3.1 1.8l-.2.7h.1c-.2.7-.7 1.6-1.4 2.7 0-2.2-.5-5.2-2.9-7.2.3-1.6.9-5.5-.9-7.2-.6-.6-1.8-1.2-3.9-.5l-.3.2c-.6.5-1.5 1.6-1.3 3.2.2 2 1.8 3.8 4.9 5.6l.2.1c3.4 2.6 2.1 8.1 2.1 8.2-.1.3 0 .5.1.7-2.2 3-4.9 6.3-7.3 9-.8-3.5-3.2-6.1-5.6-7.8 5-7.7.5-12.6.4-12.6l-.7-.7-.7.6c-4 3.4-3.8 7.6-2.6 10.6-.5-.3-1-.4-1.3-.6-.8-3.5-2.4-5.8-4.7-7-3.6-1.8-7.5 0-7.6 0l-.7.3.1.7c.3 2.5 1.4 4.5 3.2 5.8 2.2 1.6 5 2 6.9 2 .9 0 1.5-.1 1.9-.1 1.3.5 8.9 3.6 9.6 10 .2 2.3-.1 4.2-.6 5.7-.1.2-.2.4-.2.6-1.5-3.1-6.1-5.2-6.7-5.4l-1.3-.6-.1 1.4c-.5 7.5 2.1 10 3.8 10.8-.3 1.1-.3 2.9-.4 5.7 0 1.6-.1 3.5-.2 4.1-.2.6-.3 1.2-.2 1.8-.1 0-.1-.1-.2-.1-2.9-1.5-5.4-.6-5.5-.6l-.7.2v.7c0 2.9 1 5.2 2.8 6.7 2.2 1.9 5.2 2.2 7 2.2h.6c2.8 6.8 1 16.6.9 16.7v.2c-8 5.4-12.6 12.2-15.2 17.4l-.7-8.2c3.9-2.8 5.9-5.7 6-8.4.1-2.7-1.8-4.2-1.8-4.3l-.4-.3-.5.1c-2.7.7-4.6 2-5.6 4.1-1.7 3.5-.1 7.7.2 8.5l1 12.4c-.9 2.4-1.2 3.9-1.2 3.9-.1.6.3 1.1.8 1.2h.2c.5 0 .9-.3 1-.8 0-.2 4.2-20 26-28.5 6.6-2.6 14.3-3.9 22.7-3.9h.4c.7 0 1.4.1 2.1.1 4.8.3 10.5.7 18-1.8.1 0 .2 0 .3-.1 3.5-1.2 7.4-3.1 11.7-5.9 2.4 1.9 4.7 2.5 6.7 2.5 4 0 6.8-2.5 6.9-2.5l.9-.8-.9-.8c-2.4-2.1-4.9-3.1-7.4-2.9 1.5-1.2 3-2.5 4.6-3.9.3 0 .5.1.8.1 1.6 0 2.8-.5 3.8-1.5 2.6-2.6 2-7.7 1.9-7.9l-.1-1-1 .1c-3 .2-5.1 1.2-6.2 3-1.4 2.1-1 4.6-.7 5.7-7.7 6.8-14 10.7-19.5 12.9.8-1.9 1.6-4.8 1.4-8.4 1.9-.4 5.8-1.9 6.9-8l.2-1.4-1.4.2c-1.7.2-4.4 1.3-6.2 3.7-.3-2.4-.3-3.2.4-6.6.9-4.4 4.4-7.2 11.5-11.1.4.3.9.5 1.7.6 1.1.1 2.3-.3 3.6-1.2l.3.2c2.6 1.6 5 2.4 7.3 2.4.7 0 1.5-.1 2.2-.3 3.5-.9 5.1-3.7 5.2-3.8l.5-.9-.8-.5c-3.8-2.4-7.5-2-10.1-1 .9-.9 1.8-2 2.8-3.2-.2.6.5.7 1.5.7zm5.1-6.4c0 1.4-.4 2.4-1.2 3.2-1.3 1.2-3.5 1.3-4.6 1.2.3-1.7 3.4-3.4 5.8-4.4zm-3.4-34.6c-.9 2.6-2.1 4.3-3.8 5.1-1.3.7-2.6.6-3.5.5 1.5-3.8 5.2-5.2 7.3-5.6zm-6.2-16.6c.4 1.1.9 2.7.4 4.2-.3 1.1-1.2 2-2.4 2.7-.3-1.2-.4-3.6 2-6.9zm-27.4 12.7c2.8-2.3 5.6-1.9 7.5-1.1.3.5.7.9 1 1.2-2.6 2-6.5.8-8.5-.1zm11.6-.8-.3-.3s-.9-.8-2.2-1.5c-.1-.1-.1-.2-.2-.3-.7-1.6-.3-3.7 1-6.2 1.2 1.4 3 4.4 1.7 8.3zm16.4 25.9c-1.3 1-4.6 2.5-11.1-1.2 2.2-1.1 6.6-2.4 11.1 1.2zm-15.5-6.6c-.6-1.2-.6-2.8 0-4.7 1.4.9 3.5 2.5 3.7 4.2.1.9-.2 1.8-1 2.7-.7-.3-2-.9-2.7-2.2zm-11-.1c-1.7-4.1-1.5-6.3-1-7.4.3-.6.7-1 1.1-1.1 2 2.7.9 6.4-.1 8.5zm-.2 18.2c-1.5-1.4-3.7-4.4-1.9-8.2 1.1 1 2.9 3.5 1.9 8.2zm-23.6 7.6c5.3-1.7 8.6.4 10.1 1.8-5 1.9-8.5-.4-10.1-1.8zm13.7 1c-.3.1-1.3.1-1.9-.5-.6-.7-1.4-2.5-.1-7.6 1.6 1.6 3.8 4.1 3.6 6.1-.1.8-.6 1.4-1.6 2zm-13.8 18.2c-.9 2.6-2.1 4.3-3.8 5.1-1.3.7-2.6.6-3.5.5 1.5-3.8 5.2-5.1 7.3-5.6zm-3.8-8.9c.9-1.1 2.3-1.8 4.3-1.9.2.4.5 1.2.3 2.1-.3 1.2-1.6 3-5.7 4.7-.2-1.2-.1-3.4 1.1-4.9zm-22.3 7c-.2 2.1-.8 3.6-1.8 4.5-.7.6-1.6.7-2.1.7-.2-2.5 2.2-4.3 3.9-5.2zm21.9-39.6c-.9 2.6-2.1 4.3-3.8 5.1-1.3.7-2.6.6-3.5.5 1.5-3.8 5.2-5.1 7.3-5.6zm21.6-63.6c-.7-.2-2-.8-2.7-2.1-.7-1.2-.7-2.8 0-4.8 1.4.9 3.5 2.5 3.7 4.2.2 1-.1 1.8-1 2.7zm6.9 1.4c-.1 1.6-1.1 5.1-8.2 7.6.7-2.4 2.6-6.6 8.2-7.6zm-5.4 16.8c-.9 2.6-2.1 4.3-3.8 5.1-1.3.7-2.6.6-3.5.5 1.6-3.9 5.2-5.2 7.3-5.6zm-17-7.2c-.4-1.4 0-3.4 1.4-5.7 1 1.4 2.2 3.7 1.8 5.4-.2.9-.8 1.5-1.8 2-.4-.2-1.1-.8-1.4-1.7zm2.6 20.7c-2-.2-3.7-1.6-4.6-2.6 2.1-1 3.9-1.2 5.3-.6s2.1 1.8 2.5 2.5c-1.1.6-2.1.8-3.2.7zm-15.6 5.4c1.1 1.1 2.9 3.5 1.9 8.2-1.5-1.4-3.7-4.4-1.9-8.2zm-16.5 14.2c-.3.3-1.9 1.2-8.5-1.7 1.6-1.1 4.2-2.5 6.2-2.2.9.1 1.7.6 2.2 1.4.2.5.7 1.9.1 2.5zm6.9-2.2c-.2.9-.8 1.5-1.8 2-.4-.3-1.1-.8-1.4-1.8-.4-1.4.1-3.4 1.4-5.6 1 1.4 2.2 3.7 1.8 5.4zm.6 15.8c-1.6-1.1-2.5-2.2-2.6-3.2-.1-.7.3-1.2.5-1.4.8-.2 1.3-.2 1.7.1.7.7.7 2.8.4 4.5zm.6 23c-.2 1-.7 2.5-1.9 3.6-1 .9-2.3 1.5-3.9 1.7.8-1.8 2.5-4.7 5.8-5.3zM312.7 220c-1.1-.9-1.9-2.1-2.2-3.7 1.1-.3 3.2-.8 5.1.2 1.6.8 2.8 2.5 3.4 5-1.5.1-4.3 0-6.3-1.5zm12.8-6.1c.8 1.4 1.7 4.3-.7 8.4-1-1.7-2.1-5.2.7-8.4zm-2.7 22.9c1.8 1 4.3 2.7 4.5 4.5.1.7-.2 1.3-.8 2-.3.3-.6.6-.9.8-1.2-.3-2.9-2.2-2.8-7.3zm-1.4 26.1c-1.2-1-1.8-2.5-2-4.3.7-.1 1.9 0 3.2.6 1.1.6 2 1.5 2.8 2.7.1.3.2.5.4.8.3.6.6 1.2.9 1.9-1.4 0-3.6-.3-5.3-1.7zm-9.2 27.7c-.4-1.4-.9-3.8.1-5.8.6-1.3 1.9-2.3 3.7-2.8.3.4.8 1.2.7 2.3-.1 1.4-.9 3.5-4.5 6.3zm22-11.5c-.5-2.4-1.2-7.1 1.5-8.6.6.6 1.5 1.9 1.4 3.6-.1 1.6-1.1 3.3-2.9 5zm28-10.8c.6-1.3 1.9-2.2 3.7-2.8.3.4.8 1.1.7 2 0 1.3-.9 3.3-4.5 5.9-.4-1.2-.8-3.3.1-5.1zm43.1-13.6c.7-1 1.9-1.7 3.7-2 0 1.5-.2 3.9-1.4 5.2-.7.7-1.6.9-2.7.9-.2-.9-.5-2.7.4-4.1zm-5.6 12c1.7-.1 3.4.4 5.1 1.6-1.6 1-5 2.4-8.9-.1.8-.6 2.1-1.4 3.8-1.5zm-17.1-16.5c-.6.6-1.7 1.6-2.5 1.3-1.1-.3-1.9-2.5-2.3-4.5 3.7-.1 4.7.8 4.9 1.3.4.7 0 1.6-.1 1.9zm6.7 7c-1 3.1-3 4.2-4.3 4.6.8-2.8 2.9-4.1 4.3-4.6zm10.4-19.1c-.4.5-1.2.6-2.2.5 0-1 .2-3.2 2.7-4.8.2 1.4.3 3.4-.5 4.3zm14.5.4c-.6.7-1.7 1.6-3.3 2-1.9.5-4.1.1-6.5-1.1 1.9-1.2 5.6-2.9 9.8-.9z"/><path d="M303.2 256.9c.7-1 1.3-2.2 1.8-3.4 1.5.3 3 .4 4.3.4 3.1 0 5.6-.8 7.4-2.2 3.1-2.5 3.1-6.2 3.1-6.3v-1h-1c-3.2.1-5.9.8-8.1 1.8 1.6-2.5 3.1-6 3.4-10.5 5.5-1.1 6.7-8.6 6.8-8.9l.2-1-1-.1c-1.7-.2-3.2.2-4.5 1.2-1.5 1.2-2.4 3.2-2.9 4.8-4.3-7.1-8.4-6-8.6-5.9l-.9.3.2.9c1.2 5 3.1 8.1 5.7 9.1.7.3 1.3.4 1.9.4.4 0 .8-.1 1.2-.1-.6 6.5-4.2 10.6-6 12.3v-1c-.5-4.1-3.4-7.7-8.6-10.8 1.5-5.4-4.5-9.9-4.8-10.1l-.9-.6-.6.9c-1 1.4-1.3 3-1 4.6.2 1.1.8 2.1 1.4 3-3.9-1.7-6.9-4-6.2-8.3.9-.5 2.8-1.7 3.7-4.1 1-2.6.5-5.8-1.5-9.5l-.7-1.2-1 1c-.1.1-5.9 6.3-2.5 13.2-1.1 6 3.4 9.1 7.5 10.8-6.3 1.1-7 4.6-7 4.7l-.2.9.9.2c2 .5 3.8.8 5.4.8 2.3 0 4.1-.5 5.3-1.6.9-.8 1.4-1.8 1.6-2.6 4.2 2.6 6.5 5.6 7 9 .2 1.3 0 2.6-.3 3.7-.1.1-.2.3-.2.3-.8-1.9-2.6-3.8-5.3-5.7l-1.2-.9-.3 1.5c-.1.4-2.1 9.5 2.4 12.2-2 3-3.1 8.3-3.6 11.3-1.2-2-3.4-4-7.1-5.6 3-4.2-.2-10.3-.4-10.6l-.5-.9-.9.5c-1.5.9-2.5 2.1-2.9 3.7-.5 1.9 0 3.9.6 5.5-7.7-3.1-10.3.3-10.4.4l-.6.8.7.6c3.2 2.7 6.1 4.1 8.5 4.1.5 0 1-.1 1.5-.2 1.6-.4 2.5-1.5 3-2.3 7.7 2.9 8 8.1 7.6 9.5l-.2.8h.1c-2.5 13.1 4.9 29.4 5.2 30.1.2.4.5.6.9.6.1 0 .3 0 .4-.1.5-.2.7-.8.5-1.4-.1-.2-7.4-16.2-5.1-28.6.4.1.9.2 1.6.2 1 0 2.1-.2 3.3-.8 2.5-1.3 4.3-3.9 5.3-8l.3-1.4-1.4.1c-.1 0-4.9.4-8.2 3.6.6-3.6 1.9-9.8 4-11.8.2-.3 1.2-1 1.9-2.3zm13.5-28.5c.5-.4 1.1-.7 1.8-.8-.5 1.8-1.7 5-4.3 5.9.3-1.7 1-4 2.5-5.1zm-7.1 5.6c-1.2-.5-2.8-2-4.1-6.4 1.3.3 3.6 1.6 6.1 6.5-.5.2-1.2.3-2-.1zm8 12.4c-.2 1-.8 2.5-2.2 3.7-2 1.6-5.1 2.1-9.2 1.5 1.7-1.8 5.5-4.7 11.4-5.2zm-31.1-31.5c1.1 2.5 1.3 4.6.7 6.3-.5 1.4-1.5 2.2-2.2 2.7-1.6-3.8.2-7.3 1.5-9zm7.4 24.9c-1 .8-3.1 1.6-7.5.7.9-1 3.1-2.5 8.6-2.5-.2.5-.4 1.2-1.1 1.8zm1.6-4.4c-1.3-1-3-2.7-3.4-4.6-.1-.7-.1-1.3.1-2 1.4 1.3 3.7 3.9 3.3 6.6zm-12.1 31.1c-1.3.3-3.5.1-7.1-2.7 1.2-.5 3.9-.9 8.8 1.5-.4.5-.9 1-1.7 1.2zm3.3-3.2c-.7-1.5-1.5-3.8-1-5.6.2-.7.5-1.2 1-1.7.6 1.7 1.5 5 0 7.3zm17.4 6.3c-.9 2.6-2.1 4.3-3.8 5.1-1.3.7-2.6.6-3.5.5 1.6-3.8 5.2-5.1 7.3-5.6zm-5.9-21c2.4 1.9 3.6 3.8 3.6 5.5 0 .6-.2 1.2-.4 1.7-.4.6-.9 1.1-1.2 1.4-2.5-1.2-2.3-6-2-8.6z"/><path d="M151.3 191.4c-4-2-8.6-.4-8.8-.3l-1.2.4.6 1.1c3.4 5.7 9 6.4 11.7 6.4.8 0 1.4-.1 1.5-.1h.1c2.1 0 5.7 2 8.6 3.8-5.4-.1-7.9 3.1-8.1 3.3l-.7.9 1 .6c3.3 1.9 6.1 2.6 8.5 2.6 4.5 0 7.3-2.4 8-3.1 1.3.3 2.8.7 4.5 1.2-2.6.6-4.4 1.6-5.4 3s-.7 2.7-.6 2.8l.2.8h.8c5.8-.3 9.5-1.5 11-3.7.3-.5.5-.9.6-1.3 2.3.4 4.3.6 5.7.6 1.6 0 2.6-.2 2.8-.2.1 7 4.3 13 6.3 15.5v.1c.4.5.8.9.9 1.1.3.5.7 1 1.1 1.5-1.5.3-4 .9-6.1 2.3-1.1-.9-5.9-4.6-11.2-3.1l-1.3.4.7 1.2c1 1.6 3.2 3.8 5.9 4.5-.7.4-1.4.9-2.1 1.6-2.2 2.2-3.2 5.5-3 9.8l.1 1.4 1.3-.5c.3-.1 7-2.6 9.1-7.3.7-1.6.8-3.3.3-5 2.2-2.7 7.6-3.3 7.7-3.3.2 0 .3-.1.4-.1 5.7 4.9 16 7.9 16.5 8.1h.3c.1 0 .1 0 .2-.1-.4 2.4-.7 4.6-.9 6.6-1-1.7-2.5-3.7-4.9-5.9l-1.1-.9-.6 1.3c-.4.8-3.4 8.3-.4 11.6.9 1 2.2 1.5 3.9 1.5.8 0 1.8-.2 2.8-.4.3 7.2 2.8 9.1 5.1 10.8.3.2.6.4.9.7 4 3.1 7.3 6.1 10.2 9-.8-.1-1.7-.3-2.7-.3l-1.7-.1.6 1.5c.1.3 3.4 7.7 9.6 7.7h.6l.6-.1c.3.5.7 1 1 1.5l.5 1.1h.1c.6 1.3 1.3 3.1 2 5.2-7.1-.7-20.8-3.4-23-9.7 2.2-9.2-4-12.2-4.1-12.2l-.9-.4-.5.8c-.6 1.1-1 2.2-1.1 3.3-4.1-3.8-10.7-8.2-20.8-11.4.1-1.8-.6-6.1-6.4-11.2l-1.1-.9-.6 1.3c-.4.8-3.4 8.3-.4 11.6.6.7 1.3 1.1 2.3 1.3-1.5 0-10-.9-13.7-15.9v-.1l-.2-1.5c-.1-1-.2-1.9-.3-2.7 5.9 0 7.3-9 7.4-9.4l.2-1.2h-1.2c-3 0-5.7 4.4-7.1 7.2-.9-2.6-2.6-4.9-6.3-7.4.6-1.1 1.4-3.1.9-5.3-.4-1.8-1.6-3.4-3.5-4.5l-.9-.5-.5.9c-.1.2-2.5 4-1.3 7.3.5 1.5 1.7 2.7 3.5 3.4 4 2.4 5.6 4.4 6.4 7-1.9-2-3.8-2.4-3.9-2.5l-1-.2-.2 1c-.5 3.2 0 5.6 1.5 7.3 1.6 1.7 3.8 2.1 5 2.2 3.3 12.6 10 15.8 13.5 16.6l-.2.2c-1.6.1-9.1.1-14.1-3.4 1.2-.5 2.1-1.2 2.4-2.2 1.2-3.6-4.3-9-5-9.6l-.7-.6-.7.6c-2.2 1.9-3.3 3.8-3.3 5.8-3.3-1.9-6.8-2.6-9.9-2.4.5-2.1-1-4.9-4.6-8.6l-1-1-.6 1.3c-.6 1.3-3.7 7.7-1.5 10.3.1.1.2.2.4.3-.5.2-.9.5-1.3.7-4.7-4.3-11-3.3-11.3-3.2l-.9.1v.9c0 2.5.9 4.3 2.5 5.3.9.6 2.1.8 3.2.8h.8c-2.4 2-5.6 5.6-3.7 9.5l.4.8.9-.3c.3-.1 6.3-2.5 7.4-6.5.4-1.3.1-2.7-.7-4 1.3-.9 4.2-2.7 7-3.7.3 0 .6-.1 1-.3 3.4-.8 8.7-.3 13.3 3.4-1.3-.3-2.6-.2-3.9.2-4.3 1.4-6.5 6.3-6.6 6.5l-.5 1.1 1.2.3c1.7.4 3.3.6 4.8.6 2.4 0 4.4-.6 5.9-1.7 1.5-1.2 2.2-2.6 2.5-3.6 4.5 4 11.3 4.7 14.8 4.8-1 1.4-2 3.4-1.9 5.6.1 2.2 1.3 4.3 3.5 6l1 .7.6-1.1c.2-.4 4.2-8.1.8-12.2l5.4-3.4c11.4 3.6 18.1 8.7 21.9 12.6.6 3 2.8 5.2 4.5 6.3 3.2 8.4 21 10.6 25.6 11 2.6 8.4 5.1 19.5 5.5 21.4-1.7 4-.9 6.3-.9 6.5.1.4.5.7 1 .7h.3c.5-.2.8-.7.7-1.3 0-.1-1.7-6.1 9.2-15.7.1-.1.2-.2.2-.3.3-.6.7-1.3 1-2 .5.1 1.2.3 2 .3 1 0 2.1-.2 3.3-.8 2.5-1.3 4.3-3.9 5.3-8l.3-1.4-1.4.1s-2.7.2-5.5 1.7c1.8-3.8 3.4-7.2 3.7-8.9.2-.2.4-.5.7-.9 1.2.3 2.4.4 3.5.4 9.3 0 13.8-8.8 13.8-8.9l.6-1.2-1.4-.2c-6.5-1.1-11 1.2-14 3.6.1-.9.1-1.8-.1-2.6-.3-1.3-1-2.5-2-3.6.1-.2.1-.3.1-.5 0-.3-.4-5-2.9-11.2.1-.1.1-.3.1-.4 0-.1.6-9.8 7.8-13.6.2-.1.4-.3.5-.6 1.3-1.4.9-4.5.1-6.5-.7-1.6-1.4-2.5-2-3.2-.7-.8-1.2-1.4-1.5-3l-.6-3-1.3 2.8c-.1.3-3.2 6.8.8 11.6.5.6.9 1 1.3 1.3-4.3 3.2-6 8.1-6.6 11.3-.8-1.7-1.8-3.4-3-5.2 3.7-4.2.2-10.9.1-11.2l-.5-.9-.9.5c-1.5.9-2.5 2.1-2.9 3.7-.1.5-.2 1-.2 1.6-2-2.9-2.6-3.7-3.1-4.8 1.2-.1 3.8-.5 5.1-2.7 1.4-2.2 1-5.3-1.1-9.4l-.6-1.2-1 .9c-.5.4-3.5 3.1-5 6-1.5-4.2-2.8-9.1-2.3-10.4.2-.5-.1-1.1-.6-1.3-.5-.2-1.1.1-1.3.6-.6 1.7.4 5.7 1.6 9.3-8.7-4-11.5-.3-11.6-.1l-.6.8.7.6c3.2 2.7 6.1 4.1 8.5 4.1.5 0 1-.1 1.5-.2 1.3-.3 2.1-1.1 2.7-1.8.2.7.5 1.3.7 1.8.1.4.2.8.5 1.2.1.3.3.6.3.8l.2.4c1.1 2.3 1.1 2.4 4.9 7.8l.7 1.1c-7.2-2.7-9.7.6-9.8.7l-.6.8.7.6c3.2 2.7 6.1 4.1 8.5 4.1.5 0 1-.1 1.5-.2 1.2-.3 2-1 2.6-1.6 4.7 7.3 6.2 14.3 6.6 17-.4-.3-.9-.5-1.4-.7l-.9-.4-.4.9c-.2.3-3.9 8.4 1.5 15-.4 1.7-2.6 6.5-5.8 12.8-.3.5-.6 1.1-.9 1.7 0 0 0 .1-.1.1 0-.1 0-.2-.1-.3-.6-2.3-2.5-6-8.2-5.4l-1 .1.1 1c0 .3 1 7.1 6.1 9.2-2.8 2.7-4.8 5.1-6.1 7.2-1.4-6.2-5-21.2-8-27.1 3.7-2.8 5.7-5.5 5.7-8.2.1-2.7-1.8-4.2-1.8-4.3l-.4-.3-.5.1c-2.7.7-4.6 2-5.6 4.1-.4.9-.6 1.9-.7 2.8-.1-.3-.3-.5-.4-.8-.6-.9-1.5-1.6-2.7-2.2-2.5-2.8-5.4-5.6-8.8-8.5-.6-1.3-4.5-10.4-.9-16.5.1-.2.4-.5.8-1.1 1.2.3 2.4.4 3.5.4 9.3 0 13.8-8.8 13.8-8.9l.6-1.2-1.4-.2c-6.5-1.1-11.1 1.2-14 3.6.1-.9.1-1.7-.1-2.6-.6-2.5-2.4-4.5-5.5-5.8l-.9-.4-.4.9c-.2.3-3.9 8.3 1.4 14.8-2.5 4.8-1.4 10.6-.2 14.3-.3-.3-.6-.5-.9-.7-.3-.2-.6-.5-.9-.7-2.9-2.2-6.2-4.7-3-23.6.1-.8-.2-1.8-.4-3-.4-1.8-.9-4.1 0-5.3 1.6-1.5 2.3-3 2-4.6-.8-3.9-7.8-6.1-8.6-6.3l-1.2-.3-.1 1.2c-.6 5.1.2 8.4 2.3 10 .9.7 1.9.9 2.8.9h.4c-.3 1.6.1 3.4.4 5 .1.4.2.8.2 1.1-1.3-.4-13.7-4.3-17.5-9.6.8-.6 1.9-1.7 2.4-3.4.8-2.7-.3-6.1-3-9.9l-.5-.7-.8.4c-.1.1-3.1 1.6-3.9 4.7-1-2.3-1.7-5-1.7-7.8.1-3 1-6.3 3.5-9.4 1.1.3 2.1.5 3 .5 1.4 0 2.7-.4 3.7-1.2 3-2.3 2.7-7.2 2.7-7.5l-.1-1.1-1.1.1c-2.1.2-3.9 1.3-5.4 2.6.4-1.9.5-4.7-.6-7.2-1-2.3-2.9-4-5.6-5l-.6-.2-.5.5c-.1.1-2.7 2.9-2.1 6.8.5 3 2.8 5.6 6.8 7.9-.8 1-1.3 1.7-1.4 1.9-2.6 3.1-3.8 6.3-4.2 9.3-2.1-2.2-10.5-12.6-5.6-31.5 2-1.8 2.9-3.7 2.6-5.7-.5-4-5.2-6.6-5.4-6.7l-1.2-.7-.3 1.4c-1.1 5.5-.8 9.2.9 11.1.4.5.9.7 1.3.9l-.6 2.7c-1.3-2.3-3.8-5-8.5-6.7 3.1-4.7.2-9-1.9-10.7l-1-.8-.6 1.1c-1.5 3-1.3 5.8-.7 7.8-6.4-2.4-13.1 1.9-13.2 2l-1.2.8 1.2.9c3.2 2.4 6.3 3.2 9 3.2 3.8 0 6.8-1.5 7.9-2.1 7.6 2.9 8.3 8.6 8.3 9-.1.6-.1 1.1-.1 1.7-1.2-1.8-3.6-3.9-8.2-5.8l-1.3-.6-.1 1.4c-.1.9-.4 9.1 3.5 11.4.7.4 1.4.6 2.2.6 1.2 0 2.5-.4 3.9-1.3.8 8.8 4.5 14.5 6.6 17.1-1.1 0-2.6 0-4.5-.3-.1-1.8-.7-7.2-5.9-9.8l-.9-.4-.5.8c-.1.2-2.4 4.3-.7 7.5 0 .1.1.1.1.2-2.9-.7-5.3-1.3-6.7-1.8.9-1.6 2.5-6.3-4.3-13.6l-1.8-2v2.6c0 .1-.1.3-.1.5-1 3.7-1 6.6 0 8.9-3-1.8-6.5-3.7-9-3.9-.5-2.9-2-4.8-4.1-5.8zm-6.8 1.3c1.4-.3 3.8-.5 5.9.5 1.4.7 2.5 2 3.2 3.7-2 0-6.2-.5-9.1-4.2zm41 36.3c2.7-.1 5.2 1.2 6.7 2.2-3.1 1-5.5-.8-6.7-2.2zm6.6 8.5c-1.3 2.8-4.7 4.7-6.6 5.6.1-2.9.9-5.2 2.4-6.7 1.5-1.6 3.5-2 4.5-2.2.3 1.1.2 2.2-.3 3.3zm20.9 11.8c-1.5-1.6-.5-5.7.3-8.1 4.2 4.1 4.7 7.3 4.6 8.6-1.7.4-3.9.6-4.9-.5zm-33.8-16.2c-.6 2-1.8 4.9-4 5.6 1.1-2.1 2.6-4.5 4-5.6zm-13.8-3.9c-.8-.5-1.4-1.1-1.6-1.8-.5-1.6.1-3.5.6-4.6.9.7 1.5 1.6 1.7 2.6.3 1.4-.3 2.9-.7 3.8zm4.1 13.5c-.9-1-1.3-2.4-1.1-4.3 1.2.6 3.1 2.2 4.1 5.8-1-.1-2.2-.5-3-1.5zm-25.8 18.2c-.5 2.1-3.3 3.8-5.1 4.7-.5-2.9 3.1-5.9 4.7-7 .4.8.5 1.6.4 2.3zm-6-5.4c-.8-.5-1.3-1.4-1.4-2.6 1.6-.1 5.1 0 8 2.2-2 .7-4.9 1.4-6.6.4zm15.4-4.7c-.1.3-.4.6-.7.7-.3.1-.7.2-1 .3-.7.2-2 .5-2.5 0-.8-1 .1-4.2 1.2-6.7 3.2 3.6 3.2 5.2 3 5.7zm12.8 11.5c-1.7 1.2-4.3 1.6-7.7 1 .8-1.3 2.4-3.5 4.7-4.2 1.5-.5 3.1-.3 4.8.5-.1.7-.6 1.8-1.8 2.7zm4-4.7c-.7-.8-1.4-1.5-2.2-2.2-.3-.5-.6-1.1-.6-1.7-.1-1.2.5-2.5 1.8-3.8 2 2.1 4.3 5.3 3.8 6.8-.2.7-1.2 1.1-2.1 1.2-.3 0-.5-.1-.7-.3zm16.4 16.6c-1.1-1.1-1.7-2.3-1.7-3.6-.1-2.2 1.3-4.2 2.2-5.2 1.9 2.3.4 6.7-.5 8.8zm2.9-12.9c0-.1 0-.1 0 0 0-.1 0-.1 0 0zm-1.5-2.9c-1.5-1.6-.5-5.7.3-8.1 4.2 4.1 4.7 7.3 4.6 8.6-1.7.5-3.8.7-4.9-.5zm32.6 18.9c-1.6-1.4-3.9-4.2-2.3-8.2 1.2 1 3.1 3.4 2.3 8.2zm52.9-43.3c.3.4.5.7.8 1 .6.7 1.1 1.3 1.7 2.7.8 2 .6 4.1.3 4.3 0 0-.5 0-1.5-1.3-1.8-2.1-1.7-4.8-1.3-6.7zm-23.4-.5c-1.3.3-3.5.1-7.1-2.7 1.2-.5 3.9-.9 8.8 1.5-.4.5-.9.9-1.7 1.2zm6.2 2.3c-.1-.2-.2-.4-.3-.7-.2-1.7 2.1-4.7 4.2-6.7 1.2 2.7 1.4 4.8.6 6.1-1 1.5-3.2 1.7-3.8 1.7-.4-.1-.6-.3-.7-.4zm4.2 15c-1.3.3-3.5.1-7.1-2.7 1.2-.5 3.9-.9 8.8 1.5-.4.5-.9 1-1.7 1.2zm3.2-3.2c-.7-1.5-1.5-3.8-1-5.6.2-.7.5-1.2 1-1.7.6 1.7 1.6 5 0 7.3zm22.8 26.5c-1.7 2.4-6.1 7.5-13.5 6.3 1.6-2.3 5.8-7 13.5-6.3zm-17.6-4.3c1.9 1 3 2.3 3.4 3.9.6 2.7-1.2 5.8-2.3 7.3-3-4.3-1.8-9.2-1.1-11.2zm-4 26.8c1.8-2.6 4.7-3.7 6.5-4.1-.9 2.6-2.1 4.3-3.8 5.1-1.3.7-2.6.6-3.4.5.2-.5.5-1 .7-1.5zm-9.6-2.8c1.6 0 2.9.6 3.8 1.7 1.2 1.5 1.4 3.7 1.4 4.9-3.4-1-4.8-4.7-5.2-6.6zm-11-19.2c.6-1.3 1.9-2.3 3.7-2.8.3.4.8 1.2.7 2.3-.1 1.4-.9 3.5-4.5 6.3-.4-1.4-.8-3.8.1-5.8zm-4.1 4.1v.3c-3.1-.2-5.3-3-6.5-4.8 1.4.2 2.6.5 3.6 1 1.1 1.1 2.1 2.3 2.9 3.5zm4.4-39.3c-1.7 2.5-6.1 7.5-13.5 6.3 1.6-2.3 5.8-7 13.5-6.3zm-17.6-4.3c1.9 1 3 2.3 3.4 3.9.6 2.7-1.2 5.8-2.3 7.3-3-4.3-1.8-9.2-1.1-11.2zm-10-7.8c-.9-.7-1.9-2.4-1.6-6.8 2.5.9 5.6 2.6 6 4.4.2.8-.3 1.7-1.3 2.6-.5.2-2 .6-3.1-.2zm-18.8-9.1c.3-1.6 1.4-2.6 2.2-3.2 1.9 2.9 2.7 5.4 2.2 7.3-.3 1.2-1.1 2-1.7 2.4-2.1-2.4-3-4.6-2.7-6.5zm7.3-24.8c-.1 1.3-.5 3.4-1.9 4.5-1 .8-2.4.9-4.2.5 1.1-1.5 3.4-4.1 6.1-5zm-11.9-5.1c-.3-2 .6-3.7 1.1-4.5 1.8.8 3.1 2 3.8 3.6 1.1 2.5.7 5.5.2 7.1-3-2-4.8-4-5.1-6.2zm-32.5-15.5c2.5-1.2 7.9-3.1 12.4.3 0 .1.1.1.1.1-2.2 1.2-7.2 2.8-12.5-.4zm13.4-1.9c-.7-1.3-1.6-3.7-.7-6.5 1 1.3 2.2 3.7.7 6.5zm8.3 18.3c-1.8 1.1-3.2 1.3-4.2.7-2-1.2-2.5-5.3-2.5-8 6.6 3.2 6.8 6.4 6.7 7.3zm1.8-22.7c1.2.9 2.9 2.5 3.1 4.3.1 1.3-.5 2.6-1.9 3.9-.2-.1-.4-.2-.7-.5-.5-.7-1.3-2.7-.5-7.7zm-4.7 33.9c3 2 3.7 5.2 3.8 6.9-2.1-.3-3.4-1.1-4-2.2-.8-1.6-.3-3.6.2-4.7zm2 9.1c0 .1-.1.2-.2.3-.6.8-2.4 2.3-8.2 2.7 0-.1.1-.2.2-.3.6-.8 2.5-2.2 8.2-2.7zm-15.1-15.9c4.1 5 3.5 8.1 3 9.4-3.9-2-3.7-6-3-9.4zm3.7 12.8c-1.8 1.3-5.8 3.1-11.8 0 1.6-1.2 5.3-3 11.8 0z"/><path d="m271.3 211.2.3-1.4-1.4.1c-.1 0-8.2.6-10.6 7.4-1.3-.9-2.6-2.1-3.5-3.7 2.3-1.2 3.6-2.8 3.9-4.7.5-3.6-3.4-6.8-3.6-6.9l-.7-.6-.6.7c-2.6 2.6-3.9 4.9-4 7-1.1-.6-2.3-1.3-3.7-1.8.3-.5.6-1.2.6-2.2 0-1.7-1.1-3.4-3-5.1 0-.3 0-.6-.1-.9 0-.7-.1-1.6 0-2.6 1.3.3 2.5.5 3.5.5 1.7 0 3.1-.5 3.9-1.4 1.9-2 .8-5.2.8-5.3l-.3-.9-.9.2c-3.1.6-5.3 2.4-6.5 3.7.5-2 1.5-4.2 3.3-6l.1-.2c.3-.5 2.6-4.5 2.5-7.6.9-.1 1.8-.4 2.6-.9 3.3-2.3 4.2-8.2 4.2-8.5l.2-1.5-1.5.3c-3.3.8-5.6 2.2-6.8 4.3-1.6 2.6-.9 5.3-.9 5.4v.2c.4 1.3-.3 3.5-1.1 5.3.2-6.5-5.6-9.7-5.7-9.8l-.9-.5-.5.9c-1 1.9-1.1 3.9-.5 5.8 1.3 3.9 5.8 6.1 5.9 6.2-.6.7-1.1 1.5-1.5 2.3-1.8-2.5-6-7.8-12.2-11.2.4-6.1 1.7-14.8 3.6-17 1.2.5 2.4.8 3.6.8.9 0 1.8-.2 2.7-.5 3.7-1.3 5.4-5.1 5.5-5.3l.4-.9-.8-.5c-2.5-1.4-4.9-1.7-7.1-.9-3.3 1.2-4.9 4.5-5.3 5.4-.7.6-1.3 1.6-1.8 2.8-.9-3.7-3.4-5.3-3.6-5.3l-.9-.5-.5.9c-1.9 3.3-2.4 6.1-1.3 8.2 1.1 2.2 3.4 3 4.6 3.2-.5 3-.8 5.9-1 7.9-3-4.1-12-17.9-5.2-27.4h.5c5.5 0 8.3-6.8 8.4-7.2l.4-1-1-.4c-1.6-.6-3.2-.5-4.7.2-1.8.9-3 2.5-3.9 4-2.6-7.9-6.9-7.7-7.1-7.7l-.9.1v1c0 5.2 1.2 8.6 3.5 10.1.8.5 1.6.8 2.3.9-.6 1-1 2-1.4 3.1-1.6-1.3-5.1-3.3-10.8-3.4-.1-1.7-1.3-4.7-6.7-8.4l-1.6-1.2v2.2c-1.2 4.4.5 6.9 2.8 8.4-2.2 1.1-5.3 3.2-5.4 6.2l-.1 1 1 .1h1.1c2.3 0 7.4-.3 9.1-3 .6-.9.7-2 .3-3.2 6.6.2 9.5 3.2 9.8 3.6-1.3 8.3 3.7 17.1 6.8 21.6-2.3-.7-4.8-1.2-7.4-1.1 2.1-4.1-.7-9.6-.8-9.9l-.5-.9-.9.5c-1.5.9-2.5 2.1-2.9 3.7-.5 1.9 0 3.9.6 5.5-7.7-3.1-10.3.3-10.4.4l-.6.8.7.6c3.2 2.7 6.1 4.1 8.5 4.1.5 0 1-.1 1.5-.2 1.8-.5 2.8-1.8 3.2-2.5 13.9-1.3 23.6 12.4 24.9 14.5-.7 1.9-1 3.8-1.1 5.4-.9-.5-1.8-.8-2.6-.8l-1.2-.1.1 1.2c.2 2.2.9 3.7 2.1 4.5.6.4 1.2.5 1.7.5.3 0 .6 0 .8-.1 1.4 1.3 2.2 2.5 2.2 3.5 0 .9-.4 1.4-.5 1.4-.1 0-.1.1-.1.2-2.7-.7-5.8-1-9.2-.2.1-.3.3-.5.4-.8 1-2.6.5-5.8-1.5-9.5l-.7-1.2-1 1c-.1.1-5.5 5.9-2.8 12.6-1.9.9-7.3 2.7-12.1-3.2 3.6-4.2.2-10.8 0-11.1l-.5-.9-.9.5c-1.5.9-2.5 2.1-2.9 3.7-.5 1.9 0 3.9.6 5.5-7.7-3.1-10.3.3-10.4.4l-.6.8.7.6c3.2 2.7 6.1 4.1 8.5 4.1.5 0 1-.1 1.5-.2 1.3-.3 2.1-1.1 2.7-1.8 6.9 8.1 15.1 3 15.2 3 0 0 .1 0 .1-.1 8.7-4.2 15.9-.5 19.3 2.1.7 1.1 1.7 1.7 2.2 2 3.8 7.3 12.6 8.3 13 8.3h.1c.5 0 1-.4 1-.9.1-.6-.4-1.1-.9-1.1 0 0-1.1-.1-2.6-.6.5-.1.9-.3 1.4-.5 2.7-1.5 4.5-4.2 5.5-8.2zm-20.1-19.5c.1.8 0 1.7-.5 2.4-.7.7-2.1.9-4.1.6.9-1 2.4-2.3 4.6-3zm.4-17.6c.8-1.3 2.1-2.2 4-2.9-.5 1.8-1.5 4.4-3 5.5-.5.4-1.1.6-1.7.6-.1-.7 0-2 .7-3.2zm-9.4 5.7c-.3-1-.4-2 0-3.1 1.4 1.1 3.8 3.5 3.7 7.3-1.3-.8-3-2.3-3.7-4.2zm-1.2-24.5c1.3-.5 2.8-.4 4.5.3-.6 1-1.9 2.6-3.9 3.3-1.3.5-2.8.5-4.4-.1.7-1 1.9-2.8 3.8-3.5zm-11.1-13.1c.5-.3 1-.4 1.6-.4h.3c-.9 1.6-2.8 4.4-5.5 4.8.7-1.5 1.9-3.6 3.6-4.4zm-25.8.3c4.2 3.2 4.6 5.5 4.6 6.2l-.8-.3c-3.7-1.5-4.1-3.9-3.8-5.9zm5 10c-.9 1.5-4.4 2-7.1 2 1-2.2 4.4-3.7 5.8-4.2l1-.3c.6 1.1.7 1.9.3 2.5zm12.6-6.4c-1.1-.7-2.3-2.6-2.5-7.2 1.2.6 3.1 2.4 4.5 7.7-.5.1-1.3 0-2-.5zm-6.7 31.1c-1.3.3-3.5.1-7.1-2.7 1.2-.5 3.9-.9 8.8 1.5-.3.5-.9 1-1.7 1.2zm3.3-3.2c-.7-1.5-1.5-3.8-1-5.6.2-.7.5-1.2 1-1.7.6 1.7 1.6 5 0 7.3zm13.2-8.1c-.9-.3-2.1-.9-2.7-2-.6-1.2-.4-3 .7-5.1.9 1 2.4 3.2 2 7.1zm10.6 33.5c-.4-.2-.7-.7-.9-1.4.6.3 1.2.7 1.5 1.4v.2c-.2 0-.4 0-.6-.2zm-28.2 7.4c-1.3.3-3.5.1-7.1-2.7 1.2-.5 3.9-.9 8.8 1.5-.4.5-.9.9-1.7 1.2zm3.2-3.2c-.7-1.5-1.5-3.8-1-5.6.2-.7.5-1.2 1-1.7.6 1.7 1.6 5 0 7.3zm17.4 1.3c-.5 1.4-1.5 2.2-2.2 2.7-1.5-3.8.3-7.3 1.5-9 1.1 2.4 1.3 4.6.7 6.3zm18.8 5.8c-.1-.2-.2-.4-.2-.6-.3-1.5.6-3.5 2.7-5.8 1 1 2.4 2.8 2.1 4.4-.2 1.2-1.2 2.3-3.1 3.2-.3-.3-.8-.7-1.5-1.2zm8.3 7.1c1.5-3.8 5.2-5.1 7.3-5.6-.9 2.6-2.1 4.3-3.8 5.1-1.3.7-2.7.6-3.5.5z"/><path d="M251.5 128.8c2.8 5.3 3.8 9.1 4.2 10.8-3.7-1.2-8.5-1.9-14.6-1.7.1-1.5-.3-2.9-1.2-4-2.7-3.3-8.9-3.3-9.2-3.3h-1.1l.1 1.1c.2 2.8 1.1 5 2.9 6.4 2 1.6 4.5 1.9 6.1 1.9h.3c.2.1.3.1.5.1 7.8-.5 13.4.5 17.3 2.2-.3 0-.7 0-1 .1-3.6.8-5.5 4.8-5.6 4.9l-.5 1 1.1.4c3.2 1.1 5.8 1.7 7.7 1.7 1.7 0 2.9-.4 3.6-1.3.7-.7.8-1.6.8-2.4.4.6.9 1.1 1.3 1.5 2.7 4 11.4 8.4 13.7 9.6v.2c-.6 3.5-.9 8-1.1 12.8-4.8-5.8-10.9-5.5-11.2-5.5l-1 .1v1c.1 2.4 1 4.3 2.6 5.6 2.3 1.9 5.5 2.2 7.7 2.2.8 0 1.4 0 1.9-.1 0 5.7.2 11.6.4 16.4-2.1-2.4-5.8-4.8-10.3-3.7-.1 0-.3-.1-.4-.1.1-.3.2-.6.2-1 .1-2.1-1.4-4.7-4.5-7.8l-1.3-1.3-.4 1.8c-.5 2-.6 5.5 1.5 7.8-1.1.1-2.2.4-3.1.9-2.8 1.6-3.4 4.7-3.5 4.8l-.2 1 1 .2c.9.2 1.7.3 2.5.3 4.9 0 7.9-3.5 8.8-4.6 5.7-1.3 9.3 4.6 9.4 4.8.1.2.3.3.4.4 0 .5.1 1 .1 1.5-3.5-3.2-9.2-2.9-9.4-2.8l-1.2.1.3 1.2c2.2 8.3 9.2 9 11.3 9 .1.3.3.6.7.7.1 0 .2.1.3.1.4 0 .8-.3 1-.7 0-.1 2.2-6 12.9-9 .8 1 2.8 2.7 6.6 2.7 2.1 0 4.8-.5 8.2-2.1l1.2-.6-.9-1s-2.1-2.5-6-3.1c2-1.1 4-2.5 5.6-4.2h.3c1.2 0 3.4-.6 6.7-3.7 2.6 2.4 5.3 3.7 7.9 3.7h.8c4.2-.4 6.8-3.8 6.9-4l.6-.8-.8-.6c-3.3-2.4-8-2-11.3-1.3 2.6-1.7 4.8-3.1 3.8-6.9.7-.8 1.2-1.6 1.5-2.4 1.9-2.7 5.4-6.7 9.6-9.1 1.1.5 2.2.8 3.3.8.7 0 1.3-.1 2-.3 4.1-1.2 6.5-5.8 6.6-6l.7-1.3-1.5-.2c-1.7-.2-3.3.1-4.8.6 1.3-1.9 1.8-3.6 1.5-5 0-.3.1-.5.1-.7.4-.1 10.7-2.9 10.7-8.7v-.9l-.8-.2c-.1 0-5.7-1.2-9.1 3.8 0-.8-.1-1.6-.4-2.4 1.7-.8 2.9-1.9 3.4-3.4 1.2-3.1-.8-6.5-.9-6.6l-.5-.9-.9.6c-2.5 1.6-4 3.5-4.4 5.6-.5 2.5.8 4.5 1.1 4.8.3.6.5 1.2.5 1.9v-.1c-2.2-3.3-6.3-4.1-6.4-4.1l-.9-.2-.2.9c-1.6 5.9 5 10.2 6.8 11.2.1 1.2-.7 3.5-5.2 7.6-.6.5-1 .9-1.2 1.1 0 0-.1 0-.1.1.1-.7 0-1.6-.3-2.5-.5-1.8-1.8-3.3-3.8-4.5 1.9-1.6 2.9-3.3 3-5.2.1-3.5-2.7-6-2.9-6.2l-.6-.5-.6.4c-1.7 1.1-2.7 2.5-3 4.2-.4 1.9.2 3.8.9 5.2-3.5-2.6-4.8-6.2-6-9.4-.1-.2-.1-.3-.2-.5 1.5-.1 2.7-.7 3.5-1.7 2.4-3 .9-8.6.8-8.8l-.3-1.3-1.1.6c-3.1 1.7-5 3.6-5.7 5.6-.8-1-1.9-1.6-3.2-1.8-4.1-.6-8.9 3.5-9.1 3.7l-1.2 1 1.4.7c4.2 2 7.4 3 9.5 3 1.2 0 2.2-.3 2.8-1 .1-.1.1-.2.2-.3.2.4.3.9.5 1.4.5 1.4 1 2.8 1.7 4.3-2.9-1-6.2-.6-8.1 0l-1.4.4.9 1.2c3 3.8 7.5 4.5 10.3 4.5 1.6 0 2.7-.2 2.8-.2h.1c.8.6 1.6 1.2 2.6 1.7 2.2 1.1 3.5 2.4 4 4 .5 1.5 0 2.9-.2 3.4-2.6 1.8-4.7 4-6.4 6-.8-2.4-3-4-3.2-4l-1.1-.7-.5 1.2c-1.9 4.9.4 8.7 1 9.6.8 2.6-.3 3.3-2.9 5-1.2.8-2.8 1.8-4.3 3.2-1.5 1.4-2.7 2.2-3.6 2.6.4-.7.8-1.4 1.1-2.1 1.2-3 .9-6.3-.7-9.6 0 0-.1-.2-.2-.5.7-.5 1.3-1.1 1.6-1.8 1.6-3.3-.3-8.4-.4-8.6l-.4-1-1 .5c-1.7.8-2.8 2-3.3 3.5l-.3 1.2c-.6-.7-1.2-1.3-1.9-1.9.7-1.6.8-3.3.3-4.9-1.2-3.9-5.5-6.1-5.7-6.2l-.7-.3-.5.6c-1.3 1.4-1.9 2.9-1.6 4.6.6 4.1 6.2 7.3 6.4 7.4 1.3 1 2.3 2.3 3.1 3.5-3.8-2.6-8.1-2.8-8.4-2.8h-1.4l.4 1.3c.8 2.8 2.2 4.8 4.4 6 1.7.9 3.5 1.2 5 1.2 1.3 0 2.3-.2 2.8-.3 1.2 2.6 1.4 5.1.5 7.5-.6 1.5-1.5 2.8-2.7 4 .8-1.9.7-3.9.3-5.3l-.2-.9-1 .2c-5.2 1-6.2 6.8-6 9.8l.1 1c-.9.5-1.9.9-2.7 1.3-1.1.3-2.4.8-3.7 1.5-7.9 2-11.7 5.6-13.5 8-.2-2.1-.4-5.8-.6-10.3h.4c1.5 0 2.8-.5 3.9-1.5 4.4-3.8 4.8-13.6 4.8-14l.1-1.7-1.5.7c-4.6 2.2-6.8 5.6-7.9 8.8-.1-2.6-.1-5.3-.1-8h.1l-.1-.1c0-5.8.3-11.3 1.1-15.4 0-.1.9-5.5 6.3-11.9 1.3 1 2.8 1.4 4.3 1.4 3.3 0 6.5-1.8 6.7-1.9l.9-.5-.6-.9c-.9-1.5-2.2-2.4-3.8-2.7-1.9-.4-3.9.2-5.5.8 2.8-7.9-.7-10.3-.9-10.4l-.8-.5-.6.8c-3.1 4.1-4.3 7.5-3.4 10.1.4 1.3 1.3 2.2 2 2.7-3.2 3.9-4.9 7.4-5.8 9.7-2-3.5-5.9-12.6.9-22.9v-.1s0-.1.1-.1v-.1c.2-.2.3-.5.4-.7.6-1 1.4-2.5 1.7-4 .2 0 .4.1.6.1 1 0 2-.3 2.8-.9 3.6-2.5 4-9.7 4-10l.1-1.3-1.2.2c-2.6.4-4.6 1.3-6 2.6-.5-1.7-1.3-3.2-2.2-4.3.6-1.4.6-2.8.1-4.1-1.6-4.1-7.8-6.5-8-6.6l-1-.4-.3 1c-1.8 5.5-1.7 9.1.4 11 1 .9 2.3 1.2 3.6 1.2 1.5 0 2.9-.4 3.8-.7.9 1.1 1.7 3 2.1 5-1.4 2.7-.8 5.5-.7 6.1 0 .4 0 .7-.1 1.2-1.8-2.9-6.3-4.9-6.9-5.2l-1.2-.5-.2 1.3c-.7 4.3-.1 7.3 1.8 8.8 1.1.9 2.4 1.2 3.5 1.2h.1c-5.2 9.2-2.7 17.5-.6 21.8-3.2-1.7-8-4.6-10-7.1 1.4-2.1 1.9-4.2 1.6-6.3-.7-3.9-4.2-6.3-4.3-6.4l-.8-.6-.6.8c-1.6 2.3-1.8 4.7-1.4 6.9-.9-.6-1.8-1.1-2.9-1.5-.1-.8-.7-4.8-3.9-11.2.9 0 1.7-.3 2.4-.7 3.9-2.5 4.8-10.3 4.8-10.6l.2-1.7-1.6.6c-4.4 1.7-7.2 4-8.3 6.8-1.1 2.6-.3 4.6-.3 4.7l.6.4zm-12.4 9.1c-1.2 0-3.5-.1-5.2-1.4-1.1-.9-1.8-2.1-2-3.8 1.9.2 5 .8 6.4 2.5.6.7.8 1.6.8 2.7zm29.5 32.6c-.9-.8-1.5-1.8-1.7-3 1.8.2 5.4 1 8.5 4.8-1.9 0-4.9-.3-6.8-1.8zm-3.8 15.2c-2-1-2.4-3.1-2.4-4.7 2.1 2.6 2.4 4 2.4 4.7zm-6.9 5.7c.3-.8 1-1.8 2.1-2.4 1.3-.8 3.1-.9 5.2-.4-1.2 1.2-3.7 3.2-7.3 2.8zm11.7 3.3c1.7.1 4.7.5 6.7 2.4.9.9 1.4 2 1.6 3.3v.6c-2-.2-6.4-1.1-8.3-6.3zm80.7-53.9h.2c-.8 2.4-4.5 4.3-7.2 5.3 1.8-4.7 5.2-5.3 7-5.3zm-9.2-5c.2-1.3 1.1-2.4 2.5-3.5.4 1 .8 2.5.3 3.9-.4 1-1.2 1.8-2.4 2.3-.3-.6-.6-1.6-.4-2.7zm-6.2 4.5c1.1.4 2.9 1.2 4.1 3 .7 1.1 1.1 2.4 1.1 3.8 0 .2-.1.3-.1.5-2-1.3-5.3-4-5.1-7.3zm8.3 15.5c-.9 1.2-2.5 2.9-4.4 3.5-1 .3-1.9.3-2.9 0 1.5-1.3 4.3-3.2 7.3-3.5zM316 138.5c-.3.3-1.9 1.2-8.5-1.7 1.6-1.1 4.2-2.5 6.2-2.2.9.1 1.7.6 2.2 1.4.2.5.6 1.9.1 2.5zm3.3-.6c-.3-.4-.6-1.2-.5-2.2.2-1.5 1.5-3 3.8-4.5.3 1.7.4 4.3-.7 5.6-.6.7-1.4 1-2.6 1.1zm-5.2 9c2.2-.3 6-.3 8.4 2.4-2 .1-5.6-.1-8.4-2.4zm13.1-2c.2-.9.6-1.7 1.4-2.4.7.8 1.7 2.3 1.6 3.9-.1 1.2-.7 2.4-1.9 3.4-.5-1.1-1.4-3.1-1.1-4.9zm-5.9 20c.6.7 1.3 1.6 1.4 2.8 0 .4 0 .7-.1 1.1-.3.4-.6.8-.8 1.1-.4-1.2-.9-2.9-.5-5zm6.9 16.5c-.9.9-2.5 2.1-4.7 2.3-2 .2-3.9-.5-6-2.1 2.6-.8 7.4-1.9 10.7-.2zm-25.3-19.8c-1.7-1.1-4.1-3.2-4.5-5.4-.1-.8.1-1.5.6-2.3 1.1.7 3.3 2.3 4 4.5.3 1.1.3 2.2-.1 3.2zm-.9 8.6c-1.2-.7-2.2-1.8-2.9-3.2 2 .3 5.5 1.3 7.8 4.1-1.2.1-3.2.1-4.9-.9zm7.3-1.1c-.2-.3-.4-.7-.6-1.1-.3-1.2-.5-2.6-.1-3.8.2-.7.6-1.3 1.2-1.7.5 1.7.9 4.2.1 5.8-.1.3-.3.6-.6.8zm-4.2 11.6c.1 1.6-.2 4.4-3.3 5.9.1-1.8.7-4.8 3.3-5.9zm-7.3 11.6c3.9-1.1 6.6.1 8 1.1-6 2.3-9 1-10.3-.1.6-.3 1.4-.6 2.3-1zm-11.6-16.5c-.4 3.3-1.4 8.6-4 10.7-.7.6-1.4.9-2.2 1 0-2.2.7-8.2 6.2-11.7zm7.2-32c.7.1 1.3.4 1.8.9-1.7.7-4.9 1.8-7.3.4 1.4-.8 3.7-1.7 5.5-1.3zm-8.9-1.8c-.4-1.2-.3-3.5 2.3-7.2.6 1.2 1 3.8-1.1 8.8-.4-.3-.9-.9-1.2-1.6zm-6.4-29c-1.3.5-4.2 1.2-5.6 0-1.2-1.1-1.3-3.8-.1-7.7 1.9.9 5 2.7 5.8 5 .4.8.3 1.8-.1 2.7zm4.6 7.4c.9-1.4 2.4-2.3 4.5-2.9-.3 2.2-1.1 5.8-3 7.1-.7.5-1.4.6-2.3.5-.2-.9-.3-2.9.8-4.7zm-8.1 9.7c-1.1-.9-1.5-2.8-1.2-5.6 1.9 1 4.6 2.8 5.1 4.6.1.5.1.9-.1 1.3 0 .1-.1.2-.1.2-.8.2-2.6.5-3.7-.5zm-11.3 7.2c.9.8 2.3 2.4 2.6 4.3.2 1.4-.1 2.8-.9 4.2-.3-.3-.5-.6-.8-1-1.2-1.8-2.3-4.6-.9-7.5zm-2.6 8.3c.2.5.4 1.5-.1 2.1-.4.5-2.1 1.3-8-.6.7-1 1.9-2.4 3.6-2.8 1.5-.3 3 .1 4.5 1.3zm-1.7-26.1c-.5 2.5-1.6 6.1-3.6 7.3-.7.4-1.4.5-2.3.3-.2-1.2-.2-4.6 5.9-7.6zm36.8 262.6-1-.2-.2 1c0 .2-.6 3.7 1.6 6.9 1.5 2 3.8 3.3 6.8 4-2.6 24 2.1 41.7 14 52.8 11.3 10.6 26.9 12.6 37 12.6 6.1 0 10.2-.7 10.3-.7.6-.1.9-.6.8-1.2-.1-.6-.6-.9-1.2-.8-.3.1-28.2 4.9-45.5-11.4-11.3-10.6-15.8-27.7-13.3-50.9l.1-.9v-.2c0-.2.5-9.5-9.4-11zm2.1 6.5c-1.1-1.5-1.3-3.2-1.4-4.3 5.2 1.3 6.3 5.4 6.5 7.4-2.2-.5-4-1.6-5.1-3.1zM250.3 353c.1 0 .1 0 0 0 .6 0 1.1-.4 1.1-.9 0-.1.1-.9.1-2.4 4.1-.6 6.9-2 8.3-4.3 1.6-2.8.4-5.7.3-5.8l-.4-.9-.9.4c-3.9 1.6-6.2 3.6-7.5 5.5-.8-8.8-4-23.3-16.5-31.9 1.9-8.9-4.1-11.8-4.1-11.9l-.9-.4-.5.8c-1.7 3.2-1.5 6-.4 8.2-3.1-1.4-6.7-2.4-10.8-3h-.4l-3.9-6.6c.5.1 1.1.1 1.8.1 3.3 0 8.2-1.1 10.3-7.4l.3-.9-.9-.3c-.2-.1-4.2-1.5-8.1.4-2.2 1.1-3.8 3-4.9 5.6l-3.3-5.5c.2-1.4.1-6-6.4-11.7l-1.1-.9-.6 1.3c-.4.8-3.4 8.3-.4 11.6.9 1 2.2 1.5 3.9 1.5.9 0 1.9-.2 3-.4l7.8 13.3c-5.7-.2-11 1.1-16.1 2.3-.2 0-.4.1-.5.1v-.2c2.4-9.5-3.9-12.6-4-12.6l-.9-.4-.5.8c-3.4 6.2.9 11 3.7 12.7-5.7 1.3-11.6 2.4-18.3 1.4-3.6-.5-7-1.9-10.1-3.7h.1c1.9-1.5 3.1-3.3 3.4-5.5.5-4.2-2.4-8-2.5-8.1l-.6-.8-.8.7c-2.1 1.7-3.3 3.8-3.5 6.1-.2 2.7.9 5 1.8 6.4-1.8-1.2-3.4-2.5-4.9-3.8-.7-.9-4.8-6.5-3.8-16.5.1-.3.2-.8.1-1.6 4.1-2.9 6.2-5.8 6.3-8.6.1-2.7-1.8-4.2-1.8-4.3l-.4-.3-.5.1c-2.7.7-4.6 2-5.6 4.1-.7 1.4-.8 3-.7 4.4-1.7-1.2-4.2-1.9-7.5-2l-1.7-.1.6 1.5c.1.3 3.2 7.2 9 7.6-.3 4.6.3 8.3 1.3 11.1-1.5-1.7-2.5-3-3-3.6.3-1 .3-2.1-.1-3.1-1.7-3.9-8.9-6.1-9.7-6.4l-1.3-.4v1.4c0 3.4.9 6 2.9 7.7.5.4 1.1.8 1.6 1.1-2.8.8-5.9 2.2-7.6 4.6-.9.3-3.7 1.5-4.9 4-.7 1.5-.8 3.2-.1 5l.3.9.9-.3c2.4-.7 6.4-3.4 5.5-8.4 2.5-3.4 9-4.5 11-4.7 2.1 2.8 12.4 15.7 26.1 17.7 2 .3 4 .4 5.9.4-2.6 2-7.7 5.4-13.1 4.7-3.7-.4-7.9-1.3-8.6-2.2-.1-.5-.5-1.3-1.4-2.2-1.9-1.6-5.1-2.3-9.7-1.9l-1.4.1.5 1.3c.3.6 2.7 6.2 6.5 6.7h.6c1.4 0 2.8-.7 4-2.1 1.2.8 3.3 1.4 5.2 1.7-1.4 1.3-2.4 3.5-2.8 6.6l-.1 1.1 1.3-.2c.2 0 4.7-.6 6.6-3.5.7-1 .9-2.2.7-3.5h.2c7.8 0 14.3-6.5 14.6-6.8 0 0 .1-.1.1-.2 4.2-.4 8.2-1.3 12-2.2 3.4-.8 6.8-1.6 10.2-2-1.7 1.5-3 4-3.8 7.6l-.4 1.6 1.6-.4c.4-.1 8.6-2.2 9.2-8.8v-.2c.5 0 .9.1 1.4.1 5.4.8 10.1 2.4 14.1 4.8.4.3.8.6 1.1.8l1.1.6c5.7 4 9.9 9.8 12.5 17.3 2.1 6 2.7 11.9 2.8 15.6-3.1-1.6-10.2-6-10.7-11.4.5-1.4 0-4-.1-4.5-.6-2.3-2.5-6-8.2-5.4l-1 .1.1 1c0 .3 1.1 8.1 7.3 9.5 1.2 6.7 10.1 11.7 12.6 12.9h.2c0 1.2-.1 1.9-.1 1.9 0 .8.4 1.3.9 1.3zm8.2-11.5c.1.8.1 1.9-.5 3-.9 1.6-3 2.7-6.1 3.2.7-1.6 2.3-4.2 6.6-6.2zm-40.4-48.1c2.1-1 4.3-.8 5.5-.5-2.3 5.2-7.2 5.2-9.4 4.9 1-2.1 2.3-3.6 3.9-4.4zm-15.9-2.8c-1.5-1.6-.5-5.7.3-8.1 4.2 4.1 4.7 7.3 4.6 8.6-1.8.4-3.9.6-4.9-.5zm-52.7-11.4c2.9.4 4.9 1.3 5.8 2.7.5.8.6 1.6.6 2.1-3-.2-5.3-3-6.4-4.8zm-13.2 26.4c-.1-.8 0-1.6.3-2.3.6-1.3 1.9-2.1 2.9-2.6.2 2.7-1.9 4.2-3.2 4.9zm15.8-12.8c-1.1 0-3.4-.1-5.1-1.6-1.2-1-1.9-2.6-2.1-4.7 2.4.9 6.1 2.6 7 4.8.3.5.4.9.2 1.5zm5.7-17.3c.6-1.3 1.9-2.3 3.7-2.8.3.4.8 1.2.7 2.3-.1 1.4-.9 3.5-4.5 6.3-.4-1.4-.8-3.8.1-5.8zm9 23.8c.1-1.4.7-2.7 1.9-3.9.7 1.2 1.7 3.4 1.4 5.7-.2 1.3-.8 2.5-1.8 3.5-.6-1.2-1.7-3.2-1.5-5.3zm-9.3 18c-1.7-.2-3.3-2.4-4.2-4.1 5.6-.1 7 1.6 7.3 2.4-1.1 1.3-2.1 1.9-3.1 1.7zm12.8 4.8c-.8 1.3-2.6 2-3.8 2.3.5-2.2 1.3-3.6 2.4-4.3.5-.3 1.1-.4 1.5-.4h.4c.1 1-.1 1.8-.5 2.4zm26.8-15.6c-1.6-1.4-3.9-4.2-2.3-8.2 1.1 1 3 3.4 2.3 8.2zm11.4 8.3c.9-2.8 2.1-4.6 3.6-5.3.5-.3 1.1-.3 1.5-.3.3 0 .5 0 .7.1-.7 3-3.8 4.7-5.8 5.5zm24.5-3.4c-1.6-1.4-3.9-4.2-2.3-8.1 1.2 1 3.1 3.4 2.3 8.1zm-1.2 17c1.6 0 2.9.6 3.8 1.7 1.2 1.5 1.4 3.7 1.4 4.9-3.4-1-4.8-4.7-5.2-6.6z"/></svg>