<?xml version="1.0" encoding="utf-8"?>
<!-- Generator: Adobe Illustrator 28.0.0, SVG Export Plug-In . SVG Version: 6.00 Build 0)  -->
<svg version="1.1" id="Layer_1" xmlns="http://www.w3.org/2000/svg" xmlns:xlink="http://www.w3.org/1999/xlink" x="0px" y="0px"
	 viewBox="0 0 566.9 566.9" style="enable-background:new 0 0 566.9 566.9;" xml:space="preserve">
<g id="Layer_1_00000072278379047889796620000011706070689251797168_">
</g>
<path d="M152.1,98.4c-66,40.3-6.8,235.3-10,384c-1.8,84.2,72.7,54.7,141.4,42c30-5.5,59.1-6.8,95.3-15.3c27-6.3,65.3-13.3,65.3-41.3
	c0-42.7-34.6-43.6-82.9-27.9c-69.9,22.8-167.7,77.8-173.4,52.6c-1.2-5.1-4-73.8-1.7-158.7c0.6-24,12-60,4-170
	C186.7,116.6,169.7,87.6,152.1,98.4z"/>
<path d="M370.1,73.3c-0.8,0.1-0.5,0.4,2.1,0.3C371.5,73.5,370.8,73.4,370.1,73.3z"/>
<path d="M274.7,236.7c1.3-0.5,1.9-0.7,2.1-0.8C276.1,236.1,275.4,236.4,274.7,236.7z"/>
<path d="M469,146.4C482,65.6,388.9-0.3,318,38.5c-51.7,28.3-69.2-21.3-135.4-0.8c-34.6,10.7-47.3,39.8-28.7,35.4
	c83-19.4,116.4,44.4,177.1,9.8c44.9-25.6,94.4,7.5,85.7,53.4c-39.3-32.2-88.2,25.6-138.9,12.7c-15-3.8-26.8-10.4-41.6-7.5
	c-37.1,8.4-39.2,55.5-14.5,80.1C264.1,264.2,448.4,273.8,469,146.4z M354.4,73.5c0.1-0.2,1.1-0.3,2.5-0.4
	C356,73.3,354.4,73.6,354.4,73.5z"/>
</svg>
