<svg xmlns="http://www.w3.org/2000/svg" viewBox="0 0 505.84 142.64" style="enable-background:new 0 0 505.84 142.64" xml:space="preserve"><switch><g><path d="M454.15 2.84c-26.98 0-48.86 21.87-48.86 48.86 0 26.98 21.87 48.86 48.86 48.86s48.86-21.87 48.86-48.86C503 24.71 481.13 2.84 454.15 2.84zm0 89.22c-22.29 0-40.36-18.07-40.36-40.36s18.07-40.36 40.36-40.36 40.36 18.07 40.36 40.36-18.08 40.36-40.36 40.36zm20.95-50.97c0-8.81-7.15-15.96-15.96-15.96h-10.13l5.46 8.01h4.66c4.38 0 7.94 3.56 7.94 7.94 0 3.94-2.88 7.19-6.65 7.81L449.7 33.14l-5.46-8.01h-10.01V74.5h8.02V35.63l9.13 13.4h-4.96v8.02h10.43l12.07 17.7h9.15l-12.88-18.9c5.81-2.38 9.91-8.09 9.91-14.76zM2.84 139.8h6.92l18.06-26.14h12.44v-5.7h-8.51l13.83-20.02v51.86h5.7v-58H42.9l-40.06 58zm63.46-26.15c8.8 0 15.92-7.13 15.92-15.92S75.09 81.81 66.3 81.81h-9.8v5.7h9.79c5.65 0 10.23 4.58 10.23 10.23s-4.58 10.23-10.23 10.23H56.05l19.61 31.84h6.69l-16.1-26.15h.05zM79.04 81.8c1.95 1.61 3.62 3.54 4.96 5.7h10.55v52.3h5.7V87.5h11.51v-5.7H79.04zm150.02 15.93c0-8.79-7.13-15.92-15.92-15.92h-18.31v57.99h5.7v-26.15h12.61c8.79 0 15.92-7.13 15.92-15.92zm-15.92 10.22h-12.61V87.5h12.61c5.65 0 10.23 4.58 10.23 10.23 0 5.64-4.58 10.22-10.23 10.22zm-53.57 31.85h29.94v-5.7h-24.25v-20.45h24.25v-5.7h-24.25V87.5h24.25v-5.7h-29.94v58zm-21.38-26.15c8.8 0 15.92-7.13 15.92-15.92s-7.13-15.92-15.92-15.92h-21.11v57.99h5.7V87.5h15.42c5.65 0 10.23 4.58 10.23 10.23s-4.58 10.23-10.23 10.23h-10.24l19.61 31.84h6.69l-16.1-26.15h.03zM299.92 81.8h-5.7v58h26.11v-5.7h-20.41V81.8zm-19.35 28.09c3.46-2.92 5.66-7.28 5.66-12.17 0-8.76-7.08-15.87-15.84-15.92h-16.87v40.07c0 6.76-5.48 12.24-12.23 12.24-6.76 0-12.23-5.48-12.23-12.24V111.7c-1.62 1.84-3.53 3.41-5.69 4.6v5.57c0 9.9 8.03 17.93 17.93 17.93s17.93-8.03 17.93-17.93V87.5h11.09c5.65 0 10.23 4.58 10.23 10.23 0 5.64-4.57 10.21-10.2 10.22h-5.75v5.7h8.37c5.65 0 10.23 4.58 10.23 10.23s-4.58 10.23-10.23 10.23H261a23.328 23.328 0 0 1-4.96 5.7h16.91c8.8 0 15.92-7.13 15.92-15.92 0-6.05-3.35-11.3-8.3-14zm45.09 29.91h5.7v-58h-5.7v58zm67.69-58h-8.39v42.06c-4.19 6.18-11.27 10.24-19.29 10.24-12.87 0-23.3-10.44-23.3-23.3 0-12.87 10.43-23.3 23.3-23.3.97 0 1.92.08 2.86.19l3.82-5.09c-2.15-.51-4.38-.8-6.68-.8-16.01 0-29 12.98-29 29s12.98 29 29 29c7.42 0 14.17-2.8 19.29-7.39v7.39h5.7V87.94l13.83 20.02h-8.51v5.7h12.44l18.06 26.15h6.93L393.35 81.8zM45.76 49.35v5.59c.51-.19 1-.29 1.49-.29h.92c1.03 0 1.98.38 2.83 1.15.85.77 1.28 1.76 1.28 2.99v4.75c0 1.14-.36 2.11-1.08 2.93-.72.81-1.83 1.22-3.33 1.22h-4.71V49.35h2.6zm0 9.36v6.38h2.46c.42 0 .77-.14 1.04-.41.27-.27.41-.63.41-1.05v-4.92c0-.43-.14-.78-.41-1.06-.27-.28-.65-.42-1.11-.42h-.87c-.44 0-.81.14-1.09.42-.29.28-.43.63-.43 1.06zm14.96-4.08h2.41v2.59h-2.31c-.37 0-.71.15-1.01.45-.3.3-.45.67-.45 1.13v8.9h-2.59v-9.1c0-1.02.37-1.93 1.1-2.74.72-.82 1.67-1.23 2.85-1.23zm10.09 0h.35c1.31 0 2.37.42 3.17 1.25.81.83 1.21 1.85 1.21 3.06v8.75h-4.73c-1.31 0-2.37-.4-3.18-1.2-.82-.8-1.22-1.84-1.22-3.11v-4.47c0-1.32.42-2.36 1.25-3.13.82-.76 1.88-1.15 3.15-1.15zm-1.8 4.12v4.83c0 .46.14.83.41 1.1.27.27.63.41 1.05.41h2.47v-6.41c0-.43-.14-.78-.41-1.05-.27-.27-.62-.41-1.04-.41h-1.02c-.4 0-.75.14-1.04.43-.28.29-.42.65-.42 1.1zm16.01-4.12c1.14 0 2.11.39 2.91 1.16.8.77 1.2 1.78 1.2 3.03v8.88h-2.58v-8.86c0-.55-.14-.96-.41-1.22-.27-.27-.66-.4-1.17-.4h-2.35V67.7h-2.59V54.63h4.99zm17.71-5.28V67.7h-4.71c-1.5 0-2.61-.41-3.33-1.22-.72-.82-1.08-1.79-1.08-2.93V58.8c0-1.23.43-2.22 1.28-2.99.85-.77 1.79-1.15 2.83-1.15h.92c.48 0 .98.1 1.49.29v-5.59h2.6zm-4.12 7.88h-.87c-.47 0-.84.14-1.11.42-.27.28-.41.63-.41 1.06v4.92c0 .43.14.78.41 1.05.27.27.62.41 1.04.41h2.46v-6.38c0-.43-.14-.78-.42-1.06-.29-.28-.66-.42-1.1-.42zm26.91-7.88V67.7h-4.71c-1.5 0-2.61-.41-3.33-1.22-.72-.82-1.08-1.79-1.08-2.93V58.8c0-1.23.43-2.22 1.28-2.99.85-.77 1.79-1.15 2.83-1.15h.92c.48 0 .98.1 1.49.29v-5.59h2.6zm-4.11 7.88h-.87c-.47 0-.84.14-1.11.42-.27.28-.41.63-.41 1.06v4.92c0 .43.14.78.41 1.05.27.27.62.41 1.04.41h2.46v-6.38c0-.43-.14-.78-.42-1.06-.29-.28-.66-.42-1.1-.42zm12.62-2.6h1.1c1.12 0 2.07.41 2.85 1.22.77.82 1.16 1.79 1.16 2.92 0 1.25-.36 2.25-1.07 3-.71.75-1.71 1.13-3 1.14h-2.47v.68c0 .49.13.87.39 1.13.26.26.65.39 1.17.39h.86c.42 0 .73-.09.92-.27.19-.18.3-.38.33-.6h2.74c0 .81-.35 1.59-1.04 2.34-.69.75-1.67 1.13-2.92 1.13h-.96c-1.19 0-2.17-.4-2.94-1.19-.76-.8-1.14-1.74-1.14-2.83V58.6c.01-1.06.38-1.98 1.11-2.78.74-.79 1.71-1.19 2.91-1.19zm-1.44 4.19v1.49h2.45c.44 0 .81-.14 1.08-.43.28-.29.42-.64.42-1.05v-.13c0-.43-.14-.78-.41-1.06-.27-.28-.62-.42-1.06-.42h-1c-.39 0-.73.15-1.03.44-.3.3-.45.68-.45 1.16zm14.28-4.19h1.15c1.11 0 1.99.35 2.66 1.05.67.7 1.06 1.44 1.18 2.22h-2.7a.944.944 0 0 0-.38-.49c-.19-.13-.46-.2-.81-.2h-1.04c-.44 0-.8.12-1.06.37s-.39.56-.39.94v.1c0 .37.15.66.44.85.29.2.62.3.99.3h1.1c1.15 0 2.17.46 3.06 1.39.62.76.93 1.61.93 2.55 0 1.2-.4 2.17-1.21 2.89-.81.73-1.8 1.09-2.98 1.09h-.76c-1.11-.01-2.03-.33-2.76-.98-.73-.65-1.15-1.47-1.26-2.47h2.71c.09.28.26.5.52.65.26.15.55.22.87.22h.54c.62-.01 1.07-.14 1.34-.41.27-.26.41-.6.41-1 0-.37-.13-.69-.4-.95s-.64-.4-1.11-.41h-1c-1.17.01-2.13-.35-2.88-1.08-.75-.73-1.13-1.58-1.13-2.55v-.28c0-1.07.39-1.97 1.16-2.71.77-.72 1.7-1.09 2.81-1.09zm11.85-5.28v2.59h-2.59v-2.59h2.59zm0 5.28V67.7h-2.59V54.63h2.59zm8.64 0h.85c1.23 0 2.24.39 3 1.17.77.78 1.15 1.86 1.15 3.25v9.43c0 1.36-.37 2.43-1.11 3.22-.74.79-1.76 1.19-3.07 1.19h-.84v-2.58h.76c.56 0 .97-.13 1.24-.4s.4-.65.4-1.14v-1.38c-.47.2-1.07.3-1.79.3h-.34c-1.28 0-2.34-.41-3.17-1.22-.83-.82-1.24-1.81-1.24-2.99v-4.63c0-1.23.4-2.25 1.19-3.04.79-.78 1.78-1.18 2.97-1.18zm-1.55 4.08v4.89c0 .44.14.81.41 1.08.27.28.62.42 1.04.42h1.03c.48 0 .85-.12 1.09-.37.24-.25.36-.63.36-1.14V58.7c0-.42-.14-.77-.42-1.05-.28-.28-.65-.42-1.1-.42h-.87c-.43 0-.79.15-1.09.45-.3.29-.45.64-.45 1.03zm16.02-4.08c1.14 0 2.11.39 2.91 1.16.8.77 1.2 1.78 1.2 3.03v8.88h-2.58v-8.86c0-.55-.14-.96-.41-1.22-.27-.27-.66-.4-1.17-.4h-2.35V67.7h-2.59V54.63h4.99zm23.71-5.28c1.31 0 2.39.35 3.25 1.04.86.69 1.29 1.65 1.29 2.87 0 1.14-.38 2.05-1.14 2.75-.76.69-1.83 1.04-3.21 1.04h-.34l2.05 3.87.6-1.13h2.92l-2.07 3.94 2.05 3.96h-2.93l-.67-1.34c-.44.48-.9.83-1.37 1.04-.47.21-1.13.31-1.97.31-1.33 0-2.4-.39-3.19-1.16-.79-.77-1.19-1.78-1.19-3V58.6c.06-1.56.68-2.71 1.86-3.46-.34-.58-.51-1.23-.51-1.94 0-1.15.41-2.08 1.24-2.79.83-.71 1.94-1.06 3.33-1.06zm-3.33 9.16v5.15c0 .43.14.78.41 1.05.27.27.62.41 1.05.41h.73c.73 0 1.28-.43 1.63-1.3l-3.33-6.36v.01c-.33.31-.49.66-.49 1.04zm1.36-5.34v.17c0 .23.16.6.47 1.11h2.19c.4 0 .71-.11.93-.33.22-.22.33-.53.33-.93 0-.36-.12-.66-.36-.9s-.54-.36-.91-.36H205c-.47 0-.82.12-1.07.36s-.36.54-.36.88zm25.12 1.46h.35c1.31 0 2.37.42 3.17 1.25.81.83 1.21 1.85 1.21 3.06v8.75h-4.73c-1.31 0-2.37-.4-3.18-1.2-.82-.8-1.22-1.84-1.22-3.11v-4.47c0-1.32.42-2.36 1.25-3.13.82-.76 1.87-1.15 3.15-1.15zm-1.81 4.12v4.83c0 .46.14.83.41 1.1.27.27.63.41 1.05.41h2.47v-6.41c0-.43-.14-.78-.41-1.05-.27-.27-.62-.41-1.04-.41h-1.02c-.4 0-.75.14-1.04.43-.28.29-.42.65-.42 1.1zm16.01-4.12c1.14 0 2.11.39 2.91 1.16.8.77 1.2 1.78 1.2 3.03v8.88h-2.58v-8.86c0-.55-.14-.96-.41-1.22-.27-.27-.66-.4-1.17-.4h-2.35V67.7h-2.59V54.63h4.99zm11.18-5.28v2.59h-2.59v-2.59h2.59zm0 5.28V67.7h-2.59V54.63h2.59zm9.62 0c.72 0 1.29.12 1.72.36.43.24.74.49.94.77.85-.75 1.78-1.13 2.79-1.13h.98c1.07 0 2.01.4 2.83 1.19.82.79 1.23 1.82 1.23 3.1v8.78h-2.59v-8.75c0-.53-.15-.95-.46-1.27-.31-.31-.67-.47-1.1-.47h-.85c-.4 0-.75.16-1.06.47-.31.31-.46.66-.46 1.05v8.97h-2.59v-9.02c0-.39-.15-.73-.44-1.02-.29-.29-.64-.44-1.02-.44h-2.45V67.7h-2.59V54.63h5.12zm19.02 0h.35c1.31 0 2.37.42 3.17 1.25.81.83 1.21 1.85 1.21 3.06v8.75h-4.73c-1.31 0-2.37-.4-3.18-1.2-.82-.8-1.22-1.84-1.22-3.11v-4.47c0-1.32.42-2.36 1.25-3.13.82-.76 1.87-1.15 3.15-1.15zm-1.8 4.12v4.83c0 .46.14.83.41 1.1.27.27.63.41 1.05.41h2.47v-6.41c0-.43-.14-.78-.41-1.05-.28-.27-.62-.41-1.04-.41h-1.02c-.4 0-.75.14-1.04.43-.28.29-.42.65-.42 1.1zm14.55-9.4v5.28h1.82v2.59h-1.82v6.38c0 .47.14.84.41 1.11.27.27.66.41 1.17.41h.82v2.58h-.85c-1.15 0-2.13-.38-2.94-1.13-.81-.75-1.21-1.75-1.21-2.99v-6.36h-1.78v-2.59h1.78v-5.28h2.6zm8.63 0v2.59h-2.59v-2.59h2.59zm0 5.28V67.7h-2.59V54.63h2.59zm8.45 0h1.15c1.13 0 2.08.41 2.85 1.22s1.16 1.79 1.16 2.95v4.73c0 1.36-.43 2.4-1.28 3.11-.86.71-1.77 1.06-2.74 1.06h-1.08c-1.13 0-2.08-.39-2.86-1.18-.77-.79-1.16-1.73-1.16-2.83v-5.1c0-.98.38-1.89 1.13-2.72.75-.83 1.7-1.24 2.83-1.24zm-1.37 4.17v4.73c0 .48.14.87.42 1.15.28.28.63.42 1.05.42h.98c.43 0 .78-.14 1.07-.43.28-.29.42-.69.42-1.2v-4.64c0-.53-.13-.93-.4-1.2-.27-.27-.63-.41-1.08-.41h-1c-.4 0-.74.15-1.03.44-.29.29-.43.67-.43 1.14zm16-4.17c1.14 0 2.11.39 2.91 1.16.8.77 1.2 1.78 1.2 3.03v8.88h-2.58v-8.86c0-.55-.13-.96-.41-1.22-.27-.27-.66-.4-1.17-.4h-2.35V67.7h-2.59V54.63h4.99z" style="fill:#eceded"/></g></switch></svg>