<svg xmlns="http://www.w3.org/2000/svg" viewBox="0 0 500.2 137" style="enable-background:new 0 0 500.2 137" xml:space="preserve"><path d="M451.3 0c-27 0-48.9 21.9-48.9 48.9s21.9 48.9 48.9 48.9 48.9-21.9 48.9-48.9S478.3 0 451.3 0zm0 89.2c-22.3 0-40.4-18.1-40.4-40.4 0-22.3 18.1-40.4 40.4-40.4 22.3 0 40.4 18.1 40.4 40.4 0 22.3-18.1 40.4-40.4 40.4zm21-51c0-8.8-7.1-16-16-16h-10.1l5.5 8h4.7c4.4 0 7.9 3.6 7.9 7.9 0 3.9-2.9 7.2-6.6 7.8L447 30.2l-5.5-8h-10v49.4h8V32.8l9.1 13.4h-5v8H454l12.1 17.7h9.2l-13-18.9c5.9-2.4 10-8.1 10-14.8zM0 137h6.9L25 110.8h12.4v-5.7h-8.5l13.8-20V137h5.7V79H40L0 137zm63.5-26.2c8.8 0 15.9-7.1 15.9-15.9S72.3 79 63.5 79h-9.8v5.7h9.8c5.6 0 10.2 4.6 10.2 10.2s-4.6 10.2-10.2 10.2H53.2L72.8 137h6.7l-16-26.2zM76.2 79c2 1.6 3.6 3.5 5 5.7h10.5V137h5.7V84.7h11.5V79H76.2zm150 15.9c0-8.8-7.1-15.9-15.9-15.9H192v58h5.7v-26.1h12.6c8.8-.1 15.9-7.2 15.9-16zm-15.9 10.2h-12.6V84.7h12.6c5.6 0 10.2 4.6 10.2 10.2s-4.6 10.2-10.2 10.2zM156.7 137h29.9v-5.7h-24.2v-20.4h24.2v-5.7h-24.2V84.7h24.2V79h-29.9v58zm-21.4-26.2c8.8 0 15.9-7.1 15.9-15.9S144.1 79 135.3 79h-21.1v58h5.7V84.7h15.4c5.6 0 10.2 4.6 10.2 10.2s-4.6 10.2-10.2 10.2h-10.2l19.6 31.8h6.7l-16.1-26.1zM297.1 79h-5.7v58h26.1v-5.7h-20.4V79zm-19.4 28.1c3.5-2.9 5.7-7.3 5.7-12.2 0-8.8-7.1-15.9-15.8-15.9h-16.9v40c0 6.8-5.5 12.2-12.2 12.2-6.8 0-12.2-5.5-12.2-12.2v-10.2c-1.6 1.8-3.5 3.4-5.7 4.6v5.6c0 9.9 8 17.9 17.9 17.9 9.9 0 17.9-8 17.9-17.9V84.7h11.1c5.6 0 10.2 4.6 10.2 10.2s-4.6 10.2-10.2 10.2h-5.7v5.7h8.4c5.7 0 10.2 4.6 10.2 10.2s-4.6 10.2-10.2 10.2h-12c-1.3 2.2-3 4.1-5 5.7h16.9c8.8 0 15.9-7.1 15.9-15.9 0-6-3.3-11.2-8.3-13.9zm45.1 29.9h5.7V79h-5.7v58zm67.7-58h-8.4v42c-4.2 6.2-11.3 10.2-19.3 10.2-12.9 0-23.3-10.4-23.3-23.3s10.4-23.3 23.3-23.3c1 0 1.9.1 2.9.2l3.8-5.1c-2.1-.5-4.4-.8-6.7-.8-16 0-29 13-29 29s13 29 29 29c7.4 0 14.2-2.8 19.3-7.4v7.4h5.7V85.1l13.8 20h-8.5v5.7h12.4l18.1 26.1h6.9l-40-57.9zM47.8 44.7c1.5 0 2.8.5 3.7 1.5.9 1 1.5 2 1.6 3.1h-3.8c-.2-.5-.7-1-1.7-1h-1.5c-1.2 0-2 .8-2 1.8v.1c0 .5.2.9.6 1.2.4.3.9.4 1.4.4h1.5c1.6 0 3 .6 4.3 1.9.9 1.1 1.3 2.2 1.3 3.6 0 1.7-.6 3-1.7 4s-2.5 1.5-4.2 1.5h-1.1c-1.5 0-2.8-.5-3.9-1.4s-1.6-2-1.8-3.4h3.8c.3.8 1 1.2 1.9 1.2h.8c1.7 0 2.4-.8 2.4-2 0-1-.8-1.9-2.1-1.9h-1.5c-1.6 0-2.9-.5-4-1.5-1-1-1.6-2.2-1.6-3.6V50c0-1.5.5-2.8 1.6-3.8s2.4-1.5 3.9-1.5h2.1zm14.7-7.4v7.4H65v3.6h-2.5v8.9c0 1.3.8 2.1 2.2 2.1h1.1v3.6h-1.2c-1.6 0-3-.5-4.1-1.6s-1.7-2.4-1.7-4.2v-8.9h-2.5v-3.6h2.5v-7.4h3.7zm10.4 7.4v12.5c0 1.3.7 2.1 2.2 2.1h1c1.3 0 2.2-.9 2.2-2.3V44.7H82V57c0 1.8-.6 3.2-1.8 4.3-1.2 1.1-2.5 1.6-4.1 1.6H75c-1.7 0-3.1-.5-4.2-1.6s-1.6-2.4-1.6-4V44.7h3.7zm26.5-7.4v25.6h-6.6c-2.1 0-3.7-.6-4.6-1.7s-1.5-2.5-1.5-4.1v-6.6c0-1.7.6-3.1 1.8-4.2 1.2-1.1 2.5-1.6 3.9-1.6h1.3c.7 0 1.4.1 2.1.4v-7.8h3.6zm-6.9 11c-1.3 0-2.1.9-2.1 2.1v6.9c0 1.2.9 2 2 2h3.4v-8.9c0-1.2-.9-2.1-2.1-2.1h-1.2zm15.2-11v3.6h-3.6v-3.6h3.6zm0 7.4v18.2h-3.6V44.7h3.6zm11.8 0c1.6 0 2.9.6 4 1.7s1.6 2.5 1.6 4.1v6.6c0 1.9-.6 3.3-1.8 4.3-1.2 1-2.5 1.5-3.8 1.5H118c-1.6 0-2.9-.6-4-1.7s-1.6-2.4-1.6-3.9v-7.1c0-1.4.5-2.6 1.6-3.8 1-1.1 2.4-1.7 3.9-1.7h1.6zM116 57.1c0 1.4.9 2.2 2.1 2.2h1.4c1.2 0 2.1-.8 2.1-2.3v-6.5c0-1.5-.8-2.2-2.1-2.2H118c-.6 0-1 .2-1.4.6-.4.4-.6.9-.6 1.6v6.6zm37.7-19.8v25.6h-6.6c-2.1 0-3.7-.6-4.6-1.7s-1.5-2.5-1.5-4.1v-6.6c0-1.7.6-3.1 1.8-4.2 1.2-1.1 2.5-1.6 3.9-1.6h1.3c.7 0 1.4.1 2.1.4v-7.8h3.6zm-6.9 11c-1.3 0-2.1.9-2.1 2.1v6.9c0 1.2.9 2 2 2h3.4v-8.9c0-1.2-.9-2.1-2.1-2.1h-1.2zm21.8-3.7v3.6l-6.5 11h6.5v3.6h-10.7v-3.6l6.5-11h-6.5v-3.6h10.7zm-1-7.3-1.4 3.6h-5.9l1.3-3.6h6zm8.8 7.4v12.6c0 1.2.9 2.1 2.2 2.1h1c1.4 0 2.2-.8 2.2-2.3V44.7h3.6v12.4c0 1.3.9 2.2 2.3 2.2h1c.7 0 1.3-.2 1.7-.6.4-.4.6-.9.6-1.5V44.7h3.6v12.6c0 1.4-.5 2.7-1.5 3.9-1 1.2-2.4 1.8-4.3 1.8h-1.2c-1.5 0-2.8-.5-4-1.6-1.2 1.1-2.5 1.6-4 1.6h-1.1c-1.8 0-3.2-.6-4.2-1.7s-1.6-2.4-1.6-3.9V44.7h3.7zm26.5-7.4v3.6h-3.6v-3.6h3.6zm0 7.4v18.2h-3.6V44.7h3.6zm17.2 13.4 2.3 8.5h-3.8l-1.1-4.2c-.8.4-1.8.6-2.9.6h-1.3c-1.7 0-3-.6-4.1-1.7-1.1-1.1-1.6-2.4-1.6-3.9v-7.1c0-1.5.5-2.8 1.6-3.9 1-1.1 2.4-1.7 4.1-1.7h1.5c1.6 0 2.9.6 4 1.7s1.6 2.5 1.6 4.1c0 1.7-.5 3.1-1.5 4.2-1 1-2.4 1.6-4.2 1.6h-3.4v.9c0 1.4.7 2.1 2.2 2.1h1.2c1.2 0 1.7-.6 1.7-1.2h3.7zm-8.9-5.5h3.4c.6 0 1.1-.2 1.5-.6.4-.4.6-.9.6-1.5v-.2c0-1.2-.8-2.1-2-2.1h-1.4c-.5 0-1 .2-1.4.6-.4.4-.6 1-.6 1.6v2.2zm13.7-15.3h3.6v13.5l3.5-6.1h4.1l-4.4 7.7 5.5 10.5h-4l-4.7-8.9v8.9h-3.6V37.3zm23 7.4c1.6 0 2.9.6 4 1.7s1.6 2.5 1.6 4.1v6.6c0 1.9-.6 3.3-1.8 4.3-1.2 1-2.5 1.5-3.8 1.5h-1.5c-1.6 0-2.9-.6-4-1.7s-1.6-2.4-1.6-3.9v-7.1c0-1.4.5-2.6 1.6-3.8 1-1.1 2.4-1.7 3.9-1.7h1.6zm-3.5 12.4c0 1.4.9 2.2 2.1 2.2h1.4c1.2 0 2.1-.8 2.1-2.3v-6.5c0-1.5-.8-2.2-2.1-2.2h-1.4c-.6 0-1 .2-1.4.6-.4.4-.6.9-.6 1.6v6.6zm17.3-12.4v12.6c0 1.2.9 2.1 2.2 2.1h1c1.4 0 2.2-.8 2.2-2.3V44.7h3.6v12.4c0 1.3.9 2.2 2.3 2.2h1c.7 0 1.3-.2 1.7-.6.4-.4.6-.9.6-1.5V44.7h3.6v12.6c0 1.4-.5 2.7-1.5 3.9-1 1.2-2.4 1.8-4.3 1.8H273c-1.5 0-2.8-.5-4-1.6-1.2 1.1-2.5 1.6-4 1.6h-1.1c-1.8 0-3.2-.6-4.2-1.7s-1.6-2.4-1.6-3.9V44.7h3.6zm30.1 0c1.6 0 2.9.6 4 1.7s1.6 2.5 1.6 4.1c0 1.7-.5 3.1-1.5 4.2-1 1-2.4 1.6-4.2 1.6h-3.4v.9c0 1.4.7 2.1 2.2 2.1h1.2c1.2 0 1.7-.6 1.7-1.2h3.8c0 1.1-.5 2.2-1.5 3.3-1 1-2.3 1.6-4.1 1.6h-1.3c-1.7 0-3-.6-4.1-1.7-1.1-1.1-1.6-2.4-1.6-3.9v-7.1c0-1.5.5-2.8 1.6-3.9 1-1.1 2.4-1.7 4.1-1.7h1.5zm-3.6 7.9h3.4c.6 0 1.1-.2 1.5-.6.4-.4.6-.9.6-1.5v-.2c0-1.2-.8-2.1-2-2.1h-1.4c-.5 0-1 .2-1.4.6-.4.4-.6 1-.6 1.6v2.2z" style="fill:#e6e7e8"/></svg>