<svg xmlns="http://www.w3.org/2000/svg" viewBox="0 0 56.7 56.7" style="enable-background:new 0 0 56.7 56.7" xml:space="preserve"><path d="M47.6 1.4H19.4c-4.2 0-7.7 3.4-7.7 7.7v5.1c0 4.2 3.4 7.7 7.7 7.7h28.2c4.2 0 7.7-3.4 7.7-7.7V9.1c0-4.2-3.5-7.7-7.7-7.7zm0 11.9c0 .5-.4 1-1 1H20.3c-.5 0-1-.4-1-1v-3.2c0-.5.4-1 1-1h26.3c.5 0 1 .4 1 1v3.2z"/><path d="M19.4 24.5H9.1V1.4H1.4v30.8H27c.1-4.3-3.4-7.7-7.6-7.7zm-7.7 18h7.7v4.2c0 .5-.4 1-1 1h-8.3c-.5 0-1-.4-1-1V34.8H1.4v12.8c0 4.2 3.4 7.7 7.7 7.7h10.3c4.2 0 7.7-3.4 7.7-7.7V34.8H11.7v7.7zm35.9-18H37.3c-4.2 0-7.7 3.4-7.7 7.7v15.4c0 4.2 3.4 7.7 7.7 7.7h10.3c4.2 0 7.7-3.4 7.7-7.7V32.2c0-4.3-3.5-7.7-7.7-7.7zm0 22.1c0 .5-.4 1-1 1h-8.3c-.5 0-1-.4-1-1V33.2c0-.5.4-1 1-1h8.3c.5 0 1 .4 1 1v13.4z"/></svg>