<svg xmlns="http://www.w3.org/2000/svg" viewBox="0 0 425.2 425.2" style="enable-background:new 0 0 425.2 425.2" xml:space="preserve"><path d="M212.6 0C95.2 0 0 95.2 0 212.6 0 330 95.2 425.2 212.6 425.2c117.4 0 212.6-95.2 212.6-212.6C425.2 95.2 330 0 212.6 0zm0 388.2c-97 0-175.6-78.6-175.6-175.6S115.6 37 212.6 37s175.6 78.6 175.6 175.6-78.6 175.6-175.6 175.6zm91.2-221.8c0-38.3-31.1-69.4-69.4-69.4h-44.1l23.8 34.9h20.3c19.1 0 34.6 15.5 34.6 34.6 0 17.2-12.5 31.3-28.9 34L193.4 132l-23.9-35h-43.6v214.8h34.9V142.7l39.7 58.3h-21.6v34.9h45.4l52.5 77h39.8l-56.1-82.2c25.4-10.4 43.3-35.2 43.3-64.3z" style="fill:#e2001a"/></svg>