<svg xmlns="http://www.w3.org/2000/svg" viewBox="0 0 425.2 425.2" style="enable-background:new 0 0 425.2 425.2" xml:space="preserve"><switch><g><path d="M212.59 0C95.17 0 0 95.18 0 212.6c0 117.42 95.17 212.6 212.59 212.6 117.43 0 212.6-95.18 212.6-212.6C425.2 95.18 330.02 0 212.59 0zm0 388.22c-97 0-175.64-78.64-175.64-175.63 0-96.98 78.64-175.62 175.64-175.62 96.98 0 175.62 78.64 175.62 175.62.01 96.99-78.63 175.63-175.62 175.63zm91.16-221.79c0-38.34-31.1-69.43-69.43-69.43h-44.07l23.78 34.87h20.29c19.07 0 34.56 15.47 34.56 34.55 0 17.15-12.54 31.27-28.92 33.98l-46.73-68.53L169.45 97h-43.57v214.82h34.9V142.67l39.75 58.3h-21.6v34.89h45.37l52.53 77.03h39.83l-56.06-82.22c25.32-10.37 43.15-35.2 43.15-64.24z"/></g></switch></svg>