<?xml version="1.0" encoding="utf-8"?>
<!-- Generator: Adobe Illustrator 26.3.1, SVG Export Plug-In . SVG Version: 6.00 Build 0)  -->
<svg version="1.1" id="Layer_1" xmlns="http://www.w3.org/2000/svg" xmlns:xlink="http://www.w3.org/1999/xlink" x="0px" y="0px"
	 viewBox="0 0 500.2 137" style="enable-background:new 0 0 500.2 137;" xml:space="preserve">
<style type="text/css">
	.st0{fill:#E6E7E8;}
</style>
<g>
	<path class="st0" d="M451.3,0c-27,0-48.9,21.9-48.9,48.9c0,27,21.9,48.9,48.9,48.9c27,0,48.9-21.9,48.9-48.9
		C500.2,21.9,478.3,0,451.3,0z M451.3,89.2c-22.3,0-40.4-18.1-40.4-40.4c0-22.3,18.1-40.4,40.4-40.4c22.3,0,40.4,18.1,40.4,40.4
		C491.7,71.1,473.6,89.2,451.3,89.2z M472.3,38.2c0-8.8-7.1-16-16-16h-10.1l5.5,8h4.7c4.4,0,7.9,3.6,7.9,7.9c0,3.9-2.9,7.2-6.6,7.8
		l-10.7-15.7l-5.5-8h-10v49.4h8V32.8l9.1,13.4h-5v8H454l12.1,17.7h9.2L462.3,53C468.2,50.6,472.3,44.9,472.3,38.2z"/>
	<path class="st0" d="M0,137h6.9L25,110.8h12.4v-5.7h-8.5l13.8-20V137h5.7V79h-8.4L0,137z M63.5,110.8c8.8,0,15.9-7.1,15.9-15.9
		c0-8.8-7.1-15.9-15.9-15.9h-9.8v5.7h9.8c5.6,0,10.2,4.6,10.2,10.2c0,5.6-4.6,10.2-10.2,10.2H53.2L72.8,137h6.7L63.5,110.8
		L63.5,110.8z M76.2,79c2,1.6,3.6,3.5,5,5.7h10.5V137h5.7V84.7h11.5V79H76.2z"/>
	<path class="st0" d="M226.2,94.9c0-8.8-7.1-15.9-15.9-15.9H192v58h5.7v-26.1h12.6C219.1,110.8,226.2,103.7,226.2,94.9z
		 M210.3,105.1h-12.6V84.7h12.6c5.6,0,10.2,4.6,10.2,10.2C220.5,100.5,215.9,105.1,210.3,105.1z M156.7,137h29.9v-5.7h-24.2v-20.4
		h24.2v-5.7h-24.2V84.7h24.2V79h-29.9V137z M135.3,110.8c8.8,0,15.9-7.1,15.9-15.9c0-8.8-7.1-15.9-15.9-15.9h-21.1v58h5.7V84.7h15.4
		c5.6,0,10.2,4.6,10.2,10.2c0,5.6-4.6,10.2-10.2,10.2h-10.2l19.6,31.8h6.7L135.3,110.8L135.3,110.8z M297.1,79h-5.7v52.3h0v5.7h26.1
		v-5.7h-20.4V79z M277.7,107.1c3.5-2.9,5.7-7.3,5.7-12.2c0-8.8-7.1-15.9-15.8-15.9v0h-16.9V119c0,6.8-5.5,12.2-12.2,12.2
		c-6.8,0-12.2-5.5-12.2-12.2v-10.2c-1.6,1.8-3.5,3.4-5.7,4.6v5.6c0,9.9,8,17.9,17.9,17.9c9.9,0,17.9-8,17.9-17.9V84.7h11.1
		c5.6,0,10.2,4.6,10.2,10.2c0,5.6-4.6,10.2-10.2,10.2h-3.1v0h-2.6v5.7h5.7c0,0,0,0,0.1,0h2.6c5.7,0,10.2,4.6,10.2,10.2
		c0,5.6-4.6,10.2-10.2,10.2h-12c-1.3,2.2-3,4.1-5,5.7h16.9c8.8,0,15.9-7.1,15.9-15.9C286,115,282.7,109.8,277.7,107.1z M322.8,137
		h5.7V79h-5.7V137z M390.5,79h-8.4V121l0,0c-4.2,6.2-11.3,10.2-19.3,10.2c-12.9,0-23.3-10.4-23.3-23.3c0-12.9,10.4-23.3,23.3-23.3
		c1,0,1.9,0.1,2.9,0.2l3.8-5.1c-2.1-0.5-4.4-0.8-6.7-0.8c-16,0-29,13-29,29c0,16,13,29,29,29c7.4,0,14.2-2.8,19.3-7.4v7.4h5.7V85.1
		l13.8,20h-8.5v5.7h12.4l18.1,26.1h6.9L390.5,79z"/>
	<g>
		<path class="st0" d="M47.8,44.7c1.5,0,2.8,0.5,3.7,1.5c0.9,1,1.5,2,1.6,3.1h-3.8c-0.2-0.5-0.7-1-1.7-1h-1.5c-1.2,0-2,0.8-2,1.8
			v0.1c0,0.5,0.2,0.9,0.6,1.2c0.4,0.3,0.9,0.4,1.4,0.4h1.5c1.6,0,3,0.6,4.3,1.9c0.9,1.1,1.3,2.2,1.3,3.6c0,1.7-0.6,3-1.7,4
			c-1.1,1-2.5,1.5-4.2,1.5h-1.1c-1.5,0-2.8-0.5-3.9-1.4s-1.6-2-1.8-3.4h3.8c0.3,0.8,1,1.2,1.9,1.2h0.8c1.7,0,2.4-0.8,2.4-2
			c0-1-0.8-1.9-2.1-1.9h-1.4c0,0,0,0-0.1,0c-1.6,0-2.9-0.5-4-1.5c-1-1-1.6-2.2-1.6-3.6V50c0-1.5,0.5-2.8,1.6-3.8
			c1.1-1,2.4-1.5,3.9-1.5H47.8z"/>
		<path class="st0" d="M62.5,37.3v7.4H65v3.6h-2.5v8.9c0,1.3,0.8,2.1,2.2,2.1h1.1v3.6h-1.2c-1.6,0-3-0.5-4.1-1.6s-1.7-2.4-1.7-4.2
			v-8.9h-2.5v-3.6h2.5v-7.4H62.5z"/>
		<path class="st0" d="M72.9,44.7v12.5c0,1.3,0.7,2.1,2.2,2.1h1c1.3,0,2.2-0.9,2.2-2.3V44.7H82V57c0,1.8-0.6,3.2-1.8,4.3
			c-1.2,1.1-2.5,1.6-4.1,1.6h-1.1c-1.7,0-3.1-0.5-4.2-1.6c-1.1-1.1-1.6-2.4-1.6-4V44.7H72.9z"/>
		<path class="st0" d="M99.4,37.3v25.6h-6.6c-2.1,0-3.7-0.6-4.6-1.7s-1.5-2.5-1.5-4.1v-6.6c0-1.7,0.6-3.1,1.8-4.2
			c1.2-1.1,2.5-1.6,3.9-1.6h1.3c0.7,0,1.4,0.1,2.1,0.4v-7.8H99.4z M92.5,48.3c-1.3,0-2.1,0.9-2.1,2.1v6.9c0,1.2,0.9,2,2,2h3.4v-8.9
			c0-1.2-0.9-2.1-2.1-2.1H92.5z"/>
		<path class="st0" d="M107.7,37.3v3.6h-3.6v-3.6H107.7z M107.7,44.7v18.2h-3.6V44.7H107.7z"/>
		<path class="st0" d="M119.5,44.7c1.6,0,2.9,0.6,4,1.7c1.1,1.1,1.6,2.5,1.6,4.1v6.6c0,1.9-0.6,3.3-1.8,4.3c-1.2,1-2.5,1.5-3.8,1.5
			H118c-1.6,0-2.9-0.6-4-1.7c-1.1-1.1-1.6-2.4-1.6-3.9v-7.1c0-1.4,0.5-2.6,1.6-3.8c1-1.1,2.4-1.7,3.9-1.7H119.5z M116,57.1
			c0,1.4,0.9,2.2,2.1,2.2h1.4c1.2,0,2.1-0.8,2.1-2.3v-6.5c0-1.5-0.8-2.2-2.1-2.2H118c-0.6,0-1,0.2-1.4,0.6c-0.4,0.4-0.6,0.9-0.6,1.6
			V57.1z"/>
		<path class="st0" d="M153.7,37.3v25.6h-6.6c-2.1,0-3.7-0.6-4.6-1.7s-1.5-2.5-1.5-4.1v-6.6c0-1.7,0.6-3.1,1.8-4.2
			c1.2-1.1,2.5-1.6,3.9-1.6h1.3c0.7,0,1.4,0.1,2.1,0.4v-7.8H153.7z M146.8,48.3c-1.3,0-2.1,0.9-2.1,2.1v6.9c0,1.2,0.9,2,2,2h3.4
			v-8.9c0-1.2-0.9-2.1-2.1-2.1H146.8z"/>
		<path class="st0" d="M168.6,44.6v3.6l-6.5,11h6.5v3.6h-10.7v-3.6l6.5-11h-6.5v-3.6H168.6z M167.6,37.3l-1.4,3.6h-5.9l1.3-3.6
			H167.6z"/>
		<path class="st0" d="M176.4,44.7v12.6c0,1.2,0.9,2.1,2.2,2.1h1c1.4,0,2.2-0.8,2.2-2.3V44.7h3.6v12.4c0,1.3,0.9,2.2,2.3,2.2h1
			c0.7,0,1.3-0.2,1.7-0.6c0.4-0.4,0.6-0.9,0.6-1.5V44.7h3.6v12.6c0,1.4-0.5,2.7-1.5,3.9c-1,1.2-2.4,1.8-4.3,1.8h-1.2
			c-1.5,0-2.8-0.5-4-1.6c-1.2,1.1-2.5,1.6-4,1.6h-1.1c-1.8,0-3.2-0.6-4.2-1.7c-1-1.1-1.6-2.4-1.6-3.9V44.7H176.4z"/>
		<path class="st0" d="M202.9,37.3v3.6h-3.6v-3.6H202.9z M202.9,44.7v18.2h-3.6V44.7H202.9z"/>
		<path class="st0" d="M220.1,58.1l2.3,8.5h-3.8l-1.1-4.2c-0.8,0.4-1.8,0.6-2.9,0.6h-1.3c-1.7,0-3-0.6-4.1-1.7
			c-1.1-1.1-1.6-2.4-1.6-3.9v-7.1c0-1.5,0.5-2.8,1.6-3.9c1-1.1,2.4-1.7,4.1-1.7h1.5c1.6,0,2.9,0.6,4,1.7s1.6,2.5,1.6,4.1
			c0,1.7-0.5,3.1-1.5,4.2c-1,1-2.4,1.6-4.2,1.6h-3.4v0.9c0,1.4,0.7,2.1,2.2,2.1h1.2c1.2,0,1.7-0.6,1.7-1.2H220.1z M211.2,52.6h3.4
			c0.6,0,1.1-0.2,1.5-0.6c0.4-0.4,0.6-0.9,0.6-1.5v-0.2c0-1.2-0.8-2.1-2-2.1h-1.4c-0.5,0-1,0.2-1.4,0.6c-0.4,0.4-0.6,1-0.6,1.6V52.6
			z"/>
		<path class="st0" d="M224.9,37.3h3.6v13.5l3.5-6.1h4.1l-4.4,7.7l5.5,10.5h-4l-4.7-8.9v8.9h-3.6V37.3z"/>
		<path class="st0" d="M247.9,44.7c1.6,0,2.9,0.6,4,1.7c1.1,1.1,1.6,2.5,1.6,4.1v6.6c0,1.9-0.6,3.3-1.8,4.3c-1.2,1-2.5,1.5-3.8,1.5
			h-1.5c-1.6,0-2.9-0.6-4-1.7c-1.1-1.1-1.6-2.4-1.6-3.9v-7.1c0-1.4,0.5-2.6,1.6-3.8c1-1.1,2.4-1.7,3.9-1.7H247.9z M244.4,57.1
			c0,1.4,0.9,2.2,2.1,2.2h1.4c1.2,0,2.1-0.8,2.1-2.3v-6.5c0-1.5-0.8-2.2-2.1-2.2h-1.4c-0.6,0-1,0.2-1.4,0.6
			c-0.4,0.4-0.6,0.9-0.6,1.6V57.1z"/>
		<path class="st0" d="M261.7,44.7v12.6c0,1.2,0.9,2.1,2.2,2.1h1c1.4,0,2.2-0.8,2.2-2.3V44.7h3.6v12.4c0,1.3,0.9,2.2,2.3,2.2h1
			c0.7,0,1.3-0.2,1.7-0.6c0.4-0.4,0.6-0.9,0.6-1.5V44.7h3.6v12.6c0,1.4-0.5,2.7-1.5,3.9c-1,1.2-2.4,1.8-4.3,1.8H273
			c-1.5,0-2.8-0.5-4-1.6c-1.2,1.1-2.5,1.6-4,1.6h-1.1c-1.8,0-3.2-0.6-4.2-1.7c-1-1.1-1.6-2.4-1.6-3.9V44.7H261.7z"/>
		<path class="st0" d="M291.8,44.7c1.6,0,2.9,0.6,4,1.7s1.6,2.5,1.6,4.1c0,1.7-0.5,3.1-1.5,4.2c-1,1-2.4,1.6-4.2,1.6h-3.4v0.9
			c0,1.4,0.7,2.1,2.2,2.1h1.2c1.2,0,1.7-0.6,1.7-1.2h3.8c0,1.1-0.5,2.2-1.5,3.3c-1,1-2.3,1.6-4.1,1.6h-1.3c-1.7,0-3-0.6-4.1-1.7
			c-1.1-1.1-1.6-2.4-1.6-3.9v-7.1c0-1.5,0.5-2.8,1.6-3.9c1-1.1,2.4-1.7,4.1-1.7H291.8z M288.2,52.6h3.4c0.6,0,1.1-0.2,1.5-0.6
			c0.4-0.4,0.6-0.9,0.6-1.5v-0.2c0-1.2-0.8-2.1-2-2.1h-1.4c-0.5,0-1,0.2-1.4,0.6c-0.4,0.4-0.6,1-0.6,1.6V52.6z"/>
	</g>
</g>
</svg>
