<svg xmlns="http://www.w3.org/2000/svg" viewBox="0 0 56.7 56.7" style="enable-background:new 0 0 56.7 56.7" xml:space="preserve"><path d="m19.4 48.6 2.1 6.6h-1.4l-1.2-4-1.2 4h-1.4l2.1-6.6h1zm-3-17.5h-2.5V45h2.5V31.1zM8 52.2l1.8 3.1H8.3l-1.9-3.5v3.5H5v-6.6h2.3c.9 0 1.7.7 1.7 1.7v.4c0 .5-.4 1.1-1 1.4zm-.3-1.9c0-.2-.2-.4-.4-.4h-1v1h1c.2 0 .4-.2.4-.4v-.2zM22.8 45h2.5V31.1h-2.5V45zm14.6-31.8c-.7 0-1.3.6-1.3 1.3 0 .7.6 1.3 1.3 1.3.7 0 1.3-.6 1.3-1.3 0-.7-.6-1.3-1.3-1.3zm10.3 15.2V11c0-2.6-1-5-2.8-6.8-2.2-2.2-5.6-3.1-8.8-2.4l-3 .6-3.9-.8c-1.9-.4-3.7.3-4.8 1.8-.6.8-.9 1.8-.9 2.8v2C13.2 8.8 5 17.4 5 27.9V45h2.5V28.6l16-11 17.1 11V45h2.5V27.2L23.4 14.5 7.7 25.4c1.2-8.3 8.4-14.7 17.1-14.7h1.3V6.1c0-.5.1-.9.4-1.3.5-.7 1.4-1 2.3-.8l4.4.9 3.5-.7c2.3-.5 4.8.1 6.4 1.8 1.3 1.3 2.1 3.1 2.1 5v17.5c0 3.6 2.9 6.5 6.5 6.5v-2.5c-2.2-.1-4-1.9-4-4.1zm-4.6 20.2h-3.4V50h1.8l-1.8 4.1v1.2h3.4V54h-1.8l1.8-4.2v-1.2zm-12.6 2.5c-.3-.1-.7-.3-.7-.6s.3-.6.6-.6c.1 0 .3.1.4.1.1.1.1.1.1.2l.1.2 1.2-.5-.2-.1c-.1-.2-.3-.4-.4-.6-.3-.3-.8-.5-1.3-.5-1 0-1.9.8-1.9 1.9 0 .9.6 1.6 1.7 1.9.9.2.9.6.9.8 0 .4-.4.8-.8.8-.3 0-.6-.2-.7-.5-.1-.2-.1-.4-.1-.4l-1.3.3s0 .3.2.6c.3.7 1.1 1.2 1.9 1.2 1.2 0 2.1-.9 2.1-2.1.1-.6-.1-1.7-1.8-2.1zm1.9-13.5L29.5 45h2.7l2.6-6.9v-6.9h-2.5v6.4z" style="fill:#fff"/></svg>