<?xml version="1.0" encoding="utf-8"?>
<!-- Generator: Adobe Illustrator 27.2.0, SVG Export Plug-In . SVG Version: 6.00 Build 0)  -->
<svg version="1.1" id="Layer_1" xmlns="http://www.w3.org/2000/svg" xmlns:xlink="http://www.w3.org/1999/xlink" x="0px" y="0px"
	 viewBox="0 0 566.9 566.9" style="enable-background:new 0 0 566.9 566.9;" xml:space="preserve">
<g>
	<g>
		<path d="M143.5,391.7h0.1H143.5z"/>
		<path d="M207.7,289c-21.8-15.8-52.5-12.2-70.1,8.2c-12.7,14.7-15.6,34.3-9.8,51.2c-2.4,1.2-4.4,3.1-5.8,5.7
			c-3.3,6-1.3,13.5,4.1,17.7c6.5,4.9,11.4,4.8,14.2,7c0.9,0.8,1.4,1.9,1.3,3c-0.2,2.8,0.8,5.6,2.9,7.5c0.7,0.7,1.6,1.3,2.4,1.8
			c2.2,1.3,4.8,1.3,7.3,0.7c1-0.3,2.1-0.1,3,0.6c4.3,3.4,4,5.2,10.8,10.6c6.2,4.9,11.2,5.9,17.3,1.4c5.5-4.1,13.3-10.5,13.3-10.5
			c1-0.8,2.3-0.9,3.4-0.4c2.4,1.2,5.5,0.6,7.2-1.6c0.6-0.8,1-1.7,1.2-2.7l2.8-16.6c0.2-1,0.5-1.9,1.2-2.8c0.9-1,2.1-1.9,3.1-3
			c7.7-7.4,12-18.9,11.4-30.9C230.7,318.3,223.3,300.3,207.7,289z"/>
	</g>
	<path d="M119.6,361.6l-12.8,5.5c-35.2,15.3-76.5,73.6-89.9,199.7h153.2l-7.7-169.9C157.8,369.8,138.3,353.6,119.6,361.6z"/>
</g>
<g>
	<g>
		<path d="M293.5,391.7L293.5,391.7L293.5,391.7z"/>
		<path d="M357.7,289c-21.8-15.8-52.5-12.2-70.1,8.2c-12.7,14.7-15.6,34.3-9.8,51.2c-2.4,1.2-4.4,3.1-5.8,5.7
			c-3.3,6-1.3,13.5,4.1,17.7c6.5,4.9,11.4,4.8,14.2,7c0.9,0.8,1.4,1.9,1.3,3c-0.2,2.8,0.8,5.6,2.9,7.5c0.7,0.7,1.6,1.3,2.4,1.8
			c2.2,1.3,4.8,1.3,7.3,0.7c1-0.3,2.1-0.1,3,0.6c4.3,3.4,4,5.2,10.8,10.6c6.2,4.9,11.2,5.9,17.3,1.4c5.5-4.1,13.3-10.5,13.3-10.5
			c1-0.8,2.3-0.9,3.4-0.4c2.4,1.2,5.5,0.6,7.2-1.6c0.6-0.8,1-1.7,1.2-2.7l2.8-16.6c0.2-1,0.5-1.9,1.2-2.8c0.9-1,2.1-1.9,3.1-3
			c7.7-7.4,12-18.9,11.4-30.9C380.6,318.3,373.2,300.3,357.7,289z"/>
	</g>
	<path d="M269.6,361.6l-12.8,5.5c-35.2,15.3-76.5,73.6-89.9,199.7H320l-7.7-169.9C307.8,369.8,288.2,353.6,269.6,361.6z"/>
</g>
<g>
	<g>
		<path d="M443.4,391.7L443.4,391.7L443.4,391.7z"/>
		<path d="M507.6,289c-21.8-15.8-52.5-12.2-70.1,8.2c-12.7,14.7-15.6,34.3-9.8,51.2c-2.4,1.2-4.4,3.1-5.8,5.7
			c-3.3,6-1.3,13.5,4.1,17.7c6.5,4.9,11.4,4.8,14.2,7c0.9,0.8,1.4,1.9,1.3,3c-0.2,2.8,0.8,5.6,2.9,7.5c0.7,0.7,1.6,1.3,2.4,1.8
			c2.2,1.3,4.8,1.3,7.3,0.7c1-0.3,2.1-0.1,3,0.6c4.3,3.4,4,5.2,10.8,10.6c6.2,4.9,11.2,5.9,17.3,1.4c5.5-4.1,13.3-10.5,13.3-10.5
			c1-0.8,2.3-0.9,3.4-0.4c2.4,1.2,5.5,0.6,7.2-1.6c0.6-0.8,1-1.7,1.2-2.7l2.8-16.6c0.2-1,0.5-1.9,1.2-2.8c0.9-1,2.1-1.9,3.1-3
			c7.7-7.4,12-18.9,11.4-30.9C530.6,318.3,523.2,300.3,507.6,289z"/>
	</g>
	<path d="M419.5,361.6l-12.8,5.5c-35.2,15.3-76.5,73.6-89.9,199.7H470l-7.7-169.9C457.7,369.8,438.2,353.6,419.5,361.6z"/>
</g>
<g>
	<path d="M451.8,127.5l57.3-23.3l-61.8,0.4l44.1-43.4l-57,24.1l24.1-57l-43.4,44.1l0.4-61.8l-23.3,57.3l-23.3-57.3l0.4,61.8
		l-43.4-44.1l24.1,57l-57-24.1l44.1,43.4l-61.8-0.4l57.3,23.3l-57.3,23.3l61.8-0.4L293,193.8l57-24.1l-24.1,57l43.4-44.1l-0.4,61.8
		l23.3-57.3l23.3,57.3l-0.4-61.8l43.4,44.1l-24.1-57l57,24.1l-44.1-43.4l61.8,0.4L451.8,127.5z M392.2,174.8
		c-26.1,0-47.3-21.2-47.3-47.3s21.2-47.3,47.3-47.3s47.3,21.2,47.3,47.3S418.3,174.8,392.2,174.8z"/>
	<polygon points="392.2,121.7 382.2,111.7 398.1,95.8 392.2,90 370.6,111.7 386.4,127.5 376.4,137.5 360.6,121.7 354.7,127.5 
		376.4,149.2 392.2,133.3 402.2,143.3 386.4,159.2 392.2,165 413.9,143.3 398.1,127.5 408.1,117.5 423.9,133.3 429.7,127.5 
		408.1,105.8 	"/>
</g>
<g id="Layer_2_00000114061522969056587480000014446228227896117928_">
</g>
</svg>
