<?xml version="1.0" encoding="utf-8"?>
<!-- Generator: Adobe Illustrator 27.2.0, SVG Export Plug-In . SVG Version: 6.00 Build 0)  -->
<svg version="1.1" id="Layer_1" xmlns="http://www.w3.org/2000/svg" xmlns:xlink="http://www.w3.org/1999/xlink" x="0px" y="0px"
	 viewBox="0 0 566.9 566.9" style="enable-background:new 0 0 566.9 566.9;" xml:space="preserve">
<path d="M286.3,118.2c4.5-8.5,4.9-18.4,2.3-27.6c-4.7-16.1-0.1-35.2,21.4-62.3c-65.4,35.3-73,81.1-58.1,123.4
	C266.7,141.6,279.4,131.2,286.3,118.2z"/>
<path d="M282.9,349.4c14.4,0,28-3.1,40.3-8.7c-0.4,0.4-0.9,0.7-1.3,1.1c35.3-14.8,60.1-49.7,60.1-90.4c0-49.4-21.4-79-43.9-102
	c10.5,38.1-3.5,62.3-28.2,89.2c-21.1,23-40.4,43.4-22.9,70.7c-39.9-16.8-40.1-57.5-9.3-86.1c42.6-39.5,87.7-100.4,33-158.6
	c25.5,84.2-125.9,78.4-125.9,186.8C184.9,305.5,228.8,349.4,282.9,349.4z"/>
<path d="M459.2,470.9c-2.1-8-7.3-14.7-14.5-18.9c-7.2-4.1-15.6-5.2-23.6-3.1c-0.1,0-0.1,0-0.2,0c-11.8,3.2-24.4,1.9-35-4.2
	L205.7,340.6c-10.5-6.1-18.1-16.1-21.1-27.9c-0.4-1.6-0.9-3.2-1.6-4.8c-1.9-4.5-4.9-8.4-8.6-11.5c-15.2-12.5-37.4-8-46.8,8.3
	c-2.6,4.4-3.9,9.4-4.1,14.5c6.7-1.7,13.3,0.6,13.3,0.6s-8-0.2-13.3,2.1c-5.3,2.7-9.8,6.9-12.8,12.1c-4.1,7.2-5.2,15.6-3.1,23.6
	c2.1,8,7.3,14.7,14.5,18.9c7.2,4.1,15.6,5.3,23.6,3.1c0.1,0,0.1,0,0.2,0c11.8-3.2,24.4-1.9,35,4.2L362,488.3
	c10.3,5.9,17.4,15.9,20.3,27.5c2,7.8,7,14.9,14.6,19.3c4.8,2.8,10.1,4.2,15.5,4.2c2.7,0,5.4-0.4,8.1-1.1c8-2.1,14.7-7.3,18.9-14.5
	c2.6-4.4,3.9-9.4,4.1-14.5c-6.7,1.7-13.3-0.6-13.3-0.6s8,0.2,13.3-2.1c5.3-2.7,9.8-6.9,12.8-12.1
	C460.3,487.2,461.4,478.9,459.2,470.9z"/>
<path d="M107.7,470.9c2.1-8,7.3-14.7,14.5-18.9c7.2-4.1,15.6-5.2,23.6-3.1c0.1,0,0.1,0,0.2,0c11.8,3.2,24.4,1.9,35-4.2l180.3-104.1
	c10.5-6.1,18.1-16.1,21.1-27.9c0.4-1.6,0.9-3.2,1.6-4.8c1.9-4.5,4.9-8.4,8.6-11.5c15.2-12.5,37.4-8,46.8,8.3
	c2.6,4.4,3.9,9.4,4.1,14.5c-6.7-1.7-13.3,0.6-13.3,0.6s8-0.2,13.3,2.1c5.3,2.7,9.8,6.9,12.8,12.1c4.1,7.2,5.2,15.6,3.1,23.6
	c-2.1,8-7.3,14.7-14.5,18.9c-7.2,4.1-15.6,5.3-23.6,3.1c-0.1,0-0.1,0-0.2,0c-11.8-3.2-24.4-1.9-35,4.2L204.9,488.3
	c-10.3,5.9-17.4,15.9-20.3,27.5c-2,7.8-7,14.9-14.6,19.3c-4.8,2.8-10.1,4.2-15.5,4.2c-2.7,0-5.4-0.4-8.1-1.1
	c-8-2.1-14.7-7.3-18.9-14.5c-2.6-4.4-3.9-9.4-4.1-14.5c6.7,1.7,13.3-0.6,13.3-0.6s-8,0.2-13.3-2.1c-5.3-2.7-9.8-6.9-12.8-12.1
	C106.6,487.2,105.5,478.9,107.7,470.9z"/>
</svg>
