<?xml version="1.0" encoding="utf-8"?>
<!-- Generator: Adobe Illustrator 26.3.1, SVG Export Plug-In . SVG Version: 6.00 Build 0)  -->
<svg version="1.1" id="Layer_1" xmlns="http://www.w3.org/2000/svg" xmlns:xlink="http://www.w3.org/1999/xlink" x="0px" y="0px"
	 viewBox="0 0 56.7 56.7" style="enable-background:new 0 0 56.7 56.7;" xml:space="preserve">
<g>
	<path d="M51.7,14.8H36.1L28.4,1.4l-7.7,13.4H5l23.3,40.4L51.7,14.8z M43.9,19.3l-2.6,4.5l-2.6-4.5H43.9z M38.7,28.3l-5.2,9H23.2
		l-5.2-9l5.2-9h10.3L38.7,28.3z M28.4,10.4l2.6,4.4h-5.1L28.4,10.4z M12.8,19.3H18l-2.6,4.5L12.8,19.3z M28.4,46.3l-2.6-4.4h5.1
		L28.4,46.3z"/>
	<g>
		<path d="M18.1,27.5c0-0.6-1.1-1.2-2.4-1.2c-1.3,0-2.4,0.5-2.4,1.2c0,0.4,0.3,0.7,0.9,0.9c-0.5,0.2-0.9,0.5-0.9,0.9
			c0,0.4,0.3,0.7,0.9,0.9c-0.5,0.2-0.9,0.5-0.9,0.9c0,0.4,0.3,0.7,0.9,0.9c-0.5,0.2-0.9,0.5-0.9,0.9s0.3,0.7,0.9,0.9
			c-0.5,0.2-0.9,0.5-0.9,0.9s0.3,0.7,0.9,0.9c-0.5,0.2-0.9,0.5-0.9,0.9c0,0.4,0.3,0.7,0.9,0.9c-0.5,0.2-0.9,0.5-0.9,0.9
			s0.3,0.7,0.9,0.9c-0.5,0.2-0.9,0.5-0.9,0.9c0,0.4,0.3,0.7,0.9,0.9c-0.5,0.2-0.9,0.5-0.9,0.9s0.3,0.7,0.9,0.9
			c-0.5,0.2-0.9,0.5-0.9,0.9c0,0.6,1.1,1.2,2.4,1.2c1.3,0,2.4-0.5,2.4-1.2c0-0.4-0.3-0.7-0.9-0.9c0.5-0.2,0.9-0.5,0.9-0.9
			s-0.3-0.7-0.9-0.9c0.5-0.2,0.9-0.5,0.9-0.9c0-0.4-0.3-0.7-0.9-0.9c0.5-0.2,0.9-0.5,0.9-0.9s-0.3-0.7-0.9-0.9
			c0.5-0.2,0.9-0.5,0.9-0.9c0-0.4-0.3-0.7-0.9-0.9c0.5-0.2,0.9-0.5,0.9-0.9s-0.3-0.7-0.9-0.9c0.5-0.2,0.9-0.5,0.9-0.9
			s-0.3-0.7-0.9-0.9c0.5-0.2,0.9-0.5,0.9-0.9c0-0.4-0.3-0.7-0.9-0.9c0.5-0.2,0.9-0.5,0.9-0.9c0-0.4-0.3-0.7-0.9-0.9
			C17.8,28.2,18.1,27.9,18.1,27.5z"/>
		<path d="M43.4,29.3c0-0.4-0.3-0.7-0.9-0.9c0.5-0.2,0.9-0.5,0.9-0.9c0-0.6-1.1-1.2-2.4-1.2c-1.3,0-2.4,0.5-2.4,1.2
			c0,0.4,0.3,0.7,0.9,0.9c-0.5,0.2-0.9,0.5-0.9,0.9c0,0.4,0.3,0.7,0.9,0.9c-0.5,0.2-0.9,0.5-0.9,0.9c0,0.4,0.3,0.7,0.9,0.9
			c-0.5,0.2-0.9,0.5-0.9,0.9s0.3,0.7,0.9,0.9c-0.5,0.2-0.9,0.5-0.9,0.9s0.3,0.7,0.9,0.9c-0.5,0.2-0.9,0.5-0.9,0.9
			c0,0.4,0.3,0.7,0.9,0.9c-0.5,0.2-0.9,0.5-0.9,0.9s0.3,0.7,0.9,0.9c-0.5,0.2-0.9,0.5-0.9,0.9c0,0.4,0.3,0.7,0.9,0.9
			c-0.5,0.2-0.9,0.5-0.9,0.9s0.3,0.7,0.9,0.9c-0.5,0.2-0.9,0.5-0.9,0.9c0,0.6,1.1,1.2,2.4,1.2c1.3,0,2.4-0.5,2.4-1.2
			c0-0.4-0.3-0.7-0.9-0.9c0.5-0.2,0.9-0.5,0.9-0.9s-0.3-0.7-0.9-0.9c0.5-0.2,0.9-0.5,0.9-0.9c0-0.4-0.3-0.7-0.9-0.9
			c0.5-0.2,0.9-0.5,0.9-0.9s-0.3-0.7-0.9-0.9c0.5-0.2,0.9-0.5,0.9-0.9c0-0.4-0.3-0.7-0.9-0.9c0.5-0.2,0.9-0.5,0.9-0.9
			s-0.3-0.7-0.9-0.9c0.5-0.2,0.9-0.5,0.9-0.9s-0.3-0.7-0.9-0.9c0.5-0.2,0.9-0.5,0.9-0.9c0-0.4-0.3-0.7-0.9-0.9
			C43.1,30,43.4,29.7,43.4,29.3z"/>
	</g>
</g>
</svg>
