<svg xmlns="http://www.w3.org/2000/svg" viewBox="0 0 56.7 56.7" style="enable-background:new 0 0 56.7 56.7" xml:space="preserve"><path d="M51.7 14.8H36.1L28.4 1.4l-7.7 13.4H5l23.3 40.4 23.4-40.4zm-7.8 4.5-2.6 4.5-2.6-4.5h5.2zm-5.2 9-5.2 9H23.2l-5.2-9 5.2-9h10.3l5.2 9zM28.4 10.4l2.6 4.4h-5.1l2.5-4.4zm-15.6 8.9H18l-2.6 4.5-2.6-4.5zm15.6 27-2.6-4.4h5.1l-2.5 4.4z"/><path d="M18.1 27.5c0-.6-1.1-1.2-2.4-1.2-1.3 0-2.4.5-2.4 1.2 0 .4.3.7.9.9-.5.2-.9.5-.9.9s.3.7.9.9c-.5.2-.9.5-.9.9s.3.7.9.9c-.5.2-.9.5-.9.9s.3.7.9.9c-.5.2-.9.5-.9.9s.3.7.9.9c-.5.2-.9.5-.9.9s.3.7.9.9c-.5.2-.9.5-.9.9s.3.7.9.9c-.5.2-.9.5-.9.9s.3.7.9.9c-.5.2-.9.5-.9.9s.3.7.9.9c-.5.2-.9.5-.9.9 0 .6 1.1 1.2 2.4 1.2 1.3 0 2.4-.5 2.4-1.2 0-.4-.3-.7-.9-.9.5-.2.9-.5.9-.9s-.3-.7-.9-.9c.5-.2.9-.5.9-.9s-.3-.7-.9-.9c.5-.2.9-.5.9-.9s-.3-.7-.9-.9c.5-.2.9-.5.9-.9s-.3-.7-.9-.9c.5-.2.9-.5.9-.9s-.3-.7-.9-.9c.5-.2.9-.5.9-.9s-.3-.7-.9-.9c.5-.2.9-.5.9-.9s-.3-.7-.9-.9c.5-.2.9-.5.9-.9s-.3-.7-.9-.9c.6-.2.9-.5.9-.9zm25.3 1.8c0-.4-.3-.7-.9-.9.5-.2.9-.5.9-.9 0-.6-1.1-1.2-2.4-1.2-1.3 0-2.4.5-2.4 1.2 0 .4.3.7.9.9-.5.2-.9.5-.9.9s.3.7.9.9c-.5.2-.9.5-.9.9s.3.7.9.9c-.5.2-.9.5-.9.9s.3.7.9.9c-.5.2-.9.5-.9.9s.3.7.9.9c-.5.2-.9.5-.9.9s.3.7.9.9c-.5.2-.9.5-.9.9s.3.7.9.9c-.5.2-.9.5-.9.9s.3.7.9.9c-.5.2-.9.5-.9.9s.3.7.9.9c-.5.2-.9.5-.9.9 0 .6 1.1 1.2 2.4 1.2 1.3 0 2.4-.5 2.4-1.2 0-.4-.3-.7-.9-.9.5-.2.9-.5.9-.9s-.3-.7-.9-.9c.5-.2.9-.5.9-.9s-.3-.7-.9-.9c.5-.2.9-.5.9-.9s-.3-.7-.9-.9c.5-.2.9-.5.9-.9s-.3-.7-.9-.9c.5-.2.9-.5.9-.9s-.3-.7-.9-.9c.5-.2.9-.5.9-.9s-.3-.7-.9-.9c.5-.2.9-.5.9-.9s-.3-.7-.9-.9c.6-.2.9-.5.9-.9z"/></svg>