<?xml version="1.0" encoding="utf-8"?>
<!-- Generator: Adobe Illustrator 26.3.1, SVG Export Plug-In . SVG Version: 6.00 Build 0)  -->
<svg version="1.1" id="Layer_1" xmlns="http://www.w3.org/2000/svg" xmlns:xlink="http://www.w3.org/1999/xlink" x="0px" y="0px"
	 viewBox="0 0 566.9 566.9" style="enable-background:new 0 0 566.9 566.9;" xml:space="preserve">
<path id="XMLID_14_" d="M193.4,487.4l20.7,66.8h-13.8L187.8,514l-12.5,40.1h-13.8l20.7-66.8H193.4z M163.7,311.1h-25.4v139.5h25.4
	V311.1z M79.1,522.7l17.7,31.4H81.6l-19.5-34.7v34.7H48.9v-66.8v0l23.4,0c9.2,0,16.6,7.4,16.6,16.6v3.6
	C88.8,514.4,84.8,520.1,79.1,522.7z M75.6,504.3c0-2-1.7-3.7-3.7-3.7h-9.8V511h9.8c2,0,3.7-1.7,3.7-3.7V504.3z M227.8,450.6h25.4
	V311.1h-25.4V450.6z M374.7,131.6c-7,0-12.7,5.7-12.7,12.7c0,7,5.7,12.7,12.7,12.7c7,0,12.7-5.7,12.7-12.7
	C387.4,137.3,381.8,131.6,374.7,131.6z M478,284.4V108.9c0-25.9-10.1-50.2-28.4-68.5c-22.4-22.4-56.2-31.6-88.2-24l-29.7,5.8
	l-39-8.3c-18.6-4-37.7,3-48.4,17.7c-6,8.2-9.2,18-9.2,28.2v20.5C131.3,86.8,48.9,173.3,48.9,278.7v6.9v164.9h25.4V285.7h-0.4
	l160.7-110.5l172.2,110.5l0,164.9h25.4V271.8L234.1,144.7l-158,108.6c12.3-83.7,84.6-148.1,171.6-148.1h12.7V59.7
	c0-4.8,1.5-9.3,4.3-13.2c4.9-6.7,13.8-9.7,22.7-7.9l44.1,9.4l35.6-6.9c23.5-5.7,48.3,0.9,64.6,17.2c13.5,13.5,20.9,31.5,20.9,50.6
	v175.5c0,36.1,29.4,65.5,65.5,65.5v-25.4C496,324.5,478,306.5,478,284.4z M432.2,487.4h-33.8v13.2h18.4l-18.2,41.5l-0.2,12h33.8
	v-13.3h-18.5l18.3-41.7L432.2,487.4z M304.9,512.3L304.9,512.3c-3.3-0.9-7.3-2.6-7.3-5.9c0-3.1,2.6-5.7,5.7-5.7
	c1.4,0,2.8,0.5,3.9,1.5c0.6,0.5,1,1.2,1.3,1.8l0.9,2l12.1-5.4l-0.9-2c-1-2.3-2.5-4.4-4.5-6.2c-3.5-3.2-8-5-12.8-5
	c-10.4,0-18.9,8.5-18.9,18.9c0,9.1,6.3,15.9,17.3,18.7c9.5,2.4,9.5,6.4,9.5,8.1c0,4.3-3.5,7.9-7.9,7.9c-3.2,0-6.2-1.8-7.2-4.7
	c-0.8-2.2-1.1-4.5-1.1-4.5l-12.6,3.5c0,0,0.4,3,1.7,6.4c2.7,7.1,10.7,12.6,19.3,12.6c11.6,0,21.1-9.4,21.1-21.1
	C324.3,527.2,321.8,516.6,304.9,512.3z M323.8,376.2l-28.2,74.4h27.2l26.5-69.8v-69.8h-25.4V376.2z"/>
</svg>
