<svg xmlns="http://www.w3.org/2000/svg" viewBox="0 0 566.9 566.9" style="enable-background:new 0 0 566.9 566.9" xml:space="preserve"><path d="m193.4 487.4 20.7 66.8h-13.8L187.8 514l-12.5 40.1h-13.8l20.7-66.8h11.2zm-29.7-176.3h-25.4v139.5h25.4V311.1zM79.1 522.7l17.7 31.4H81.6l-19.5-34.7v34.7H48.9v-66.8h23.4c9.2 0 16.6 7.4 16.6 16.6v3.6c-.1 6.9-4.1 12.6-9.8 15.2zm-3.5-18.4c0-2-1.7-3.7-3.7-3.7h-9.8V511h9.8c2 0 3.7-1.7 3.7-3.7v-3zm152.2-53.7h25.4V311.1h-25.4v139.5zm146.9-319c-7 0-12.7 5.7-12.7 12.7 0 7 5.7 12.7 12.7 12.7 7 0 12.7-5.7 12.7-12.7 0-7-5.6-12.7-12.7-12.7zM478 284.4V108.9c0-25.9-10.1-50.2-28.4-68.5-22.4-22.4-56.2-31.6-88.2-24l-29.7 5.8-39-8.3c-18.6-4-37.7 3-48.4 17.7-6 8.2-9.2 18-9.2 28.2v20.5c-103.8 6.5-186.2 93-186.2 198.4v171.8h25.4V285.7h-.4l160.7-110.5 172.2 110.5v164.9h25.4V271.8L234.1 144.7l-158 108.6c12.3-83.7 84.6-148.1 171.6-148.1h12.7V59.7c0-4.8 1.5-9.3 4.3-13.2 4.9-6.7 13.8-9.7 22.7-7.9l44.1 9.4 35.6-6.9c23.5-5.7 48.3.9 64.6 17.2 13.5 13.5 20.9 31.5 20.9 50.6v175.5c0 36.1 29.4 65.5 65.5 65.5v-25.4c-22.1 0-40.1-18-40.1-40.1zm-45.8 203h-33.8v13.2h18.4l-18.2 41.5-.2 12h33.8v-13.3h-18.5l18.3-41.7.2-11.7zm-127.3 24.9c-3.3-.9-7.3-2.6-7.3-5.9 0-3.1 2.6-5.7 5.7-5.7 1.4 0 2.8.5 3.9 1.5.6.5 1 1.2 1.3 1.8l.9 2 12.1-5.4-.9-2c-1-2.3-2.5-4.4-4.5-6.2-3.5-3.2-8-5-12.8-5-10.4 0-18.9 8.5-18.9 18.9 0 9.1 6.3 15.9 17.3 18.7 9.5 2.4 9.5 6.4 9.5 8.1 0 4.3-3.5 7.9-7.9 7.9-3.2 0-6.2-1.8-7.2-4.7-.8-2.2-1.1-4.5-1.1-4.5l-12.6 3.5s.4 3 1.7 6.4c2.7 7.1 10.7 12.6 19.3 12.6 11.6 0 21.1-9.4 21.1-21.1-.2-6-2.7-16.6-19.6-20.9zm18.9-136.1-28.2 74.4h27.2l26.5-69.8V311h-25.4v65.2z"/></svg>