<?xml version="1.0" encoding="utf-8"?>
<!-- Generator: Adobe Illustrator 27.2.0, SVG Export Plug-In . SVG Version: 6.00 Build 0)  -->
<svg version="1.1" id="Layer_1" xmlns="http://www.w3.org/2000/svg" xmlns:xlink="http://www.w3.org/1999/xlink" x="0px" y="0px"
	 viewBox="0 0 566.9 566.9" style="enable-background:new 0 0 566.9 566.9;" xml:space="preserve">
<g id="Layer_1_00000138559752657119097710000005982099636254405285_">
</g>
<g id="Layer_2_00000070823643641811979330000005301501890636239282_">
	<path d="M550.8,322.5l-38-87.3c4.6-31.6,1.5-61.9-9.4-89.1c-9.1-22.5-23.3-42.1-41.6-57.7c2.7-1.7,4.6-4.6,5.1-8l1.2-9
		c0.8-6.2-3.5-11.9-9.7-12.7l-43.8-5.9l-38.8-22.9c-5.4-3.2-12.3-1.4-15.5,4l-4.6,7.9c-1.3,2.3-1.8,4.8-1.4,7.3
		c-20.2-0.1-39.6,3.8-57.7,11.8c-26.7,11.8-49.7,32.3-68,60.3l-108.3,62.1c-5.8,3.3-4.2,12.1,2.4,13.1l66.9,10.4
		c-39.4,34.3-64.3,84.7-64.3,140.9c0,29.1,6.7,56.7,18.7,81.3c-15.8,25.1-27.2,48.6-39.1,59.4c-5.5,5-13.3,0.2-13.3-8V462
		c0-7.4-5.1-13.5-11.3-13.5H26.9c-6.2,0-11.3,6.1-11.3,13.5v32.6c0,24.2,5.1,44,36.7,44c35.9,0,56.6-3.1,80.4-42.6
		c31.2-51.8,67.4-144.1,146.6-152.5c-23-0.1-42.6,4.4-59.3,12.1l-63.7,8.9c-0.6-5.5-0.9-11-0.9-16.7c0-15.4,2.2-30.2,6.4-44.3
		l121,39.9c3.8-0.3,7.7-0.4,11.7-0.4c-3,0.3-5.9,0.8-8.8,1.3l4.4,1.4l-19.9,2.8c-10.9,3.9-20.8,9.5-30,16.3l51.4-8.6l-109.4,78.4
		c-5.9,9.8-11.3,19.7-16.5,29.1c34.2,43.1,87.1,70.8,146.3,70.8c103,0,186.8-83.8,186.8-186.8c0-14-1.6-27.7-4.5-40.9l48.1,23.6
		C547.6,332.9,553,327.7,550.8,322.5z M191.8,372.9c-10.4,8.2-19.4,17.6-27.4,27.4c-2.5-7.1-4.6-14.4-6.1-21.9L191.8,372.9z
		 M447.6,284l-117.7,50.7l65.3-76.4L447.6,284z M363.7,242.9l19.2,9.4l-61.2,75.6l21.2-93.1L363.7,242.9z M166.4,290.1
		c7.7-19.3,19-36.7,33.2-51.3l93.9,97L166.4,290.1z M209.9,229.1c6.7-5.8,14-11.1,21.6-15.7l37.6,5.9l32.1,109.3L209.9,229.1z
		 M190.3,446.3l107.6-81.5l-60.6,120.7C219.2,475.6,203.2,462.2,190.3,446.3z M250,491.7l57.4-122.3l2.4,135.1
		C288.6,504.2,268.4,499.6,250,491.7z M311.4,325.7l-27.6-104.2l41.8,6.5l5,1.9L311.4,325.7z M324,504l-6-135l64.9,118.5
		C365,496.7,345,502.4,324,504z M395.2,480.5l-68-116.7l112.5,74.7C427.8,455.3,412.6,469.6,395.2,480.5z M447.4,426.7L333,355
		l134.4,13.9C464.5,389.7,457.6,409.3,447.4,426.7z M468.6,354.8l-134.7-10.3l125.4-50.1c6.1,16.7,9.4,34.7,9.4,53.5
		C468.8,350.1,468.7,352.4,468.6,354.8z"/>
</g>
</svg>
