<svg xmlns="http://www.w3.org/2000/svg" viewBox="0 0 56.7 56.7" style="enable-background:new 0 0 56.7 56.7" xml:space="preserve"><path d="M41.8 49.7c0-1.4.5-2.7 1.5-3.7l.2-.2v-.1c.1-.2.1-.3.1-.5V19.3c.2-.6-.3-1.1-1-1.1H18.5c-3.1 0-5.6 2.5-5.6 5.6v25.9c0 3.1 2.5 5.6 5.6 5.6h24.1c.5 0 .9-.3 1-.7.2-.4.1-.9-.3-1.2-1-1-1.5-2.3-1.5-3.7zm-18.1-23c0-2.6 2.1-4.7 4.7-4.7h2.2c2.6 0 4.7 2.1 4.7 4.7V29c0 2.6-2.1 4.7-4.7 4.7-.7 0-1.2.5-1.2 1.2v1.7h-3.5v-1.7c0-2.6 2.1-4.7 4.7-4.7.7 0 1.2-.5 1.2-1.2v-2.3c0-.5-.5-1.2-1.2-1.2h-2.2c-.7 0-1.2.5-1.2 1.2v2.8h-3.5v-2.8zm5.7 11.8V42h-3.5v-3.5h3.5zm11 14.5H18.5c-1.8 0-3.3-1.5-3.3-3.3s1.5-3.3 3.3-3.3h21.9c-.5 1-.8 2.2-.8 3.3 0 1.2.3 2.3.8 3.3z"/><path d="M30.1 1.4h-3.6c-12.2 0-22.1 9.9-22.1 22.1V42c0 1.2 1 2.2 2.2 2.2h4c.3 0 .6-.3.6-.6v-15c0-1.2-1-2.2-2.2-2.2H6.7v-2.9C6.7 12.6 15.6 6 26.5 6h3.6c11 .1 19.9 6.6 19.9 17.5v2.9h-2.3c-1.2 0-2.2 1-2.2 2.2v15c0 .3.3.6.6.6h4c1.2 0 2.2-1 2.2-2.2V23.4c-.1-12.1-10-22-22.2-22z"/></svg>