<?xml version="1.0" encoding="utf-8"?>
<!-- Generator: Adobe Illustrator 26.3.1, SVG Export Plug-In . SVG Version: 6.00 Build 0)  -->
<svg version="1.1" id="Layer_1" xmlns="http://www.w3.org/2000/svg" xmlns:xlink="http://www.w3.org/1999/xlink" x="0px" y="0px"
	 viewBox="0 0 56.7 56.7" style="enable-background:new 0 0 56.7 56.7;" xml:space="preserve">
<g>
	<path d="M41.8,49.7c0-1.4,0.5-2.7,1.5-3.7c0.1-0.1,0.1-0.1,0.2-0.2c0,0,0,0,0-0.1c0.1-0.2,0.1-0.3,0.1-0.5V19.3
		c0.2-0.6-0.3-1.1-1-1.1H18.5c-3.1,0-5.6,2.5-5.6,5.6v25.9c0,3.1,2.5,5.6,5.6,5.6h24.1c0.5,0,0.9-0.3,1-0.7c0.2-0.4,0.1-0.9-0.3-1.2
		C42.3,52.4,41.8,51.1,41.8,49.7z M23.7,26.7c0-2.6,2.1-4.7,4.7-4.7h2.2c2.6,0,4.7,2.1,4.7,4.7V29c0,2.6-2.1,4.7-4.7,4.7
		c-0.7,0-1.2,0.5-1.2,1.2v1.7h-3.5v-1.7c0-2.6,2.1-4.7,4.7-4.7c0.7,0,1.2-0.5,1.2-1.2v-2.3c0-0.5-0.5-1.2-1.2-1.2h-2.2
		c-0.7,0-1.2,0.5-1.2,1.2v2.8h-3.5V26.7z M29.4,38.5V42h-3.5v-3.5H29.4z M40.4,53H18.5c-1.8,0-3.3-1.5-3.3-3.3s1.5-3.3,3.3-3.3h21.9
		c-0.5,1-0.8,2.2-0.8,3.3C39.6,50.9,39.9,52,40.4,53z"/>
	<path d="M30.1,1.4h-3.6c-12.2,0-22.1,9.9-22.1,22.1v5.2v6.6V42c0,1.2,1,2.2,2.2,2.2h4c0.3,0,0.6-0.3,0.6-0.6v-15
		c0-1.2-1-2.2-2.2-2.2H6.7v-2.9C6.7,12.6,15.6,6,26.5,6h3.6C41.1,6.1,50,12.6,50,23.5v2.9h-2.3c-1.2,0-2.2,1-2.2,2.2v15
		c0,0.3,0.3,0.6,0.6,0.6h4c1.2,0,2.2-1,2.2-2.2v-6.8v-6.6v-5.2C52.2,11.3,42.3,1.4,30.1,1.4z"/>
</g>
</svg>
