<?xml version="1.0" encoding="utf-8"?>
<!-- Generator: Adobe Illustrator 26.3.1, SVG Export Plug-In . SVG Version: 6.00 Build 0)  -->
<svg version="1.1" id="Layer_1" xmlns="http://www.w3.org/2000/svg" xmlns:xlink="http://www.w3.org/1999/xlink" x="0px" y="0px"
	 viewBox="0 0 56.7 56.7" style="enable-background:new 0 0 56.7 56.7;" xml:space="preserve">
<path d="M28.3,1.4C13.5,1.4,1.4,13.5,1.4,28.3s12.1,26.9,26.9,26.9s26.9-12.1,26.9-26.9S43.2,1.4,28.3,1.4z M41.4,27
	c-2.9,6.3-10,14.8-14.5,14.8c-4.4,0-5-9.4-7.5-15.7c-1.2-3.1-1.9-2.4-4.2-0.8l-1.4-1.7c3.2-2.8,6.5-6.2,8.5-6.3
	c2.2-0.2,3.6,1.3,4.1,4.6c0.7,4.3,1.6,11,3.3,11c1.3,0,4.5-5.3,4.7-7.2c0.3-2.8-2-2.9-4.1-2C33.6,13.2,47,15.1,41.4,27z"/>
</svg>
