<?xml version="1.0" encoding="utf-8"?>
<!-- Generator: Adobe Illustrator 28.0.0, SVG Export Plug-In . SVG Version: 6.00 Build 0)  -->
<svg version="1.1" xmlns="http://www.w3.org/2000/svg" xmlns:xlink="http://www.w3.org/1999/xlink" x="0px" y="0px"
	 viewBox="0 0 566.9 566.9" style="enable-background:new 0 0 566.9 566.9;" xml:space="preserve">
<style type="text/css">
	.st0{fill-rule:evenodd;clip-rule:evenodd;}
</style>
<g id="Layer_1">
</g>
<g id="Layer_2">
	<g>
		<path d="M190,489.5v-19.6c0-7.9-5.4-14.3-11.9-14.3h-56.5c-6.6,0-11.9,6.4-11.9,14.3v34.5c0,25.6,5.4,46.5,38.9,46.5
			c38,0,59.9-3.3,85.1-45.1c33-54.8-14.9-152.5,68.9-161.4c-121.9-0.8-65.3,123.4-98.4,153.4C198.3,503.2,190,498.2,190,489.5z"/>
		<g>
			<path class="st0" d="M430,69.4c-33.2-30.8-87.1-55.6-137-48C230.7,30.8,140.9,160,140.9,160C182.5,92.8,222.1,41.7,270,16
				C105.4,37.5,21.4,161.2,135.7,306.4c0,0-12.6-17.1,55.1-99.9C258.6,123.7,306.4,34.6,430,69.4z"/>
			<path class="st0" d="M472.9,225c27.7-78.7,4.6-147.6-88.3-149.7c23.8,18.2,51,48.7,63.7,72c-16.8-23.8-47.6-54.4-74.7-72.7
				c-43.4-1.6-63.3,15.6-93.9,45.2l8.9,3.4c5.4,2,13.3,7.7,17.3,12.3l105.7,119.4c12.6,12.6,9.2,35.4,9.2,54.7
				c22.3-23.5,35.9-39.2,47.7-70.8c-29.7-43.4-64.7-84-102.5-119.7C405.3,152.4,438.1,185.1,472.9,225z"/>
			<circle class="st0" cx="279.7" cy="169.3" r="16.4"/>
		</g>
	</g>
</g>
</svg>
